<svg width="976" height="801" viewBox="0 0 976 801" fill="none" xmlns="http://www.w3.org/2000/svg">
<path fill-rule="evenodd" clip-rule="evenodd" d="M59.4116 0.604706L58.4077 416.48L57.4062 416.48L58.4101 0.604706L59.4116 0.604706Z" fill="#E9E8EF"/>
<path fill-rule="evenodd" clip-rule="evenodd" d="M287.675 0.605896L286.673 800.572L285.672 800.572L286.674 0.605896L287.675 0.605896Z" fill="#E9E8EF"/>
<path fill-rule="evenodd" clip-rule="evenodd" d="M515.941 0.605896L514.939 800.572L513.938 800.572L514.939 0.605896L515.941 0.605896Z" fill="#E9E8EF"/>
<path fill-rule="evenodd" clip-rule="evenodd" d="M744.207 0.605896L743.205 800.572L742.203 800.572L743.205 0.605896L744.207 0.605896Z" fill="#E9E8EF"/>
<path fill-rule="evenodd" clip-rule="evenodd" d="M975.027 628.627L267.859 627.449L267.859 626.271L975.027 627.45L975.027 628.627Z" fill="#E9E8EF"/>
<path fill-rule="evenodd" clip-rule="evenodd" d="M973.403 401.272L0.726563 400.093L0.726563 398.916L973.403 400.095L973.403 401.272Z" fill="#E9E8EF"/>
<path fill-rule="evenodd" clip-rule="evenodd" d="M972.448 173.917L0.726563 172.738L0.726563 171.561L972.448 172.739L972.448 173.917Z" fill="#E9E8EF"/>
</svg>
