<svg xmlns="http://www.w3.org/2000/svg" width="120" height="23" viewBox="0 0 120 23" fill="none">
  <path d="M5.57472 12.1181C5.09841 12.7342 4.33735 13.0448 3.28636 13.0448C2.23538 13.0448 1.5002 12.7601 1.08085 12.1958C0.661487 11.6366 0.449219 10.7357 0.449219 9.51391V8.69074H2.36999V9.56052C2.36999 10.2543 2.43211 10.7306 2.54084 10.9998C2.65474 11.269 2.90324 11.3984 3.29671 11.3984C3.69019 11.3984 3.94387 11.2379 4.0733 10.9118C4.20273 10.5908 4.27004 10.0265 4.27004 9.21883C4.27004 8.41118 4.18721 7.83131 4.01636 7.48961C3.84551 7.14791 3.51934 6.97707 3.0275 6.97707H2.44247V5.51708H3.00679C3.48827 5.51708 3.81444 5.36693 3.99565 5.06148C4.17685 4.76119 4.26487 4.26418 4.26487 3.5756C4.26487 2.88703 4.19239 2.42107 4.03707 2.17774C3.88693 1.93958 3.64878 1.8205 3.32261 1.8205C2.99644 1.8205 2.76864 1.94478 2.63921 2.19847C2.50977 2.44697 2.44247 2.88184 2.44247 3.50311V3.88623H0.459583V3.49278C0.459583 2.34343 0.677018 1.50469 1.11191 0.976608C1.5468 0.44335 2.27163 0.179321 3.29155 0.179321C4.31147 0.179321 5.05699 0.458907 5.53848 1.00252C6.01996 1.55131 6.25811 2.38482 6.25811 3.49793C6.25811 4.19169 6.14422 4.77156 5.91124 5.23752C5.68344 5.70865 5.33656 6.01929 4.87061 6.17978C5.38315 6.4024 5.74557 6.78033 5.95783 7.29806C6.1701 7.81578 6.27882 8.48884 6.27882 9.31202C6.27882 10.5701 6.04066 11.5072 5.56436 12.1285L5.57472 12.1181Z" fill="white"/>
  <path d="M8.13672 12.9002V11.1399H9.86076V12.9002H8.13672Z" fill="white"/>
  <path d="M12.2109 12.9002V11.1399H13.935V12.9002H12.2109Z" fill="white"/>
  <path d="M16.2852 12.9002V11.1399H18.0092V12.9002H16.2852Z" fill="white"/>
  <path d="M20.4445 12.9V12.1545C20.4445 11.497 20.5636 10.8498 20.7914 10.213C21.0243 9.57623 21.3867 8.85659 21.8838 8.04376C21.9045 8.0127 22.0908 7.71758 22.4429 7.15326C22.795 6.58376 23.0538 6.19548 23.2143 5.97804C23.613 5.36712 23.8149 4.52322 23.8149 3.44117C23.8149 2.35912 23.5715 1.82068 23.0797 1.82068C22.6707 1.82068 22.417 2.12096 22.3238 2.7267C22.2824 2.98039 22.2617 3.30655 22.2617 3.68967V5.28427H20.3047V4.51287C20.3047 2.95451 20.46 1.90354 20.7758 1.35475C21.0865 0.805958 21.5214 0.459066 22.0753 0.303748C22.3808 0.215735 22.7484 0.174316 23.1832 0.174316C23.6181 0.174316 24.0064 0.262345 24.3533 0.448726C24.6898 0.629931 24.9591 0.883596 25.1661 1.20459C25.5648 1.83621 25.7615 2.66459 25.7615 3.67933C25.7615 4.69408 25.5493 5.58973 25.1247 6.35597C24.7002 7.1222 24.2808 7.80561 23.8666 8.40618C23.1108 9.4934 22.6189 10.4978 22.3963 11.3986H25.5027V12.9H20.4393H20.4445Z" fill="white"/>
  <path d="M27.6406 12.9002V11.1399H29.3646V12.9002H27.6406Z" fill="white"/>
  <path d="M31.7148 12.9002V11.1399H33.4389V12.9002H31.7148Z" fill="white"/>
  <path d="M35.7891 12.9002V11.1399H37.5131V12.9002H35.7891Z" fill="white"/>
  <path d="M40.6983 12.8999V2.69037C40.5223 2.8871 40.279 3.03724 39.9632 3.14079C39.6473 3.24951 39.3367 3.30128 39.0312 3.30128V1.87753C39.4661 1.82058 39.8751 1.66011 40.2686 1.38572C40.6621 1.1165 40.9572 0.754082 41.1591 0.308838H42.7537V12.8948H40.7035L40.6983 12.8999Z" fill="white"/>
  <path d="M45.043 12.9002V11.1399H46.767V12.9002H45.043Z" fill="white"/>
  <path d="M49.1172 12.9002V11.1399H50.8412V12.9002H49.1172Z" fill="white"/>
  <path d="M53.1914 12.9002V11.1399H54.9154V12.9002H53.1914Z" fill="white"/>
  <path d="M62.2803 12.1441C61.7988 12.7447 61.0222 13.045 59.9557 13.045C58.8891 13.045 58.1126 12.7447 57.6311 12.1441C57.1496 11.5436 56.9062 10.6634 56.9062 9.49856V3.48777C56.9062 2.38501 57.1496 1.55147 57.6362 0.997504C58.1229 0.443537 58.8995 0.16394 59.9557 0.16394C61.0118 0.16394 61.7832 0.443537 62.2751 0.997504C62.7617 1.55147 63.005 2.38501 63.005 3.48777V9.49856C63.005 10.6634 62.7617 11.5436 62.2803 12.1441ZM59.9401 11.3934C60.2611 11.3934 60.5148 11.2743 60.6908 11.0362C60.8669 10.8032 60.9549 10.301 60.9549 9.5348V3.41009C60.9549 2.47819 60.7167 1.95527 60.2611 1.84655C60.1679 1.82584 60.023 1.82067 59.8211 1.82067C59.6191 1.82067 59.4224 1.91388 59.236 2.10026C59.0496 2.28664 58.9565 2.72151 58.9565 3.40491V9.53999C58.9565 10.3218 59.0393 10.8239 59.205 11.0517C59.3706 11.2847 59.614 11.3986 59.9401 11.3986V11.3934Z" fill="white"/>
  <path d="M64.9922 12.9002V11.1399H66.7162V12.9002H64.9922Z" fill="white"/>
  <path d="M69.0664 12.9002V11.1399H70.7904V12.9002H69.0664Z" fill="white"/>
  <path d="M73.1445 12.9002V11.1399H74.8686V12.9002H73.1445Z" fill="white"/>
  <path d="M78.0512 12.8999V2.69037C77.8803 2.8871 77.6318 3.03724 77.316 3.14079C77.0002 3.24951 76.6895 3.30128 76.3789 3.30128V1.87753C76.8138 1.82058 77.228 1.66011 77.6163 1.38572C78.0098 1.1165 78.3048 0.754082 78.5068 0.308838H80.0962V12.8948H78.046L78.0512 12.8999Z" fill="white"/>
  <path d="M82.3906 12.9002V11.1399H84.1147V12.9002H82.3906Z" fill="white"/>
  <path d="M86.4648 12.9002V11.1399H88.1889V12.9002H86.4648Z" fill="white"/>
  <path d="M90.5391 12.9002V11.1399H92.2631V12.9002H90.5391Z" fill="white"/>
  <path d="M94.6945 12.9V12.1545C94.6945 11.497 94.8136 10.8498 95.0414 10.213C95.2743 9.57623 95.6368 8.85659 96.1338 8.04376C96.1545 8.0127 96.3408 7.71758 96.6929 7.15326C97.045 6.58376 97.3038 6.19548 97.4643 5.97804C97.863 5.36712 98.0649 4.52322 98.0649 3.44117C98.0649 2.35912 97.8216 1.82068 97.3297 1.82068C96.9207 1.82068 96.667 2.12096 96.5738 2.7267C96.5324 2.98039 96.5117 3.30655 96.5117 3.68967V5.28427H94.5547V4.51287C94.5547 2.95451 94.71 1.90354 95.0207 1.35475C95.3365 0.805958 95.7662 0.459066 96.3202 0.303748C96.6256 0.215735 96.9932 0.174316 97.4281 0.174316C97.863 0.174316 98.2513 0.262345 98.5981 0.448726C98.9347 0.629931 99.209 0.883596 99.411 1.20459C99.8096 1.83621 100.012 2.66459 100.012 3.67933C100.012 4.69408 99.7993 5.58973 99.3747 6.35597C98.9502 7.1222 98.5308 7.80561 98.1218 8.40618C97.3659 9.4934 96.8741 10.4978 96.6515 11.3986H99.7579V12.9H94.6945Z" fill="white"/>
  <path d="M101.898 12.9002V11.1399H103.622V12.9002H101.898Z" fill="white"/>
  <path d="M105.969 12.9002V11.1399H107.693V12.9002H105.969Z" fill="white"/>
  <path d="M110.043 12.9002V11.1399H111.767V12.9002H110.043Z" fill="white"/>
  <path d="M118.899 12.1181C118.423 12.7342 117.662 13.0448 116.611 13.0448C115.56 13.0448 114.824 12.7601 114.405 12.1958C113.986 11.6366 113.773 10.7357 113.773 9.51391V8.69074H115.694V9.56052C115.694 10.2543 115.751 10.7306 115.865 10.9998C115.979 11.269 116.227 11.3984 116.621 11.3984C117.014 11.3984 117.268 11.2379 117.398 10.9118C117.527 10.5908 117.594 10.0265 117.594 9.21883C117.594 8.41118 117.511 7.83131 117.341 7.48961C117.175 7.14791 116.844 6.97707 116.352 6.97707H115.772V5.51708H116.336C116.812 5.51708 117.144 5.36693 117.325 5.06148C117.501 4.76119 117.594 4.26418 117.594 3.5756C117.594 2.88703 117.517 2.42107 117.366 2.17774C117.216 1.93958 116.978 1.8205 116.652 1.8205C116.326 1.8205 116.098 1.94478 115.963 2.19847C115.834 2.44697 115.767 2.88184 115.767 3.50311V3.88623H113.784V3.49278C113.784 2.34343 114.001 1.50469 114.436 0.976608C114.871 0.44335 115.596 0.179321 116.616 0.179321C117.636 0.179321 118.381 0.458907 118.863 1.00252C119.344 1.55131 119.582 2.38482 119.582 3.49793C119.582 4.19169 119.468 4.77156 119.235 5.23752C119.002 5.70865 118.656 6.01929 118.195 6.17978C118.707 6.4024 119.065 6.78033 119.282 7.29806C119.494 7.81578 119.603 8.48884 119.603 9.31202C119.603 10.5701 119.365 11.5072 118.889 12.1285L118.899 12.1181Z" fill="white"/>
  <path d="M61.1475 17.8026H58.8281V22.7003H61.1475V17.8026Z" fill="white"/>
</svg>