<svg width="12" height="13" viewBox="0 0 12 13" fill="none" xmlns="http://www.w3.org/2000/svg">
<path d="M9.28545 0.974121C9.83374 0.974121 10.3026 1.18424 10.6919 1.60447C11.0812 2.02471 11.2759 2.53073 11.2759 3.12255L11.2759 10.284C11.2759 10.8758 11.0812 11.3818 10.6919 11.802C10.3026 12.2223 9.83374 12.4324 9.28545 12.4324H7.98612L7.98612 7.9938L9.36147 7.9938L9.56881 6.26312L7.98612 6.26312V5.15907C7.98612 4.88057 8.04026 4.6717 8.14854 4.53245C8.25682 4.3932 8.46761 4.32357 8.78092 4.32357L9.6241 4.31611V2.77193C9.33383 2.72718 8.92375 2.7048 8.39389 2.7048C7.76727 2.7048 7.2662 2.90372 6.89068 3.30158C6.51517 3.69944 6.32741 4.26141 6.32741 4.9875V6.26312H4.94516V7.9938H6.32741L6.32741 12.4324L2.65061 12.4324C2.10231 12.4324 1.6335 12.2223 1.24416 11.802C0.854824 11.3818 0.660156 10.8758 0.660156 10.284L0.660156 3.12255C0.660156 2.53073 0.854824 2.02471 1.24416 1.60447C1.6335 1.18424 2.10231 0.974121 2.65061 0.974121L9.28545 0.974121Z" fill="white"/>
</svg>
