<svg width="193" height="9" viewBox="0 0 193 9" fill="none" xmlns="http://www.w3.org/2000/svg">
<g clip-path="url(#clip0_272_6940)">
<path d="M96.948 0.217529H96.1953V8.50712H96.948V0.217529Z" fill="#E9E8EF"/>
<path d="M99.1441 4.3623H98.7695V8.5071H99.1441V4.3623Z" fill="#E9E8EF"/>
<path d="M101.519 4.3623H101.145V8.5071H101.519V4.3623Z" fill="#E9E8EF"/>
<path d="M103.902 4.3623H103.527V8.5071H103.902V4.3623Z" fill="#E9E8EF"/>
<path d="M106.281 4.3623H105.906V8.5071H106.281V4.3623Z" fill="#E9E8EF"/>
<path d="M108.85 0.217529H108.098V8.50712H108.85V0.217529Z" fill="#E9E8EF"/>
<path d="M111.046 4.3623H110.672V8.5071H111.046V4.3623Z" fill="#E9E8EF"/>
<path d="M113.425 4.3623H113.051V8.5071H113.425V4.3623Z" fill="#E9E8EF"/>
<path d="M115.804 4.3623H115.43V8.5071H115.804V4.3623Z" fill="#E9E8EF"/>
<path d="M118.183 4.3623H117.809V8.5071H118.183V4.3623Z" fill="#E9E8EF"/>
<path d="M120.753 0.217529H120V8.50712H120.753V0.217529Z" fill="#E9E8EF"/>
<path d="M120.753 0.217529H120V8.50712H120.753V0.217529Z" fill="#E9E8EF"/>
<path d="M122.949 4.3623H122.574V8.5071H122.949V4.3623Z" fill="#E9E8EF"/>
<path d="M125.328 4.3623H124.953V8.5071H125.328V4.3623Z" fill="#E9E8EF"/>
<path d="M127.707 4.3623H127.332V8.5071H127.707V4.3623Z" fill="#E9E8EF"/>
<path d="M130.089 4.3623H129.715V8.5071H130.089V4.3623Z" fill="#E9E8EF"/>
<path d="M132.659 0.217529H131.906V8.50712H132.659V0.217529Z" fill="#E9E8EF"/>
<path d="M134.847 4.3623H134.473V8.5071H134.847V4.3623Z" fill="#E9E8EF"/>
<path d="M137.23 4.3623H136.855V8.5071H137.23V4.3623Z" fill="#E9E8EF"/>
<path d="M139.609 4.3623H139.234V8.5071H139.609V4.3623Z" fill="#E9E8EF"/>
<path d="M141.992 4.3623H141.617V8.5071H141.992V4.3623Z" fill="#E9E8EF"/>
<path d="M144.561 0.217529H143.809V8.50712H144.561V0.217529Z" fill="#E9E8EF"/>
<path d="M144.561 0.217529H143.809V8.50712H144.561V0.217529Z" fill="#E9E8EF"/>
<path d="M146.754 4.3623H146.379V8.5071H146.754V4.3623Z" fill="#E9E8EF"/>
<path d="M149.132 4.3623H148.758V8.5071H149.132V4.3623Z" fill="#E9E8EF"/>
<path d="M151.515 4.3623H151.141V8.5071H151.515V4.3623Z" fill="#E9E8EF"/>
<path d="M153.894 4.3623H153.52V8.5071H153.894V4.3623Z" fill="#E9E8EF"/>
<path d="M156.464 0.217529H155.711V8.50712H156.464V0.217529Z" fill="#E9E8EF"/>
<path d="M158.656 4.3623H158.281V8.5071H158.656V4.3623Z" fill="#E9E8EF"/>
<path d="M161.035 4.3623H160.66V8.5071H161.035V4.3623Z" fill="#E9E8EF"/>
<path d="M163.418 4.3623H163.043V8.5071H163.418V4.3623Z" fill="#E9E8EF"/>
<path d="M165.796 4.3623H165.422V8.5071H165.796V4.3623Z" fill="#E9E8EF"/>
<path d="M168.366 0.217529H167.613V8.50712H168.366V0.217529Z" fill="#E9E8EF"/>
<path d="M168.366 0.217529H167.613V8.50712H168.366V0.217529Z" fill="#E9E8EF"/>
<path d="M170.558 4.3623H170.184V8.5071H170.558V4.3623Z" fill="#E9E8EF"/>
<path d="M172.941 4.3623H172.566V8.5071H172.941V4.3623Z" fill="#E9E8EF"/>
<path d="M175.32 4.3623H174.945V8.5071H175.32V4.3623Z" fill="#E9E8EF"/>
<path d="M177.699 4.3623H177.324V8.5071H177.699V4.3623Z" fill="#E9E8EF"/>
<path d="M180.268 0.217529H179.516V8.50712H180.268V0.217529Z" fill="#E9E8EF"/>
<path d="M182.461 4.3623H182.086V8.5071H182.461V4.3623Z" fill="#E9E8EF"/>
<path d="M184.843 4.3623H184.469V8.5071H184.843V4.3623Z" fill="#E9E8EF"/>
<path d="M187.222 4.3623H186.848V8.5071H187.222V4.3623Z" fill="#E9E8EF"/>
<path d="M189.605 4.3623H189.23V8.5071H189.605V4.3623Z" fill="#E9E8EF"/>
<path d="M192.175 0.217529H191.422V8.50712H192.175V0.217529Z" fill="#E9E8EF"/>
<path d="M1.36988 0.217529H0.617188V8.50712H1.36988V0.217529Z" fill="#E9E8EF"/>
<path d="M3.5621 4.3623H3.1875V8.5071H3.5621V4.3623Z" fill="#E9E8EF"/>
<path d="M5.941 4.3623H5.56641V8.5071H5.941V4.3623Z" fill="#E9E8EF"/>
<path d="M8.32382 4.3623H7.94922V8.5071H8.32382V4.3623Z" fill="#E9E8EF"/>
<path d="M10.7027 4.3623H10.3281V8.5071H10.7027V4.3623Z" fill="#E9E8EF"/>
<path d="M13.2722 0.217529H12.5195V8.50712H13.2722V0.217529Z" fill="#E9E8EF"/>
<path d="M15.4644 4.3623H15.0898V8.5071H15.4644V4.3623Z" fill="#E9E8EF"/>
<path d="M17.8433 4.3623H17.4688V8.5071H17.8433V4.3623Z" fill="#E9E8EF"/>
<path d="M20.2262 4.3623H19.8516V8.5071H20.2262V4.3623Z" fill="#E9E8EF"/>
<path d="M22.6051 4.3623H22.2305V8.5071H22.6051V4.3623Z" fill="#E9E8EF"/>
<path d="M25.1746 0.217529H24.4219V8.50712H25.1746V0.217529Z" fill="#E9E8EF"/>
<path d="M25.1746 0.217529H24.4219V8.50712H25.1746V0.217529Z" fill="#E9E8EF"/>
<path d="M27.3668 4.3623H26.9922V8.5071H27.3668V4.3623Z" fill="#E9E8EF"/>
<path d="M29.7496 4.3623H29.375V8.5071H29.7496V4.3623Z" fill="#E9E8EF"/>
<path d="M32.1285 4.3623H31.7539V8.5071H32.1285V4.3623Z" fill="#E9E8EF"/>
<path d="M34.5113 4.3623H34.1367V8.5071H34.5113V4.3623Z" fill="#E9E8EF"/>
<path d="M37.0808 0.217529H36.3281V8.50712H37.0808V0.217529Z" fill="#E9E8EF"/>
<path d="M39.2691 4.3623H38.8945V8.5071H39.2691V4.3623Z" fill="#E9E8EF"/>
<path d="M41.6519 4.3623H41.2773V8.5071H41.6519V4.3623Z" fill="#E9E8EF"/>
<path d="M44.0308 4.3623H43.6562V8.5071H44.0308V4.3623Z" fill="#E9E8EF"/>
<path d="M46.4137 4.3623H46.0391V8.5071H46.4137V4.3623Z" fill="#E9E8EF"/>
<path d="M48.9832 0.217529H48.2305V8.50712H48.9832V0.217529Z" fill="#E9E8EF"/>
<path d="M48.9832 0.217529H48.2305V8.50712H48.9832V0.217529Z" fill="#E9E8EF"/>
<path d="M51.1754 4.3623H50.8008V8.5071H51.1754V4.3623Z" fill="#E9E8EF"/>
<path d="M53.5543 4.3623H53.1797V8.5071H53.5543V4.3623Z" fill="#E9E8EF"/>
<path d="M55.9332 4.3623H55.5586V8.5071H55.9332V4.3623Z" fill="#E9E8EF"/>
<path d="M58.316 4.3623H57.9414V8.5071H58.316V4.3623Z" fill="#E9E8EF"/>
<path d="M60.8855 0.217529H60.1328V8.50712H60.8855V0.217529Z" fill="#E9E8EF"/>
<path d="M63.0777 4.3623H62.7031V8.5071H63.0777V4.3623Z" fill="#E9E8EF"/>
<path d="M65.4566 4.3623H65.082V8.5071H65.4566V4.3623Z" fill="#E9E8EF"/>
<path d="M67.8394 4.3623H67.4648V8.5071H67.8394V4.3623Z" fill="#E9E8EF"/>
<path d="M70.2183 4.3623H69.8438V8.5071H70.2183V4.3623Z" fill="#E9E8EF"/>
<path d="M72.7879 0.217529H72.0352V8.50712H72.7879V0.217529Z" fill="#E9E8EF"/>
<path d="M72.7879 0.217529H72.0352V8.50712H72.7879V0.217529Z" fill="#E9E8EF"/>
<path d="M74.9801 4.3623H74.6055V8.5071H74.9801V4.3623Z" fill="#E9E8EF"/>
<path d="M77.359 4.3623H76.9844V8.5071H77.359V4.3623Z" fill="#E9E8EF"/>
<path d="M79.7418 4.3623H79.3672V8.5071H79.7418V4.3623Z" fill="#E9E8EF"/>
<path d="M82.1207 4.3623H81.7461V8.5071H82.1207V4.3623Z" fill="#E9E8EF"/>
<path d="M84.6902 0.217529H83.9375V8.50712H84.6902V0.217529Z" fill="#E9E8EF"/>
<path d="M86.8824 4.3623H86.5078V8.5071H86.8824V4.3623Z" fill="#E9E8EF"/>
<path d="M89.2652 4.3623H88.8906V8.5071H89.2652V4.3623Z" fill="#E9E8EF"/>
<path d="M91.6441 4.3623H91.2695V8.5071H91.6441V4.3623Z" fill="#E9E8EF"/>
<path d="M94.0269 4.3623H93.6523V8.5071H94.0269V4.3623Z" fill="#E9E8EF"/>
</g>
<defs>
<clipPath id="clip0_272_6940">
<rect width="191.556" height="8.28959" fill="white" transform="translate(0.617188 0.217529)"/>
</clipPath>
</defs>
</svg>
