<svg width="10" height="10" viewBox="0 0 10 10" fill="none" xmlns="http://www.w3.org/2000/svg">
<path d="M1.16406 4.85957C1.16406 5.39142 1.26882 5.91807 1.47235 6.40944C1.67588 6.90081 1.9742 7.34728 2.35028 7.72335C2.72636 8.09943 3.17283 8.39775 3.66419 8.60128C4.15556 8.80481 4.68221 8.90957 5.21406 8.90957C5.74592 8.90957 6.27256 8.80481 6.76393 8.60128C7.2553 8.39775 7.70177 8.09943 8.07784 7.72335C8.45392 7.34728 8.75224 6.90081 8.95578 6.40944C9.15931 5.91807 9.26406 5.39142 9.26406 4.85957C9.26406 4.32772 9.15931 3.80107 8.95578 3.3097C8.75224 2.81833 8.45392 2.37187 8.07784 1.99579C7.70177 1.61971 7.2553 1.32139 6.76393 1.11786C6.27256 0.914327 5.74592 0.80957 5.21406 0.80957C4.68221 0.80957 4.15556 0.914327 3.66419 1.11786C3.17283 1.32139 2.72636 1.61971 2.35028 1.99579C1.9742 2.37187 1.67588 2.81833 1.47235 3.3097C1.26882 3.80107 1.16406 4.32772 1.16406 4.85957Z" stroke="white" stroke-linecap="round" stroke-linejoin="round"/>
<path d="M6.11372 3.84677C5.85141 3.61625 5.51035 3.49571 5.16144 3.5102C4.81254 3.5247 4.48265 3.67313 4.24037 3.92462C3.99845 4.17563 3.86328 4.51066 3.86328 4.85927C3.86328 5.20788 3.99845 5.54291 4.24037 5.79392C4.48265 6.04541 4.81254 6.19384 5.16144 6.20834C5.51035 6.22283 5.85141 6.10229 6.11372 5.87177" stroke="white" stroke-linecap="round" stroke-linejoin="round"/>
</svg>
