<svg width="29" height="615" viewBox="0 0 29 615" fill="none" xmlns="http://www.w3.org/2000/svg">
<path d="M6.71875 516.405L6.71875 516.013L12.5642 516.013L12.5642 516.405L6.71875 516.405Z" fill="#E9E8EF"/>
<path d="M6.71875 518.899L6.71875 518.507L12.5642 518.507L12.5642 518.899L6.71875 518.899Z" fill="#E9E8EF"/>
<path d="M6.71875 521.393L6.71875 521.001L12.5642 521.001L12.5642 521.393L6.71875 521.393Z" fill="#E9E8EF"/>
<path d="M6.71875 523.888L6.71875 523.496L12.5642 523.496L12.5642 523.888L6.71875 523.888Z" fill="#E9E8EF"/>
<path d="M6.71875 528.877L6.71875 528.484L12.5642 528.484L12.5642 528.877L6.71875 528.877Z" fill="#E9E8EF"/>
<path d="M6.71875 531.372L6.71875 530.979L12.5642 530.979L12.5642 531.372L6.71875 531.372Z" fill="#E9E8EF"/>
<path d="M6.71875 533.865L6.71875 533.473L12.5642 533.473L12.5642 533.865L6.71875 533.865Z" fill="#E9E8EF"/>
<path d="M6.71875 536.359L6.71875 535.967L12.5642 535.967L12.5642 536.359L6.71875 536.359Z" fill="#E9E8EF"/>
<path d="M6.71875 541.348L6.71875 540.956L12.5642 540.956L12.5642 541.348L6.71875 541.348Z" fill="#E9E8EF"/>
<path d="M6.71875 543.842L6.71875 543.45L12.5642 543.45L12.5642 543.842L6.71875 543.842Z" fill="#E9E8EF"/>
<path d="M6.71875 546.338L6.71875 545.945L12.5642 545.945L12.5642 546.338L6.71875 546.338Z" fill="#E9E8EF"/>
<path d="M6.71875 548.831L6.71875 548.438L12.5642 548.438L12.5642 548.831L6.71875 548.831Z" fill="#E9E8EF"/>
<path d="M6.71875 553.82L6.71875 553.428L12.5642 553.428L12.5642 553.82L6.71875 553.82Z" fill="#E9E8EF"/>
<path d="M6.71875 556.314L6.71875 555.922L12.5642 555.922L12.5642 556.314L6.71875 556.314Z" fill="#E9E8EF"/>
<path d="M6.71875 558.809L6.71875 558.417L12.5642 558.417L12.5642 558.809L6.71875 558.809Z" fill="#E9E8EF"/>
<path d="M6.71875 561.303L6.71875 560.911L12.5642 560.911L12.5642 561.303L6.71875 561.303Z" fill="#E9E8EF"/>
<path d="M6.71875 566.292L6.71875 565.899L12.5642 565.899L12.5642 566.292L6.71875 566.292Z" fill="#E9E8EF"/>
<path d="M6.71875 568.786L6.71875 568.394L12.5642 568.394L12.5642 568.786L6.71875 568.786Z" fill="#E9E8EF"/>
<path d="M6.71875 571.28L6.71875 570.888L12.5642 570.888L12.5642 571.28L6.71875 571.28Z" fill="#E9E8EF"/>
<path d="M6.71875 573.775L6.71875 573.383L12.5642 573.383L12.5642 573.775L6.71875 573.775Z" fill="#E9E8EF"/>
<path d="M6.71875 578.763L6.71875 578.371L12.5642 578.371L12.5642 578.763L6.71875 578.763Z" fill="#E9E8EF"/>
<path d="M6.71875 581.257L6.71875 580.865L12.5642 580.865L12.5642 581.257L6.71875 581.257Z" fill="#E9E8EF"/>
<path d="M6.71875 583.752L6.71875 583.359L12.5642 583.359L12.5642 583.752L6.71875 583.752Z" fill="#E9E8EF"/>
<path d="M6.71875 586.247L6.71875 585.854L12.5642 585.854L12.5642 586.247L6.71875 586.247Z" fill="#E9E8EF"/>
<path d="M6.71875 591.234L6.71875 590.842L12.5642 590.842L12.5642 591.234L6.71875 591.234Z" fill="#E9E8EF"/>
<path d="M6.71875 593.729L6.71875 593.337L12.5642 593.337L12.5642 593.729L6.71875 593.729Z" fill="#E9E8EF"/>
<path d="M6.71875 596.223L6.71875 595.831L12.5642 595.831L12.5642 596.223L6.71875 596.223Z" fill="#E9E8EF"/>
<path d="M6.71875 598.717L6.71875 598.325L12.5642 598.325L12.5642 598.717L6.71875 598.717Z" fill="#E9E8EF"/>
<path d="M6.71875 603.707L6.71875 603.314L12.5642 603.314L12.5642 603.707L6.71875 603.707Z" fill="#E9E8EF"/>
<path d="M6.71875 606.201L6.71875 605.809L12.5642 605.809L12.5642 606.201L6.71875 606.201Z" fill="#E9E8EF"/>
<path d="M6.71875 608.695L6.71875 608.303L12.5642 608.303L12.5642 608.695L6.71875 608.695Z" fill="#E9E8EF"/>
<path d="M6.71875 611.189L6.71875 610.797L12.5642 610.797L12.5642 611.189L6.71875 611.189Z" fill="#E9E8EF"/>
<path d="M0.875 614.252L0.875 613.464L12.5658 613.464L12.5658 614.252L0.875 614.252Z" fill="#E9E8EF"/>
<path d="M0.875 514.108L0.875 513.32L12.5658 513.32L12.5658 514.108L0.875 514.108Z" fill="#E9E8EF"/>
<path d="M0.875 526.58L0.875 525.792L12.5658 525.792L12.5658 526.58L0.875 526.58Z" fill="#E9E8EF"/>
<path d="M0.875 539.052L0.875 538.264L12.5658 538.264L12.5658 539.052L0.875 539.052Z" fill="#E9E8EF"/>
<path d="M0.875 539.052L0.875 538.264L12.5658 538.264L12.5658 539.052L0.875 539.052Z" fill="#E9E8EF"/>
<path d="M0.875 551.523L0.875 550.735L12.5658 550.735L12.5658 551.523L0.875 551.523Z" fill="#E9E8EF"/>
<path d="M0.875 563.995L0.875 563.207L12.5658 563.207L12.5658 563.995L0.875 563.995Z" fill="#E9E8EF"/>
<path d="M0.875 563.995L0.875 563.207L12.5658 563.207L12.5658 563.995L0.875 563.995Z" fill="#E9E8EF"/>
<path d="M0.875 576.466L0.875 575.678L12.5658 575.678L12.5658 576.466L0.875 576.466Z" fill="#E9E8EF"/>
<path d="M0.875 588.938L0.875 588.15L12.5658 588.15L12.5658 588.938L0.875 588.938Z" fill="#E9E8EF"/>
<path d="M0.875 588.938L0.875 588.15L12.5658 588.15L12.5658 588.938L0.875 588.938Z" fill="#E9E8EF"/>
<path d="M0.875 601.41L0.875 600.622L12.5658 600.622L12.5658 601.41L0.875 601.41Z" fill="#E9E8EF"/>
<path d="M0.875 14.167L0.875 13.3789L12.5658 13.3789L12.5658 14.167L0.875 14.167Z" fill="#E9E8EF"/>
<path d="M6.72656 16.4674L6.72656 16.0752L12.572 16.0752L12.572 16.4674L6.72656 16.4674Z" fill="#E9E8EF"/>
<path d="M6.72656 18.9528L6.72656 18.5605L12.572 18.5605L12.572 18.9528L6.72656 18.9528Z" fill="#E9E8EF"/>
<path d="M6.72656 21.4537L6.72656 21.0615L12.572 21.0615L12.572 21.4537L6.72656 21.4537Z" fill="#E9E8EF"/>
<path d="M6.72656 23.9459L6.72656 23.5537L12.572 23.5537L12.572 23.9459L6.72656 23.9459Z" fill="#E9E8EF"/>
<path d="M0.875 26.6338L0.875 25.8457L12.5658 25.8457L12.5658 26.6338L0.875 26.6338Z" fill="#E9E8EF"/>
<path d="M6.72656 28.9352L6.72656 28.543L12.572 28.543L12.572 28.9352L6.72656 28.9352Z" fill="#E9E8EF"/>
<path d="M6.72656 31.4244L6.72656 31.0322L12.572 31.0322L12.572 31.4244L6.72656 31.4244Z" fill="#E9E8EF"/>
<path d="M6.72656 33.9215L6.72656 33.5293L12.572 33.5293L12.572 33.9215L6.72656 33.9215Z" fill="#E9E8EF"/>
<path d="M6.72656 36.4147L6.72656 36.0225L12.572 36.0225L12.572 36.4147L6.72656 36.4147Z" fill="#E9E8EF"/>
<path d="M0.875 39.1094L0.875 38.3213L12.5658 38.3213L12.5658 39.1094L0.875 39.1094Z" fill="#E9E8EF"/>
<path d="M0.875 39.1094L0.875 38.3213L12.5658 38.3213L12.5658 39.1094L0.875 39.1094Z" fill="#E9E8EF"/>
<path d="M6.72656 41.4069L6.72656 41.0146L12.572 41.0146L12.572 41.4069L6.72656 41.4069Z" fill="#E9E8EF"/>
<path d="M6.72656 43.9L6.72656 43.5078L12.572 43.5078L12.572 43.9L6.72656 43.9Z" fill="#E9E8EF"/>
<path d="M6.72656 46.3922L6.72656 46L12.572 46L12.572 46.3922L6.72656 46.3922Z" fill="#E9E8EF"/>
<path d="M6.72656 48.8893L6.72656 48.4971L12.572 48.4971L12.572 48.8893L6.72656 48.8893Z" fill="#E9E8EF"/>
<path d="M0.875 51.5732L0.875 50.7852L12.5658 50.7852L12.5658 51.5732L0.875 51.5732Z" fill="#E9E8EF"/>
<path d="M6.72656 53.8785L6.72656 53.4863L12.572 53.4863L12.572 53.8785L6.72656 53.8785Z" fill="#E9E8EF"/>
<path d="M6.72656 56.3707L6.72656 55.9785L12.572 55.9785L12.572 56.3707L6.72656 56.3707Z" fill="#E9E8EF"/>
<path d="M6.72656 58.86L6.72656 58.4678L12.572 58.4678L12.572 58.86L6.72656 58.86Z" fill="#E9E8EF"/>
<path d="M6.72656 61.3571L6.72656 60.9648L12.572 60.9648L12.572 61.3571L6.72656 61.3571Z" fill="#E9E8EF"/>
<path d="M0.875 64.0537L0.875 63.2656L12.5658 63.2656L12.5658 64.0537L0.875 64.0537Z" fill="#E9E8EF"/>
<path d="M0.875 64.0537L0.875 63.2656L12.5658 63.2656L12.5658 64.0537L0.875 64.0537Z" fill="#E9E8EF"/>
<path d="M6.72656 66.3463L6.72656 65.9541L12.572 65.9541L12.572 66.3463L6.72656 66.3463Z" fill="#E9E8EF"/>
<path d="M6.72656 68.8434L6.72656 68.4512L12.572 68.4512L12.572 68.8434L6.72656 68.8434Z" fill="#E9E8EF"/>
<path d="M6.72656 71.3395L6.72656 70.9473L12.572 70.9473L12.572 71.3395L6.72656 71.3395Z" fill="#E9E8EF"/>
<path d="M6.72656 73.8326L6.72656 73.4404L12.572 73.4404L12.572 73.8326L6.72656 73.8326Z" fill="#E9E8EF"/>
<path d="M0.875 76.5254L0.875 75.7373L12.5658 75.7373L12.5658 76.5254L0.875 76.5254Z" fill="#E9E8EF"/>
<path d="M6.72656 78.8229L6.72656 78.4307L12.572 78.4307L12.572 78.8229L6.72656 78.8229Z" fill="#E9E8EF"/>
<path d="M6.72656 81.3102L6.72656 80.918L12.572 80.918L12.572 81.3102L6.72656 81.3102Z" fill="#E9E8EF"/>
<path d="M6.72656 83.8063L6.72656 83.4141L12.572 83.4141L12.572 83.8063L6.72656 83.8063Z" fill="#E9E8EF"/>
<path d="M6.72656 86.2994L6.72656 85.9072L12.572 85.9072L12.572 86.2994L6.72656 86.2994Z" fill="#E9E8EF"/>
<path d="M0.875 88.9922L0.875 88.2041L12.5658 88.2041L12.5658 88.9922L0.875 88.9922Z" fill="#E9E8EF"/>
<path d="M0.875 88.9922L0.875 88.2041L12.5658 88.2041L12.5658 88.9922L0.875 88.9922Z" fill="#E9E8EF"/>
<path d="M6.72656 91.2936L6.72656 90.9014L12.572 90.9014L12.572 91.2936L6.72656 91.2936Z" fill="#E9E8EF"/>
<path d="M6.72656 93.7828L6.72656 93.3906L12.572 93.3906L12.572 93.7828L6.72656 93.7828Z" fill="#E9E8EF"/>
<path d="M6.72656 96.2828L6.72656 95.8906L12.572 95.8906L12.572 96.2828L6.72656 96.2828Z" fill="#E9E8EF"/>
<path d="M6.72656 98.775L6.72656 98.3828L12.572 98.3828L12.572 98.775L6.72656 98.775Z" fill="#E9E8EF"/>
<path d="M0.875 101.468L0.875 100.68L12.5658 100.68L12.5658 101.468L0.875 101.468Z" fill="#E9E8EF"/>
<path d="M6.72656 103.765L6.72656 103.373L12.572 103.373L12.572 103.765L6.72656 103.765Z" fill="#E9E8EF"/>
<path d="M6.72656 106.262L6.72656 105.87L12.572 105.87L12.572 106.262L6.72656 106.262Z" fill="#E9E8EF"/>
<path d="M6.72656 108.752L6.72656 108.359L12.572 108.359L12.572 108.752L6.72656 108.752Z" fill="#E9E8EF"/>
<path d="M6.72656 111.244L6.72656 110.852L12.572 110.852L12.572 111.244L6.72656 111.244Z" fill="#E9E8EF"/>
<path d="M0.875 1.32422L0.875 0.536133L12.5658 0.536132L12.5658 1.32422L0.875 1.32422Z" fill="#E9E8EF"/>
<path d="M6.72656 3.6178L6.72656 3.22559L12.572 3.22559L12.572 3.6178L6.72656 3.6178Z" fill="#E9E8EF"/>
<path d="M6.72656 6.11487L6.72656 5.72266L12.572 5.72266L12.572 6.11487L6.72656 6.11487Z" fill="#E9E8EF"/>
<path d="M6.72656 8.61194L6.72656 8.21973L12.572 8.21973L12.572 8.61194L6.72656 8.61194Z" fill="#E9E8EF"/>
<path d="M6.72656 11.1012L6.72656 10.709L12.572 10.709L12.572 11.1012L6.72656 11.1012Z" fill="#E9E8EF"/>
<g clip-path="url(#clip0_505_36815)">
<path d="M0.875 214.063L0.875 213.275L12.5658 213.275L12.5658 214.063L0.875 214.063Z" fill="#E9E8EF"/>
<path d="M6.71875 216.364L6.71875 215.972L12.5642 215.972L12.5642 216.364L6.71875 216.364Z" fill="#E9E8EF"/>
<path d="M6.71875 218.854L6.71875 218.462L12.5642 218.462L12.5642 218.854L6.71875 218.854Z" fill="#E9E8EF"/>
<path d="M6.71875 221.348L6.71875 220.956L12.5642 220.956L12.5642 221.348L6.71875 221.348Z" fill="#E9E8EF"/>
<path d="M6.71875 223.843L6.71875 223.451L12.5642 223.451L12.5642 223.843L6.71875 223.843Z" fill="#E9E8EF"/>
<path d="M0.875 226.535L0.875 225.747L12.5658 225.747L12.5658 226.535L0.875 226.535Z" fill="#E9E8EF"/>
<path d="M6.71875 228.836L6.71875 228.443L12.5642 228.443L12.5642 228.836L6.71875 228.836Z" fill="#E9E8EF"/>
<path d="M6.71875 231.326L6.71875 230.934L12.5642 230.934L12.5642 231.326L6.71875 231.326Z" fill="#E9E8EF"/>
<path d="M6.71875 233.82L6.71875 233.428L12.5642 233.428L12.5642 233.82L6.71875 233.82Z" fill="#E9E8EF"/>
<path d="M6.71875 236.315L6.71875 235.923L12.5642 235.923L12.5642 236.315L6.71875 236.315Z" fill="#E9E8EF"/>
<path d="M0.875 239.007L0.875 238.219L12.5658 238.219L12.5658 239.007L0.875 239.007Z" fill="#E9E8EF"/>
<path d="M0.875 239.007L0.875 238.219L12.5658 238.219L12.5658 239.007L0.875 239.007Z" fill="#E9E8EF"/>
<path d="M6.71875 241.307L6.71875 240.915L12.5642 240.915L12.5642 241.307L6.71875 241.307Z" fill="#E9E8EF"/>
<path d="M6.71875 243.797L6.71875 243.405L12.5642 243.405L12.5642 243.797L6.71875 243.797Z" fill="#E9E8EF"/>
<path d="M6.71875 246.292L6.71875 245.899L12.5642 245.899L12.5642 246.292L6.71875 246.292Z" fill="#E9E8EF"/>
<path d="M6.71875 248.786L6.71875 248.394L12.5642 248.394L12.5642 248.786L6.71875 248.786Z" fill="#E9E8EF"/>
<path d="M0.875 251.479L0.875 250.69L12.5658 250.69L12.5658 251.479L0.875 251.479Z" fill="#E9E8EF"/>
<path d="M6.71875 253.775L6.71875 253.383L12.5642 253.383L12.5642 253.775L6.71875 253.775Z" fill="#E9E8EF"/>
<path d="M6.71875 256.269L6.71875 255.877L12.5642 255.877L12.5642 256.269L6.71875 256.269Z" fill="#E9E8EF"/>
<path d="M6.71875 258.763L6.71875 258.371L12.5642 258.371L12.5642 258.763L6.71875 258.763Z" fill="#E9E8EF"/>
<path d="M6.71875 261.257L6.71875 260.865L12.5642 260.865L12.5642 261.257L6.71875 261.257Z" fill="#E9E8EF"/>
<path d="M0.875 263.95L0.875 263.162L12.5658 263.162L12.5658 263.95L0.875 263.95Z" fill="#E9E8EF"/>
<path d="M0.875 263.95L0.875 263.162L12.5658 263.162L12.5658 263.95L0.875 263.95Z" fill="#E9E8EF"/>
<path d="M6.71875 266.247L6.71875 265.854L12.5642 265.854L12.5642 266.247L6.71875 266.247Z" fill="#E9E8EF"/>
<path d="M6.71875 268.741L6.71875 268.349L12.5642 268.349L12.5642 268.741L6.71875 268.741Z" fill="#E9E8EF"/>
<path d="M6.71875 271.235L6.71875 270.843L12.5642 270.843L12.5642 271.235L6.71875 271.235Z" fill="#E9E8EF"/>
<path d="M6.71875 273.729L6.71875 273.337L12.5642 273.337L12.5642 273.729L6.71875 273.729Z" fill="#E9E8EF"/>
<path d="M0.875 276.422L0.875 275.634L12.5658 275.634L12.5658 276.422L0.875 276.422Z" fill="#E9E8EF"/>
<path d="M6.71875 278.718L6.71875 278.326L12.5642 278.326L12.5642 278.718L6.71875 278.718Z" fill="#E9E8EF"/>
<path d="M6.71875 281.213L6.71875 280.82L12.5642 280.82L12.5642 281.213L6.71875 281.213Z" fill="#E9E8EF"/>
<path d="M6.71875 283.707L6.71875 283.314L12.5642 283.314L12.5642 283.707L6.71875 283.707Z" fill="#E9E8EF"/>
<path d="M6.71875 286.201L6.71875 285.809L12.5642 285.809L12.5642 286.201L6.71875 286.201Z" fill="#E9E8EF"/>
<path d="M0.875 288.894L0.875 288.105L12.5658 288.105L12.5658 288.894L0.875 288.894Z" fill="#E9E8EF"/>
<path d="M0.875 288.894L0.875 288.105L12.5658 288.105L12.5658 288.894L0.875 288.894Z" fill="#E9E8EF"/>
<path d="M6.71875 291.19L6.71875 290.798L12.5642 290.798L12.5642 291.19L6.71875 291.19Z" fill="#E9E8EF"/>
<path d="M6.71875 293.684L6.71875 293.292L12.5642 293.292L12.5642 293.684L6.71875 293.684Z" fill="#E9E8EF"/>
<path d="M6.71875 296.178L6.71875 295.786L12.5642 295.786L12.5642 296.178L6.71875 296.178Z" fill="#E9E8EF"/>
<path d="M6.71875 298.672L6.71875 298.28L12.5642 298.28L12.5642 298.672L6.71875 298.672Z" fill="#E9E8EF"/>
<path d="M0.875 301.365L0.875 300.577L12.5658 300.577L12.5658 301.365L0.875 301.365Z" fill="#E9E8EF"/>
<path d="M6.71875 303.662L6.71875 303.27L12.5642 303.27L12.5642 303.662L6.71875 303.662Z" fill="#E9E8EF"/>
<path d="M6.71875 306.156L6.71875 305.764L12.5642 305.764L12.5642 306.156L6.71875 306.156Z" fill="#E9E8EF"/>
<path d="M6.71875 308.65L6.71875 308.258L12.5642 308.258L12.5642 308.65L6.71875 308.65Z" fill="#E9E8EF"/>
<path d="M6.71875 311.144L6.71875 310.752L12.5642 310.752L12.5642 311.144L6.71875 311.144Z" fill="#E9E8EF"/>
<path d="M0.875 113.92L0.875 113.132L12.5658 113.132L12.5658 113.92L0.875 113.92Z" fill="#E9E8EF"/>
<path d="M6.71875 116.216L6.71875 115.824L12.5642 115.824L12.5642 116.216L6.71875 116.216Z" fill="#E9E8EF"/>
<path d="M6.71875 118.711L6.71875 118.318L12.5642 118.318L12.5642 118.711L6.71875 118.711Z" fill="#E9E8EF"/>
<path d="M6.71875 121.205L6.71875 120.812L12.5642 120.812L12.5642 121.205L6.71875 121.205Z" fill="#E9E8EF"/>
<path d="M6.71875 123.7L6.71875 123.308L12.5642 123.308L12.5642 123.7L6.71875 123.7Z" fill="#E9E8EF"/>
<path d="M0.875 126.392L0.875 125.604L12.5658 125.604L12.5658 126.392L0.875 126.392Z" fill="#E9E8EF"/>
<path d="M6.71875 128.688L6.71875 128.296L12.5642 128.296L12.5642 128.688L6.71875 128.688Z" fill="#E9E8EF"/>
<path d="M6.71875 131.182L6.71875 130.79L12.5642 130.79L12.5642 131.182L6.71875 131.182Z" fill="#E9E8EF"/>
<path d="M6.71875 133.676L6.71875 133.284L12.5642 133.284L12.5642 133.676L6.71875 133.676Z" fill="#E9E8EF"/>
<path d="M6.71875 136.172L6.71875 135.779L12.5642 135.779L12.5642 136.172L6.71875 136.172Z" fill="#E9E8EF"/>
<path d="M0.875 138.863L0.875 138.075L12.5658 138.075L12.5658 138.863L0.875 138.863Z" fill="#E9E8EF"/>
<path d="M0.875 138.863L0.875 138.075L12.5658 138.075L12.5658 138.863L0.875 138.863Z" fill="#E9E8EF"/>
<path d="M6.71875 141.16L6.71875 140.768L12.5642 140.768L12.5642 141.16L6.71875 141.16Z" fill="#E9E8EF"/>
<path d="M6.71875 143.654L6.71875 143.262L12.5642 143.262L12.5642 143.654L6.71875 143.654Z" fill="#E9E8EF"/>
<path d="M6.71875 146.148L6.71875 145.756L12.5642 145.756L12.5642 146.148L6.71875 146.148Z" fill="#E9E8EF"/>
<path d="M6.71875 148.642L6.71875 148.25L12.5642 148.25L12.5642 148.642L6.71875 148.642Z" fill="#E9E8EF"/>
<path d="M0.875 151.335L0.875 150.547L12.5658 150.547L12.5658 151.335L0.875 151.335Z" fill="#E9E8EF"/>
<path d="M6.71875 153.631L6.71875 153.239L12.5642 153.239L12.5642 153.631L6.71875 153.631Z" fill="#E9E8EF"/>
<path d="M6.71875 156.126L6.71875 155.733L12.5642 155.733L12.5642 156.126L6.71875 156.126Z" fill="#E9E8EF"/>
<path d="M6.71875 158.62L6.71875 158.228L12.5642 158.228L12.5642 158.62L6.71875 158.62Z" fill="#E9E8EF"/>
<path d="M6.71875 161.114L6.71875 160.722L12.5642 160.722L12.5642 161.114L6.71875 161.114Z" fill="#E9E8EF"/>
<path d="M0.875 163.807L0.875 163.019L12.5658 163.019L12.5658 163.807L0.875 163.807Z" fill="#E9E8EF"/>
<path d="M0.875 163.807L0.875 163.019L12.5658 163.019L12.5658 163.807L0.875 163.807Z" fill="#E9E8EF"/>
<path d="M6.71875 166.103L6.71875 165.711L12.5642 165.711L12.5642 166.103L6.71875 166.103Z" fill="#E9E8EF"/>
<path d="M6.71875 168.597L6.71875 168.205L12.5642 168.205L12.5642 168.597L6.71875 168.597Z" fill="#E9E8EF"/>
<path d="M6.71875 171.091L6.71875 170.699L12.5642 170.699L12.5642 171.091L6.71875 171.091Z" fill="#E9E8EF"/>
<path d="M6.71875 173.586L6.71875 173.193L12.5642 173.193L12.5642 173.586L6.71875 173.586Z" fill="#E9E8EF"/>
<path d="M0.875 176.278L0.875 175.49L12.5658 175.49L12.5658 176.278L0.875 176.278Z" fill="#E9E8EF"/>
<path d="M6.71875 178.575L6.71875 178.183L12.5642 178.183L12.5642 178.575L6.71875 178.575Z" fill="#E9E8EF"/>
<path d="M6.71875 181.069L6.71875 180.677L12.5642 180.677L12.5642 181.069L6.71875 181.069Z" fill="#E9E8EF"/>
<path d="M6.71875 183.563L6.71875 183.171L12.5642 183.171L12.5642 183.563L6.71875 183.563Z" fill="#E9E8EF"/>
<path d="M6.71875 186.057L6.71875 185.665L12.5642 185.665L12.5642 186.057L6.71875 186.057Z" fill="#E9E8EF"/>
<path d="M0.875 188.75L0.875 187.962L12.5658 187.962L12.5658 188.75L0.875 188.75Z" fill="#E9E8EF"/>
<path d="M0.875 188.75L0.875 187.962L12.5658 187.962L12.5658 188.75L0.875 188.75Z" fill="#E9E8EF"/>
<path d="M6.71875 191.047L6.71875 190.654L12.5642 190.654L12.5642 191.047L6.71875 191.047Z" fill="#E9E8EF"/>
<path d="M6.71875 193.541L6.71875 193.148L12.5642 193.148L12.5642 193.541L6.71875 193.541Z" fill="#E9E8EF"/>
<path d="M6.71875 196.035L6.71875 195.643L12.5642 195.643L12.5642 196.035L6.71875 196.035Z" fill="#E9E8EF"/>
<path d="M6.71875 198.529L6.71875 198.137L12.5642 198.137L12.5642 198.529L6.71875 198.529Z" fill="#E9E8EF"/>
<path d="M0.875 201.222L0.875 200.434L12.5658 200.434L12.5658 201.222L0.875 201.222Z" fill="#E9E8EF"/>
<path d="M6.71875 203.518L6.71875 203.126L12.5642 203.126L12.5642 203.518L6.71875 203.518Z" fill="#E9E8EF"/>
<path d="M6.71875 206.012L6.71875 205.62L12.5642 205.62L12.5642 206.012L6.71875 206.012Z" fill="#E9E8EF"/>
<path d="M6.71875 208.506L6.71875 208.114L12.5642 208.114L12.5642 208.506L6.71875 208.506Z" fill="#E9E8EF"/>
<path d="M6.71875 211.001L6.71875 210.608L12.5642 210.608L12.5642 211.001L6.71875 211.001Z" fill="#E9E8EF"/>
</g>
<g clip-path="url(#clip1_505_36815)">
<path d="M0.875 413.979L0.875 413.19L12.5658 413.19L12.5658 413.979L0.875 413.979Z" fill="#E9E8EF"/>
<path d="M6.71875 416.279L6.71875 415.887L12.5642 415.887L12.5642 416.279L6.71875 416.279Z" fill="#E9E8EF"/>
<path d="M6.71875 418.769L6.71875 418.377L12.5642 418.377L12.5642 418.769L6.71875 418.769Z" fill="#E9E8EF"/>
<path d="M6.71875 421.263L6.71875 420.871L12.5642 420.871L12.5642 421.263L6.71875 421.263Z" fill="#E9E8EF"/>
<path d="M6.71875 423.758L6.71875 423.366L12.5642 423.366L12.5642 423.758L6.71875 423.758Z" fill="#E9E8EF"/>
<path d="M0.875 426.45L0.875 425.662L12.5658 425.662L12.5658 426.45L0.875 426.45Z" fill="#E9E8EF"/>
<path d="M6.71875 428.751L6.71875 428.358L12.5642 428.358L12.5642 428.751L6.71875 428.751Z" fill="#E9E8EF"/>
<path d="M6.71875 431.241L6.71875 430.849L12.5642 430.849L12.5642 431.241L6.71875 431.241Z" fill="#E9E8EF"/>
<path d="M6.71875 433.735L6.71875 433.343L12.5642 433.343L12.5642 433.735L6.71875 433.735Z" fill="#E9E8EF"/>
<path d="M6.71875 436.23L6.71875 435.838L12.5642 435.838L12.5642 436.23L6.71875 436.23Z" fill="#E9E8EF"/>
<path d="M0.875 438.922L0.875 438.134L12.5658 438.134L12.5658 438.922L0.875 438.922Z" fill="#E9E8EF"/>
<path d="M0.875 438.922L0.875 438.134L12.5658 438.134L12.5658 438.922L0.875 438.922Z" fill="#E9E8EF"/>
<path d="M6.71875 441.222L6.71875 440.83L12.5642 440.83L12.5642 441.222L6.71875 441.222Z" fill="#E9E8EF"/>
<path d="M6.71875 443.713L6.71875 443.32L12.5642 443.32L12.5642 443.713L6.71875 443.713Z" fill="#E9E8EF"/>
<path d="M6.71875 446.207L6.71875 445.814L12.5642 445.814L12.5642 446.207L6.71875 446.207Z" fill="#E9E8EF"/>
<path d="M6.71875 448.701L6.71875 448.309L12.5642 448.309L12.5642 448.701L6.71875 448.701Z" fill="#E9E8EF"/>
<path d="M0.875 451.394L0.875 450.605L12.5658 450.605L12.5658 451.394L0.875 451.394Z" fill="#E9E8EF"/>
<path d="M6.71875 453.69L6.71875 453.298L12.5642 453.298L12.5642 453.69L6.71875 453.69Z" fill="#E9E8EF"/>
<path d="M6.71875 456.184L6.71875 455.792L12.5642 455.792L12.5642 456.184L6.71875 456.184Z" fill="#E9E8EF"/>
<path d="M6.71875 458.678L6.71875 458.286L12.5642 458.286L12.5642 458.678L6.71875 458.678Z" fill="#E9E8EF"/>
<path d="M6.71875 461.172L6.71875 460.78L12.5642 460.78L12.5642 461.172L6.71875 461.172Z" fill="#E9E8EF"/>
<path d="M0.875 463.865L0.875 463.077L12.5658 463.077L12.5658 463.865L0.875 463.865Z" fill="#E9E8EF"/>
<path d="M0.875 463.865L0.875 463.077L12.5658 463.077L12.5658 463.865L0.875 463.865Z" fill="#E9E8EF"/>
<path d="M6.71875 466.162L6.71875 465.77L12.5642 465.77L12.5642 466.162L6.71875 466.162Z" fill="#E9E8EF"/>
<path d="M6.71875 468.656L6.71875 468.264L12.5642 468.264L12.5642 468.656L6.71875 468.656Z" fill="#E9E8EF"/>
<path d="M6.71875 471.15L6.71875 470.758L12.5642 470.758L12.5642 471.15L6.71875 471.15Z" fill="#E9E8EF"/>
<path d="M6.71875 473.644L6.71875 473.252L12.5642 473.252L12.5642 473.644L6.71875 473.644Z" fill="#E9E8EF"/>
<path d="M0.875 476.337L0.875 475.549L12.5658 475.549L12.5658 476.337L0.875 476.337Z" fill="#E9E8EF"/>
<path d="M6.71875 478.633L6.71875 478.241L12.5642 478.241L12.5642 478.633L6.71875 478.633Z" fill="#E9E8EF"/>
<path d="M6.71875 481.128L6.71875 480.735L12.5642 480.735L12.5642 481.128L6.71875 481.128Z" fill="#E9E8EF"/>
<path d="M6.71875 483.622L6.71875 483.229L12.5642 483.229L12.5642 483.622L6.71875 483.622Z" fill="#E9E8EF"/>
<path d="M6.71875 486.116L6.71875 485.724L12.5642 485.724L12.5642 486.116L6.71875 486.116Z" fill="#E9E8EF"/>
<path d="M0.875 488.809L0.875 488.021L12.5658 488.021L12.5658 488.809L0.875 488.809Z" fill="#E9E8EF"/>
<path d="M0.875 488.809L0.875 488.021L12.5658 488.021L12.5658 488.809L0.875 488.809Z" fill="#E9E8EF"/>
<path d="M6.71875 491.105L6.71875 490.713L12.5642 490.713L12.5642 491.105L6.71875 491.105Z" fill="#E9E8EF"/>
<path d="M6.71875 493.599L6.71875 493.207L12.5642 493.207L12.5642 493.599L6.71875 493.599Z" fill="#E9E8EF"/>
<path d="M6.71875 496.093L6.71875 495.701L12.5642 495.701L12.5642 496.093L6.71875 496.093Z" fill="#E9E8EF"/>
<path d="M6.71875 498.588L6.71875 498.195L12.5642 498.195L12.5642 498.588L6.71875 498.588Z" fill="#E9E8EF"/>
<path d="M0.875 501.28L0.875 500.492L12.5658 500.492L12.5658 501.28L0.875 501.28Z" fill="#E9E8EF"/>
<path d="M6.71875 503.577L6.71875 503.185L12.5642 503.185L12.5642 503.577L6.71875 503.577Z" fill="#E9E8EF"/>
<path d="M6.71875 506.071L6.71875 505.679L12.5642 505.679L12.5642 506.071L6.71875 506.071Z" fill="#E9E8EF"/>
<path d="M6.71875 508.565L6.71875 508.173L12.5642 508.173L12.5642 508.565L6.71875 508.565Z" fill="#E9E8EF"/>
<path d="M6.71875 511.059L6.71875 510.667L12.5642 510.667L12.5642 511.059L6.71875 511.059Z" fill="#E9E8EF"/>
<path d="M0.875 313.835L0.875 313.047L12.5658 313.047L12.5658 313.835L0.875 313.835Z" fill="#E9E8EF"/>
<path d="M6.71875 316.131L6.71875 315.739L12.5642 315.739L12.5642 316.131L6.71875 316.131Z" fill="#E9E8EF"/>
<path d="M6.71875 318.626L6.71875 318.233L12.5642 318.233L12.5642 318.626L6.71875 318.626Z" fill="#E9E8EF"/>
<path d="M6.71875 321.12L6.71875 320.728L12.5642 320.728L12.5642 321.12L6.71875 321.12Z" fill="#E9E8EF"/>
<path d="M6.71875 323.615L6.71875 323.223L12.5642 323.223L12.5642 323.615L6.71875 323.615Z" fill="#E9E8EF"/>
<path d="M0.875 326.307L0.875 325.519L12.5658 325.519L12.5658 326.307L0.875 326.307Z" fill="#E9E8EF"/>
<path d="M6.71875 328.603L6.71875 328.211L12.5642 328.211L12.5642 328.603L6.71875 328.603Z" fill="#E9E8EF"/>
<path d="M6.71875 331.097L6.71875 330.705L12.5642 330.705L12.5642 331.097L6.71875 331.097Z" fill="#E9E8EF"/>
<path d="M6.71875 333.591L6.71875 333.199L12.5642 333.199L12.5642 333.591L6.71875 333.591Z" fill="#E9E8EF"/>
<path d="M6.71875 336.087L6.71875 335.694L12.5642 335.694L12.5642 336.087L6.71875 336.087Z" fill="#E9E8EF"/>
<path d="M0.875 338.778L0.875 337.99L12.5658 337.99L12.5658 338.778L0.875 338.778Z" fill="#E9E8EF"/>
<path d="M0.875 338.778L0.875 337.99L12.5658 337.99L12.5658 338.778L0.875 338.778Z" fill="#E9E8EF"/>
<path d="M6.71875 341.075L6.71875 340.683L12.5642 340.683L12.5642 341.075L6.71875 341.075Z" fill="#E9E8EF"/>
<path d="M6.71875 343.569L6.71875 343.177L12.5642 343.177L12.5642 343.569L6.71875 343.569Z" fill="#E9E8EF"/>
<path d="M6.71875 346.063L6.71875 345.671L12.5642 345.671L12.5642 346.063L6.71875 346.063Z" fill="#E9E8EF"/>
<path d="M6.71875 348.557L6.71875 348.165L12.5642 348.165L12.5642 348.557L6.71875 348.557Z" fill="#E9E8EF"/>
<path d="M0.875 351.25L0.875 350.462L12.5658 350.462L12.5658 351.25L0.875 351.25Z" fill="#E9E8EF"/>
<path d="M6.71875 353.547L6.71875 353.154L12.5642 353.154L12.5642 353.547L6.71875 353.547Z" fill="#E9E8EF"/>
<path d="M6.71875 356.041L6.71875 355.648L12.5642 355.648L12.5642 356.041L6.71875 356.041Z" fill="#E9E8EF"/>
<path d="M6.71875 358.535L6.71875 358.143L12.5642 358.143L12.5642 358.535L6.71875 358.535Z" fill="#E9E8EF"/>
<path d="M6.71875 361.029L6.71875 360.637L12.5642 360.637L12.5642 361.029L6.71875 361.029Z" fill="#E9E8EF"/>
<path d="M0.875 363.722L0.875 362.934L12.5658 362.934L12.5658 363.722L0.875 363.722Z" fill="#E9E8EF"/>
<path d="M0.875 363.722L0.875 362.934L12.5658 362.934L12.5658 363.722L0.875 363.722Z" fill="#E9E8EF"/>
<path d="M6.71875 366.018L6.71875 365.626L12.5642 365.626L12.5642 366.018L6.71875 366.018Z" fill="#E9E8EF"/>
<path d="M6.71875 368.512L6.71875 368.12L12.5642 368.12L12.5642 368.512L6.71875 368.512Z" fill="#E9E8EF"/>
<path d="M6.71875 371.006L6.71875 370.614L12.5642 370.614L12.5642 371.006L6.71875 371.006Z" fill="#E9E8EF"/>
<path d="M6.71875 373.501L6.71875 373.108L12.5642 373.108L12.5642 373.501L6.71875 373.501Z" fill="#E9E8EF"/>
<path d="M0.875 376.193L0.875 375.405L12.5658 375.405L12.5658 376.193L0.875 376.193Z" fill="#E9E8EF"/>
<path d="M6.71875 378.49L6.71875 378.098L12.5642 378.098L12.5642 378.49L6.71875 378.49Z" fill="#E9E8EF"/>
<path d="M6.71875 380.984L6.71875 380.592L12.5642 380.592L12.5642 380.984L6.71875 380.984Z" fill="#E9E8EF"/>
<path d="M6.71875 383.478L6.71875 383.086L12.5642 383.086L12.5642 383.478L6.71875 383.478Z" fill="#E9E8EF"/>
<path d="M6.71875 385.972L6.71875 385.58L12.5642 385.58L12.5642 385.972L6.71875 385.972Z" fill="#E9E8EF"/>
<path d="M0.875 388.665L0.875 387.877L12.5658 387.877L12.5658 388.665L0.875 388.665Z" fill="#E9E8EF"/>
<path d="M0.875 388.665L0.875 387.877L12.5658 387.877L12.5658 388.665L0.875 388.665Z" fill="#E9E8EF"/>
<path d="M6.71875 390.962L6.71875 390.569L12.5642 390.569L12.5642 390.962L6.71875 390.962Z" fill="#E9E8EF"/>
<path d="M6.71875 393.456L6.71875 393.063L12.5642 393.063L12.5642 393.456L6.71875 393.456Z" fill="#E9E8EF"/>
<path d="M6.71875 395.95L6.71875 395.558L12.5642 395.558L12.5642 395.95L6.71875 395.95Z" fill="#E9E8EF"/>
<path d="M6.71875 398.444L6.71875 398.052L12.5642 398.052L12.5642 398.444L6.71875 398.444Z" fill="#E9E8EF"/>
<path d="M0.875 401.137L0.875 400.349L12.5658 400.349L12.5658 401.137L0.875 401.137Z" fill="#E9E8EF"/>
<path d="M6.71875 403.433L6.71875 403.041L12.5642 403.041L12.5642 403.433L6.71875 403.433Z" fill="#E9E8EF"/>
<path d="M6.71875 405.927L6.71875 405.535L12.5642 405.535L12.5642 405.927L6.71875 405.927Z" fill="#E9E8EF"/>
<path d="M6.71875 408.422L6.71875 408.029L12.5642 408.029L12.5642 408.422L6.71875 408.422Z" fill="#E9E8EF"/>
<path d="M6.71875 410.916L6.71875 410.523L12.5642 410.523L12.5642 410.916L6.71875 410.916Z" fill="#E9E8EF"/>
</g>
<path d="M22.7461 516.405L22.7461 516.013L16.9007 516.013L16.9007 516.405L22.7461 516.405Z" fill="#E9E8EF"/>
<path d="M22.7461 518.899L22.7461 518.507L16.9007 518.507L16.9007 518.899L22.7461 518.899Z" fill="#E9E8EF"/>
<path d="M22.7461 521.393L22.7461 521.001L16.9007 521.001L16.9007 521.393L22.7461 521.393Z" fill="#E9E8EF"/>
<path d="M22.7461 523.888L22.7461 523.496L16.9007 523.496L16.9007 523.888L22.7461 523.888Z" fill="#E9E8EF"/>
<path d="M22.7461 528.877L22.7461 528.484L16.9007 528.484L16.9007 528.877L22.7461 528.877Z" fill="#E9E8EF"/>
<path d="M22.7461 531.372L22.7461 530.979L16.9007 530.979L16.9007 531.372L22.7461 531.372Z" fill="#E9E8EF"/>
<path d="M22.7461 533.865L22.7461 533.473L16.9007 533.473L16.9007 533.865L22.7461 533.865Z" fill="#E9E8EF"/>
<path d="M22.7461 536.359L22.7461 535.967L16.9007 535.967L16.9007 536.359L22.7461 536.359Z" fill="#E9E8EF"/>
<path d="M22.7461 541.348L22.7461 540.956L16.9007 540.956L16.9007 541.348L22.7461 541.348Z" fill="#E9E8EF"/>
<path d="M22.7461 543.842L22.7461 543.45L16.9007 543.45L16.9007 543.842L22.7461 543.842Z" fill="#E9E8EF"/>
<path d="M22.7461 546.338L22.7461 545.945L16.9007 545.945L16.9007 546.338L22.7461 546.338Z" fill="#E9E8EF"/>
<path d="M22.7461 548.831L22.7461 548.438L16.9007 548.438L16.9007 548.831L22.7461 548.831Z" fill="#E9E8EF"/>
<path d="M22.7461 553.82L22.7461 553.428L16.9007 553.428L16.9007 553.82L22.7461 553.82Z" fill="#E9E8EF"/>
<path d="M22.7461 556.314L22.7461 555.922L16.9007 555.922L16.9007 556.314L22.7461 556.314Z" fill="#E9E8EF"/>
<path d="M22.7461 558.809L22.7461 558.417L16.9007 558.417L16.9007 558.809L22.7461 558.809Z" fill="#E9E8EF"/>
<path d="M22.7461 561.303L22.7461 560.911L16.9007 560.911L16.9007 561.303L22.7461 561.303Z" fill="#E9E8EF"/>
<path d="M22.7461 566.292L22.7461 565.899L16.9007 565.899L16.9007 566.292L22.7461 566.292Z" fill="#E9E8EF"/>
<path d="M22.7461 568.786L22.7461 568.394L16.9007 568.394L16.9007 568.786L22.7461 568.786Z" fill="#E9E8EF"/>
<path d="M22.7461 571.28L22.7461 570.888L16.9007 570.888L16.9007 571.28L22.7461 571.28Z" fill="#E9E8EF"/>
<path d="M22.7461 573.775L22.7461 573.383L16.9007 573.383L16.9007 573.775L22.7461 573.775Z" fill="#E9E8EF"/>
<path d="M22.7461 578.763L22.7461 578.371L16.9007 578.371L16.9007 578.763L22.7461 578.763Z" fill="#E9E8EF"/>
<path d="M22.7461 581.257L22.7461 580.865L16.9007 580.865L16.9007 581.257L22.7461 581.257Z" fill="#E9E8EF"/>
<path d="M22.7461 583.752L22.7461 583.359L16.9007 583.359L16.9007 583.752L22.7461 583.752Z" fill="#E9E8EF"/>
<path d="M22.7461 586.247L22.7461 585.854L16.9007 585.854L16.9007 586.247L22.7461 586.247Z" fill="#E9E8EF"/>
<path d="M22.7461 591.234L22.7461 590.842L16.9007 590.842L16.9007 591.234L22.7461 591.234Z" fill="#E9E8EF"/>
<path d="M22.7461 593.729L22.7461 593.337L16.9007 593.337L16.9007 593.729L22.7461 593.729Z" fill="#E9E8EF"/>
<path d="M22.7461 596.223L22.7461 595.831L16.9007 595.831L16.9007 596.223L22.7461 596.223Z" fill="#E9E8EF"/>
<path d="M22.7461 598.717L22.7461 598.325L16.9007 598.325L16.9007 598.717L22.7461 598.717Z" fill="#E9E8EF"/>
<path d="M22.7461 603.707L22.7461 603.314L16.9007 603.314L16.9007 603.707L22.7461 603.707Z" fill="#E9E8EF"/>
<path d="M22.7461 606.201L22.7461 605.809L16.9007 605.809L16.9007 606.201L22.7461 606.201Z" fill="#E9E8EF"/>
<path d="M22.7461 608.695L22.7461 608.303L16.9007 608.303L16.9007 608.695L22.7461 608.695Z" fill="#E9E8EF"/>
<path d="M22.7461 611.189L22.7461 610.797L16.9007 610.797L16.9007 611.189L22.7461 611.189Z" fill="#E9E8EF"/>
<path d="M28.5898 614.252L28.5898 613.464L16.899 613.464L16.899 614.252L28.5898 614.252Z" fill="#E9E8EF"/>
<path d="M28.5898 514.108L28.5898 513.32L16.899 513.32L16.899 514.108L28.5898 514.108Z" fill="#E9E8EF"/>
<path d="M28.5898 526.58L28.5898 525.792L16.899 525.792L16.899 526.58L28.5898 526.58Z" fill="#E9E8EF"/>
<path d="M28.5898 539.052L28.5898 538.264L16.899 538.264L16.899 539.052L28.5898 539.052Z" fill="#E9E8EF"/>
<path d="M28.5898 539.052L28.5898 538.264L16.899 538.264L16.899 539.052L28.5898 539.052Z" fill="#E9E8EF"/>
<path d="M28.5898 551.523L28.5898 550.735L16.899 550.735L16.899 551.523L28.5898 551.523Z" fill="#E9E8EF"/>
<path d="M28.5898 563.995L28.5898 563.207L16.899 563.207L16.899 563.995L28.5898 563.995Z" fill="#E9E8EF"/>
<path d="M28.5898 563.995L28.5898 563.207L16.899 563.207L16.899 563.995L28.5898 563.995Z" fill="#E9E8EF"/>
<path d="M28.5898 576.466L28.5898 575.678L16.899 575.678L16.899 576.466L28.5898 576.466Z" fill="#E9E8EF"/>
<path d="M28.5898 588.938L28.5898 588.15L16.899 588.15L16.899 588.938L28.5898 588.938Z" fill="#E9E8EF"/>
<path d="M28.5898 588.938L28.5898 588.15L16.899 588.15L16.899 588.938L28.5898 588.938Z" fill="#E9E8EF"/>
<path d="M28.5898 601.41L28.5898 600.622L16.899 600.622L16.899 601.41L28.5898 601.41Z" fill="#E9E8EF"/>
<path d="M28.5898 14.167L28.5898 13.3789L16.899 13.3789L16.899 14.167L28.5898 14.167Z" fill="#E9E8EF"/>
<path d="M22.7383 16.4674L22.7383 16.0752L16.8929 16.0752L16.8929 16.4674L22.7383 16.4674Z" fill="#E9E8EF"/>
<path d="M22.7383 18.9528L22.7383 18.5605L16.8929 18.5605L16.8929 18.9528L22.7383 18.9528Z" fill="#E9E8EF"/>
<path d="M22.7383 21.4537L22.7383 21.0615L16.8929 21.0615L16.8929 21.4537L22.7383 21.4537Z" fill="#E9E8EF"/>
<path d="M22.7383 23.9459L22.7383 23.5537L16.8929 23.5537L16.8929 23.9459L22.7383 23.9459Z" fill="#E9E8EF"/>
<path d="M28.5898 26.6338L28.5898 25.8457L16.899 25.8457L16.899 26.6338L28.5898 26.6338Z" fill="#E9E8EF"/>
<path d="M22.7383 28.9352L22.7383 28.543L16.8929 28.543L16.8929 28.9352L22.7383 28.9352Z" fill="#E9E8EF"/>
<path d="M22.7383 31.4244L22.7383 31.0322L16.8929 31.0322L16.8929 31.4244L22.7383 31.4244Z" fill="#E9E8EF"/>
<path d="M22.7383 33.9215L22.7383 33.5293L16.8929 33.5293L16.8929 33.9215L22.7383 33.9215Z" fill="#E9E8EF"/>
<path d="M22.7383 36.4147L22.7383 36.0225L16.8929 36.0225L16.8929 36.4147L22.7383 36.4147Z" fill="#E9E8EF"/>
<path d="M28.5898 39.1094L28.5898 38.3213L16.899 38.3213L16.899 39.1094L28.5898 39.1094Z" fill="#E9E8EF"/>
<path d="M28.5898 39.1094L28.5898 38.3213L16.899 38.3213L16.899 39.1094L28.5898 39.1094Z" fill="#E9E8EF"/>
<path d="M22.7383 41.4069L22.7383 41.0146L16.8929 41.0146L16.8929 41.4069L22.7383 41.4069Z" fill="#E9E8EF"/>
<path d="M22.7383 43.9L22.7383 43.5078L16.8929 43.5078L16.8929 43.9L22.7383 43.9Z" fill="#E9E8EF"/>
<path d="M22.7383 46.3922L22.7383 46L16.8929 46L16.8929 46.3922L22.7383 46.3922Z" fill="#E9E8EF"/>
<path d="M22.7383 48.8893L22.7383 48.4971L16.8929 48.4971L16.8929 48.8893L22.7383 48.8893Z" fill="#E9E8EF"/>
<path d="M28.5898 51.5732L28.5898 50.7852L16.899 50.7852L16.899 51.5732L28.5898 51.5732Z" fill="#E9E8EF"/>
<path d="M22.7383 53.8785L22.7383 53.4863L16.8929 53.4863L16.8929 53.8785L22.7383 53.8785Z" fill="#E9E8EF"/>
<path d="M22.7383 56.3707L22.7383 55.9785L16.8929 55.9785L16.8929 56.3707L22.7383 56.3707Z" fill="#E9E8EF"/>
<path d="M22.7383 58.86L22.7383 58.4678L16.8929 58.4678L16.8929 58.86L22.7383 58.86Z" fill="#E9E8EF"/>
<path d="M22.7383 61.3571L22.7383 60.9648L16.8929 60.9648L16.8929 61.3571L22.7383 61.3571Z" fill="#E9E8EF"/>
<path d="M28.5898 64.0537L28.5898 63.2656L16.899 63.2656L16.899 64.0537L28.5898 64.0537Z" fill="#E9E8EF"/>
<path d="M28.5898 64.0537L28.5898 63.2656L16.899 63.2656L16.899 64.0537L28.5898 64.0537Z" fill="#E9E8EF"/>
<path d="M22.7383 66.3463L22.7383 65.9541L16.8929 65.9541L16.8929 66.3463L22.7383 66.3463Z" fill="#E9E8EF"/>
<path d="M22.7383 68.8434L22.7383 68.4512L16.8929 68.4512L16.8929 68.8434L22.7383 68.8434Z" fill="#E9E8EF"/>
<path d="M22.7383 71.3395L22.7383 70.9473L16.8929 70.9473L16.8929 71.3395L22.7383 71.3395Z" fill="#E9E8EF"/>
<path d="M22.7383 73.8326L22.7383 73.4404L16.8929 73.4404L16.8929 73.8326L22.7383 73.8326Z" fill="#E9E8EF"/>
<path d="M28.5898 76.5254L28.5898 75.7373L16.899 75.7373L16.899 76.5254L28.5898 76.5254Z" fill="#E9E8EF"/>
<path d="M22.7383 78.8229L22.7383 78.4307L16.8929 78.4307L16.8929 78.8229L22.7383 78.8229Z" fill="#E9E8EF"/>
<path d="M22.7383 81.3102L22.7383 80.918L16.8929 80.918L16.8929 81.3102L22.7383 81.3102Z" fill="#E9E8EF"/>
<path d="M22.7383 83.8063L22.7383 83.4141L16.8929 83.4141L16.8929 83.8063L22.7383 83.8063Z" fill="#E9E8EF"/>
<path d="M22.7383 86.2994L22.7383 85.9072L16.8929 85.9072L16.8929 86.2994L22.7383 86.2994Z" fill="#E9E8EF"/>
<path d="M28.5898 88.9922L28.5898 88.2041L16.899 88.2041L16.899 88.9922L28.5898 88.9922Z" fill="#E9E8EF"/>
<path d="M28.5898 88.9922L28.5898 88.2041L16.899 88.2041L16.899 88.9922L28.5898 88.9922Z" fill="#E9E8EF"/>
<path d="M22.7383 91.2936L22.7383 90.9014L16.8929 90.9014L16.8929 91.2936L22.7383 91.2936Z" fill="#E9E8EF"/>
<path d="M22.7383 93.7828L22.7383 93.3906L16.8929 93.3906L16.8929 93.7828L22.7383 93.7828Z" fill="#E9E8EF"/>
<path d="M22.7383 96.2828L22.7383 95.8906L16.8929 95.8906L16.8929 96.2828L22.7383 96.2828Z" fill="#E9E8EF"/>
<path d="M22.7383 98.775L22.7383 98.3828L16.8929 98.3828L16.8929 98.775L22.7383 98.775Z" fill="#E9E8EF"/>
<path d="M28.5898 101.468L28.5898 100.68L16.899 100.68L16.899 101.468L28.5898 101.468Z" fill="#E9E8EF"/>
<path d="M22.7383 103.765L22.7383 103.373L16.8929 103.373L16.8929 103.765L22.7383 103.765Z" fill="#E9E8EF"/>
<path d="M22.7383 106.262L22.7383 105.87L16.8929 105.87L16.8929 106.262L22.7383 106.262Z" fill="#E9E8EF"/>
<path d="M22.7383 108.752L22.7383 108.359L16.8929 108.359L16.8929 108.752L22.7383 108.752Z" fill="#E9E8EF"/>
<path d="M22.7383 111.244L22.7383 110.852L16.8929 110.852L16.8929 111.244L22.7383 111.244Z" fill="#E9E8EF"/>
<path d="M28.5898 1.32422L28.5898 0.536133L16.899 0.536132L16.899 1.32422L28.5898 1.32422Z" fill="#E9E8EF"/>
<path d="M22.7383 3.6178L22.7383 3.22559L16.8929 3.22559L16.8929 3.6178L22.7383 3.6178Z" fill="#E9E8EF"/>
<path d="M22.7383 6.11487L22.7383 5.72266L16.8929 5.72266L16.8929 6.11487L22.7383 6.11487Z" fill="#E9E8EF"/>
<path d="M22.7383 8.61194L22.7383 8.21973L16.8929 8.21973L16.8929 8.61194L22.7383 8.61194Z" fill="#E9E8EF"/>
<path d="M22.7383 11.1012L22.7383 10.709L16.8929 10.709L16.8929 11.1012L22.7383 11.1012Z" fill="#E9E8EF"/>
<g clip-path="url(#clip2_505_36815)">
<path d="M28.5898 214.063L28.5898 213.275L16.899 213.275L16.899 214.063L28.5898 214.063Z" fill="#E9E8EF"/>
<path d="M22.7461 216.364L22.7461 215.972L16.9007 215.972L16.9007 216.364L22.7461 216.364Z" fill="#E9E8EF"/>
<path d="M22.7461 218.854L22.7461 218.462L16.9007 218.462L16.9007 218.854L22.7461 218.854Z" fill="#E9E8EF"/>
<path d="M22.7461 221.348L22.7461 220.956L16.9007 220.956L16.9007 221.348L22.7461 221.348Z" fill="#E9E8EF"/>
<path d="M22.7461 223.843L22.7461 223.451L16.9007 223.451L16.9007 223.843L22.7461 223.843Z" fill="#E9E8EF"/>
<path d="M28.5898 226.535L28.5898 225.747L16.899 225.747L16.899 226.535L28.5898 226.535Z" fill="#E9E8EF"/>
<path d="M22.7461 228.836L22.7461 228.443L16.9007 228.443L16.9007 228.836L22.7461 228.836Z" fill="#E9E8EF"/>
<path d="M22.7461 231.326L22.7461 230.934L16.9007 230.934L16.9007 231.326L22.7461 231.326Z" fill="#E9E8EF"/>
<path d="M22.7461 233.82L22.7461 233.428L16.9007 233.428L16.9007 233.82L22.7461 233.82Z" fill="#E9E8EF"/>
<path d="M22.7461 236.315L22.7461 235.923L16.9007 235.923L16.9007 236.315L22.7461 236.315Z" fill="#E9E8EF"/>
<path d="M28.5898 239.007L28.5898 238.219L16.899 238.219L16.899 239.007L28.5898 239.007Z" fill="#E9E8EF"/>
<path d="M28.5898 239.007L28.5898 238.219L16.899 238.219L16.899 239.007L28.5898 239.007Z" fill="#E9E8EF"/>
<path d="M22.7461 241.307L22.7461 240.915L16.9007 240.915L16.9007 241.307L22.7461 241.307Z" fill="#E9E8EF"/>
<path d="M22.7461 243.797L22.7461 243.405L16.9007 243.405L16.9007 243.797L22.7461 243.797Z" fill="#E9E8EF"/>
<path d="M22.7461 246.292L22.7461 245.899L16.9007 245.899L16.9007 246.292L22.7461 246.292Z" fill="#E9E8EF"/>
<path d="M22.7461 248.786L22.7461 248.394L16.9007 248.394L16.9007 248.786L22.7461 248.786Z" fill="#E9E8EF"/>
<path d="M28.5898 251.479L28.5898 250.69L16.899 250.69L16.899 251.479L28.5898 251.479Z" fill="#E9E8EF"/>
<path d="M22.7461 253.775L22.7461 253.383L16.9007 253.383L16.9007 253.775L22.7461 253.775Z" fill="#E9E8EF"/>
<path d="M22.7461 256.269L22.7461 255.877L16.9007 255.877L16.9007 256.269L22.7461 256.269Z" fill="#E9E8EF"/>
<path d="M22.7461 258.763L22.7461 258.371L16.9007 258.371L16.9007 258.763L22.7461 258.763Z" fill="#E9E8EF"/>
<path d="M22.7461 261.257L22.7461 260.865L16.9007 260.865L16.9007 261.257L22.7461 261.257Z" fill="#E9E8EF"/>
<path d="M28.5898 263.95L28.5898 263.162L16.899 263.162L16.899 263.95L28.5898 263.95Z" fill="#E9E8EF"/>
<path d="M28.5898 263.95L28.5898 263.162L16.899 263.162L16.899 263.95L28.5898 263.95Z" fill="#E9E8EF"/>
<path d="M22.7461 266.247L22.7461 265.854L16.9007 265.854L16.9007 266.247L22.7461 266.247Z" fill="#E9E8EF"/>
<path d="M22.7461 268.741L22.7461 268.349L16.9007 268.349L16.9007 268.741L22.7461 268.741Z" fill="#E9E8EF"/>
<path d="M22.7461 271.235L22.7461 270.843L16.9007 270.843L16.9007 271.235L22.7461 271.235Z" fill="#E9E8EF"/>
<path d="M22.7461 273.729L22.7461 273.337L16.9007 273.337L16.9007 273.729L22.7461 273.729Z" fill="#E9E8EF"/>
<path d="M28.5898 276.422L28.5898 275.634L16.899 275.634L16.899 276.422L28.5898 276.422Z" fill="#E9E8EF"/>
<path d="M22.7461 278.718L22.7461 278.326L16.9007 278.326L16.9007 278.718L22.7461 278.718Z" fill="#E9E8EF"/>
<path d="M22.7461 281.213L22.7461 280.82L16.9007 280.82L16.9007 281.213L22.7461 281.213Z" fill="#E9E8EF"/>
<path d="M22.7461 283.707L22.7461 283.314L16.9007 283.314L16.9007 283.707L22.7461 283.707Z" fill="#E9E8EF"/>
<path d="M22.7461 286.201L22.7461 285.809L16.9007 285.809L16.9007 286.201L22.7461 286.201Z" fill="#E9E8EF"/>
<path d="M28.5898 288.894L28.5898 288.105L16.899 288.105L16.899 288.894L28.5898 288.894Z" fill="#E9E8EF"/>
<path d="M28.5898 288.894L28.5898 288.105L16.899 288.105L16.899 288.894L28.5898 288.894Z" fill="#E9E8EF"/>
<path d="M22.7461 291.19L22.7461 290.798L16.9007 290.798L16.9007 291.19L22.7461 291.19Z" fill="#E9E8EF"/>
<path d="M22.7461 293.684L22.7461 293.292L16.9007 293.292L16.9007 293.684L22.7461 293.684Z" fill="#E9E8EF"/>
<path d="M22.7461 296.178L22.7461 295.786L16.9007 295.786L16.9007 296.178L22.7461 296.178Z" fill="#E9E8EF"/>
<path d="M22.7461 298.672L22.7461 298.28L16.9007 298.28L16.9007 298.672L22.7461 298.672Z" fill="#E9E8EF"/>
<path d="M28.5898 301.365L28.5898 300.577L16.899 300.577L16.899 301.365L28.5898 301.365Z" fill="#E9E8EF"/>
<path d="M22.7461 303.662L22.7461 303.27L16.9007 303.27L16.9007 303.662L22.7461 303.662Z" fill="#E9E8EF"/>
<path d="M22.7461 306.156L22.7461 305.764L16.9007 305.764L16.9007 306.156L22.7461 306.156Z" fill="#E9E8EF"/>
<path d="M22.7461 308.65L22.7461 308.258L16.9007 308.258L16.9007 308.65L22.7461 308.65Z" fill="#E9E8EF"/>
<path d="M22.7461 311.144L22.7461 310.752L16.9007 310.752L16.9007 311.144L22.7461 311.144Z" fill="#E9E8EF"/>
<path d="M28.5898 113.92L28.5898 113.132L16.899 113.132L16.899 113.92L28.5898 113.92Z" fill="#E9E8EF"/>
<path d="M22.7461 116.216L22.7461 115.824L16.9007 115.824L16.9007 116.216L22.7461 116.216Z" fill="#E9E8EF"/>
<path d="M22.7461 118.711L22.7461 118.318L16.9007 118.318L16.9007 118.711L22.7461 118.711Z" fill="#E9E8EF"/>
<path d="M22.7461 121.205L22.7461 120.812L16.9007 120.812L16.9007 121.205L22.7461 121.205Z" fill="#E9E8EF"/>
<path d="M22.7461 123.7L22.7461 123.308L16.9007 123.308L16.9007 123.7L22.7461 123.7Z" fill="#E9E8EF"/>
<path d="M28.5898 126.392L28.5898 125.604L16.899 125.604L16.899 126.392L28.5898 126.392Z" fill="#E9E8EF"/>
<path d="M22.7461 128.688L22.7461 128.296L16.9007 128.296L16.9007 128.688L22.7461 128.688Z" fill="#E9E8EF"/>
<path d="M22.7461 131.182L22.7461 130.79L16.9007 130.79L16.9007 131.182L22.7461 131.182Z" fill="#E9E8EF"/>
<path d="M22.7461 133.676L22.7461 133.284L16.9007 133.284L16.9007 133.676L22.7461 133.676Z" fill="#E9E8EF"/>
<path d="M22.7461 136.172L22.7461 135.779L16.9007 135.779L16.9007 136.172L22.7461 136.172Z" fill="#E9E8EF"/>
<path d="M28.5898 138.863L28.5898 138.075L16.899 138.075L16.899 138.863L28.5898 138.863Z" fill="#E9E8EF"/>
<path d="M28.5898 138.863L28.5898 138.075L16.899 138.075L16.899 138.863L28.5898 138.863Z" fill="#E9E8EF"/>
<path d="M22.7461 141.16L22.7461 140.768L16.9007 140.768L16.9007 141.16L22.7461 141.16Z" fill="#E9E8EF"/>
<path d="M22.7461 143.654L22.7461 143.262L16.9007 143.262L16.9007 143.654L22.7461 143.654Z" fill="#E9E8EF"/>
<path d="M22.7461 146.148L22.7461 145.756L16.9007 145.756L16.9007 146.148L22.7461 146.148Z" fill="#E9E8EF"/>
<path d="M22.7461 148.642L22.7461 148.25L16.9007 148.25L16.9007 148.642L22.7461 148.642Z" fill="#E9E8EF"/>
<path d="M28.5898 151.335L28.5898 150.547L16.899 150.547L16.899 151.335L28.5898 151.335Z" fill="#E9E8EF"/>
<path d="M22.7461 153.631L22.7461 153.239L16.9007 153.239L16.9007 153.631L22.7461 153.631Z" fill="#E9E8EF"/>
<path d="M22.7461 156.126L22.7461 155.733L16.9007 155.733L16.9007 156.126L22.7461 156.126Z" fill="#E9E8EF"/>
<path d="M22.7461 158.62L22.7461 158.228L16.9007 158.228L16.9007 158.62L22.7461 158.62Z" fill="#E9E8EF"/>
<path d="M22.7461 161.114L22.7461 160.722L16.9007 160.722L16.9007 161.114L22.7461 161.114Z" fill="#E9E8EF"/>
<path d="M28.5898 163.807L28.5898 163.019L16.899 163.019L16.899 163.807L28.5898 163.807Z" fill="#E9E8EF"/>
<path d="M28.5898 163.807L28.5898 163.019L16.899 163.019L16.899 163.807L28.5898 163.807Z" fill="#E9E8EF"/>
<path d="M22.7461 166.103L22.7461 165.711L16.9007 165.711L16.9007 166.103L22.7461 166.103Z" fill="#E9E8EF"/>
<path d="M22.7461 168.597L22.7461 168.205L16.9007 168.205L16.9007 168.597L22.7461 168.597Z" fill="#E9E8EF"/>
<path d="M22.7461 171.091L22.7461 170.699L16.9007 170.699L16.9007 171.091L22.7461 171.091Z" fill="#E9E8EF"/>
<path d="M22.7461 173.586L22.7461 173.193L16.9007 173.193L16.9007 173.586L22.7461 173.586Z" fill="#E9E8EF"/>
<path d="M28.5898 176.278L28.5898 175.49L16.899 175.49L16.899 176.278L28.5898 176.278Z" fill="#E9E8EF"/>
<path d="M22.7461 178.575L22.7461 178.183L16.9007 178.183L16.9007 178.575L22.7461 178.575Z" fill="#E9E8EF"/>
<path d="M22.7461 181.069L22.7461 180.677L16.9007 180.677L16.9007 181.069L22.7461 181.069Z" fill="#E9E8EF"/>
<path d="M22.7461 183.563L22.7461 183.171L16.9007 183.171L16.9007 183.563L22.7461 183.563Z" fill="#E9E8EF"/>
<path d="M22.7461 186.057L22.7461 185.665L16.9007 185.665L16.9007 186.057L22.7461 186.057Z" fill="#E9E8EF"/>
<path d="M28.5898 188.75L28.5898 187.962L16.899 187.962L16.899 188.75L28.5898 188.75Z" fill="#E9E8EF"/>
<path d="M28.5898 188.75L28.5898 187.962L16.899 187.962L16.899 188.75L28.5898 188.75Z" fill="#E9E8EF"/>
<path d="M22.7461 191.047L22.7461 190.654L16.9007 190.654L16.9007 191.047L22.7461 191.047Z" fill="#E9E8EF"/>
<path d="M22.7461 193.541L22.7461 193.148L16.9007 193.148L16.9007 193.541L22.7461 193.541Z" fill="#E9E8EF"/>
<path d="M22.7461 196.035L22.7461 195.643L16.9007 195.643L16.9007 196.035L22.7461 196.035Z" fill="#E9E8EF"/>
<path d="M22.7461 198.529L22.7461 198.137L16.9007 198.137L16.9007 198.529L22.7461 198.529Z" fill="#E9E8EF"/>
<path d="M28.5898 201.222L28.5898 200.434L16.899 200.434L16.899 201.222L28.5898 201.222Z" fill="#E9E8EF"/>
<path d="M22.7461 203.518L22.7461 203.126L16.9007 203.126L16.9007 203.518L22.7461 203.518Z" fill="#E9E8EF"/>
<path d="M22.7461 206.012L22.7461 205.62L16.9007 205.62L16.9007 206.012L22.7461 206.012Z" fill="#E9E8EF"/>
<path d="M22.7461 208.506L22.7461 208.114L16.9007 208.114L16.9007 208.506L22.7461 208.506Z" fill="#E9E8EF"/>
<path d="M22.7461 211.001L22.7461 210.608L16.9007 210.608L16.9007 211.001L22.7461 211.001Z" fill="#E9E8EF"/>
</g>
<g clip-path="url(#clip3_505_36815)">
<path d="M28.5898 413.979L28.5898 413.19L16.899 413.19L16.899 413.979L28.5898 413.979Z" fill="#E9E8EF"/>
<path d="M22.7461 416.279L22.7461 415.887L16.9007 415.887L16.9007 416.279L22.7461 416.279Z" fill="#E9E8EF"/>
<path d="M22.7461 418.769L22.7461 418.377L16.9007 418.377L16.9007 418.769L22.7461 418.769Z" fill="#E9E8EF"/>
<path d="M22.7461 421.263L22.7461 420.871L16.9007 420.871L16.9007 421.263L22.7461 421.263Z" fill="#E9E8EF"/>
<path d="M22.7461 423.758L22.7461 423.366L16.9007 423.366L16.9007 423.758L22.7461 423.758Z" fill="#E9E8EF"/>
<path d="M28.5898 426.45L28.5898 425.662L16.899 425.662L16.899 426.45L28.5898 426.45Z" fill="#E9E8EF"/>
<path d="M22.7461 428.751L22.7461 428.358L16.9007 428.358L16.9007 428.751L22.7461 428.751Z" fill="#E9E8EF"/>
<path d="M22.7461 431.241L22.7461 430.849L16.9007 430.849L16.9007 431.241L22.7461 431.241Z" fill="#E9E8EF"/>
<path d="M22.7461 433.735L22.7461 433.343L16.9007 433.343L16.9007 433.735L22.7461 433.735Z" fill="#E9E8EF"/>
<path d="M22.7461 436.23L22.7461 435.838L16.9007 435.838L16.9007 436.23L22.7461 436.23Z" fill="#E9E8EF"/>
<path d="M28.5898 438.922L28.5898 438.134L16.899 438.134L16.899 438.922L28.5898 438.922Z" fill="#E9E8EF"/>
<path d="M28.5898 438.922L28.5898 438.134L16.899 438.134L16.899 438.922L28.5898 438.922Z" fill="#E9E8EF"/>
<path d="M22.7461 441.222L22.7461 440.83L16.9007 440.83L16.9007 441.222L22.7461 441.222Z" fill="#E9E8EF"/>
<path d="M22.7461 443.713L22.7461 443.32L16.9007 443.32L16.9007 443.713L22.7461 443.713Z" fill="#E9E8EF"/>
<path d="M22.7461 446.207L22.7461 445.814L16.9007 445.814L16.9007 446.207L22.7461 446.207Z" fill="#E9E8EF"/>
<path d="M22.7461 448.701L22.7461 448.309L16.9007 448.309L16.9007 448.701L22.7461 448.701Z" fill="#E9E8EF"/>
<path d="M28.5898 451.394L28.5898 450.605L16.899 450.605L16.899 451.394L28.5898 451.394Z" fill="#E9E8EF"/>
<path d="M22.7461 453.69L22.7461 453.298L16.9007 453.298L16.9007 453.69L22.7461 453.69Z" fill="#E9E8EF"/>
<path d="M22.7461 456.184L22.7461 455.792L16.9007 455.792L16.9007 456.184L22.7461 456.184Z" fill="#E9E8EF"/>
<path d="M22.7461 458.678L22.7461 458.286L16.9007 458.286L16.9007 458.678L22.7461 458.678Z" fill="#E9E8EF"/>
<path d="M22.7461 461.172L22.7461 460.78L16.9007 460.78L16.9007 461.172L22.7461 461.172Z" fill="#E9E8EF"/>
<path d="M28.5898 463.865L28.5898 463.077L16.899 463.077L16.899 463.865L28.5898 463.865Z" fill="#E9E8EF"/>
<path d="M28.5898 463.865L28.5898 463.077L16.899 463.077L16.899 463.865L28.5898 463.865Z" fill="#E9E8EF"/>
<path d="M22.7461 466.162L22.7461 465.77L16.9007 465.77L16.9007 466.162L22.7461 466.162Z" fill="#E9E8EF"/>
<path d="M22.7461 468.656L22.7461 468.264L16.9007 468.264L16.9007 468.656L22.7461 468.656Z" fill="#E9E8EF"/>
<path d="M22.7461 471.15L22.7461 470.758L16.9007 470.758L16.9007 471.15L22.7461 471.15Z" fill="#E9E8EF"/>
<path d="M22.7461 473.644L22.7461 473.252L16.9007 473.252L16.9007 473.644L22.7461 473.644Z" fill="#E9E8EF"/>
<path d="M28.5898 476.337L28.5898 475.549L16.899 475.549L16.899 476.337L28.5898 476.337Z" fill="#E9E8EF"/>
<path d="M22.7461 478.633L22.7461 478.241L16.9007 478.241L16.9007 478.633L22.7461 478.633Z" fill="#E9E8EF"/>
<path d="M22.7461 481.128L22.7461 480.735L16.9007 480.735L16.9007 481.128L22.7461 481.128Z" fill="#E9E8EF"/>
<path d="M22.7461 483.622L22.7461 483.229L16.9007 483.229L16.9007 483.622L22.7461 483.622Z" fill="#E9E8EF"/>
<path d="M22.7461 486.116L22.7461 485.724L16.9007 485.724L16.9007 486.116L22.7461 486.116Z" fill="#E9E8EF"/>
<path d="M28.5898 488.809L28.5898 488.021L16.899 488.021L16.899 488.809L28.5898 488.809Z" fill="#E9E8EF"/>
<path d="M28.5898 488.809L28.5898 488.021L16.899 488.021L16.899 488.809L28.5898 488.809Z" fill="#E9E8EF"/>
<path d="M22.7461 491.105L22.7461 490.713L16.9007 490.713L16.9007 491.105L22.7461 491.105Z" fill="#E9E8EF"/>
<path d="M22.7461 493.599L22.7461 493.207L16.9007 493.207L16.9007 493.599L22.7461 493.599Z" fill="#E9E8EF"/>
<path d="M22.7461 496.093L22.7461 495.701L16.9007 495.701L16.9007 496.093L22.7461 496.093Z" fill="#E9E8EF"/>
<path d="M22.7461 498.588L22.7461 498.195L16.9007 498.195L16.9007 498.588L22.7461 498.588Z" fill="#E9E8EF"/>
<path d="M28.5898 501.28L28.5898 500.492L16.899 500.492L16.899 501.28L28.5898 501.28Z" fill="#E9E8EF"/>
<path d="M22.7461 503.577L22.7461 503.185L16.9007 503.185L16.9007 503.577L22.7461 503.577Z" fill="#E9E8EF"/>
<path d="M22.7461 506.071L22.7461 505.679L16.9007 505.679L16.9007 506.071L22.7461 506.071Z" fill="#E9E8EF"/>
<path d="M22.7461 508.565L22.7461 508.173L16.9007 508.173L16.9007 508.565L22.7461 508.565Z" fill="#E9E8EF"/>
<path d="M22.7461 511.059L22.7461 510.667L16.9007 510.667L16.9007 511.059L22.7461 511.059Z" fill="#E9E8EF"/>
<path d="M28.5898 313.835L28.5898 313.047L16.899 313.047L16.899 313.835L28.5898 313.835Z" fill="#E9E8EF"/>
<path d="M22.7461 316.131L22.7461 315.739L16.9007 315.739L16.9007 316.131L22.7461 316.131Z" fill="#E9E8EF"/>
<path d="M22.7461 318.626L22.7461 318.233L16.9007 318.233L16.9007 318.626L22.7461 318.626Z" fill="#E9E8EF"/>
<path d="M22.7461 321.12L22.7461 320.728L16.9007 320.728L16.9007 321.12L22.7461 321.12Z" fill="#E9E8EF"/>
<path d="M22.7461 323.615L22.7461 323.223L16.9007 323.223L16.9007 323.615L22.7461 323.615Z" fill="#E9E8EF"/>
<path d="M28.5898 326.307L28.5898 325.519L16.899 325.519L16.899 326.307L28.5898 326.307Z" fill="#E9E8EF"/>
<path d="M22.7461 328.603L22.7461 328.211L16.9007 328.211L16.9007 328.603L22.7461 328.603Z" fill="#E9E8EF"/>
<path d="M22.7461 331.097L22.7461 330.705L16.9007 330.705L16.9007 331.097L22.7461 331.097Z" fill="#E9E8EF"/>
<path d="M22.7461 333.591L22.7461 333.199L16.9007 333.199L16.9007 333.591L22.7461 333.591Z" fill="#E9E8EF"/>
<path d="M22.7461 336.087L22.7461 335.694L16.9007 335.694L16.9007 336.087L22.7461 336.087Z" fill="#E9E8EF"/>
<path d="M28.5898 338.778L28.5898 337.99L16.899 337.99L16.899 338.778L28.5898 338.778Z" fill="#E9E8EF"/>
<path d="M28.5898 338.778L28.5898 337.99L16.899 337.99L16.899 338.778L28.5898 338.778Z" fill="#E9E8EF"/>
<path d="M22.7461 341.075L22.7461 340.683L16.9007 340.683L16.9007 341.075L22.7461 341.075Z" fill="#E9E8EF"/>
<path d="M22.7461 343.569L22.7461 343.177L16.9007 343.177L16.9007 343.569L22.7461 343.569Z" fill="#E9E8EF"/>
<path d="M22.7461 346.063L22.7461 345.671L16.9007 345.671L16.9007 346.063L22.7461 346.063Z" fill="#E9E8EF"/>
<path d="M22.7461 348.557L22.7461 348.165L16.9007 348.165L16.9007 348.557L22.7461 348.557Z" fill="#E9E8EF"/>
<path d="M28.5898 351.25L28.5898 350.462L16.899 350.462L16.899 351.25L28.5898 351.25Z" fill="#E9E8EF"/>
<path d="M22.7461 353.547L22.7461 353.154L16.9007 353.154L16.9007 353.547L22.7461 353.547Z" fill="#E9E8EF"/>
<path d="M22.7461 356.041L22.7461 355.648L16.9007 355.648L16.9007 356.041L22.7461 356.041Z" fill="#E9E8EF"/>
<path d="M22.7461 358.535L22.7461 358.143L16.9007 358.143L16.9007 358.535L22.7461 358.535Z" fill="#E9E8EF"/>
<path d="M22.7461 361.029L22.7461 360.637L16.9007 360.637L16.9007 361.029L22.7461 361.029Z" fill="#E9E8EF"/>
<path d="M28.5898 363.722L28.5898 362.934L16.899 362.934L16.899 363.722L28.5898 363.722Z" fill="#E9E8EF"/>
<path d="M28.5898 363.722L28.5898 362.934L16.899 362.934L16.899 363.722L28.5898 363.722Z" fill="#E9E8EF"/>
<path d="M22.7461 366.018L22.7461 365.626L16.9007 365.626L16.9007 366.018L22.7461 366.018Z" fill="#E9E8EF"/>
<path d="M22.7461 368.512L22.7461 368.12L16.9007 368.12L16.9007 368.512L22.7461 368.512Z" fill="#E9E8EF"/>
<path d="M22.7461 371.006L22.7461 370.614L16.9007 370.614L16.9007 371.006L22.7461 371.006Z" fill="#E9E8EF"/>
<path d="M22.7461 373.501L22.7461 373.108L16.9007 373.108L16.9007 373.501L22.7461 373.501Z" fill="#E9E8EF"/>
<path d="M28.5898 376.193L28.5898 375.405L16.899 375.405L16.899 376.193L28.5898 376.193Z" fill="#E9E8EF"/>
<path d="M22.7461 378.49L22.7461 378.098L16.9007 378.098L16.9007 378.49L22.7461 378.49Z" fill="#E9E8EF"/>
<path d="M22.7461 380.984L22.7461 380.592L16.9007 380.592L16.9007 380.984L22.7461 380.984Z" fill="#E9E8EF"/>
<path d="M22.7461 383.478L22.7461 383.086L16.9007 383.086L16.9007 383.478L22.7461 383.478Z" fill="#E9E8EF"/>
<path d="M22.7461 385.972L22.7461 385.58L16.9007 385.58L16.9007 385.972L22.7461 385.972Z" fill="#E9E8EF"/>
<path d="M28.5898 388.665L28.5898 387.877L16.899 387.877L16.899 388.665L28.5898 388.665Z" fill="#E9E8EF"/>
<path d="M28.5898 388.665L28.5898 387.877L16.899 387.877L16.899 388.665L28.5898 388.665Z" fill="#E9E8EF"/>
<path d="M22.7461 390.962L22.7461 390.569L16.9007 390.569L16.9007 390.962L22.7461 390.962Z" fill="#E9E8EF"/>
<path d="M22.7461 393.456L22.7461 393.063L16.9007 393.063L16.9007 393.456L22.7461 393.456Z" fill="#E9E8EF"/>
<path d="M22.7461 395.95L22.7461 395.558L16.9007 395.558L16.9007 395.95L22.7461 395.95Z" fill="#E9E8EF"/>
<path d="M22.7461 398.444L22.7461 398.052L16.9007 398.052L16.9007 398.444L22.7461 398.444Z" fill="#E9E8EF"/>
<path d="M28.5898 401.137L28.5898 400.349L16.899 400.349L16.899 401.137L28.5898 401.137Z" fill="#E9E8EF"/>
<path d="M22.7461 403.433L22.7461 403.041L16.9007 403.041L16.9007 403.433L22.7461 403.433Z" fill="#E9E8EF"/>
<path d="M22.7461 405.927L22.7461 405.535L16.9007 405.535L16.9007 405.927L22.7461 405.927Z" fill="#E9E8EF"/>
<path d="M22.7461 408.422L22.7461 408.029L16.9007 408.029L16.9007 408.422L22.7461 408.422Z" fill="#E9E8EF"/>
<path d="M22.7461 410.916L22.7461 410.523L16.9007 410.523L16.9007 410.916L22.7461 410.916Z" fill="#E9E8EF"/>
</g>
<defs>
<clipPath id="clip0_505_36815">
<rect width="200.705" height="11.6908" fill="white" transform="matrix(2.92179e-08 1 1 -5.42364e-08 0.875 113.132)"/>
</clipPath>
<clipPath id="clip1_505_36815">
<rect width="200.705" height="11.6908" fill="white" transform="matrix(2.92179e-08 1 1 -5.42364e-08 0.875 313.047)"/>
</clipPath>
<clipPath id="clip2_505_36815">
<rect width="200.705" height="11.6908" fill="white" transform="translate(28.5898 113.132) rotate(90)"/>
</clipPath>
<clipPath id="clip3_505_36815">
<rect width="200.705" height="11.6908" fill="white" transform="translate(28.5898 313.047) rotate(90)"/>
</clipPath>
</defs>
</svg>
