<svg width="28" height="669" viewBox="0 0 28 669" fill="none" xmlns="http://www.w3.org/2000/svg">
<path d="M5.875 561.807L5.875 561.38L11.7204 561.38L11.7204 561.807L5.875 561.807Z" fill="#E9E8EF"/>
<path d="M5.875 564.524L5.875 564.097L11.7204 564.097L11.7204 564.524L5.875 564.524Z" fill="#E9E8EF"/>
<path d="M5.875 567.24L5.875 566.812L11.7204 566.812L11.7204 567.24L5.875 567.24Z" fill="#E9E8EF"/>
<path d="M5.875 569.956L5.875 569.529L11.7204 569.529L11.7204 569.956L5.875 569.956Z" fill="#E9E8EF"/>
<path d="M5.875 575.388L5.875 574.961L11.7204 574.961L11.7204 575.388L5.875 575.388Z" fill="#E9E8EF"/>
<path d="M5.875 578.105L5.875 577.678L11.7204 577.678L11.7204 578.105L5.875 578.105Z" fill="#E9E8EF"/>
<path d="M5.875 580.82L5.875 580.393L11.7204 580.393L11.7204 580.82L5.875 580.82Z" fill="#E9E8EF"/>
<path d="M5.875 583.535L5.875 583.108L11.7204 583.108L11.7204 583.535L5.875 583.535Z" fill="#E9E8EF"/>
<path d="M5.875 588.968L5.875 588.541L11.7204 588.541L11.7204 588.968L5.875 588.968Z" fill="#E9E8EF"/>
<path d="M5.875 591.685L5.875 591.258L11.7204 591.258L11.7204 591.685L5.875 591.685Z" fill="#E9E8EF"/>
<path d="M5.875 594.402L5.875 593.975L11.7204 593.975L11.7204 594.402L5.875 594.402Z" fill="#E9E8EF"/>
<path d="M5.875 597.117L5.875 596.689L11.7204 596.689L11.7204 597.117L5.875 597.117Z" fill="#E9E8EF"/>
<path d="M5.875 602.549L5.875 602.122L11.7204 602.122L11.7204 602.549L5.875 602.549Z" fill="#E9E8EF"/>
<path d="M5.875 605.265L5.875 604.838L11.7204 604.838L11.7204 605.265L5.875 605.265Z" fill="#E9E8EF"/>
<path d="M5.875 607.982L5.875 607.555L11.7204 607.555L11.7204 607.982L5.875 607.982Z" fill="#E9E8EF"/>
<path d="M5.875 610.698L5.875 610.271L11.7204 610.271L11.7204 610.698L5.875 610.698Z" fill="#E9E8EF"/>
<path d="M5.875 616.13L5.875 615.703L11.7204 615.703L11.7204 616.13L5.875 616.13Z" fill="#E9E8EF"/>
<path d="M5.875 618.846L5.875 618.419L11.7204 618.419L11.7204 618.846L5.875 618.846Z" fill="#E9E8EF"/>
<path d="M5.875 621.562L5.875 621.135L11.7204 621.135L11.7204 621.562L5.875 621.562Z" fill="#E9E8EF"/>
<path d="M5.875 624.279L5.875 623.852L11.7204 623.852L11.7204 624.279L5.875 624.279Z" fill="#E9E8EF"/>
<path d="M5.875 629.71L5.875 629.283L11.7204 629.283L11.7204 629.71L5.875 629.71Z" fill="#E9E8EF"/>
<path d="M5.875 632.426L5.875 631.999L11.7204 631.999L11.7204 632.426L5.875 632.426Z" fill="#E9E8EF"/>
<path d="M5.875 635.142L5.875 634.715L11.7204 634.715L11.7204 635.142L5.875 635.142Z" fill="#E9E8EF"/>
<path d="M5.875 637.859L5.875 637.432L11.7204 637.432L11.7204 637.859L5.875 637.859Z" fill="#E9E8EF"/>
<path d="M5.875 643.291L5.875 642.864L11.7204 642.864L11.7204 643.291L5.875 643.291Z" fill="#E9E8EF"/>
<path d="M5.875 646.007L5.875 645.58L11.7204 645.58L11.7204 646.007L5.875 646.007Z" fill="#E9E8EF"/>
<path d="M5.875 648.723L5.875 648.296L11.7204 648.296L11.7204 648.723L5.875 648.723Z" fill="#E9E8EF"/>
<path d="M5.875 651.439L5.875 651.012L11.7204 651.012L11.7204 651.439L5.875 651.439Z" fill="#E9E8EF"/>
<path d="M5.875 656.871L5.875 656.444L11.7204 656.444L11.7204 656.871L5.875 656.871Z" fill="#E9E8EF"/>
<path d="M5.875 659.587L5.875 659.16L11.7204 659.16L11.7204 659.587L5.875 659.587Z" fill="#E9E8EF"/>
<path d="M5.875 662.303L5.875 661.876L11.7204 661.876L11.7204 662.303L5.875 662.303Z" fill="#E9E8EF"/>
<path d="M5.875 665.019L5.875 664.592L11.7204 664.592L11.7204 665.019L5.875 665.019Z" fill="#E9E8EF"/>
<path d="M0.03125 668.354L0.03125 667.496L11.7221 667.496L11.7221 668.354L0.03125 668.354Z" fill="#E9E8EF"/>
<path d="M0.03125 559.306L0.03125 558.448L11.7221 558.448L11.7221 559.306L0.03125 559.306Z" fill="#E9E8EF"/>
<path d="M0.03125 572.887L0.03125 572.029L11.7221 572.029L11.7221 572.887L0.03125 572.887Z" fill="#E9E8EF"/>
<path d="M0.03125 586.468L0.03125 585.609L11.7221 585.609L11.7221 586.468L0.03125 586.468Z" fill="#E9E8EF"/>
<path d="M0.03125 586.468L0.03125 585.609L11.7221 585.609L11.7221 586.468L0.03125 586.468Z" fill="#E9E8EF"/>
<path d="M0.03125 600.049L0.03125 599.19L11.7221 599.19L11.7221 600.049L0.03125 600.049Z" fill="#E9E8EF"/>
<path d="M0.03125 613.629L0.03125 612.771L11.7221 612.771L11.7221 613.629L0.03125 613.629Z" fill="#E9E8EF"/>
<path d="M0.03125 613.629L0.03125 612.771L11.7221 612.771L11.7221 613.629L0.03125 613.629Z" fill="#E9E8EF"/>
<path d="M0.03125 627.209L0.03125 626.351L11.7221 626.351L11.7221 627.209L0.03125 627.209Z" fill="#E9E8EF"/>
<path d="M0.03125 640.79L0.03125 639.932L11.7221 639.932L11.7221 640.79L0.03125 640.79Z" fill="#E9E8EF"/>
<path d="M0.03125 640.79L0.03125 639.932L11.7221 639.932L11.7221 640.79L0.03125 640.79Z" fill="#E9E8EF"/>
<path d="M0.03125 654.371L0.03125 653.513L11.7221 653.513L11.7221 654.371L0.03125 654.371Z" fill="#E9E8EF"/>
<path d="M0.03125 14.9128L0.03125 14.0547L11.7221 14.0547L11.7221 14.9128L0.03125 14.9128Z" fill="#E9E8EF"/>
<path d="M5.88281 17.4173L5.88281 16.9902L11.7282 16.9902L11.7282 17.4173L5.88281 17.4173Z" fill="#E9E8EF"/>
<path d="M5.88281 20.1244L5.88281 19.6973L11.7282 19.6973L11.7282 20.1244L5.88281 20.1244Z" fill="#E9E8EF"/>
<path d="M5.88281 22.847L5.88281 22.4199L11.7282 22.4199L11.7282 22.847L5.88281 22.847Z" fill="#E9E8EF"/>
<path d="M5.88281 25.5609L5.88281 25.1338L11.7282 25.1338L11.7282 25.5609L5.88281 25.5609Z" fill="#E9E8EF"/>
<path d="M0.03125 28.488L0.03125 27.6299L11.7221 27.6299L11.7221 28.488L0.03125 28.488Z" fill="#E9E8EF"/>
<path d="M5.88281 30.9945L5.88281 30.5674L11.7282 30.5674L11.7282 30.9945L5.88281 30.9945Z" fill="#E9E8EF"/>
<path d="M5.88281 33.7044L5.88281 33.2773L11.7282 33.2773L11.7282 33.7044L5.88281 33.7044Z" fill="#E9E8EF"/>
<path d="M5.88281 36.4241L5.88281 35.9971L11.7282 35.9971L11.7282 36.4241L5.88281 36.4241Z" fill="#E9E8EF"/>
<path d="M5.88281 39.139L5.88281 38.7119L11.7282 38.7119L11.7282 39.139L5.88281 39.139Z" fill="#E9E8EF"/>
<path d="M0.03125 42.073L0.03125 41.2148L11.7221 41.2148L11.7221 42.073L0.03125 42.073Z" fill="#E9E8EF"/>
<path d="M0.03125 42.073L0.03125 41.2148L11.7221 41.2148L11.7221 42.073L0.03125 42.073Z" fill="#E9E8EF"/>
<path d="M5.88281 44.5745L5.88281 44.1475L11.7282 44.1475L11.7282 44.5745L5.88281 44.5745Z" fill="#E9E8EF"/>
<path d="M5.88281 47.2894L5.88281 46.8623L11.7282 46.8623L11.7282 47.2894L5.88281 47.2894Z" fill="#E9E8EF"/>
<path d="M5.88281 50.0032L5.88281 49.5762L11.7282 49.5762L11.7282 50.0032L5.88281 50.0032Z" fill="#E9E8EF"/>
<path d="M5.88281 52.722L5.88281 52.2949L11.7282 52.2949L11.7282 52.722L5.88281 52.722Z" fill="#E9E8EF"/>
<path d="M0.03125 55.6453L0.03125 54.7871L11.7221 54.7871L11.7221 55.6453L0.03125 55.6453Z" fill="#E9E8EF"/>
<path d="M5.88281 58.1556L5.88281 57.7285L11.7282 57.7285L11.7282 58.1556L5.88281 58.1556Z" fill="#E9E8EF"/>
<path d="M5.88281 60.8695L5.88281 60.4424L11.7282 60.4424L11.7282 60.8695L5.88281 60.8695Z" fill="#E9E8EF"/>
<path d="M5.88281 63.5794L5.88281 63.1523L11.7282 63.1523L11.7282 63.5794L5.88281 63.5794Z" fill="#E9E8EF"/>
<path d="M5.88281 66.2992L5.88281 65.8721L11.7282 65.8721L11.7282 66.2992L5.88281 66.2992Z" fill="#E9E8EF"/>
<path d="M0.03125 69.2351L0.03125 68.377L11.7221 68.377L11.7221 69.2351L0.03125 69.2351Z" fill="#E9E8EF"/>
<path d="M0.03125 69.2351L0.03125 68.377L11.7221 68.377L11.7221 69.2351L0.03125 69.2351Z" fill="#E9E8EF"/>
<path d="M5.88281 71.7318L5.88281 71.3047L11.7282 71.3047L11.7282 71.7318L5.88281 71.7318Z" fill="#E9E8EF"/>
<path d="M5.88281 74.4505L5.88281 74.0234L11.7282 74.0234L11.7282 74.4505L5.88281 74.4505Z" fill="#E9E8EF"/>
<path d="M5.88281 77.1683L5.88281 76.7412L11.7282 76.7412L11.7282 77.1683L5.88281 77.1683Z" fill="#E9E8EF"/>
<path d="M5.88281 79.8831L5.88281 79.4561L11.7282 79.4561L11.7282 79.8831L5.88281 79.8831Z" fill="#E9E8EF"/>
<path d="M0.03125 82.8162L0.03125 81.958L11.7221 81.958L11.7221 82.8162L0.03125 82.8162Z" fill="#E9E8EF"/>
<path d="M5.88281 85.3177L5.88281 84.8906L11.7282 84.8906L11.7282 85.3177L5.88281 85.3177Z" fill="#E9E8EF"/>
<path d="M5.88281 88.0257L5.88281 87.5986L11.7282 87.5986L11.7282 88.0257L5.88281 88.0257Z" fill="#E9E8EF"/>
<path d="M5.88281 90.7445L5.88281 90.3174L11.7282 90.3174L11.7282 90.7445L5.88281 90.7445Z" fill="#E9E8EF"/>
<path d="M5.88281 93.4593L5.88281 93.0322L11.7282 93.0322L11.7282 93.4593L5.88281 93.4593Z" fill="#E9E8EF"/>
<path d="M0.03125 96.3914L0.03125 95.5332L11.7221 95.5332L11.7221 96.3914L0.03125 96.3914Z" fill="#E9E8EF"/>
<path d="M0.03125 96.3914L0.03125 95.5332L11.7221 95.5332L11.7221 96.3914L0.03125 96.3914Z" fill="#E9E8EF"/>
<path d="M5.88281 98.8968L5.88281 98.4697L11.7282 98.4697L11.7282 98.8968L5.88281 98.8968Z" fill="#E9E8EF"/>
<path d="M5.88281 101.608L5.88281 101.181L11.7282 101.181L11.7282 101.608L5.88281 101.608Z" fill="#E9E8EF"/>
<path d="M5.88281 104.329L5.88281 103.902L11.7282 103.902L11.7282 104.329L5.88281 104.329Z" fill="#E9E8EF"/>
<path d="M5.88281 107.043L5.88281 106.616L11.7282 106.616L11.7282 107.043L5.88281 107.043Z" fill="#E9E8EF"/>
<path d="M0.03125 109.976L0.03125 109.118L11.7221 109.118L11.7221 109.976L0.03125 109.976Z" fill="#E9E8EF"/>
<path d="M5.88281 112.478L5.88281 112.051L11.7282 112.051L11.7282 112.478L5.88281 112.478Z" fill="#E9E8EF"/>
<path d="M5.88281 115.197L5.88281 114.77L11.7282 114.77L11.7282 115.197L5.88281 115.197Z" fill="#E9E8EF"/>
<path d="M5.88281 117.908L5.88281 117.48L11.7282 117.48L11.7282 117.908L5.88281 117.908Z" fill="#E9E8EF"/>
<path d="M5.88281 120.621L5.88281 120.194L11.7282 120.194L11.7282 120.621L5.88281 120.621Z" fill="#E9E8EF"/>
<path d="M0.03125 0.928473L0.03125 0.0703125L11.7221 0.0703118L11.7221 0.928472L0.03125 0.928473Z" fill="#E9E8EF"/>
<path d="M5.88281 3.42514L5.88281 2.99805L11.7282 2.99805L11.7282 3.42514L5.88281 3.42514Z" fill="#E9E8EF"/>
<path d="M5.88281 6.14486L5.88281 5.71777L11.7282 5.71777L11.7282 6.14486L5.88281 6.14486Z" fill="#E9E8EF"/>
<path d="M5.88281 8.86361L5.88281 8.43652L11.7282 8.43652L11.7282 8.86361L5.88281 8.86361Z" fill="#E9E8EF"/>
<path d="M5.88281 11.5745L5.88281 11.1475L11.7282 11.1475L11.7282 11.5745L5.88281 11.5745Z" fill="#E9E8EF"/>
<g clip-path="url(#clip0_505_37423)">
<path d="M0.03125 232.584L0.03125 231.726L11.7221 231.726L11.7221 232.584L0.03125 232.584Z" fill="#E9E8EF"/>
<path d="M5.875 235.088L5.875 234.661L11.7204 234.661L11.7204 235.088L5.875 235.088Z" fill="#E9E8EF"/>
<path d="M5.875 237.8L5.875 237.373L11.7204 237.373L11.7204 237.8L5.875 237.8Z" fill="#E9E8EF"/>
<path d="M5.875 240.517L5.875 240.09L11.7204 240.09L11.7204 240.517L5.875 240.517Z" fill="#E9E8EF"/>
<path d="M5.875 243.233L5.875 242.806L11.7204 242.806L11.7204 243.233L5.875 243.233Z" fill="#E9E8EF"/>
<path d="M0.03125 246.164L0.03125 245.306L11.7221 245.306L11.7221 246.164L0.03125 246.164Z" fill="#E9E8EF"/>
<path d="M5.875 248.669L5.875 248.242L11.7204 248.242L11.7204 248.669L5.875 248.669Z" fill="#E9E8EF"/>
<path d="M5.875 251.381L5.875 250.954L11.7204 250.954L11.7204 251.381L5.875 251.381Z" fill="#E9E8EF"/>
<path d="M5.875 254.097L5.875 253.67L11.7204 253.67L11.7204 254.097L5.875 254.097Z" fill="#E9E8EF"/>
<path d="M5.875 256.813L5.875 256.386L11.7204 256.386L11.7204 256.813L5.875 256.813Z" fill="#E9E8EF"/>
<path d="M0.03125 259.745L0.03125 258.887L11.7221 258.887L11.7221 259.745L0.03125 259.745Z" fill="#E9E8EF"/>
<path d="M0.03125 259.745L0.03125 258.887L11.7221 258.887L11.7221 259.745L0.03125 259.745Z" fill="#E9E8EF"/>
<path d="M5.875 262.249L5.875 261.822L11.7204 261.822L11.7204 262.249L5.875 262.249Z" fill="#E9E8EF"/>
<path d="M5.875 264.961L5.875 264.534L11.7204 264.534L11.7204 264.961L5.875 264.961Z" fill="#E9E8EF"/>
<path d="M5.875 267.678L5.875 267.251L11.7204 267.251L11.7204 267.678L5.875 267.678Z" fill="#E9E8EF"/>
<path d="M5.875 270.394L5.875 269.967L11.7204 269.967L11.7204 270.394L5.875 270.394Z" fill="#E9E8EF"/>
<path d="M0.03125 273.325L0.03125 272.467L11.7221 272.467L11.7221 273.325L0.03125 273.325Z" fill="#E9E8EF"/>
<path d="M5.875 275.827L5.875 275.399L11.7204 275.399L11.7204 275.827L5.875 275.827Z" fill="#E9E8EF"/>
<path d="M5.875 278.542L5.875 278.115L11.7204 278.115L11.7204 278.542L5.875 278.542Z" fill="#E9E8EF"/>
<path d="M5.875 281.258L5.875 280.831L11.7204 280.831L11.7204 281.258L5.875 281.258Z" fill="#E9E8EF"/>
<path d="M5.875 283.974L5.875 283.547L11.7204 283.547L11.7204 283.974L5.875 283.974Z" fill="#E9E8EF"/>
<path d="M0.03125 286.906L0.03125 286.048L11.7221 286.048L11.7221 286.906L0.03125 286.906Z" fill="#E9E8EF"/>
<path d="M0.03125 286.906L0.03125 286.048L11.7221 286.048L11.7221 286.906L0.03125 286.906Z" fill="#E9E8EF"/>
<path d="M5.875 289.407L5.875 288.979L11.7204 288.979L11.7204 289.407L5.875 289.407Z" fill="#E9E8EF"/>
<path d="M5.875 292.122L5.875 291.695L11.7204 291.695L11.7204 292.122L5.875 292.122Z" fill="#E9E8EF"/>
<path d="M5.875 294.839L5.875 294.412L11.7204 294.412L11.7204 294.839L5.875 294.839Z" fill="#E9E8EF"/>
<path d="M5.875 297.555L5.875 297.128L11.7204 297.128L11.7204 297.555L5.875 297.555Z" fill="#E9E8EF"/>
<path d="M0.03125 300.486L0.03125 299.628L11.7221 299.628L11.7221 300.486L0.03125 300.486Z" fill="#E9E8EF"/>
<path d="M5.875 302.987L5.875 302.56L11.7204 302.56L11.7204 302.987L5.875 302.987Z" fill="#E9E8EF"/>
<path d="M5.875 305.703L5.875 305.276L11.7204 305.276L11.7204 305.703L5.875 305.703Z" fill="#E9E8EF"/>
<path d="M5.875 308.419L5.875 307.992L11.7204 307.992L11.7204 308.419L5.875 308.419Z" fill="#E9E8EF"/>
<path d="M5.875 311.135L5.875 310.708L11.7204 310.708L11.7204 311.135L5.875 311.135Z" fill="#E9E8EF"/>
<path d="M0.03125 314.067L0.03125 313.209L11.7221 313.209L11.7221 314.067L0.03125 314.067Z" fill="#E9E8EF"/>
<path d="M0.03125 314.067L0.03125 313.209L11.7221 313.209L11.7221 314.067L0.03125 314.067Z" fill="#E9E8EF"/>
<path d="M5.875 316.568L5.875 316.141L11.7204 316.141L11.7204 316.568L5.875 316.568Z" fill="#E9E8EF"/>
<path d="M5.875 319.284L5.875 318.856L11.7204 318.856L11.7204 319.284L5.875 319.284Z" fill="#E9E8EF"/>
<path d="M5.875 322L5.875 321.573L11.7204 321.573L11.7204 322L5.875 322Z" fill="#E9E8EF"/>
<path d="M5.875 324.716L5.875 324.289L11.7204 324.289L11.7204 324.716L5.875 324.716Z" fill="#E9E8EF"/>
<path d="M0.03125 327.647L0.03125 326.789L11.7221 326.789L11.7221 327.647L0.03125 327.647Z" fill="#E9E8EF"/>
<path d="M5.875 330.148L5.875 329.721L11.7204 329.721L11.7204 330.148L5.875 330.148Z" fill="#E9E8EF"/>
<path d="M5.875 332.865L5.875 332.438L11.7204 332.437L11.7204 332.865L5.875 332.865Z" fill="#E9E8EF"/>
<path d="M5.875 335.58L5.875 335.153L11.7204 335.153L11.7204 335.58L5.875 335.58Z" fill="#E9E8EF"/>
<path d="M5.875 338.296L5.875 337.869L11.7204 337.869L11.7204 338.296L5.875 338.296Z" fill="#E9E8EF"/>
<path d="M0.03125 123.536L0.03125 122.678L11.7221 122.678L11.7221 123.536L0.03125 123.536Z" fill="#E9E8EF"/>
<path d="M5.875 126.036L5.875 125.609L11.7204 125.609L11.7204 126.036L5.875 126.036Z" fill="#E9E8EF"/>
<path d="M5.875 128.752L5.875 128.325L11.7204 128.325L11.7204 128.752L5.875 128.752Z" fill="#E9E8EF"/>
<path d="M5.875 131.469L5.875 131.042L11.7204 131.042L11.7204 131.469L5.875 131.469Z" fill="#E9E8EF"/>
<path d="M5.875 134.185L5.875 133.758L11.7204 133.758L11.7204 134.185L5.875 134.185Z" fill="#E9E8EF"/>
<path d="M0.03125 137.116L0.03125 136.258L11.7221 136.258L11.7221 137.116L0.03125 137.116Z" fill="#E9E8EF"/>
<path d="M5.875 139.618L5.875 139.19L11.7204 139.19L11.7204 139.618L5.875 139.618Z" fill="#E9E8EF"/>
<path d="M5.875 142.333L5.875 141.906L11.7204 141.906L11.7204 142.333L5.875 142.333Z" fill="#E9E8EF"/>
<path d="M5.875 145.049L5.875 144.622L11.7204 144.622L11.7204 145.049L5.875 145.049Z" fill="#E9E8EF"/>
<path d="M5.875 147.766L5.875 147.339L11.7204 147.339L11.7204 147.766L5.875 147.766Z" fill="#E9E8EF"/>
<path d="M0.03125 150.697L0.03125 149.839L11.7221 149.839L11.7221 150.697L0.03125 150.697Z" fill="#E9E8EF"/>
<path d="M0.03125 150.697L0.03125 149.839L11.7221 149.839L11.7221 150.697L0.03125 150.697Z" fill="#E9E8EF"/>
<path d="M5.875 153.198L5.875 152.771L11.7204 152.771L11.7204 153.198L5.875 153.198Z" fill="#E9E8EF"/>
<path d="M5.875 155.913L5.875 155.486L11.7204 155.486L11.7204 155.913L5.875 155.913Z" fill="#E9E8EF"/>
<path d="M5.875 158.63L5.875 158.203L11.7204 158.203L11.7204 158.63L5.875 158.63Z" fill="#E9E8EF"/>
<path d="M5.875 161.346L5.875 160.919L11.7204 160.919L11.7204 161.346L5.875 161.346Z" fill="#E9E8EF"/>
<path d="M0.03125 164.277L0.03125 163.419L11.7221 163.419L11.7221 164.277L0.03125 164.277Z" fill="#E9E8EF"/>
<path d="M5.875 166.779L5.875 166.352L11.7204 166.352L11.7204 166.779L5.875 166.779Z" fill="#E9E8EF"/>
<path d="M5.875 169.494L5.875 169.067L11.7204 169.067L11.7204 169.494L5.875 169.494Z" fill="#E9E8EF"/>
<path d="M5.875 172.21L5.875 171.783L11.7204 171.783L11.7204 172.21L5.875 172.21Z" fill="#E9E8EF"/>
<path d="M5.875 174.926L5.875 174.499L11.7204 174.499L11.7204 174.926L5.875 174.926Z" fill="#E9E8EF"/>
<path d="M0.03125 177.858L0.03125 177L11.7221 177L11.7221 177.858L0.03125 177.858Z" fill="#E9E8EF"/>
<path d="M0.03125 177.858L0.03125 177L11.7221 177L11.7221 177.858L0.03125 177.858Z" fill="#E9E8EF"/>
<path d="M5.875 180.359L5.875 179.932L11.7204 179.932L11.7204 180.359L5.875 180.359Z" fill="#E9E8EF"/>
<path d="M5.875 183.075L5.875 182.647L11.7204 182.647L11.7204 183.075L5.875 183.075Z" fill="#E9E8EF"/>
<path d="M5.875 185.791L5.875 185.364L11.7204 185.364L11.7204 185.791L5.875 185.791Z" fill="#E9E8EF"/>
<path d="M5.875 188.507L5.875 188.08L11.7204 188.08L11.7204 188.507L5.875 188.507Z" fill="#E9E8EF"/>
<path d="M0.03125 191.438L0.03125 190.58L11.7221 190.58L11.7221 191.438L0.03125 191.438Z" fill="#E9E8EF"/>
<path d="M5.875 193.94L5.875 193.513L11.7204 193.513L11.7204 193.94L5.875 193.94Z" fill="#E9E8EF"/>
<path d="M5.875 196.656L5.875 196.229L11.7204 196.229L11.7204 196.656L5.875 196.656Z" fill="#E9E8EF"/>
<path d="M5.875 199.371L5.875 198.944L11.7204 198.944L11.7204 199.371L5.875 199.371Z" fill="#E9E8EF"/>
<path d="M5.875 202.087L5.875 201.66L11.7204 201.66L11.7204 202.087L5.875 202.087Z" fill="#E9E8EF"/>
<path d="M0.03125 205.019L0.03125 204.161L11.7221 204.161L11.7221 205.019L0.03125 205.019Z" fill="#E9E8EF"/>
<path d="M0.03125 205.019L0.03125 204.161L11.7221 204.161L11.7221 205.019L0.03125 205.019Z" fill="#E9E8EF"/>
<path d="M5.875 207.52L5.875 207.093L11.7204 207.093L11.7204 207.52L5.875 207.52Z" fill="#E9E8EF"/>
<path d="M5.875 210.236L5.875 209.809L11.7204 209.809L11.7204 210.236L5.875 210.236Z" fill="#E9E8EF"/>
<path d="M5.875 212.952L5.875 212.525L11.7204 212.525L11.7204 212.952L5.875 212.952Z" fill="#E9E8EF"/>
<path d="M5.875 215.668L5.875 215.241L11.7204 215.241L11.7204 215.668L5.875 215.668Z" fill="#E9E8EF"/>
<path d="M0.03125 218.599L0.03125 217.741L11.7221 217.741L11.7221 218.599L0.03125 218.599Z" fill="#E9E8EF"/>
<path d="M5.875 221.1L5.875 220.673L11.7204 220.673L11.7204 221.1L5.875 221.1Z" fill="#E9E8EF"/>
<path d="M5.875 223.817L5.875 223.39L11.7204 223.39L11.7204 223.817L5.875 223.817Z" fill="#E9E8EF"/>
<path d="M5.875 226.533L5.875 226.105L11.7204 226.105L11.7204 226.533L5.875 226.533Z" fill="#E9E8EF"/>
<path d="M5.875 229.248L5.875 228.821L11.7204 228.821L11.7204 229.248L5.875 229.248Z" fill="#E9E8EF"/>
</g>
<g clip-path="url(#clip1_505_37423)">
<path d="M0.03125 450.274L0.03125 449.416L11.7221 449.416L11.7221 450.274L0.03125 450.274Z" fill="#E9E8EF"/>
<path d="M5.875 452.779L5.875 452.352L11.7204 452.352L11.7204 452.779L5.875 452.779Z" fill="#E9E8EF"/>
<path d="M5.875 455.491L5.875 455.063L11.7204 455.063L11.7204 455.491L5.875 455.491Z" fill="#E9E8EF"/>
<path d="M5.875 458.207L5.875 457.78L11.7204 457.78L11.7204 458.207L5.875 458.207Z" fill="#E9E8EF"/>
<path d="M5.875 460.923L5.875 460.496L11.7204 460.496L11.7204 460.923L5.875 460.923Z" fill="#E9E8EF"/>
<path d="M0.03125 463.854L0.03125 462.996L11.7221 462.996L11.7221 463.854L0.03125 463.854Z" fill="#E9E8EF"/>
<path d="M5.875 466.36L5.875 465.933L11.7204 465.933L11.7204 466.36L5.875 466.36Z" fill="#E9E8EF"/>
<path d="M5.875 469.072L5.875 468.645L11.7204 468.645L11.7204 469.072L5.875 469.072Z" fill="#E9E8EF"/>
<path d="M5.875 471.787L5.875 471.36L11.7204 471.36L11.7204 471.787L5.875 471.787Z" fill="#E9E8EF"/>
<path d="M5.875 474.503L5.875 474.076L11.7204 474.076L11.7204 474.503L5.875 474.503Z" fill="#E9E8EF"/>
<path d="M0.03125 477.435L0.03125 476.577L11.7221 476.577L11.7221 477.435L0.03125 477.435Z" fill="#E9E8EF"/>
<path d="M0.03125 477.435L0.03125 476.577L11.7221 476.577L11.7221 477.435L0.03125 477.435Z" fill="#E9E8EF"/>
<path d="M5.875 479.94L5.875 479.513L11.7204 479.513L11.7204 479.94L5.875 479.94Z" fill="#E9E8EF"/>
<path d="M5.875 482.652L5.875 482.225L11.7204 482.225L11.7204 482.652L5.875 482.652Z" fill="#E9E8EF"/>
<path d="M5.875 485.368L5.875 484.941L11.7204 484.941L11.7204 485.368L5.875 485.368Z" fill="#E9E8EF"/>
<path d="M5.875 488.084L5.875 487.657L11.7204 487.657L11.7204 488.084L5.875 488.084Z" fill="#E9E8EF"/>
<path d="M0.03125 491.015L0.03125 490.157L11.7221 490.157L11.7221 491.015L0.03125 491.015Z" fill="#E9E8EF"/>
<path d="M5.875 493.517L5.875 493.09L11.7204 493.09L11.7204 493.517L5.875 493.517Z" fill="#E9E8EF"/>
<path d="M5.875 496.233L5.875 495.806L11.7204 495.806L11.7204 496.233L5.875 496.233Z" fill="#E9E8EF"/>
<path d="M5.875 498.949L5.875 498.521L11.7204 498.521L11.7204 498.949L5.875 498.949Z" fill="#E9E8EF"/>
<path d="M5.875 501.664L5.875 501.237L11.7204 501.237L11.7204 501.664L5.875 501.664Z" fill="#E9E8EF"/>
<path d="M0.03125 504.596L0.03125 503.738L11.7221 503.738L11.7221 504.596L0.03125 504.596Z" fill="#E9E8EF"/>
<path d="M0.03125 504.596L0.03125 503.738L11.7221 503.738L11.7221 504.596L0.03125 504.596Z" fill="#E9E8EF"/>
<path d="M5.875 507.097L5.875 506.67L11.7204 506.67L11.7204 507.097L5.875 507.097Z" fill="#E9E8EF"/>
<path d="M5.875 509.813L5.875 509.386L11.7204 509.386L11.7204 509.813L5.875 509.813Z" fill="#E9E8EF"/>
<path d="M5.875 512.53L5.875 512.103L11.7204 512.103L11.7204 512.53L5.875 512.53Z" fill="#E9E8EF"/>
<path d="M5.875 515.245L5.875 514.818L11.7204 514.818L11.7204 515.245L5.875 515.245Z" fill="#E9E8EF"/>
<path d="M0.03125 518.177L0.03125 517.318L11.7221 517.318L11.7221 518.177L0.03125 518.177Z" fill="#E9E8EF"/>
<path d="M5.875 520.677L5.875 520.25L11.7204 520.25L11.7204 520.677L5.875 520.677Z" fill="#E9E8EF"/>
<path d="M5.875 523.394L5.875 522.967L11.7204 522.967L11.7204 523.394L5.875 523.394Z" fill="#E9E8EF"/>
<path d="M5.875 526.11L5.875 525.683L11.7204 525.683L11.7204 526.11L5.875 526.11Z" fill="#E9E8EF"/>
<path d="M5.875 528.826L5.875 528.398L11.7204 528.398L11.7204 528.826L5.875 528.826Z" fill="#E9E8EF"/>
<path d="M0.03125 531.758L0.03125 530.899L11.7221 530.899L11.7221 531.758L0.03125 531.758Z" fill="#E9E8EF"/>
<path d="M0.03125 531.758L0.03125 530.899L11.7221 530.899L11.7221 531.758L0.03125 531.758Z" fill="#E9E8EF"/>
<path d="M5.875 534.258L5.875 533.831L11.7204 533.831L11.7204 534.258L5.875 534.258Z" fill="#E9E8EF"/>
<path d="M5.875 536.974L5.875 536.547L11.7204 536.547L11.7204 536.974L5.875 536.974Z" fill="#E9E8EF"/>
<path d="M5.875 539.691L5.875 539.264L11.7204 539.264L11.7204 539.691L5.875 539.691Z" fill="#E9E8EF"/>
<path d="M5.875 542.407L5.875 541.979L11.7204 541.979L11.7204 542.407L5.875 542.407Z" fill="#E9E8EF"/>
<path d="M0.03125 545.338L0.03125 544.479L11.7221 544.479L11.7221 545.338L0.03125 545.338Z" fill="#E9E8EF"/>
<path d="M5.875 547.838L5.875 547.411L11.7204 547.411L11.7204 547.838L5.875 547.838Z" fill="#E9E8EF"/>
<path d="M5.875 550.555L5.875 550.128L11.7204 550.128L11.7204 550.555L5.875 550.555Z" fill="#E9E8EF"/>
<path d="M5.875 553.271L5.875 552.844L11.7204 552.844L11.7204 553.271L5.875 553.271Z" fill="#E9E8EF"/>
<path d="M5.875 555.987L5.875 555.56L11.7204 555.56L11.7204 555.987L5.875 555.987Z" fill="#E9E8EF"/>
<path d="M0.03125 341.226L0.03125 340.368L11.7221 340.368L11.7221 341.226L0.03125 341.226Z" fill="#E9E8EF"/>
<path d="M5.875 343.727L5.875 343.3L11.7204 343.3L11.7204 343.727L5.875 343.727Z" fill="#E9E8EF"/>
<path d="M5.875 346.443L5.875 346.016L11.7204 346.016L11.7204 346.443L5.875 346.443Z" fill="#E9E8EF"/>
<path d="M5.875 349.16L5.875 348.732L11.7204 348.732L11.7204 349.16L5.875 349.16Z" fill="#E9E8EF"/>
<path d="M5.875 351.875L5.875 351.448L11.7204 351.448L11.7204 351.875L5.875 351.875Z" fill="#E9E8EF"/>
<path d="M0.03125 354.806L0.03125 353.948L11.7221 353.948L11.7221 354.806L0.03125 354.806Z" fill="#E9E8EF"/>
<path d="M5.875 357.308L5.875 356.881L11.7204 356.881L11.7204 357.308L5.875 357.308Z" fill="#E9E8EF"/>
<path d="M5.875 360.024L5.875 359.597L11.7204 359.597L11.7204 360.024L5.875 360.024Z" fill="#E9E8EF"/>
<path d="M5.875 362.74L5.875 362.312L11.7204 362.312L11.7204 362.74L5.875 362.74Z" fill="#E9E8EF"/>
<path d="M5.875 365.456L5.875 365.029L11.7204 365.029L11.7204 365.456L5.875 365.456Z" fill="#E9E8EF"/>
<path d="M0.03125 368.387L0.03125 367.529L11.7221 367.529L11.7221 368.387L0.03125 368.387Z" fill="#E9E8EF"/>
<path d="M0.03125 368.387L0.03125 367.529L11.7221 367.529L11.7221 368.387L0.03125 368.387Z" fill="#E9E8EF"/>
<path d="M5.875 370.888L5.875 370.461L11.7204 370.461L11.7204 370.888L5.875 370.888Z" fill="#E9E8EF"/>
<path d="M5.875 373.604L5.875 373.177L11.7204 373.177L11.7204 373.604L5.875 373.604Z" fill="#E9E8EF"/>
<path d="M5.875 376.321L5.875 375.894L11.7204 375.894L11.7204 376.321L5.875 376.321Z" fill="#E9E8EF"/>
<path d="M5.875 379.036L5.875 378.609L11.7204 378.609L11.7204 379.036L5.875 379.036Z" fill="#E9E8EF"/>
<path d="M0.03125 381.968L0.03125 381.109L11.7221 381.109L11.7221 381.968L0.03125 381.968Z" fill="#E9E8EF"/>
<path d="M5.875 384.469L5.875 384.042L11.7204 384.042L11.7204 384.469L5.875 384.469Z" fill="#E9E8EF"/>
<path d="M5.875 387.185L5.875 386.758L11.7204 386.758L11.7204 387.185L5.875 387.185Z" fill="#E9E8EF"/>
<path d="M5.875 389.901L5.875 389.474L11.7204 389.474L11.7204 389.901L5.875 389.901Z" fill="#E9E8EF"/>
<path d="M5.875 392.617L5.875 392.189L11.7204 392.189L11.7204 392.617L5.875 392.617Z" fill="#E9E8EF"/>
<path d="M0.03125 395.549L0.03125 394.69L11.7221 394.69L11.7221 395.549L0.03125 395.549Z" fill="#E9E8EF"/>
<path d="M0.03125 395.549L0.03125 394.69L11.7221 394.69L11.7221 395.549L0.03125 395.549Z" fill="#E9E8EF"/>
<path d="M5.875 398.049L5.875 397.622L11.7204 397.622L11.7204 398.049L5.875 398.049Z" fill="#E9E8EF"/>
<path d="M5.875 400.765L5.875 400.338L11.7204 400.338L11.7204 400.765L5.875 400.765Z" fill="#E9E8EF"/>
<path d="M5.875 403.482L5.875 403.055L11.7204 403.055L11.7204 403.482L5.875 403.482Z" fill="#E9E8EF"/>
<path d="M5.875 406.198L5.875 405.771L11.7204 405.771L11.7204 406.198L5.875 406.198Z" fill="#E9E8EF"/>
<path d="M0.03125 409.129L0.03125 408.271L11.7221 408.271L11.7221 409.129L0.03125 409.129Z" fill="#E9E8EF"/>
<path d="M5.875 411.63L5.875 411.203L11.7204 411.203L11.7204 411.63L5.875 411.63Z" fill="#E9E8EF"/>
<path d="M5.875 414.346L5.875 413.919L11.7204 413.919L11.7204 414.346L5.875 414.346Z" fill="#E9E8EF"/>
<path d="M5.875 417.062L5.875 416.635L11.7204 416.635L11.7204 417.062L5.875 417.062Z" fill="#E9E8EF"/>
<path d="M5.875 419.778L5.875 419.351L11.7204 419.351L11.7204 419.778L5.875 419.778Z" fill="#E9E8EF"/>
<path d="M0.03125 422.71L0.03125 421.852L11.7221 421.852L11.7221 422.71L0.03125 422.71Z" fill="#E9E8EF"/>
<path d="M0.03125 422.71L0.03125 421.852L11.7221 421.852L11.7221 422.71L0.03125 422.71Z" fill="#E9E8EF"/>
<path d="M5.875 425.21L5.875 424.783L11.7204 424.783L11.7204 425.21L5.875 425.21Z" fill="#E9E8EF"/>
<path d="M5.875 427.926L5.875 427.499L11.7204 427.499L11.7204 427.926L5.875 427.926Z" fill="#E9E8EF"/>
<path d="M5.875 430.643L5.875 430.216L11.7204 430.216L11.7204 430.643L5.875 430.643Z" fill="#E9E8EF"/>
<path d="M5.875 433.359L5.875 432.932L11.7204 432.932L11.7204 433.359L5.875 433.359Z" fill="#E9E8EF"/>
<path d="M0.03125 436.29L0.03125 435.432L11.7221 435.432L11.7221 436.29L0.03125 436.29Z" fill="#E9E8EF"/>
<path d="M5.875 438.79L5.875 438.363L11.7204 438.363L11.7204 438.79L5.875 438.79Z" fill="#E9E8EF"/>
<path d="M5.875 441.507L5.875 441.08L11.7204 441.08L11.7204 441.507L5.875 441.507Z" fill="#E9E8EF"/>
<path d="M5.875 444.223L5.875 443.796L11.7204 443.796L11.7204 444.223L5.875 444.223Z" fill="#E9E8EF"/>
<path d="M5.875 446.939L5.875 446.512L11.7204 446.512L11.7204 446.939L5.875 446.939Z" fill="#E9E8EF"/>
</g>
<path d="M21.9023 561.807L21.9023 561.38L16.0569 561.38L16.0569 561.807L21.9023 561.807Z" fill="#E9E8EF"/>
<path d="M21.9023 564.524L21.9023 564.097L16.0569 564.097L16.0569 564.524L21.9023 564.524Z" fill="#E9E8EF"/>
<path d="M21.9023 567.24L21.9023 566.812L16.0569 566.812L16.0569 567.24L21.9023 567.24Z" fill="#E9E8EF"/>
<path d="M21.9023 569.956L21.9023 569.529L16.0569 569.529L16.0569 569.956L21.9023 569.956Z" fill="#E9E8EF"/>
<path d="M21.9023 575.388L21.9023 574.961L16.0569 574.961L16.0569 575.388L21.9023 575.388Z" fill="#E9E8EF"/>
<path d="M21.9023 578.105L21.9023 577.678L16.0569 577.678L16.0569 578.105L21.9023 578.105Z" fill="#E9E8EF"/>
<path d="M21.9023 580.82L21.9023 580.393L16.0569 580.393L16.0569 580.82L21.9023 580.82Z" fill="#E9E8EF"/>
<path d="M21.9023 583.535L21.9023 583.108L16.0569 583.108L16.0569 583.535L21.9023 583.535Z" fill="#E9E8EF"/>
<path d="M21.9023 588.968L21.9023 588.541L16.0569 588.541L16.0569 588.968L21.9023 588.968Z" fill="#E9E8EF"/>
<path d="M21.9023 591.685L21.9023 591.258L16.0569 591.258L16.0569 591.685L21.9023 591.685Z" fill="#E9E8EF"/>
<path d="M21.9023 594.402L21.9023 593.975L16.0569 593.975L16.0569 594.402L21.9023 594.402Z" fill="#E9E8EF"/>
<path d="M21.9023 597.117L21.9023 596.689L16.0569 596.689L16.0569 597.117L21.9023 597.117Z" fill="#E9E8EF"/>
<path d="M21.9023 602.549L21.9023 602.122L16.0569 602.122L16.0569 602.549L21.9023 602.549Z" fill="#E9E8EF"/>
<path d="M21.9023 605.265L21.9023 604.838L16.0569 604.838L16.0569 605.265L21.9023 605.265Z" fill="#E9E8EF"/>
<path d="M21.9023 607.982L21.9023 607.555L16.0569 607.555L16.0569 607.982L21.9023 607.982Z" fill="#E9E8EF"/>
<path d="M21.9023 610.698L21.9023 610.271L16.0569 610.271L16.0569 610.698L21.9023 610.698Z" fill="#E9E8EF"/>
<path d="M21.9023 616.13L21.9023 615.703L16.0569 615.703L16.0569 616.13L21.9023 616.13Z" fill="#E9E8EF"/>
<path d="M21.9023 618.846L21.9023 618.419L16.0569 618.419L16.0569 618.846L21.9023 618.846Z" fill="#E9E8EF"/>
<path d="M21.9023 621.562L21.9023 621.135L16.0569 621.135L16.0569 621.562L21.9023 621.562Z" fill="#E9E8EF"/>
<path d="M21.9023 624.279L21.9023 623.852L16.0569 623.852L16.0569 624.279L21.9023 624.279Z" fill="#E9E8EF"/>
<path d="M21.9023 629.71L21.9023 629.283L16.0569 629.283L16.0569 629.71L21.9023 629.71Z" fill="#E9E8EF"/>
<path d="M21.9023 632.426L21.9023 631.999L16.0569 631.999L16.0569 632.426L21.9023 632.426Z" fill="#E9E8EF"/>
<path d="M21.9023 635.142L21.9023 634.715L16.0569 634.715L16.0569 635.142L21.9023 635.142Z" fill="#E9E8EF"/>
<path d="M21.9023 637.859L21.9023 637.432L16.0569 637.432L16.0569 637.859L21.9023 637.859Z" fill="#E9E8EF"/>
<path d="M21.9023 643.291L21.9023 642.864L16.0569 642.864L16.0569 643.291L21.9023 643.291Z" fill="#E9E8EF"/>
<path d="M21.9023 646.007L21.9023 645.58L16.0569 645.58L16.0569 646.007L21.9023 646.007Z" fill="#E9E8EF"/>
<path d="M21.9023 648.723L21.9023 648.296L16.0569 648.296L16.0569 648.723L21.9023 648.723Z" fill="#E9E8EF"/>
<path d="M21.9023 651.439L21.9023 651.012L16.0569 651.012L16.0569 651.439L21.9023 651.439Z" fill="#E9E8EF"/>
<path d="M21.9023 656.871L21.9023 656.444L16.0569 656.444L16.0569 656.871L21.9023 656.871Z" fill="#E9E8EF"/>
<path d="M21.9023 659.587L21.9023 659.16L16.0569 659.16L16.0569 659.587L21.9023 659.587Z" fill="#E9E8EF"/>
<path d="M21.9023 662.303L21.9023 661.876L16.0569 661.876L16.0569 662.303L21.9023 662.303Z" fill="#E9E8EF"/>
<path d="M21.9023 665.019L21.9023 664.592L16.0569 664.592L16.0569 665.019L21.9023 665.019Z" fill="#E9E8EF"/>
<path d="M27.7461 668.354L27.7461 667.496L16.0553 667.496L16.0553 668.354L27.7461 668.354Z" fill="#E9E8EF"/>
<path d="M27.7461 559.306L27.7461 558.448L16.0553 558.448L16.0553 559.306L27.7461 559.306Z" fill="#E9E8EF"/>
<path d="M27.7461 572.887L27.7461 572.029L16.0553 572.029L16.0553 572.887L27.7461 572.887Z" fill="#E9E8EF"/>
<path d="M27.7461 586.468L27.7461 585.609L16.0553 585.609L16.0553 586.468L27.7461 586.468Z" fill="#E9E8EF"/>
<path d="M27.7461 586.468L27.7461 585.609L16.0553 585.609L16.0553 586.468L27.7461 586.468Z" fill="#E9E8EF"/>
<path d="M27.7461 600.049L27.7461 599.19L16.0553 599.19L16.0553 600.049L27.7461 600.049Z" fill="#E9E8EF"/>
<path d="M27.7461 613.629L27.7461 612.771L16.0553 612.771L16.0553 613.629L27.7461 613.629Z" fill="#E9E8EF"/>
<path d="M27.7461 613.629L27.7461 612.771L16.0553 612.771L16.0553 613.629L27.7461 613.629Z" fill="#E9E8EF"/>
<path d="M27.7461 627.209L27.7461 626.351L16.0553 626.351L16.0553 627.209L27.7461 627.209Z" fill="#E9E8EF"/>
<path d="M27.7461 640.79L27.7461 639.932L16.0553 639.932L16.0553 640.79L27.7461 640.79Z" fill="#E9E8EF"/>
<path d="M27.7461 640.79L27.7461 639.932L16.0553 639.932L16.0553 640.79L27.7461 640.79Z" fill="#E9E8EF"/>
<path d="M27.7461 654.371L27.7461 653.513L16.0553 653.513L16.0553 654.371L27.7461 654.371Z" fill="#E9E8EF"/>
<path d="M27.7461 14.9128L27.7461 14.0547L16.0553 14.0547L16.0553 14.9128L27.7461 14.9128Z" fill="#E9E8EF"/>
<path d="M21.8945 17.4173L21.8945 16.9902L16.0491 16.9902L16.0491 17.4173L21.8945 17.4173Z" fill="#E9E8EF"/>
<path d="M21.8945 20.1244L21.8945 19.6973L16.0491 19.6973L16.0491 20.1244L21.8945 20.1244Z" fill="#E9E8EF"/>
<path d="M21.8945 22.847L21.8945 22.4199L16.0491 22.4199L16.0491 22.847L21.8945 22.847Z" fill="#E9E8EF"/>
<path d="M21.8945 25.5609L21.8945 25.1338L16.0491 25.1338L16.0491 25.5609L21.8945 25.5609Z" fill="#E9E8EF"/>
<path d="M27.7461 28.488L27.7461 27.6299L16.0553 27.6299L16.0553 28.488L27.7461 28.488Z" fill="#E9E8EF"/>
<path d="M21.8945 30.9945L21.8945 30.5674L16.0491 30.5674L16.0491 30.9945L21.8945 30.9945Z" fill="#E9E8EF"/>
<path d="M21.8945 33.7044L21.8945 33.2773L16.0491 33.2773L16.0491 33.7044L21.8945 33.7044Z" fill="#E9E8EF"/>
<path d="M21.8945 36.4241L21.8945 35.9971L16.0491 35.9971L16.0491 36.4241L21.8945 36.4241Z" fill="#E9E8EF"/>
<path d="M21.8945 39.139L21.8945 38.7119L16.0491 38.7119L16.0491 39.139L21.8945 39.139Z" fill="#E9E8EF"/>
<path d="M27.7461 42.073L27.7461 41.2148L16.0553 41.2148L16.0553 42.073L27.7461 42.073Z" fill="#E9E8EF"/>
<path d="M27.7461 42.073L27.7461 41.2148L16.0553 41.2148L16.0553 42.073L27.7461 42.073Z" fill="#E9E8EF"/>
<path d="M21.8945 44.5745L21.8945 44.1475L16.0491 44.1475L16.0491 44.5745L21.8945 44.5745Z" fill="#E9E8EF"/>
<path d="M21.8945 47.2894L21.8945 46.8623L16.0491 46.8623L16.0491 47.2894L21.8945 47.2894Z" fill="#E9E8EF"/>
<path d="M21.8945 50.0032L21.8945 49.5762L16.0491 49.5762L16.0491 50.0032L21.8945 50.0032Z" fill="#E9E8EF"/>
<path d="M21.8945 52.722L21.8945 52.2949L16.0491 52.2949L16.0491 52.722L21.8945 52.722Z" fill="#E9E8EF"/>
<path d="M27.7461 55.6453L27.7461 54.7871L16.0553 54.7871L16.0553 55.6453L27.7461 55.6453Z" fill="#E9E8EF"/>
<path d="M21.8945 58.1556L21.8945 57.7285L16.0491 57.7285L16.0491 58.1556L21.8945 58.1556Z" fill="#E9E8EF"/>
<path d="M21.8945 60.8695L21.8945 60.4424L16.0491 60.4424L16.0491 60.8695L21.8945 60.8695Z" fill="#E9E8EF"/>
<path d="M21.8945 63.5794L21.8945 63.1523L16.0491 63.1523L16.0491 63.5794L21.8945 63.5794Z" fill="#E9E8EF"/>
<path d="M21.8945 66.2992L21.8945 65.8721L16.0491 65.8721L16.0491 66.2992L21.8945 66.2992Z" fill="#E9E8EF"/>
<path d="M27.7461 69.2351L27.7461 68.377L16.0553 68.377L16.0553 69.2351L27.7461 69.2351Z" fill="#E9E8EF"/>
<path d="M27.7461 69.2351L27.7461 68.377L16.0553 68.377L16.0553 69.2351L27.7461 69.2351Z" fill="#E9E8EF"/>
<path d="M21.8945 71.7318L21.8945 71.3047L16.0491 71.3047L16.0491 71.7318L21.8945 71.7318Z" fill="#E9E8EF"/>
<path d="M21.8945 74.4505L21.8945 74.0234L16.0491 74.0234L16.0491 74.4505L21.8945 74.4505Z" fill="#E9E8EF"/>
<path d="M21.8945 77.1683L21.8945 76.7412L16.0491 76.7412L16.0491 77.1683L21.8945 77.1683Z" fill="#E9E8EF"/>
<path d="M21.8945 79.8831L21.8945 79.4561L16.0491 79.4561L16.0491 79.8831L21.8945 79.8831Z" fill="#E9E8EF"/>
<path d="M27.7461 82.8162L27.7461 81.958L16.0553 81.958L16.0553 82.8162L27.7461 82.8162Z" fill="#E9E8EF"/>
<path d="M21.8945 85.3177L21.8945 84.8906L16.0491 84.8906L16.0491 85.3177L21.8945 85.3177Z" fill="#E9E8EF"/>
<path d="M21.8945 88.0257L21.8945 87.5986L16.0491 87.5986L16.0491 88.0257L21.8945 88.0257Z" fill="#E9E8EF"/>
<path d="M21.8945 90.7445L21.8945 90.3174L16.0491 90.3174L16.0491 90.7445L21.8945 90.7445Z" fill="#E9E8EF"/>
<path d="M21.8945 93.4593L21.8945 93.0322L16.0491 93.0322L16.0491 93.4593L21.8945 93.4593Z" fill="#E9E8EF"/>
<path d="M27.7461 96.3914L27.7461 95.5332L16.0553 95.5332L16.0553 96.3914L27.7461 96.3914Z" fill="#E9E8EF"/>
<path d="M27.7461 96.3914L27.7461 95.5332L16.0553 95.5332L16.0553 96.3914L27.7461 96.3914Z" fill="#E9E8EF"/>
<path d="M21.8945 98.8968L21.8945 98.4697L16.0491 98.4697L16.0491 98.8968L21.8945 98.8968Z" fill="#E9E8EF"/>
<path d="M21.8945 101.608L21.8945 101.181L16.0491 101.181L16.0491 101.608L21.8945 101.608Z" fill="#E9E8EF"/>
<path d="M21.8945 104.329L21.8945 103.902L16.0491 103.902L16.0491 104.329L21.8945 104.329Z" fill="#E9E8EF"/>
<path d="M21.8945 107.043L21.8945 106.616L16.0491 106.616L16.0491 107.043L21.8945 107.043Z" fill="#E9E8EF"/>
<path d="M27.7461 109.976L27.7461 109.118L16.0553 109.118L16.0553 109.976L27.7461 109.976Z" fill="#E9E8EF"/>
<path d="M21.8945 112.478L21.8945 112.051L16.0491 112.051L16.0491 112.478L21.8945 112.478Z" fill="#E9E8EF"/>
<path d="M21.8945 115.197L21.8945 114.77L16.0491 114.77L16.0491 115.197L21.8945 115.197Z" fill="#E9E8EF"/>
<path d="M21.8945 117.908L21.8945 117.48L16.0491 117.48L16.0491 117.908L21.8945 117.908Z" fill="#E9E8EF"/>
<path d="M21.8945 120.621L21.8945 120.194L16.0491 120.194L16.0491 120.621L21.8945 120.621Z" fill="#E9E8EF"/>
<path d="M27.7461 0.928473L27.7461 0.0703125L16.0553 0.0703118L16.0553 0.928472L27.7461 0.928473Z" fill="#E9E8EF"/>
<path d="M21.8945 3.42514L21.8945 2.99805L16.0491 2.99805L16.0491 3.42514L21.8945 3.42514Z" fill="#E9E8EF"/>
<path d="M21.8945 6.14486L21.8945 5.71777L16.0491 5.71777L16.0491 6.14486L21.8945 6.14486Z" fill="#E9E8EF"/>
<path d="M21.8945 8.86361L21.8945 8.43652L16.0491 8.43652L16.0491 8.86361L21.8945 8.86361Z" fill="#E9E8EF"/>
<path d="M21.8945 11.5745L21.8945 11.1475L16.0491 11.1475L16.0491 11.5745L21.8945 11.5745Z" fill="#E9E8EF"/>
<g clip-path="url(#clip2_505_37423)">
<path d="M27.7461 232.584L27.7461 231.726L16.0553 231.726L16.0553 232.584L27.7461 232.584Z" fill="#E9E8EF"/>
<path d="M21.9023 235.088L21.9023 234.661L16.0569 234.661L16.0569 235.088L21.9023 235.088Z" fill="#E9E8EF"/>
<path d="M21.9023 237.8L21.9023 237.373L16.0569 237.373L16.0569 237.8L21.9023 237.8Z" fill="#E9E8EF"/>
<path d="M21.9023 240.517L21.9023 240.09L16.0569 240.09L16.0569 240.517L21.9023 240.517Z" fill="#E9E8EF"/>
<path d="M21.9023 243.233L21.9023 242.806L16.0569 242.806L16.0569 243.233L21.9023 243.233Z" fill="#E9E8EF"/>
<path d="M27.7461 246.164L27.7461 245.306L16.0553 245.306L16.0553 246.164L27.7461 246.164Z" fill="#E9E8EF"/>
<path d="M21.9023 248.669L21.9023 248.242L16.0569 248.242L16.0569 248.669L21.9023 248.669Z" fill="#E9E8EF"/>
<path d="M21.9023 251.381L21.9023 250.954L16.0569 250.954L16.0569 251.381L21.9023 251.381Z" fill="#E9E8EF"/>
<path d="M21.9023 254.097L21.9023 253.67L16.0569 253.67L16.0569 254.097L21.9023 254.097Z" fill="#E9E8EF"/>
<path d="M21.9023 256.813L21.9023 256.386L16.0569 256.386L16.0569 256.813L21.9023 256.813Z" fill="#E9E8EF"/>
<path d="M27.7461 259.745L27.7461 258.887L16.0553 258.887L16.0553 259.745L27.7461 259.745Z" fill="#E9E8EF"/>
<path d="M27.7461 259.745L27.7461 258.887L16.0553 258.887L16.0553 259.745L27.7461 259.745Z" fill="#E9E8EF"/>
<path d="M21.9023 262.249L21.9023 261.822L16.0569 261.822L16.0569 262.249L21.9023 262.249Z" fill="#E9E8EF"/>
<path d="M21.9023 264.961L21.9023 264.534L16.0569 264.534L16.0569 264.961L21.9023 264.961Z" fill="#E9E8EF"/>
<path d="M21.9023 267.678L21.9023 267.251L16.0569 267.251L16.0569 267.678L21.9023 267.678Z" fill="#E9E8EF"/>
<path d="M21.9023 270.394L21.9023 269.967L16.0569 269.967L16.0569 270.394L21.9023 270.394Z" fill="#E9E8EF"/>
<path d="M27.7461 273.325L27.7461 272.467L16.0553 272.467L16.0553 273.325L27.7461 273.325Z" fill="#E9E8EF"/>
<path d="M21.9023 275.827L21.9023 275.399L16.0569 275.399L16.0569 275.827L21.9023 275.827Z" fill="#E9E8EF"/>
<path d="M21.9023 278.542L21.9023 278.115L16.0569 278.115L16.0569 278.542L21.9023 278.542Z" fill="#E9E8EF"/>
<path d="M21.9023 281.258L21.9023 280.831L16.0569 280.831L16.0569 281.258L21.9023 281.258Z" fill="#E9E8EF"/>
<path d="M21.9023 283.974L21.9023 283.547L16.0569 283.547L16.0569 283.974L21.9023 283.974Z" fill="#E9E8EF"/>
<path d="M27.7461 286.906L27.7461 286.048L16.0553 286.048L16.0553 286.906L27.7461 286.906Z" fill="#E9E8EF"/>
<path d="M27.7461 286.906L27.7461 286.048L16.0553 286.048L16.0553 286.906L27.7461 286.906Z" fill="#E9E8EF"/>
<path d="M21.9023 289.407L21.9023 288.979L16.0569 288.979L16.0569 289.407L21.9023 289.407Z" fill="#E9E8EF"/>
<path d="M21.9023 292.122L21.9023 291.695L16.0569 291.695L16.0569 292.122L21.9023 292.122Z" fill="#E9E8EF"/>
<path d="M21.9023 294.839L21.9023 294.412L16.0569 294.412L16.0569 294.839L21.9023 294.839Z" fill="#E9E8EF"/>
<path d="M21.9023 297.555L21.9023 297.128L16.0569 297.128L16.0569 297.555L21.9023 297.555Z" fill="#E9E8EF"/>
<path d="M27.7461 300.486L27.7461 299.628L16.0553 299.628L16.0553 300.486L27.7461 300.486Z" fill="#E9E8EF"/>
<path d="M21.9023 302.987L21.9023 302.56L16.0569 302.56L16.0569 302.987L21.9023 302.987Z" fill="#E9E8EF"/>
<path d="M21.9023 305.703L21.9023 305.276L16.0569 305.276L16.0569 305.703L21.9023 305.703Z" fill="#E9E8EF"/>
<path d="M21.9023 308.419L21.9023 307.992L16.0569 307.992L16.0569 308.419L21.9023 308.419Z" fill="#E9E8EF"/>
<path d="M21.9023 311.135L21.9023 310.708L16.0569 310.708L16.0569 311.135L21.9023 311.135Z" fill="#E9E8EF"/>
<path d="M27.7461 314.067L27.7461 313.209L16.0553 313.209L16.0553 314.067L27.7461 314.067Z" fill="#E9E8EF"/>
<path d="M27.7461 314.067L27.7461 313.209L16.0553 313.209L16.0553 314.067L27.7461 314.067Z" fill="#E9E8EF"/>
<path d="M21.9023 316.568L21.9023 316.141L16.0569 316.141L16.0569 316.568L21.9023 316.568Z" fill="#E9E8EF"/>
<path d="M21.9023 319.284L21.9023 318.856L16.0569 318.856L16.0569 319.284L21.9023 319.284Z" fill="#E9E8EF"/>
<path d="M21.9023 322L21.9023 321.573L16.0569 321.573L16.0569 322L21.9023 322Z" fill="#E9E8EF"/>
<path d="M21.9023 324.716L21.9023 324.289L16.0569 324.289L16.0569 324.716L21.9023 324.716Z" fill="#E9E8EF"/>
<path d="M27.7461 327.647L27.7461 326.789L16.0553 326.789L16.0553 327.647L27.7461 327.647Z" fill="#E9E8EF"/>
<path d="M21.9023 330.148L21.9023 329.721L16.0569 329.721L16.0569 330.148L21.9023 330.148Z" fill="#E9E8EF"/>
<path d="M21.9023 332.865L21.9023 332.438L16.0569 332.437L16.0569 332.865L21.9023 332.865Z" fill="#E9E8EF"/>
<path d="M21.9023 335.58L21.9023 335.153L16.0569 335.153L16.0569 335.58L21.9023 335.58Z" fill="#E9E8EF"/>
<path d="M21.9023 338.296L21.9023 337.869L16.0569 337.869L16.0569 338.296L21.9023 338.296Z" fill="#E9E8EF"/>
<path d="M27.7461 123.536L27.7461 122.678L16.0553 122.678L16.0553 123.536L27.7461 123.536Z" fill="#E9E8EF"/>
<path d="M21.9023 126.036L21.9023 125.609L16.0569 125.609L16.0569 126.036L21.9023 126.036Z" fill="#E9E8EF"/>
<path d="M21.9023 128.752L21.9023 128.325L16.0569 128.325L16.0569 128.752L21.9023 128.752Z" fill="#E9E8EF"/>
<path d="M21.9023 131.469L21.9023 131.042L16.0569 131.042L16.0569 131.469L21.9023 131.469Z" fill="#E9E8EF"/>
<path d="M21.9023 134.185L21.9023 133.758L16.0569 133.758L16.0569 134.185L21.9023 134.185Z" fill="#E9E8EF"/>
<path d="M27.7461 137.116L27.7461 136.258L16.0553 136.258L16.0553 137.116L27.7461 137.116Z" fill="#E9E8EF"/>
<path d="M21.9023 139.618L21.9023 139.19L16.0569 139.19L16.0569 139.618L21.9023 139.618Z" fill="#E9E8EF"/>
<path d="M21.9023 142.333L21.9023 141.906L16.0569 141.906L16.0569 142.333L21.9023 142.333Z" fill="#E9E8EF"/>
<path d="M21.9023 145.049L21.9023 144.622L16.0569 144.622L16.0569 145.049L21.9023 145.049Z" fill="#E9E8EF"/>
<path d="M21.9023 147.766L21.9023 147.339L16.0569 147.339L16.0569 147.766L21.9023 147.766Z" fill="#E9E8EF"/>
<path d="M27.7461 150.697L27.7461 149.839L16.0553 149.839L16.0553 150.697L27.7461 150.697Z" fill="#E9E8EF"/>
<path d="M27.7461 150.697L27.7461 149.839L16.0553 149.839L16.0553 150.697L27.7461 150.697Z" fill="#E9E8EF"/>
<path d="M21.9023 153.198L21.9023 152.771L16.0569 152.771L16.0569 153.198L21.9023 153.198Z" fill="#E9E8EF"/>
<path d="M21.9023 155.913L21.9023 155.486L16.0569 155.486L16.0569 155.913L21.9023 155.913Z" fill="#E9E8EF"/>
<path d="M21.9023 158.63L21.9023 158.203L16.0569 158.203L16.0569 158.63L21.9023 158.63Z" fill="#E9E8EF"/>
<path d="M21.9023 161.346L21.9023 160.919L16.0569 160.919L16.0569 161.346L21.9023 161.346Z" fill="#E9E8EF"/>
<path d="M27.7461 164.277L27.7461 163.419L16.0553 163.419L16.0553 164.277L27.7461 164.277Z" fill="#E9E8EF"/>
<path d="M21.9023 166.779L21.9023 166.352L16.0569 166.352L16.0569 166.779L21.9023 166.779Z" fill="#E9E8EF"/>
<path d="M21.9023 169.494L21.9023 169.067L16.0569 169.067L16.0569 169.494L21.9023 169.494Z" fill="#E9E8EF"/>
<path d="M21.9023 172.21L21.9023 171.783L16.0569 171.783L16.0569 172.21L21.9023 172.21Z" fill="#E9E8EF"/>
<path d="M21.9023 174.926L21.9023 174.499L16.0569 174.499L16.0569 174.926L21.9023 174.926Z" fill="#E9E8EF"/>
<path d="M27.7461 177.858L27.7461 177L16.0553 177L16.0553 177.858L27.7461 177.858Z" fill="#E9E8EF"/>
<path d="M27.7461 177.858L27.7461 177L16.0553 177L16.0553 177.858L27.7461 177.858Z" fill="#E9E8EF"/>
<path d="M21.9023 180.359L21.9023 179.932L16.0569 179.932L16.0569 180.359L21.9023 180.359Z" fill="#E9E8EF"/>
<path d="M21.9023 183.075L21.9023 182.647L16.0569 182.647L16.0569 183.075L21.9023 183.075Z" fill="#E9E8EF"/>
<path d="M21.9023 185.791L21.9023 185.364L16.0569 185.364L16.0569 185.791L21.9023 185.791Z" fill="#E9E8EF"/>
<path d="M21.9023 188.507L21.9023 188.08L16.0569 188.08L16.0569 188.507L21.9023 188.507Z" fill="#E9E8EF"/>
<path d="M27.7461 191.438L27.7461 190.58L16.0553 190.58L16.0553 191.438L27.7461 191.438Z" fill="#E9E8EF"/>
<path d="M21.9023 193.94L21.9023 193.513L16.0569 193.513L16.0569 193.94L21.9023 193.94Z" fill="#E9E8EF"/>
<path d="M21.9023 196.656L21.9023 196.229L16.0569 196.229L16.0569 196.656L21.9023 196.656Z" fill="#E9E8EF"/>
<path d="M21.9023 199.371L21.9023 198.944L16.0569 198.944L16.0569 199.371L21.9023 199.371Z" fill="#E9E8EF"/>
<path d="M21.9023 202.087L21.9023 201.66L16.0569 201.66L16.0569 202.087L21.9023 202.087Z" fill="#E9E8EF"/>
<path d="M27.7461 205.019L27.7461 204.161L16.0553 204.161L16.0553 205.019L27.7461 205.019Z" fill="#E9E8EF"/>
<path d="M27.7461 205.019L27.7461 204.161L16.0553 204.161L16.0553 205.019L27.7461 205.019Z" fill="#E9E8EF"/>
<path d="M21.9023 207.52L21.9023 207.093L16.0569 207.093L16.0569 207.52L21.9023 207.52Z" fill="#E9E8EF"/>
<path d="M21.9023 210.236L21.9023 209.809L16.0569 209.809L16.0569 210.236L21.9023 210.236Z" fill="#E9E8EF"/>
<path d="M21.9023 212.952L21.9023 212.525L16.0569 212.525L16.0569 212.952L21.9023 212.952Z" fill="#E9E8EF"/>
<path d="M21.9023 215.668L21.9023 215.241L16.0569 215.241L16.0569 215.668L21.9023 215.668Z" fill="#E9E8EF"/>
<path d="M27.7461 218.599L27.7461 217.741L16.0553 217.741L16.0553 218.599L27.7461 218.599Z" fill="#E9E8EF"/>
<path d="M21.9023 221.1L21.9023 220.673L16.0569 220.673L16.0569 221.1L21.9023 221.1Z" fill="#E9E8EF"/>
<path d="M21.9023 223.817L21.9023 223.39L16.0569 223.39L16.0569 223.817L21.9023 223.817Z" fill="#E9E8EF"/>
<path d="M21.9023 226.533L21.9023 226.105L16.0569 226.105L16.0569 226.533L21.9023 226.533Z" fill="#E9E8EF"/>
<path d="M21.9023 229.248L21.9023 228.821L16.0569 228.821L16.0569 229.248L21.9023 229.248Z" fill="#E9E8EF"/>
</g>
<g clip-path="url(#clip3_505_37423)">
<path d="M27.7461 450.274L27.7461 449.416L16.0553 449.416L16.0553 450.274L27.7461 450.274Z" fill="#E9E8EF"/>
<path d="M21.9023 452.779L21.9023 452.352L16.0569 452.352L16.0569 452.779L21.9023 452.779Z" fill="#E9E8EF"/>
<path d="M21.9023 455.491L21.9023 455.063L16.0569 455.063L16.0569 455.491L21.9023 455.491Z" fill="#E9E8EF"/>
<path d="M21.9023 458.207L21.9023 457.78L16.0569 457.78L16.0569 458.207L21.9023 458.207Z" fill="#E9E8EF"/>
<path d="M21.9023 460.923L21.9023 460.496L16.0569 460.496L16.0569 460.923L21.9023 460.923Z" fill="#E9E8EF"/>
<path d="M27.7461 463.854L27.7461 462.996L16.0553 462.996L16.0553 463.854L27.7461 463.854Z" fill="#E9E8EF"/>
<path d="M21.9023 466.36L21.9023 465.933L16.0569 465.933L16.0569 466.36L21.9023 466.36Z" fill="#E9E8EF"/>
<path d="M21.9023 469.072L21.9023 468.645L16.0569 468.645L16.0569 469.072L21.9023 469.072Z" fill="#E9E8EF"/>
<path d="M21.9023 471.787L21.9023 471.36L16.0569 471.36L16.0569 471.787L21.9023 471.787Z" fill="#E9E8EF"/>
<path d="M21.9023 474.503L21.9023 474.076L16.0569 474.076L16.0569 474.503L21.9023 474.503Z" fill="#E9E8EF"/>
<path d="M27.7461 477.435L27.7461 476.577L16.0553 476.577L16.0553 477.435L27.7461 477.435Z" fill="#E9E8EF"/>
<path d="M27.7461 477.435L27.7461 476.577L16.0553 476.577L16.0553 477.435L27.7461 477.435Z" fill="#E9E8EF"/>
<path d="M21.9023 479.94L21.9023 479.513L16.0569 479.513L16.0569 479.94L21.9023 479.94Z" fill="#E9E8EF"/>
<path d="M21.9023 482.652L21.9023 482.225L16.0569 482.225L16.0569 482.652L21.9023 482.652Z" fill="#E9E8EF"/>
<path d="M21.9023 485.368L21.9023 484.941L16.0569 484.941L16.0569 485.368L21.9023 485.368Z" fill="#E9E8EF"/>
<path d="M21.9023 488.084L21.9023 487.657L16.0569 487.657L16.0569 488.084L21.9023 488.084Z" fill="#E9E8EF"/>
<path d="M27.7461 491.015L27.7461 490.157L16.0553 490.157L16.0553 491.015L27.7461 491.015Z" fill="#E9E8EF"/>
<path d="M21.9023 493.517L21.9023 493.09L16.0569 493.09L16.0569 493.517L21.9023 493.517Z" fill="#E9E8EF"/>
<path d="M21.9023 496.233L21.9023 495.806L16.0569 495.806L16.0569 496.233L21.9023 496.233Z" fill="#E9E8EF"/>
<path d="M21.9023 498.949L21.9023 498.521L16.0569 498.521L16.0569 498.949L21.9023 498.949Z" fill="#E9E8EF"/>
<path d="M21.9023 501.664L21.9023 501.237L16.0569 501.237L16.0569 501.664L21.9023 501.664Z" fill="#E9E8EF"/>
<path d="M27.7461 504.596L27.7461 503.738L16.0553 503.738L16.0553 504.596L27.7461 504.596Z" fill="#E9E8EF"/>
<path d="M27.7461 504.596L27.7461 503.738L16.0553 503.738L16.0553 504.596L27.7461 504.596Z" fill="#E9E8EF"/>
<path d="M21.9023 507.097L21.9023 506.67L16.0569 506.67L16.0569 507.097L21.9023 507.097Z" fill="#E9E8EF"/>
<path d="M21.9023 509.813L21.9023 509.386L16.0569 509.386L16.0569 509.813L21.9023 509.813Z" fill="#E9E8EF"/>
<path d="M21.9023 512.53L21.9023 512.103L16.0569 512.103L16.0569 512.53L21.9023 512.53Z" fill="#E9E8EF"/>
<path d="M21.9023 515.245L21.9023 514.818L16.0569 514.818L16.0569 515.245L21.9023 515.245Z" fill="#E9E8EF"/>
<path d="M27.7461 518.177L27.7461 517.318L16.0553 517.318L16.0553 518.177L27.7461 518.177Z" fill="#E9E8EF"/>
<path d="M21.9023 520.677L21.9023 520.25L16.0569 520.25L16.0569 520.677L21.9023 520.677Z" fill="#E9E8EF"/>
<path d="M21.9023 523.394L21.9023 522.967L16.0569 522.967L16.0569 523.394L21.9023 523.394Z" fill="#E9E8EF"/>
<path d="M21.9023 526.11L21.9023 525.683L16.0569 525.683L16.0569 526.11L21.9023 526.11Z" fill="#E9E8EF"/>
<path d="M21.9023 528.826L21.9023 528.398L16.0569 528.398L16.0569 528.826L21.9023 528.826Z" fill="#E9E8EF"/>
<path d="M27.7461 531.758L27.7461 530.899L16.0553 530.899L16.0553 531.758L27.7461 531.758Z" fill="#E9E8EF"/>
<path d="M27.7461 531.758L27.7461 530.899L16.0553 530.899L16.0553 531.758L27.7461 531.758Z" fill="#E9E8EF"/>
<path d="M21.9023 534.258L21.9023 533.831L16.0569 533.831L16.0569 534.258L21.9023 534.258Z" fill="#E9E8EF"/>
<path d="M21.9023 536.974L21.9023 536.547L16.0569 536.547L16.0569 536.974L21.9023 536.974Z" fill="#E9E8EF"/>
<path d="M21.9023 539.691L21.9023 539.264L16.0569 539.264L16.0569 539.691L21.9023 539.691Z" fill="#E9E8EF"/>
<path d="M21.9023 542.407L21.9023 541.979L16.0569 541.979L16.0569 542.407L21.9023 542.407Z" fill="#E9E8EF"/>
<path d="M27.7461 545.338L27.7461 544.479L16.0553 544.479L16.0553 545.338L27.7461 545.338Z" fill="#E9E8EF"/>
<path d="M21.9023 547.838L21.9023 547.411L16.0569 547.411L16.0569 547.838L21.9023 547.838Z" fill="#E9E8EF"/>
<path d="M21.9023 550.555L21.9023 550.128L16.0569 550.128L16.0569 550.555L21.9023 550.555Z" fill="#E9E8EF"/>
<path d="M21.9023 553.271L21.9023 552.844L16.0569 552.844L16.0569 553.271L21.9023 553.271Z" fill="#E9E8EF"/>
<path d="M21.9023 555.987L21.9023 555.56L16.0569 555.56L16.0569 555.987L21.9023 555.987Z" fill="#E9E8EF"/>
<path d="M27.7461 341.226L27.7461 340.368L16.0553 340.368L16.0553 341.226L27.7461 341.226Z" fill="#E9E8EF"/>
<path d="M21.9023 343.727L21.9023 343.3L16.0569 343.3L16.0569 343.727L21.9023 343.727Z" fill="#E9E8EF"/>
<path d="M21.9023 346.443L21.9023 346.016L16.0569 346.016L16.0569 346.443L21.9023 346.443Z" fill="#E9E8EF"/>
<path d="M21.9023 349.16L21.9023 348.732L16.0569 348.732L16.0569 349.16L21.9023 349.16Z" fill="#E9E8EF"/>
<path d="M21.9023 351.875L21.9023 351.448L16.0569 351.448L16.0569 351.875L21.9023 351.875Z" fill="#E9E8EF"/>
<path d="M27.7461 354.806L27.7461 353.948L16.0553 353.948L16.0553 354.806L27.7461 354.806Z" fill="#E9E8EF"/>
<path d="M21.9023 357.308L21.9023 356.881L16.0569 356.881L16.0569 357.308L21.9023 357.308Z" fill="#E9E8EF"/>
<path d="M21.9023 360.024L21.9023 359.597L16.0569 359.597L16.0569 360.024L21.9023 360.024Z" fill="#E9E8EF"/>
<path d="M21.9023 362.74L21.9023 362.312L16.0569 362.312L16.0569 362.74L21.9023 362.74Z" fill="#E9E8EF"/>
<path d="M21.9023 365.456L21.9023 365.029L16.0569 365.029L16.0569 365.456L21.9023 365.456Z" fill="#E9E8EF"/>
<path d="M27.7461 368.387L27.7461 367.529L16.0553 367.529L16.0553 368.387L27.7461 368.387Z" fill="#E9E8EF"/>
<path d="M27.7461 368.387L27.7461 367.529L16.0553 367.529L16.0553 368.387L27.7461 368.387Z" fill="#E9E8EF"/>
<path d="M21.9023 370.888L21.9023 370.461L16.0569 370.461L16.0569 370.888L21.9023 370.888Z" fill="#E9E8EF"/>
<path d="M21.9023 373.604L21.9023 373.177L16.0569 373.177L16.0569 373.604L21.9023 373.604Z" fill="#E9E8EF"/>
<path d="M21.9023 376.321L21.9023 375.894L16.0569 375.894L16.0569 376.321L21.9023 376.321Z" fill="#E9E8EF"/>
<path d="M21.9023 379.036L21.9023 378.609L16.0569 378.609L16.0569 379.036L21.9023 379.036Z" fill="#E9E8EF"/>
<path d="M27.7461 381.968L27.7461 381.109L16.0553 381.109L16.0553 381.968L27.7461 381.968Z" fill="#E9E8EF"/>
<path d="M21.9023 384.469L21.9023 384.042L16.0569 384.042L16.0569 384.469L21.9023 384.469Z" fill="#E9E8EF"/>
<path d="M21.9023 387.185L21.9023 386.758L16.0569 386.758L16.0569 387.185L21.9023 387.185Z" fill="#E9E8EF"/>
<path d="M21.9023 389.901L21.9023 389.474L16.0569 389.474L16.0569 389.901L21.9023 389.901Z" fill="#E9E8EF"/>
<path d="M21.9023 392.617L21.9023 392.189L16.0569 392.189L16.0569 392.617L21.9023 392.617Z" fill="#E9E8EF"/>
<path d="M27.7461 395.549L27.7461 394.69L16.0553 394.69L16.0553 395.549L27.7461 395.549Z" fill="#E9E8EF"/>
<path d="M27.7461 395.549L27.7461 394.69L16.0553 394.69L16.0553 395.549L27.7461 395.549Z" fill="#E9E8EF"/>
<path d="M21.9023 398.049L21.9023 397.622L16.0569 397.622L16.0569 398.049L21.9023 398.049Z" fill="#E9E8EF"/>
<path d="M21.9023 400.765L21.9023 400.338L16.0569 400.338L16.0569 400.765L21.9023 400.765Z" fill="#E9E8EF"/>
<path d="M21.9023 403.482L21.9023 403.055L16.0569 403.055L16.0569 403.482L21.9023 403.482Z" fill="#E9E8EF"/>
<path d="M21.9023 406.198L21.9023 405.771L16.0569 405.771L16.0569 406.198L21.9023 406.198Z" fill="#E9E8EF"/>
<path d="M27.7461 409.129L27.7461 408.271L16.0553 408.271L16.0553 409.129L27.7461 409.129Z" fill="#E9E8EF"/>
<path d="M21.9023 411.63L21.9023 411.203L16.0569 411.203L16.0569 411.63L21.9023 411.63Z" fill="#E9E8EF"/>
<path d="M21.9023 414.346L21.9023 413.919L16.0569 413.919L16.0569 414.346L21.9023 414.346Z" fill="#E9E8EF"/>
<path d="M21.9023 417.062L21.9023 416.635L16.0569 416.635L16.0569 417.062L21.9023 417.062Z" fill="#E9E8EF"/>
<path d="M21.9023 419.778L21.9023 419.351L16.0569 419.351L16.0569 419.778L21.9023 419.778Z" fill="#E9E8EF"/>
<path d="M27.7461 422.71L27.7461 421.852L16.0553 421.852L16.0553 422.71L27.7461 422.71Z" fill="#E9E8EF"/>
<path d="M27.7461 422.71L27.7461 421.852L16.0553 421.852L16.0553 422.71L27.7461 422.71Z" fill="#E9E8EF"/>
<path d="M21.9023 425.21L21.9023 424.783L16.0569 424.783L16.0569 425.21L21.9023 425.21Z" fill="#E9E8EF"/>
<path d="M21.9023 427.926L21.9023 427.499L16.0569 427.499L16.0569 427.926L21.9023 427.926Z" fill="#E9E8EF"/>
<path d="M21.9023 430.643L21.9023 430.216L16.0569 430.216L16.0569 430.643L21.9023 430.643Z" fill="#E9E8EF"/>
<path d="M21.9023 433.359L21.9023 432.932L16.0569 432.932L16.0569 433.359L21.9023 433.359Z" fill="#E9E8EF"/>
<path d="M27.7461 436.29L27.7461 435.432L16.0553 435.432L16.0553 436.29L27.7461 436.29Z" fill="#E9E8EF"/>
<path d="M21.9023 438.79L21.9023 438.363L16.0569 438.363L16.0569 438.79L21.9023 438.79Z" fill="#E9E8EF"/>
<path d="M21.9023 441.507L21.9023 441.08L16.0569 441.08L16.0569 441.507L21.9023 441.507Z" fill="#E9E8EF"/>
<path d="M21.9023 444.223L21.9023 443.796L16.0569 443.796L16.0569 444.223L21.9023 444.223Z" fill="#E9E8EF"/>
<path d="M21.9023 446.939L21.9023 446.512L16.0569 446.512L16.0569 446.939L21.9023 446.939Z" fill="#E9E8EF"/>
</g>
<defs>
<clipPath id="clip0_505_37423">
<rect width="218.551" height="11.6908" fill="white" transform="matrix(2.68321e-08 1 1 -5.90588e-08 0.03125 122.678)"/>
</clipPath>
<clipPath id="clip1_505_37423">
<rect width="218.551" height="11.6908" fill="white" transform="matrix(2.68321e-08 1 1 -5.90588e-08 0.03125 340.368)"/>
</clipPath>
<clipPath id="clip2_505_37423">
<rect width="218.551" height="11.6908" fill="white" transform="translate(27.7461 122.678) rotate(90)"/>
</clipPath>
<clipPath id="clip3_505_37423">
<rect width="218.551" height="11.6908" fill="white" transform="translate(27.7461 340.368) rotate(90)"/>
</clipPath>
</defs>
</svg>
