<svg width="12" height="13" viewBox="0 0 12 13" fill="none" xmlns="http://www.w3.org/2000/svg">
<g clip-path="url(#clip0_320_4814)">
<path d="M5.81934 12.4268C4.89019 12.4268 3.96031 12.4253 3.03116 12.4284C2.7729 12.4292 2.51025 12.4276 2.26442 12.3604C1.84155 12.2449 1.47208 12.0044 1.16773 11.6602C0.721447 11.1555 0.493915 10.5558 0.496109 9.85481C0.501962 7.76063 0.507084 5.66566 0.51001 3.57147C0.510742 3.07068 0.610242 2.5857 0.867039 2.17905C1.35576 1.4053 2.04128 0.976495 2.93019 0.978868C3.68449 0.981241 4.43952 0.978077 5.19381 0.977286C6.38634 0.976495 7.57961 0.975703 8.77287 0.974121C9.20014 0.974121 9.58643 1.10862 9.95736 1.33963C10.5412 1.70277 10.8799 2.23759 11.0394 2.93618C11.0936 3.17352 11.1118 3.40533 11.1118 3.64426C11.1097 5.71312 11.1075 7.78278 11.1023 9.85164C11.1009 10.3406 10.9633 10.7836 10.7321 11.2069C10.351 11.9039 9.7708 12.267 9.06186 12.3976C8.74873 12.4553 8.42097 12.4237 8.09906 12.4253C7.33891 12.4284 6.57876 12.4261 5.81934 12.4261V12.4268ZM6.052 4.75266C5.68985 4.35392 5.256 4.16484 4.78484 4.07307C4.44903 4.0074 4.11248 4.02718 3.7796 4.12845C2.95361 4.38003 2.36758 4.92672 2.08225 5.80252C1.79107 6.6989 1.88325 7.5573 2.42465 8.32788C2.76119 8.80811 3.1987 9.1396 3.74229 9.29151C4.17175 9.41176 4.59974 9.40069 5.03651 9.30021C5.49963 9.1934 5.88446 8.9616 6.18442 8.5763C6.55901 8.09528 6.73606 7.52486 6.77483 6.90143C6.78947 6.6633 6.79971 6.42437 6.7463 6.18861H4.39562V7.25587H5.67448C5.69643 7.33894 5.6401 7.37454 5.62327 7.4236C5.49377 7.79544 5.28746 8.09133 4.91433 8.21237C4.75557 8.2638 4.59389 8.27804 4.43001 8.28595C3.8513 8.31206 3.42038 8.01696 3.14309 7.50113C2.93605 7.11663 2.89947 6.67754 3.03116 6.23449C3.33624 5.21312 4.44171 4.81596 5.22966 5.43147C5.26697 5.46075 5.2977 5.50347 5.37233 5.50347C5.58742 5.26296 5.80032 4.99555 6.05127 4.75346L6.052 4.75266ZM8.83433 5.31834L8.19929 5.31834V6.22737H7.33671C7.32208 6.46076 7.31916 6.67279 7.33232 6.9046H8.20587V7.83579L8.82555 7.83579V6.90223H9.66837C9.68008 6.66251 9.68593 6.44573 9.66691 6.21551H8.8336V5.31834H8.83433Z" fill="white"/>
</g>
<defs>
<clipPath id="clip0_320_4814">
<rect width="10.6157" height="11.4583" fill="white" transform="translate(0.496094 0.974121)"/>
</clipPath>
</defs>
</svg>
