<svg width="12" height="13" viewBox="0 0 12 13" fill="none" xmlns="http://www.w3.org/2000/svg">
<path d="M6.16334 5.28243C5.90299 5.28243 5.64849 5.36576 5.43201 5.52188C5.21554 5.678 5.04682 5.8999 4.94719 6.15953C4.84756 6.41915 4.82149 6.70483 4.87228 6.98044C4.92307 7.25605 5.04844 7.50922 5.23254 7.70793C5.41663 7.90663 5.65119 8.04195 5.90653 8.09678C6.16188 8.1516 6.42655 8.12346 6.66709 8.01592C6.90762 7.90838 7.1132 7.72627 7.25785 7.49262C7.40249 7.25897 7.47969 6.98426 7.47969 6.70325C7.47969 6.51667 7.44564 6.33191 7.37949 6.15953C7.31334 5.98714 7.21638 5.83051 7.09414 5.69858C6.97191 5.56664 6.82679 5.46198 6.66709 5.39058C6.50738 5.31918 6.33621 5.28243 6.16334 5.28243ZM11.4341 3.87879C11.4313 3.43636 11.3558 2.99798 11.2111 2.58401C11.1046 2.28108 10.9397 2.00599 10.7275 1.77688C10.5152 1.54777 10.2603 1.36984 9.9797 1.25485C9.59617 1.09871 9.19002 1.01724 8.78012 1.01422C8.09541 0.974121 7.89371 0.974121 6.16334 0.974121C4.43297 0.974121 4.23127 0.974121 3.54656 1.01422C3.13666 1.01724 2.73051 1.09871 2.34698 1.25485C2.06633 1.36984 1.81147 1.54777 1.5992 1.77688C1.38693 2.00599 1.22209 2.28108 1.11555 2.58401C0.970896 2.99798 0.895416 3.43636 0.892624 3.87879C0.855469 4.61785 0.855469 4.83556 0.855469 6.70325C0.855469 8.57095 0.855469 8.78866 0.892624 9.52771C0.898337 9.9717 0.973714 10.4114 1.11555 10.8282C1.22162 11.1298 1.38632 11.4033 1.59857 11.6303C1.80993 11.8608 2.06534 12.0387 2.34698 12.1517C2.73051 12.3078 3.13666 12.3893 3.54656 12.3923C4.23127 12.4324 4.43297 12.4324 6.16334 12.4324C7.89371 12.4324 8.09541 12.4324 8.78012 12.3923C9.19002 12.3893 9.59617 12.3078 9.9797 12.1517C10.2613 12.0387 10.5168 11.8608 10.7281 11.6303C10.9404 11.4033 11.1051 11.1298 11.2111 10.8282C11.3556 10.4122 11.4311 9.97199 11.4341 9.52771C11.4712 8.78866 11.4712 8.57095 11.4712 6.70325C11.4712 4.83556 11.4712 4.61785 11.4341 3.87879ZM10.0859 8.46209C10.0688 8.81564 9.99892 9.16389 9.87885 9.49334C9.77581 9.76816 9.62262 10.0178 9.4284 10.2274C9.23418 10.4371 9.00288 10.6024 8.74827 10.7136C8.44016 10.836 8.11572 10.9037 7.78755 10.9142C7.36823 10.9142 7.25676 10.9142 6.16334 10.9142C5.06992 10.9142 4.95845 10.9142 4.53913 10.9142C4.21096 10.9037 3.88652 10.836 3.57841 10.7136C3.31519 10.6081 3.07749 10.4396 2.88308 10.2209C2.69075 10.0154 2.54223 9.76712 2.44783 9.49334C2.33401 9.16112 2.27299 8.81053 2.26736 8.45637C2.26736 8.00376 2.26736 7.88345 2.26736 6.70325C2.26736 5.52305 2.26736 5.40274 2.26736 4.95014C2.27299 4.59598 2.33401 4.24539 2.44783 3.91317C2.54564 3.62906 2.70169 3.37249 2.90431 3.16265C3.09557 2.95618 3.32536 2.79604 3.57841 2.69286C3.88652 2.57049 4.21096 2.50277 4.53913 2.49234C4.95845 2.49234 5.06992 2.49234 6.16334 2.49234C7.25676 2.49234 7.36823 2.49234 7.78755 2.49234C8.11572 2.50277 8.44016 2.57049 8.74827 2.69286C9.01149 2.79844 9.24919 2.96687 9.4436 3.18557C9.63593 3.3911 9.78445 3.63939 9.87885 3.91317C9.99222 4.24573 10.055 4.59592 10.0646 4.95014C10.0646 5.40274 10.0646 5.52305 10.0646 6.70325C10.0646 7.88345 10.1018 8.00376 10.0859 8.45637V8.46209ZM9.2366 4.19962C9.1734 4.01456 9.07376 3.8465 8.94455 3.70704C8.81534 3.56757 8.65964 3.46003 8.48819 3.39181C8.25277 3.30373 8.00482 3.26107 7.7557 3.26577C7.34169 3.26577 7.22491 3.26577 6.16334 3.26577C5.10177 3.26577 4.98499 3.26577 4.57098 3.26577C4.32059 3.26841 4.07261 3.31884 3.83849 3.41473C3.66966 3.47985 3.51561 3.583 3.38657 3.71734C3.25753 3.85169 3.15646 4.01413 3.09008 4.19389C3.013 4.44905 2.97534 4.71616 2.97862 4.98451C2.97862 5.43138 2.97862 5.55743 2.97862 6.70325C2.97862 7.84908 2.97862 7.97512 2.97862 8.42199C2.98388 8.69195 3.03051 8.9591 3.11662 9.21261C3.17982 9.39767 3.27946 9.56573 3.40867 9.70519C3.53788 9.84466 3.69358 9.95221 3.86503 10.0204C4.0915 10.1103 4.32982 10.1606 4.57098 10.1694C4.98499 10.1694 5.10177 10.1694 6.16334 10.1694C7.22491 10.1694 7.34169 10.1694 7.7557 10.1694C8.00609 10.1667 8.25407 10.1163 8.48819 10.0204C8.65964 9.95221 8.81534 9.84466 8.94455 9.70519C9.07376 9.56573 9.1734 9.39767 9.2366 9.21261C9.32543 8.95992 9.37215 8.69225 9.3746 8.42199C9.3746 7.97512 9.3746 7.84908 9.3746 6.70325C9.3746 5.55743 9.3746 5.43138 9.3746 4.98451C9.37475 4.71398 9.32795 4.44582 9.2366 4.19389V4.19962ZM6.16334 8.89178C5.89732 8.89178 5.63391 8.83513 5.38821 8.72508C5.14251 8.61502 4.91934 8.45373 4.73148 8.25043C4.54362 8.04713 4.39477 7.80582 4.29345 7.54033C4.19214 7.27484 4.14034 6.99038 4.14104 6.70325C4.14104 6.27016 4.26009 5.8468 4.48313 5.48678C4.70616 5.12675 5.02314 4.84625 5.39395 4.68077C5.76475 4.5153 6.17271 4.47229 6.56617 4.5572C6.95963 4.64211 7.32091 4.85112 7.60426 5.15777C7.88761 5.46441 8.0803 5.8549 8.15794 6.27981C8.23558 6.70472 8.19466 7.14494 8.04038 7.54474C7.88611 7.94454 7.6254 8.28595 7.29126 8.52573C6.95712 8.76552 6.56459 8.89291 6.16334 8.89178ZM8.28649 4.94441C8.16915 4.931 8.06057 4.8712 7.98165 4.77653C7.90273 4.68185 7.85906 4.55901 7.85906 4.43165C7.85906 4.3043 7.90273 4.18145 7.98165 4.08677C8.06057 3.9921 8.16915 3.9323 8.28649 3.91889C8.40382 3.9323 8.51241 3.9921 8.59133 4.08677C8.67025 4.18145 8.71391 4.3043 8.71391 4.43165C8.71391 4.55901 8.67025 4.68185 8.59133 4.77653C8.51241 4.8712 8.40382 4.931 8.28649 4.94441Z" fill="white"/>
</svg>
