<svg width="262" height="189" viewBox="0 0 262 189" fill="none" xmlns="http://www.w3.org/2000/svg">
<circle cx="131.132" cy="94.4507" r="93.0933" fill="#181818"/>
<path d="M216.443 59.4413C202.171 24.6864 168.683 2.23504 131.135 2.23504C93.5876 2.23504 60.1004 24.6936 45.8203 59.4413L43.8438 58.6248C58.4461 23.0679 92.7068 0.09375 131.135 0.09375C169.564 0.09375 203.825 23.0679 218.427 58.6248L216.451 59.4413H216.443Z" fill="white"/>
<path d="M131.135 188.787C92.7139 188.787 58.4532 165.813 43.8438 130.256L45.8203 129.439C60.1004 164.194 93.5876 186.646 131.135 186.646C168.683 186.646 202.178 164.194 216.443 129.439L218.42 130.256C203.818 165.813 169.55 188.787 131.128 188.787H131.135Z" fill="white"/>
<path d="M216.443 59.4413C202.171 24.6864 168.683 2.23504 131.135 2.23504C93.5876 2.23504 60.1004 24.6936 45.8203 59.4413L43.8438 58.6248C58.4461 23.0679 92.7068 0.09375 131.135 0.09375C169.564 0.09375 203.825 23.0679 218.427 58.6248L216.451 59.4413H216.443Z" fill="white"/>
<path d="M131.135 188.787C92.7139 188.787 58.4532 165.813 43.8438 130.256L45.8203 129.439C60.1004 164.194 93.5876 186.646 131.135 186.646C168.683 186.646 202.178 164.194 216.443 129.439L218.42 130.256C203.818 165.813 169.55 188.787 131.128 188.787H131.135Z" fill="white"/>
<path d="M261.691 93.375H203.625V95.5163H261.691V93.375Z" fill="white"/>
<path d="M58.6281 93.375H0.5625V95.5163H58.6281V93.375Z" fill="white"/>
</svg>
