<svg width="298" height="216" viewBox="0 0 298 216" fill="none" xmlns="http://www.w3.org/2000/svg">
<circle cx="148.611" cy="108.038" r="105.95" fill="#181818"/>
<path d="M245.703 68.2002C229.459 28.6454 191.347 3.09327 148.613 3.09327C105.88 3.09327 67.7675 28.6535 51.5152 68.2002L49.2656 67.271C65.8847 26.8033 104.877 0.65625 148.613 0.65625C192.349 0.65625 231.342 26.8033 247.961 67.271L245.711 68.2002H245.703Z" fill="white"/>
<path d="M148.613 215.407C104.885 215.407 65.8928 189.26 49.2656 148.792L51.5152 147.863C67.7675 187.418 105.88 212.97 148.613 212.97C191.347 212.97 229.467 187.418 245.703 147.863L247.953 148.792C231.334 189.26 192.333 215.407 148.605 215.407H148.613Z" fill="white"/>
<path d="M297.206 106.82H231.121V109.257H297.206V106.82Z" fill="white"/>
<path d="M66.0928 106.82H0.0078125V109.257H66.0928V106.82Z" fill="white"/>
</svg>
