<svg width="339" height="245" viewBox="0 0 339 245" fill="none" xmlns="http://www.w3.org/2000/svg">
<path d="M279.491 77.4816C261.014 32.4903 217.664 3.42626 169.057 3.42626C120.45 3.42626 77.0995 32.4996 58.6134 77.4816L56.0547 76.4247C74.9579 30.3951 119.309 0.654297 169.057 0.654297C218.804 0.654297 263.156 30.3951 282.059 76.4247L279.5 77.4816H279.491Z" fill="white"/>
<path d="M169.057 244.921C119.319 244.921 74.9672 215.18 56.0547 169.151L58.6134 168.094C77.0995 213.085 120.45 242.149 169.057 242.149C217.664 242.149 261.023 213.085 279.491 168.094L282.049 169.151C263.146 215.18 218.785 244.921 169.047 244.921H169.057Z" fill="white"/>
<path d="M338.074 121.41H262.906V124.182H338.074V121.41Z" fill="white"/>
<path d="M75.1951 121.41H0.0273438V124.182H75.1951V121.41Z" fill="white"/>
</svg>
