<svg width="419" height="23" viewBox="0 0 419 23" fill="none" xmlns="http://www.w3.org/2000/svg">
<path d="M294.634 22.6504L295.406 22.6504L295.406 14.1617L294.634 14.1617L294.634 22.6504Z" fill="#E9E8EF"/>
<path d="M292.377 18.4053L292.762 18.4053L292.762 14.1618L292.377 14.1618L292.377 18.4053Z" fill="#E9E8EF"/>
<path d="M289.936 18.4053L290.32 18.4053L290.32 14.1618L289.936 14.1618L289.936 18.4053Z" fill="#E9E8EF"/>
<path d="M287.49 18.4053L287.875 18.4053L287.875 14.1618L287.49 14.1618L287.49 18.4053Z" fill="#E9E8EF"/>
<path d="M285.045 18.4053L285.43 18.4053L285.43 14.1618L285.045 14.1618L285.045 18.4053Z" fill="#E9E8EF"/>
<path d="M282.403 22.6504L283.176 22.6504L283.176 14.1617L282.403 14.1617L282.403 22.6504Z" fill="#E9E8EF"/>
<path d="M280.151 18.4053L280.535 18.4053L280.535 14.1618L280.151 14.1618L280.151 18.4053Z" fill="#E9E8EF"/>
<path d="M277.705 18.4053L278.09 18.4053L278.09 14.1618L277.705 14.1618L277.705 18.4053Z" fill="#E9E8EF"/>
<path d="M275.26 18.4053L275.645 18.4053L275.645 14.1618L275.26 14.1618L275.26 18.4053Z" fill="#E9E8EF"/>
<path d="M272.815 18.4053L273.199 18.4053L273.199 14.1618L272.815 14.1618L272.815 18.4053Z" fill="#E9E8EF"/>
<path d="M270.173 22.6504L270.945 22.6504L270.945 14.1617L270.173 14.1617L270.173 22.6504Z" fill="#E9E8EF"/>
<path d="M270.173 22.6504L270.945 22.6504L270.945 14.1617L270.173 14.1617L270.173 22.6504Z" fill="#E9E8EF"/>
<path d="M267.92 18.4053L268.305 18.4053L268.305 14.1618L267.92 14.1618L267.92 18.4053Z" fill="#E9E8EF"/>
<path d="M265.475 18.4053L265.859 18.4053L265.859 14.1618L265.475 14.1618L265.475 18.4053Z" fill="#E9E8EF"/>
<path d="M263.03 18.4053L263.414 18.4053L263.414 14.1618L263.03 14.1618L263.03 18.4053Z" fill="#E9E8EF"/>
<path d="M260.584 18.4053L260.969 18.4053L260.969 14.1618L260.584 14.1618L260.584 18.4053Z" fill="#E9E8EF"/>
<path d="M257.942 22.6504L258.715 22.6504L258.715 14.1617L257.942 14.1617L257.942 22.6504Z" fill="#E9E8EF"/>
<path d="M255.69 18.4053L256.074 18.4053L256.074 14.1618L255.69 14.1618L255.69 18.4053Z" fill="#E9E8EF"/>
<path d="M253.244 18.4053L253.629 18.4053L253.629 14.1618L253.244 14.1618L253.244 18.4053Z" fill="#E9E8EF"/>
<path d="M250.799 18.4053L251.184 18.4053L251.184 14.1618L250.799 14.1618L250.799 18.4053Z" fill="#E9E8EF"/>
<path d="M248.354 18.4053L248.738 18.4053L248.738 14.1618L248.354 14.1618L248.354 18.4053Z" fill="#E9E8EF"/>
<path d="M245.716 22.6504L246.488 22.6504L246.488 14.1617L245.716 14.1617L245.716 22.6504Z" fill="#E9E8EF"/>
<path d="M245.716 22.6504L246.488 22.6504L246.488 14.1617L245.716 14.1617L245.716 22.6504Z" fill="#E9E8EF"/>
<path d="M243.463 18.4053L243.848 18.4053L243.848 14.1618L243.463 14.1618L243.463 18.4053Z" fill="#E9E8EF"/>
<path d="M241.018 18.4053L241.402 18.4053L241.402 14.1618L241.018 14.1618L241.018 18.4053Z" fill="#E9E8EF"/>
<path d="M238.569 18.4053L238.953 18.4053L238.953 14.1618L238.569 14.1618L238.569 18.4053Z" fill="#E9E8EF"/>
<path d="M236.123 18.4053L236.508 18.4053L236.508 14.1618L236.123 14.1618L236.123 18.4053Z" fill="#E9E8EF"/>
<path d="M233.485 22.6504L234.258 22.6504L234.258 14.1617L233.485 14.1617L233.485 22.6504Z" fill="#E9E8EF"/>
<path d="M231.233 18.4053L231.617 18.4053L231.617 14.1618L231.233 14.1618L231.233 18.4053Z" fill="#E9E8EF"/>
<path d="M228.787 18.4053L229.172 18.4053L229.172 14.1618L228.787 14.1618L228.787 18.4053Z" fill="#E9E8EF"/>
<path d="M226.342 18.4053L226.727 18.4053L226.727 14.1618L226.342 14.1618L226.342 18.4053Z" fill="#E9E8EF"/>
<path d="M223.897 18.4053L224.281 18.4053L224.281 14.1618L223.897 14.1618L223.897 18.4053Z" fill="#E9E8EF"/>
<path d="M221.259 22.6504L222.031 22.6504L222.031 14.1617L221.259 14.1617L221.259 22.6504Z" fill="#E9E8EF"/>
<path d="M221.259 22.6504L222.031 22.6504L222.031 14.1617L221.259 14.1617L221.259 22.6504Z" fill="#E9E8EF"/>
<path d="M219.002 18.4053L219.387 18.4053L219.387 14.1618L219.002 14.1618L219.002 18.4053Z" fill="#E9E8EF"/>
<path d="M216.557 18.4053L216.941 18.4053L216.941 14.1618L216.557 14.1618L216.557 18.4053Z" fill="#E9E8EF"/>
<path d="M214.112 18.4053L214.496 18.4053L214.496 14.1618L214.112 14.1618L214.112 18.4053Z" fill="#E9E8EF"/>
<path d="M211.666 18.4053L212.051 18.4053L212.051 14.1618L211.666 14.1618L211.666 18.4053Z" fill="#E9E8EF"/>
<path d="M209.024 22.6504L209.797 22.6504L209.797 14.1617L209.024 14.1617L209.024 22.6504Z" fill="#E9E8EF"/>
<path d="M206.776 18.4053L207.16 18.4053L207.16 14.1618L206.776 14.1618L206.776 18.4053Z" fill="#E9E8EF"/>
<path d="M204.33 18.4053L204.715 18.4053L204.715 14.1618L204.33 14.1618L204.33 18.4053Z" fill="#E9E8EF"/>
<path d="M201.885 18.4053L202.27 18.4053L202.27 14.1618L201.885 14.1618L201.885 18.4053Z" fill="#E9E8EF"/>
<path d="M199.432 18.4053L199.816 18.4053L199.816 14.1618L199.432 14.1618L199.432 18.4053Z" fill="#E9E8EF"/>
<path d="M307.227 22.6504L308 22.6504L308 14.1617L307.227 14.1617L307.227 22.6504Z" fill="#E9E8EF"/>
<path d="M304.975 18.4053L305.359 18.4053L305.359 14.1618L304.975 14.1618L304.975 18.4053Z" fill="#E9E8EF"/>
<path d="M302.53 18.4053L302.914 18.4053L302.914 14.1618L302.53 14.1618L302.53 18.4053Z" fill="#E9E8EF"/>
<path d="M300.084 18.4053L300.469 18.4053L300.469 14.1618L300.084 14.1618L300.084 18.4053Z" fill="#E9E8EF"/>
<path d="M297.639 18.4053L298.023 18.4053L298.023 14.1618L297.639 14.1618L297.639 18.4053Z" fill="#E9E8EF"/>
<path d="M405.2 22.6504L405.973 22.6504L405.973 14.1617L405.2 14.1617L405.2 22.6504Z" fill="#E9E8EF"/>
<path d="M402.944 18.4053L403.328 18.4053L403.328 14.1618L402.944 14.1618L402.944 18.4053Z" fill="#E9E8EF"/>
<path d="M400.502 18.4053L400.887 18.4053L400.887 14.1618L400.502 14.1618L400.502 18.4053Z" fill="#E9E8EF"/>
<path d="M398.057 18.4053L398.441 18.4053L398.441 14.1618L398.057 14.1618L398.057 18.4053Z" fill="#E9E8EF"/>
<path d="M395.612 18.4053L395.996 18.4053L395.996 14.1618L395.612 14.1618L395.612 18.4053Z" fill="#E9E8EF"/>
<path d="M392.969 22.6504L393.742 22.6504L393.742 14.1617L392.969 14.1617L392.969 22.6504Z" fill="#E9E8EF"/>
<path d="M390.717 18.4053L391.102 18.4053L391.102 14.1618L390.717 14.1618L390.717 18.4053Z" fill="#E9E8EF"/>
<path d="M388.272 18.4053L388.656 18.4053L388.656 14.1618L388.272 14.1618L388.272 18.4053Z" fill="#E9E8EF"/>
<path d="M385.826 18.4053L386.211 18.4053L386.211 14.1618L385.826 14.1618L385.826 18.4053Z" fill="#E9E8EF"/>
<path d="M383.381 18.4053L383.766 18.4053L383.766 14.1618L383.381 14.1618L383.381 18.4053Z" fill="#E9E8EF"/>
<path d="M380.739 22.6504L381.512 22.6504L381.512 14.1617L380.739 14.1617L380.739 22.6504Z" fill="#E9E8EF"/>
<path d="M380.739 22.6504L381.512 22.6504L381.512 14.1617L380.739 14.1617L380.739 22.6504Z" fill="#E9E8EF"/>
<path d="M378.487 18.4053L378.871 18.4053L378.871 14.1618L378.487 14.1618L378.487 18.4053Z" fill="#E9E8EF"/>
<path d="M376.041 18.4053L376.426 18.4053L376.426 14.1618L376.041 14.1618L376.041 18.4053Z" fill="#E9E8EF"/>
<path d="M373.596 18.4053L373.98 18.4053L373.98 14.1618L373.596 14.1618L373.596 18.4053Z" fill="#E9E8EF"/>
<path d="M371.151 18.4053L371.535 18.4053L371.535 14.1618L371.151 14.1618L371.151 18.4053Z" fill="#E9E8EF"/>
<path d="M368.509 22.6504L369.281 22.6504L369.281 14.1617L368.509 14.1617L368.509 22.6504Z" fill="#E9E8EF"/>
<path d="M366.256 18.4053L366.641 18.4053L366.641 14.1618L366.256 14.1618L366.256 18.4053Z" fill="#E9E8EF"/>
<path d="M363.811 18.4053L364.195 18.4053L364.195 14.1618L363.811 14.1618L363.811 18.4053Z" fill="#E9E8EF"/>
<path d="M361.365 18.4053L361.75 18.4053L361.75 14.1618L361.365 14.1618L361.365 18.4053Z" fill="#E9E8EF"/>
<path d="M358.92 18.4053L359.305 18.4053L359.305 14.1618L358.92 14.1618L358.92 18.4053Z" fill="#E9E8EF"/>
<path d="M356.282 22.6504L357.055 22.6504L357.055 14.1617L356.282 14.1617L356.282 22.6504Z" fill="#E9E8EF"/>
<path d="M356.282 22.6504L357.055 22.6504L357.055 14.1617L356.282 14.1617L356.282 22.6504Z" fill="#E9E8EF"/>
<path d="M354.03 18.4053L354.414 18.4053L354.414 14.1618L354.03 14.1618L354.03 18.4053Z" fill="#E9E8EF"/>
<path d="M351.584 18.4053L351.969 18.4053L351.969 14.1618L351.584 14.1618L351.584 18.4053Z" fill="#E9E8EF"/>
<path d="M349.135 18.4053L349.52 18.4053L349.52 14.1618L349.135 14.1618L349.135 18.4053Z" fill="#E9E8EF"/>
<path d="M346.69 18.4053L347.074 18.4053L347.074 14.1618L346.69 14.1618L346.69 18.4053Z" fill="#E9E8EF"/>
<path d="M344.052 22.6504L344.824 22.6504L344.824 14.1617L344.052 14.1617L344.052 22.6504Z" fill="#E9E8EF"/>
<path d="M341.799 18.4053L342.184 18.4053L342.184 14.1618L341.799 14.1618L341.799 18.4053Z" fill="#E9E8EF"/>
<path d="M339.354 18.4053L339.738 18.4053L339.738 14.1618L339.354 14.1618L339.354 18.4053Z" fill="#E9E8EF"/>
<path d="M336.908 18.4053L337.293 18.4053L337.293 14.1618L336.908 14.1618L336.908 18.4053Z" fill="#E9E8EF"/>
<path d="M334.463 18.4053L334.848 18.4053L334.848 14.1618L334.463 14.1618L334.463 18.4053Z" fill="#E9E8EF"/>
<path d="M331.825 22.6504L332.598 22.6504L332.598 14.1617L331.825 14.1617L331.825 22.6504Z" fill="#E9E8EF"/>
<path d="M331.825 22.6504L332.598 22.6504L332.598 14.1617L331.825 14.1617L331.825 22.6504Z" fill="#E9E8EF"/>
<path d="M329.569 18.4053L329.953 18.4053L329.953 14.1618L329.569 14.1618L329.569 18.4053Z" fill="#E9E8EF"/>
<path d="M327.123 18.4053L327.508 18.4053L327.508 14.1618L327.123 14.1618L327.123 18.4053Z" fill="#E9E8EF"/>
<path d="M324.678 18.4053L325.062 18.4053L325.062 14.1618L324.678 14.1618L324.678 18.4053Z" fill="#E9E8EF"/>
<path d="M322.233 18.4053L322.617 18.4053L322.617 14.1618L322.233 14.1618L322.233 18.4053Z" fill="#E9E8EF"/>
<path d="M319.591 22.6504L320.363 22.6504L320.363 14.1617L319.591 14.1617L319.591 22.6504Z" fill="#E9E8EF"/>
<path d="M317.342 18.4053L317.727 18.4053L317.727 14.1618L317.342 14.1618L317.342 18.4053Z" fill="#E9E8EF"/>
<path d="M314.897 18.4053L315.281 18.4053L315.281 14.1618L314.897 14.1618L314.897 18.4053Z" fill="#E9E8EF"/>
<path d="M312.451 18.4053L312.836 18.4053L312.836 14.1618L312.451 14.1618L312.451 18.4053Z" fill="#E9E8EF"/>
<path d="M309.998 18.4053L310.383 18.4053L310.383 14.1618L309.998 14.1618L309.998 18.4053Z" fill="#E9E8EF"/>
<path d="M417.794 22.6504L418.566 22.6504L418.566 14.1617L417.794 14.1617L417.794 22.6504Z" fill="#E9E8EF"/>
<path d="M415.541 18.4053L415.926 18.4053L415.926 14.1618L415.541 14.1618L415.541 18.4053Z" fill="#E9E8EF"/>
<path d="M413.096 18.4053L413.48 18.4053L413.48 14.1618L413.096 14.1618L413.096 18.4053Z" fill="#E9E8EF"/>
<path d="M410.651 18.4053L411.035 18.4053L411.035 14.1618L410.651 14.1618L410.651 18.4053Z" fill="#E9E8EF"/>
<path d="M408.205 18.4053L408.59 18.4053L408.59 14.1618L408.205 14.1618L408.205 18.4053Z" fill="#E9E8EF"/>
<g clip-path="url(#clip0_505_33606)">
<path d="M97.8874 22.6475L98.6602 22.6475L98.6602 14.1605L97.8874 14.1605L97.8874 22.6475Z" fill="#E9E8EF"/>
<path d="M95.6311 18.4043L96.0156 18.4043L96.0156 14.1608L95.6311 14.1608L95.6311 18.4043Z" fill="#E9E8EF"/>
<path d="M93.1897 18.4043L93.5742 18.4043L93.5742 14.1608L93.1897 14.1608L93.1897 18.4043Z" fill="#E9E8EF"/>
<path d="M90.7444 18.4043L91.1289 18.4043L91.1289 14.1608L90.7444 14.1608L90.7444 18.4043Z" fill="#E9E8EF"/>
<path d="M88.299 18.4043L88.6836 18.4043L88.6836 14.1608L88.299 14.1608L88.299 18.4043Z" fill="#E9E8EF"/>
<path d="M85.657 22.6475L86.4297 22.6475L86.4297 14.1605L85.657 14.1605L85.657 22.6475Z" fill="#E9E8EF"/>
<path d="M83.4045 18.4043L83.7891 18.4043L83.7891 14.1608L83.4045 14.1608L83.4045 18.4043Z" fill="#E9E8EF"/>
<path d="M80.9631 18.4043L81.3477 18.4043L81.3477 14.1608L80.9631 14.1608L80.9631 18.4043Z" fill="#E9E8EF"/>
<path d="M78.5178 18.4043L78.9023 18.4043L78.9023 14.1608L78.5178 14.1608L78.5178 18.4043Z" fill="#E9E8EF"/>
<path d="M76.0725 18.4043L76.457 18.4043L76.457 14.1608L76.0725 14.1608L76.0725 18.4043Z" fill="#E9E8EF"/>
<path d="M73.4304 22.6475L74.2031 22.6475L74.2031 14.1605L73.4304 14.1605L73.4304 22.6475Z" fill="#E9E8EF"/>
<path d="M73.4304 22.6475L74.2031 22.6475L74.2031 14.1605L73.4304 14.1605L73.4304 22.6475Z" fill="#E9E8EF"/>
<path d="M71.1779 18.4043L71.5625 18.4043L71.5625 14.1608L71.1779 14.1608L71.1779 18.4043Z" fill="#E9E8EF"/>
<path d="M68.7365 18.4043L69.1211 18.4043L69.1211 14.1608L68.7365 14.1608L68.7365 18.4043Z" fill="#E9E8EF"/>
<path d="M66.2912 18.4043L66.6758 18.4043L66.6758 14.1608L66.2912 14.1608L66.2912 18.4043Z" fill="#E9E8EF"/>
<path d="M63.842 18.4043L64.2266 18.4043L64.2266 14.1608L63.842 14.1608L63.842 18.4043Z" fill="#E9E8EF"/>
<path d="M61.2039 22.6475L61.9766 22.6475L61.9766 14.1605L61.2039 14.1605L61.2039 22.6475Z" fill="#E9E8EF"/>
<path d="M58.9514 18.4043L59.3359 18.4043L59.3359 14.1608L58.9514 14.1608L58.9514 18.4043Z" fill="#E9E8EF"/>
<path d="M56.5061 18.4043L56.8906 18.4043L56.8906 14.1608L56.5061 14.1608L56.5061 18.4043Z" fill="#E9E8EF"/>
<path d="M54.0608 18.4043L54.4453 18.4043L54.4453 14.1608L54.0608 14.1608L54.0608 18.4043Z" fill="#E9E8EF"/>
<path d="M51.6154 18.4043L52 18.4043L52 14.1608L51.6154 14.1608L51.6154 18.4043Z" fill="#E9E8EF"/>
<path d="M48.9773 22.6475L49.75 22.6475L49.75 14.1605L48.9773 14.1605L48.9773 22.6475Z" fill="#E9E8EF"/>
<path d="M48.9773 22.6475L49.75 22.6475L49.75 14.1605L48.9773 14.1605L48.9773 22.6475Z" fill="#E9E8EF"/>
<path d="M46.7248 18.4043L47.1094 18.4043L47.1094 14.1608L46.7248 14.1608L46.7248 18.4043Z" fill="#E9E8EF"/>
<path d="M44.2795 18.4043L44.6641 18.4043L44.6641 14.1608L44.2795 14.1608L44.2795 18.4043Z" fill="#E9E8EF"/>
<path d="M41.8342 18.4043L42.2188 18.4043L42.2187 14.1608L41.8342 14.1608L41.8342 18.4043Z" fill="#E9E8EF"/>
<path d="M39.3889 18.4043L39.7734 18.4043L39.7734 14.1608L39.3889 14.1608L39.3889 18.4043Z" fill="#E9E8EF"/>
<path d="M36.7507 22.6475L37.5234 22.6475L37.5234 14.1605L36.7507 14.1605L36.7507 22.6475Z" fill="#E9E8EF"/>
<path d="M34.4983 18.4043L34.8828 18.4043L34.8828 14.1608L34.4983 14.1608L34.4983 18.4043Z" fill="#E9E8EF"/>
<path d="M32.0529 18.4043L32.4375 18.4043L32.4375 14.1608L32.0529 14.1608L32.0529 18.4043Z" fill="#E9E8EF"/>
<path d="M29.6076 18.4043L29.9922 18.4043L29.9922 14.1608L29.6076 14.1608L29.6076 18.4043Z" fill="#E9E8EF"/>
<path d="M27.1623 18.4043L27.5469 18.4043L27.5469 14.1608L27.1623 14.1608L27.1623 18.4043Z" fill="#E9E8EF"/>
<path d="M24.5242 22.6475L25.2969 22.6475L25.2969 14.1605L24.5242 14.1605L24.5242 22.6475Z" fill="#E9E8EF"/>
<path d="M24.5242 22.6475L25.2969 22.6475L25.2969 14.1605L24.5242 14.1605L24.5242 22.6475Z" fill="#E9E8EF"/>
<path d="M22.2717 18.4043L22.6562 18.4043L22.6562 14.1608L22.2717 14.1608L22.2717 18.4043Z" fill="#E9E8EF"/>
<path d="M19.8264 18.4043L20.2109 18.4043L20.2109 14.1608L19.8264 14.1608L19.8264 18.4043Z" fill="#E9E8EF"/>
<path d="M17.3811 18.4043L17.7656 18.4043L17.7656 14.1608L17.3811 14.1608L17.3811 18.4043Z" fill="#E9E8EF"/>
<path d="M14.9358 18.4043L15.3203 18.4043L15.3203 14.1608L14.9358 14.1608L14.9358 18.4043Z" fill="#E9E8EF"/>
<path d="M12.2937 22.6475L13.0664 22.6475L13.0664 14.1605L12.2937 14.1605L12.2937 22.6475Z" fill="#E9E8EF"/>
<path d="M10.0451 18.4043L10.4297 18.4043L10.4297 14.1608L10.0451 14.1608L10.0451 18.4043Z" fill="#E9E8EF"/>
<path d="M7.59984 18.4043L7.98438 18.4043L7.98437 14.1608L7.59984 14.1608L7.59984 18.4043Z" fill="#E9E8EF"/>
<path d="M5.1545 18.4043L5.53906 18.4043L5.53906 14.1608L5.1545 14.1608L5.1545 18.4043Z" fill="#E9E8EF"/>
<path d="M2.70919 18.4043L3.09375 18.4043L3.09375 14.1608L2.70919 14.1608L2.70919 18.4043Z" fill="#E9E8EF"/>
<path d="M196.067 22.6475L196.84 22.6475L196.84 14.1605L196.067 14.1605L196.067 22.6475Z" fill="#E9E8EF"/>
<path d="M193.815 18.4043L194.199 18.4043L194.199 14.1608L193.815 14.1608L193.815 18.4043Z" fill="#E9E8EF"/>
<path d="M191.369 18.4043L191.754 18.4043L191.754 14.1608L191.369 14.1608L191.369 18.4043Z" fill="#E9E8EF"/>
<path d="M188.924 18.4043L189.309 18.4043L189.309 14.1608L188.924 14.1608L188.924 18.4043Z" fill="#E9E8EF"/>
<path d="M186.479 18.4043L186.863 18.4043L186.863 14.1608L186.479 14.1608L186.479 18.4043Z" fill="#E9E8EF"/>
<path d="M183.841 22.6475L184.613 22.6475L184.613 14.1605L183.841 14.1605L183.841 22.6475Z" fill="#E9E8EF"/>
<path d="M181.588 18.4043L181.973 18.4043L181.973 14.1608L181.588 14.1608L181.588 18.4043Z" fill="#E9E8EF"/>
<path d="M179.143 18.4043L179.527 18.4043L179.527 14.1608L179.143 14.1608L179.143 18.4043Z" fill="#E9E8EF"/>
<path d="M176.697 18.4043L177.082 18.4043L177.082 14.1608L176.697 14.1608L176.697 18.4043Z" fill="#E9E8EF"/>
<path d="M174.252 18.4043L174.637 18.4043L174.637 14.1608L174.252 14.1608L174.252 18.4043Z" fill="#E9E8EF"/>
<path d="M171.614 22.6475L172.387 22.6475L172.387 14.1605L171.614 14.1605L171.614 22.6475Z" fill="#E9E8EF"/>
<path d="M171.614 22.6475L172.387 22.6475L172.387 14.1605L171.614 14.1605L171.614 22.6475Z" fill="#E9E8EF"/>
<path d="M169.362 18.4043L169.746 18.4043L169.746 14.1608L169.362 14.1608L169.362 18.4043Z" fill="#E9E8EF"/>
<path d="M166.916 18.4043L167.301 18.4043L167.301 14.1608L166.916 14.1608L166.916 18.4043Z" fill="#E9E8EF"/>
<path d="M164.471 18.4043L164.855 18.4043L164.855 14.1608L164.471 14.1608L164.471 18.4043Z" fill="#E9E8EF"/>
<path d="M162.026 18.4043L162.41 18.4043L162.41 14.1608L162.026 14.1608L162.026 18.4043Z" fill="#E9E8EF"/>
<path d="M159.384 22.6475L160.156 22.6475L160.156 14.1605L159.384 14.1605L159.384 22.6475Z" fill="#E9E8EF"/>
<path d="M157.135 18.4043L157.52 18.4043L157.52 14.1608L157.135 14.1608L157.135 18.4043Z" fill="#E9E8EF"/>
<path d="M154.69 18.4043L155.074 18.4043L155.074 14.1608L154.69 14.1608L154.69 18.4043Z" fill="#E9E8EF"/>
<path d="M152.244 18.4043L152.629 18.4043L152.629 14.1608L152.244 14.1608L152.244 18.4043Z" fill="#E9E8EF"/>
<path d="M149.799 18.4043L150.184 18.4043L150.184 14.1608L149.799 14.1608L149.799 18.4043Z" fill="#E9E8EF"/>
<path d="M147.157 22.6475L147.93 22.6475L147.93 14.1605L147.157 14.1605L147.157 22.6475Z" fill="#E9E8EF"/>
<path d="M147.157 22.6475L147.93 22.6475L147.93 14.1605L147.157 14.1605L147.157 22.6475Z" fill="#E9E8EF"/>
<path d="M144.908 18.4043L145.293 18.4043L145.293 14.1608L144.908 14.1608L144.908 18.4043Z" fill="#E9E8EF"/>
<path d="M142.463 18.4043L142.848 18.4043L142.848 14.1608L142.463 14.1608L142.463 18.4043Z" fill="#E9E8EF"/>
<path d="M140.018 18.4043L140.402 18.4043L140.402 14.1608L140.018 14.1608L140.018 18.4043Z" fill="#E9E8EF"/>
<path d="M137.569 18.4043L137.953 18.4043L137.953 14.1608L137.569 14.1608L137.569 18.4043Z" fill="#E9E8EF"/>
<path d="M134.93 22.6475L135.703 22.6475L135.703 14.1605L134.93 14.1605L134.93 22.6475Z" fill="#E9E8EF"/>
<path d="M132.678 18.4043L133.062 18.4043L133.062 14.1608L132.678 14.1608L132.678 18.4043Z" fill="#E9E8EF"/>
<path d="M130.233 18.4043L130.617 18.4043L130.617 14.1608L130.233 14.1608L130.233 18.4043Z" fill="#E9E8EF"/>
<path d="M127.787 18.4043L128.172 18.4043L128.172 14.1608L127.787 14.1608L127.787 18.4043Z" fill="#E9E8EF"/>
<path d="M125.342 18.4043L125.727 18.4043L125.727 14.1608L125.342 14.1608L125.342 18.4043Z" fill="#E9E8EF"/>
<path d="M122.704 22.6475L123.477 22.6475L123.477 14.1605L122.704 14.1605L122.704 22.6475Z" fill="#E9E8EF"/>
<path d="M122.704 22.6475L123.477 22.6475L123.477 14.1605L122.704 14.1605L122.704 22.6475Z" fill="#E9E8EF"/>
<path d="M120.451 18.4043L120.836 18.4043L120.836 14.1608L120.451 14.1608L120.451 18.4043Z" fill="#E9E8EF"/>
<path d="M118.006 18.4043L118.391 18.4043L118.391 14.1608L118.006 14.1608L118.006 18.4043Z" fill="#E9E8EF"/>
<path d="M115.561 18.4043L115.945 18.4043L115.945 14.1608L115.561 14.1608L115.561 18.4043Z" fill="#E9E8EF"/>
<path d="M113.115 18.4043L113.5 18.4043L113.5 14.1608L113.115 14.1608L113.115 18.4043Z" fill="#E9E8EF"/>
<path d="M110.477 22.6475L111.25 22.6475L111.25 14.1605L110.477 14.1605L110.477 22.6475Z" fill="#E9E8EF"/>
<path d="M108.225 18.4043L108.609 18.4043L108.609 14.1608L108.225 14.1608L108.225 18.4043Z" fill="#E9E8EF"/>
<path d="M105.78 18.4043L106.164 18.4043L106.164 14.1608L105.78 14.1608L105.78 18.4043Z" fill="#E9E8EF"/>
<path d="M103.334 18.4043L103.719 18.4043L103.719 14.1608L103.334 14.1608L103.334 18.4043Z" fill="#E9E8EF"/>
<path d="M100.889 18.4043L101.273 18.4043L101.273 14.1608L100.889 14.1608L100.889 18.4043Z" fill="#E9E8EF"/>
</g>
<path d="M294.634 0.333984L295.406 0.333984L295.406 8.8227L294.634 8.8227L294.634 0.333984Z" fill="#E9E8EF"/>
<path d="M292.377 4.5791L292.762 4.5791L292.762 8.8226L292.377 8.8226L292.377 4.5791Z" fill="#E9E8EF"/>
<path d="M289.936 4.5791L290.32 4.5791L290.32 8.8226L289.936 8.8226L289.936 4.5791Z" fill="#E9E8EF"/>
<path d="M287.49 4.5791L287.875 4.5791L287.875 8.8226L287.49 8.8226L287.49 4.5791Z" fill="#E9E8EF"/>
<path d="M285.045 4.5791L285.43 4.5791L285.43 8.8226L285.045 8.8226L285.045 4.5791Z" fill="#E9E8EF"/>
<path d="M282.403 0.333984L283.176 0.333984L283.176 8.8227L282.403 8.8227L282.403 0.333984Z" fill="#E9E8EF"/>
<path d="M280.151 4.5791L280.535 4.5791L280.535 8.8226L280.151 8.8226L280.151 4.5791Z" fill="#E9E8EF"/>
<path d="M277.705 4.5791L278.09 4.5791L278.09 8.8226L277.705 8.8226L277.705 4.5791Z" fill="#E9E8EF"/>
<path d="M275.26 4.5791L275.645 4.5791L275.645 8.8226L275.26 8.8226L275.26 4.5791Z" fill="#E9E8EF"/>
<path d="M272.815 4.5791L273.199 4.5791L273.199 8.8226L272.815 8.8226L272.815 4.5791Z" fill="#E9E8EF"/>
<path d="M270.173 0.333984L270.945 0.333984L270.945 8.8227L270.173 8.8227L270.173 0.333984Z" fill="#E9E8EF"/>
<path d="M270.173 0.333984L270.945 0.333984L270.945 8.8227L270.173 8.8227L270.173 0.333984Z" fill="#E9E8EF"/>
<path d="M267.92 4.5791L268.305 4.5791L268.305 8.8226L267.92 8.8226L267.92 4.5791Z" fill="#E9E8EF"/>
<path d="M265.475 4.5791L265.859 4.5791L265.859 8.8226L265.475 8.8226L265.475 4.5791Z" fill="#E9E8EF"/>
<path d="M263.03 4.5791L263.414 4.5791L263.414 8.8226L263.03 8.8226L263.03 4.5791Z" fill="#E9E8EF"/>
<path d="M260.584 4.5791L260.969 4.5791L260.969 8.8226L260.584 8.8226L260.584 4.5791Z" fill="#E9E8EF"/>
<path d="M257.942 0.333984L258.715 0.333984L258.715 8.8227L257.942 8.8227L257.942 0.333984Z" fill="#E9E8EF"/>
<path d="M255.69 4.5791L256.074 4.5791L256.074 8.8226L255.69 8.8226L255.69 4.5791Z" fill="#E9E8EF"/>
<path d="M253.244 4.5791L253.629 4.5791L253.629 8.8226L253.244 8.8226L253.244 4.5791Z" fill="#E9E8EF"/>
<path d="M250.799 4.5791L251.184 4.5791L251.184 8.8226L250.799 8.8226L250.799 4.5791Z" fill="#E9E8EF"/>
<path d="M248.354 4.5791L248.738 4.5791L248.738 8.8226L248.354 8.8226L248.354 4.5791Z" fill="#E9E8EF"/>
<path d="M245.716 0.333984L246.488 0.333984L246.488 8.8227L245.716 8.8227L245.716 0.333984Z" fill="#E9E8EF"/>
<path d="M245.716 0.333984L246.488 0.333984L246.488 8.8227L245.716 8.8227L245.716 0.333984Z" fill="#E9E8EF"/>
<path d="M243.463 4.5791L243.848 4.5791L243.848 8.8226L243.463 8.8226L243.463 4.5791Z" fill="#E9E8EF"/>
<path d="M241.018 4.5791L241.402 4.5791L241.402 8.8226L241.018 8.8226L241.018 4.5791Z" fill="#E9E8EF"/>
<path d="M238.569 4.5791L238.953 4.5791L238.953 8.8226L238.569 8.8226L238.569 4.5791Z" fill="#E9E8EF"/>
<path d="M236.123 4.5791L236.508 4.5791L236.508 8.8226L236.123 8.8226L236.123 4.5791Z" fill="#E9E8EF"/>
<path d="M233.485 0.333984L234.258 0.333984L234.258 8.8227L233.485 8.8227L233.485 0.333984Z" fill="#E9E8EF"/>
<path d="M231.233 4.5791L231.617 4.5791L231.617 8.8226L231.233 8.8226L231.233 4.5791Z" fill="#E9E8EF"/>
<path d="M228.787 4.5791L229.172 4.5791L229.172 8.8226L228.787 8.8226L228.787 4.5791Z" fill="#E9E8EF"/>
<path d="M226.342 4.5791L226.727 4.5791L226.727 8.8226L226.342 8.8226L226.342 4.5791Z" fill="#E9E8EF"/>
<path d="M223.897 4.5791L224.281 4.5791L224.281 8.8226L223.897 8.8226L223.897 4.5791Z" fill="#E9E8EF"/>
<path d="M221.259 0.333984L222.031 0.333984L222.031 8.8227L221.259 8.8227L221.259 0.333984Z" fill="#E9E8EF"/>
<path d="M221.259 0.333984L222.031 0.333984L222.031 8.8227L221.259 8.8227L221.259 0.333984Z" fill="#E9E8EF"/>
<path d="M219.002 4.5791L219.387 4.5791L219.387 8.8226L219.002 8.8226L219.002 4.5791Z" fill="#E9E8EF"/>
<path d="M216.557 4.5791L216.941 4.5791L216.941 8.8226L216.557 8.8226L216.557 4.5791Z" fill="#E9E8EF"/>
<path d="M214.112 4.5791L214.496 4.5791L214.496 8.8226L214.112 8.8226L214.112 4.5791Z" fill="#E9E8EF"/>
<path d="M211.666 4.5791L212.051 4.5791L212.051 8.8226L211.666 8.8226L211.666 4.5791Z" fill="#E9E8EF"/>
<path d="M209.024 0.333984L209.797 0.333984L209.797 8.8227L209.024 8.8227L209.024 0.333984Z" fill="#E9E8EF"/>
<path d="M206.776 4.5791L207.16 4.5791L207.16 8.8226L206.776 8.8226L206.776 4.5791Z" fill="#E9E8EF"/>
<path d="M204.33 4.5791L204.715 4.5791L204.715 8.8226L204.33 8.8226L204.33 4.5791Z" fill="#E9E8EF"/>
<path d="M201.885 4.5791L202.27 4.5791L202.27 8.8226L201.885 8.8226L201.885 4.5791Z" fill="#E9E8EF"/>
<path d="M199.432 4.5791L199.816 4.5791L199.816 8.8226L199.432 8.8226L199.432 4.5791Z" fill="#E9E8EF"/>
<path d="M307.227 0.333984L308 0.333984L308 8.8227L307.227 8.8227L307.227 0.333984Z" fill="#E9E8EF"/>
<path d="M304.975 4.5791L305.359 4.5791L305.359 8.8226L304.975 8.8226L304.975 4.5791Z" fill="#E9E8EF"/>
<path d="M302.53 4.5791L302.914 4.5791L302.914 8.8226L302.53 8.8226L302.53 4.5791Z" fill="#E9E8EF"/>
<path d="M300.084 4.5791L300.469 4.5791L300.469 8.8226L300.084 8.8226L300.084 4.5791Z" fill="#E9E8EF"/>
<path d="M297.639 4.5791L298.023 4.5791L298.023 8.8226L297.639 8.8226L297.639 4.5791Z" fill="#E9E8EF"/>
<path d="M405.2 0.333984L405.973 0.333984L405.973 8.8227L405.2 8.8227L405.2 0.333984Z" fill="#E9E8EF"/>
<path d="M402.944 4.5791L403.328 4.5791L403.328 8.8226L402.944 8.8226L402.944 4.5791Z" fill="#E9E8EF"/>
<path d="M400.502 4.5791L400.887 4.5791L400.887 8.8226L400.502 8.8226L400.502 4.5791Z" fill="#E9E8EF"/>
<path d="M398.057 4.5791L398.441 4.5791L398.441 8.8226L398.057 8.8226L398.057 4.5791Z" fill="#E9E8EF"/>
<path d="M395.612 4.5791L395.996 4.5791L395.996 8.8226L395.612 8.8226L395.612 4.5791Z" fill="#E9E8EF"/>
<path d="M392.969 0.333984L393.742 0.333984L393.742 8.8227L392.969 8.8227L392.969 0.333984Z" fill="#E9E8EF"/>
<path d="M390.717 4.5791L391.102 4.5791L391.102 8.8226L390.717 8.8226L390.717 4.5791Z" fill="#E9E8EF"/>
<path d="M388.272 4.5791L388.656 4.5791L388.656 8.8226L388.272 8.8226L388.272 4.5791Z" fill="#E9E8EF"/>
<path d="M385.826 4.5791L386.211 4.5791L386.211 8.8226L385.826 8.8226L385.826 4.5791Z" fill="#E9E8EF"/>
<path d="M383.381 4.5791L383.766 4.5791L383.766 8.8226L383.381 8.8226L383.381 4.5791Z" fill="#E9E8EF"/>
<path d="M380.739 0.333984L381.512 0.333984L381.512 8.8227L380.739 8.8227L380.739 0.333984Z" fill="#E9E8EF"/>
<path d="M380.739 0.333984L381.512 0.333984L381.512 8.8227L380.739 8.8227L380.739 0.333984Z" fill="#E9E8EF"/>
<path d="M378.487 4.5791L378.871 4.5791L378.871 8.8226L378.487 8.8226L378.487 4.5791Z" fill="#E9E8EF"/>
<path d="M376.041 4.5791L376.426 4.5791L376.426 8.8226L376.041 8.8226L376.041 4.5791Z" fill="#E9E8EF"/>
<path d="M373.596 4.5791L373.98 4.5791L373.98 8.8226L373.596 8.8226L373.596 4.5791Z" fill="#E9E8EF"/>
<path d="M371.151 4.5791L371.535 4.5791L371.535 8.8226L371.151 8.8226L371.151 4.5791Z" fill="#E9E8EF"/>
<path d="M368.509 0.333984L369.281 0.333984L369.281 8.8227L368.509 8.8227L368.509 0.333984Z" fill="#E9E8EF"/>
<path d="M366.256 4.5791L366.641 4.5791L366.641 8.8226L366.256 8.8226L366.256 4.5791Z" fill="#E9E8EF"/>
<path d="M363.811 4.5791L364.195 4.5791L364.195 8.8226L363.811 8.8226L363.811 4.5791Z" fill="#E9E8EF"/>
<path d="M361.365 4.5791L361.75 4.5791L361.75 8.8226L361.365 8.8226L361.365 4.5791Z" fill="#E9E8EF"/>
<path d="M358.92 4.5791L359.305 4.5791L359.305 8.8226L358.92 8.8226L358.92 4.5791Z" fill="#E9E8EF"/>
<path d="M356.282 0.333984L357.055 0.333984L357.055 8.8227L356.282 8.8227L356.282 0.333984Z" fill="#E9E8EF"/>
<path d="M356.282 0.333984L357.055 0.333984L357.055 8.8227L356.282 8.8227L356.282 0.333984Z" fill="#E9E8EF"/>
<path d="M354.03 4.5791L354.414 4.5791L354.414 8.8226L354.03 8.8226L354.03 4.5791Z" fill="#E9E8EF"/>
<path d="M351.584 4.5791L351.969 4.5791L351.969 8.8226L351.584 8.8226L351.584 4.5791Z" fill="#E9E8EF"/>
<path d="M349.135 4.5791L349.52 4.5791L349.52 8.8226L349.135 8.8226L349.135 4.5791Z" fill="#E9E8EF"/>
<path d="M346.69 4.5791L347.074 4.5791L347.074 8.8226L346.69 8.8226L346.69 4.5791Z" fill="#E9E8EF"/>
<path d="M344.052 0.333984L344.824 0.333984L344.824 8.8227L344.052 8.8227L344.052 0.333984Z" fill="#E9E8EF"/>
<path d="M341.799 4.5791L342.184 4.5791L342.184 8.8226L341.799 8.8226L341.799 4.5791Z" fill="#E9E8EF"/>
<path d="M339.354 4.5791L339.738 4.5791L339.738 8.8226L339.354 8.8226L339.354 4.5791Z" fill="#E9E8EF"/>
<path d="M336.908 4.5791L337.293 4.5791L337.293 8.8226L336.908 8.8226L336.908 4.5791Z" fill="#E9E8EF"/>
<path d="M334.463 4.5791L334.848 4.5791L334.848 8.8226L334.463 8.8226L334.463 4.5791Z" fill="#E9E8EF"/>
<path d="M331.825 0.333984L332.598 0.333984L332.598 8.8227L331.825 8.8227L331.825 0.333984Z" fill="#E9E8EF"/>
<path d="M331.825 0.333984L332.598 0.333984L332.598 8.8227L331.825 8.8227L331.825 0.333984Z" fill="#E9E8EF"/>
<path d="M329.569 4.5791L329.953 4.5791L329.953 8.8226L329.569 8.8226L329.569 4.5791Z" fill="#E9E8EF"/>
<path d="M327.123 4.5791L327.508 4.5791L327.508 8.8226L327.123 8.8226L327.123 4.5791Z" fill="#E9E8EF"/>
<path d="M324.678 4.5791L325.062 4.5791L325.062 8.8226L324.678 8.8226L324.678 4.5791Z" fill="#E9E8EF"/>
<path d="M322.233 4.5791L322.617 4.5791L322.617 8.8226L322.233 8.8226L322.233 4.5791Z" fill="#E9E8EF"/>
<path d="M319.591 0.333984L320.363 0.333984L320.363 8.8227L319.591 8.8227L319.591 0.333984Z" fill="#E9E8EF"/>
<path d="M317.342 4.5791L317.727 4.5791L317.727 8.8226L317.342 8.8226L317.342 4.5791Z" fill="#E9E8EF"/>
<path d="M314.897 4.5791L315.281 4.5791L315.281 8.8226L314.897 8.8226L314.897 4.5791Z" fill="#E9E8EF"/>
<path d="M312.451 4.5791L312.836 4.5791L312.836 8.8226L312.451 8.8226L312.451 4.5791Z" fill="#E9E8EF"/>
<path d="M309.998 4.5791L310.383 4.5791L310.383 8.8226L309.998 8.8226L309.998 4.5791Z" fill="#E9E8EF"/>
<path d="M417.794 0.333984L418.566 0.333984L418.566 8.8227L417.794 8.8227L417.794 0.333984Z" fill="#E9E8EF"/>
<path d="M415.541 4.5791L415.926 4.5791L415.926 8.8226L415.541 8.8226L415.541 4.5791Z" fill="#E9E8EF"/>
<path d="M413.096 4.5791L413.48 4.5791L413.48 8.8226L413.096 8.8226L413.096 4.5791Z" fill="#E9E8EF"/>
<path d="M410.651 4.5791L411.035 4.5791L411.035 8.8226L410.651 8.8226L410.651 4.5791Z" fill="#E9E8EF"/>
<path d="M408.205 4.5791L408.59 4.5791L408.59 8.8226L408.205 8.8226L408.205 4.5791Z" fill="#E9E8EF"/>
<g clip-path="url(#clip1_505_33606)">
<path d="M97.8874 0.336914L98.6602 0.336914L98.6602 8.82392L97.8874 8.82392L97.8874 0.336914Z" fill="#E9E8EF"/>
<path d="M95.6311 4.58008L96.0156 4.58008L96.0156 8.82358L95.6311 8.82358L95.6311 4.58008Z" fill="#E9E8EF"/>
<path d="M93.1897 4.58008L93.5742 4.58008L93.5742 8.82358L93.1897 8.82358L93.1897 4.58008Z" fill="#E9E8EF"/>
<path d="M90.7444 4.58008L91.1289 4.58008L91.1289 8.82358L90.7444 8.82358L90.7444 4.58008Z" fill="#E9E8EF"/>
<path d="M88.299 4.58008L88.6836 4.58008L88.6836 8.82358L88.299 8.82358L88.299 4.58008Z" fill="#E9E8EF"/>
<path d="M85.657 0.336914L86.4297 0.336914L86.4297 8.82392L85.657 8.82392L85.657 0.336914Z" fill="#E9E8EF"/>
<path d="M83.4045 4.58008L83.7891 4.58008L83.7891 8.82358L83.4045 8.82358L83.4045 4.58008Z" fill="#E9E8EF"/>
<path d="M80.9631 4.58008L81.3477 4.58008L81.3477 8.82358L80.9631 8.82358L80.9631 4.58008Z" fill="#E9E8EF"/>
<path d="M78.5178 4.58008L78.9023 4.58008L78.9023 8.82358L78.5178 8.82358L78.5178 4.58008Z" fill="#E9E8EF"/>
<path d="M76.0725 4.58008L76.457 4.58008L76.457 8.82358L76.0725 8.82358L76.0725 4.58008Z" fill="#E9E8EF"/>
<path d="M73.4304 0.336914L74.2031 0.336914L74.2031 8.82392L73.4304 8.82392L73.4304 0.336914Z" fill="#E9E8EF"/>
<path d="M73.4304 0.336914L74.2031 0.336914L74.2031 8.82392L73.4304 8.82392L73.4304 0.336914Z" fill="#E9E8EF"/>
<path d="M71.1779 4.58008L71.5625 4.58008L71.5625 8.82358L71.1779 8.82358L71.1779 4.58008Z" fill="#E9E8EF"/>
<path d="M68.7365 4.58008L69.1211 4.58008L69.1211 8.82358L68.7365 8.82358L68.7365 4.58008Z" fill="#E9E8EF"/>
<path d="M66.2912 4.58008L66.6758 4.58008L66.6758 8.82358L66.2912 8.82358L66.2912 4.58008Z" fill="#E9E8EF"/>
<path d="M63.842 4.58008L64.2266 4.58008L64.2266 8.82358L63.842 8.82358L63.842 4.58008Z" fill="#E9E8EF"/>
<path d="M61.2039 0.336914L61.9766 0.336914L61.9766 8.82392L61.2039 8.82392L61.2039 0.336914Z" fill="#E9E8EF"/>
<path d="M58.9514 4.58008L59.3359 4.58008L59.3359 8.82358L58.9514 8.82358L58.9514 4.58008Z" fill="#E9E8EF"/>
<path d="M56.5061 4.58008L56.8906 4.58008L56.8906 8.82358L56.5061 8.82358L56.5061 4.58008Z" fill="#E9E8EF"/>
<path d="M54.0608 4.58008L54.4453 4.58008L54.4453 8.82358L54.0608 8.82358L54.0608 4.58008Z" fill="#E9E8EF"/>
<path d="M51.6154 4.58008L52 4.58008L52 8.82358L51.6154 8.82358L51.6154 4.58008Z" fill="#E9E8EF"/>
<path d="M48.9773 0.336914L49.75 0.336914L49.75 8.82392L48.9773 8.82392L48.9773 0.336914Z" fill="#E9E8EF"/>
<path d="M48.9773 0.336914L49.75 0.336914L49.75 8.82392L48.9773 8.82392L48.9773 0.336914Z" fill="#E9E8EF"/>
<path d="M46.7248 4.58008L47.1094 4.58008L47.1094 8.82358L46.7248 8.82358L46.7248 4.58008Z" fill="#E9E8EF"/>
<path d="M44.2795 4.58008L44.6641 4.58008L44.6641 8.82358L44.2795 8.82358L44.2795 4.58008Z" fill="#E9E8EF"/>
<path d="M41.8342 4.58008L42.2188 4.58008L42.2187 8.82358L41.8342 8.82358L41.8342 4.58008Z" fill="#E9E8EF"/>
<path d="M39.3889 4.58008L39.7734 4.58008L39.7734 8.82358L39.3889 8.82358L39.3889 4.58008Z" fill="#E9E8EF"/>
<path d="M36.7507 0.336914L37.5234 0.336914L37.5234 8.82392L36.7507 8.82392L36.7507 0.336914Z" fill="#E9E8EF"/>
<path d="M34.4983 4.58008L34.8828 4.58008L34.8828 8.82358L34.4983 8.82358L34.4983 4.58008Z" fill="#E9E8EF"/>
<path d="M32.0529 4.58008L32.4375 4.58008L32.4375 8.82358L32.0529 8.82358L32.0529 4.58008Z" fill="#E9E8EF"/>
<path d="M29.6076 4.58008L29.9922 4.58008L29.9922 8.82358L29.6076 8.82358L29.6076 4.58008Z" fill="#E9E8EF"/>
<path d="M27.1623 4.58008L27.5469 4.58008L27.5469 8.82358L27.1623 8.82358L27.1623 4.58008Z" fill="#E9E8EF"/>
<path d="M24.5242 0.336914L25.2969 0.336914L25.2969 8.82392L24.5242 8.82392L24.5242 0.336914Z" fill="#E9E8EF"/>
<path d="M24.5242 0.336914L25.2969 0.336914L25.2969 8.82392L24.5242 8.82392L24.5242 0.336914Z" fill="#E9E8EF"/>
<path d="M22.2717 4.58008L22.6562 4.58008L22.6562 8.82358L22.2717 8.82358L22.2717 4.58008Z" fill="#E9E8EF"/>
<path d="M19.8264 4.58008L20.2109 4.58008L20.2109 8.82358L19.8264 8.82358L19.8264 4.58008Z" fill="#E9E8EF"/>
<path d="M17.3811 4.58008L17.7656 4.58008L17.7656 8.82358L17.3811 8.82358L17.3811 4.58008Z" fill="#E9E8EF"/>
<path d="M14.9358 4.58008L15.3203 4.58008L15.3203 8.82358L14.9358 8.82358L14.9358 4.58008Z" fill="#E9E8EF"/>
<path d="M12.2937 0.336914L13.0664 0.336914L13.0664 8.82392L12.2937 8.82392L12.2937 0.336914Z" fill="#E9E8EF"/>
<path d="M10.0451 4.58008L10.4297 4.58008L10.4297 8.82358L10.0451 8.82358L10.0451 4.58008Z" fill="#E9E8EF"/>
<path d="M7.59984 4.58008L7.98438 4.58008L7.98437 8.82358L7.59984 8.82358L7.59984 4.58008Z" fill="#E9E8EF"/>
<path d="M5.1545 4.58008L5.53906 4.58008L5.53906 8.82358L5.1545 8.82358L5.1545 4.58008Z" fill="#E9E8EF"/>
<path d="M2.70919 4.58008L3.09375 4.58008L3.09375 8.82358L2.70919 8.82358L2.70919 4.58008Z" fill="#E9E8EF"/>
<path d="M196.067 0.336914L196.84 0.336914L196.84 8.82392L196.067 8.82392L196.067 0.336914Z" fill="#E9E8EF"/>
<path d="M193.815 4.58008L194.199 4.58008L194.199 8.82358L193.815 8.82358L193.815 4.58008Z" fill="#E9E8EF"/>
<path d="M191.369 4.58008L191.754 4.58008L191.754 8.82358L191.369 8.82358L191.369 4.58008Z" fill="#E9E8EF"/>
<path d="M188.924 4.58008L189.309 4.58008L189.309 8.82358L188.924 8.82358L188.924 4.58008Z" fill="#E9E8EF"/>
<path d="M186.479 4.58008L186.863 4.58008L186.863 8.82358L186.479 8.82358L186.479 4.58008Z" fill="#E9E8EF"/>
<path d="M183.841 0.336914L184.613 0.336914L184.613 8.82392L183.841 8.82392L183.841 0.336914Z" fill="#E9E8EF"/>
<path d="M181.588 4.58008L181.973 4.58008L181.973 8.82358L181.588 8.82358L181.588 4.58008Z" fill="#E9E8EF"/>
<path d="M179.143 4.58008L179.527 4.58008L179.527 8.82358L179.143 8.82358L179.143 4.58008Z" fill="#E9E8EF"/>
<path d="M176.697 4.58008L177.082 4.58008L177.082 8.82358L176.697 8.82358L176.697 4.58008Z" fill="#E9E8EF"/>
<path d="M174.252 4.58008L174.637 4.58008L174.637 8.82358L174.252 8.82358L174.252 4.58008Z" fill="#E9E8EF"/>
<path d="M171.614 0.336914L172.387 0.336914L172.387 8.82392L171.614 8.82392L171.614 0.336914Z" fill="#E9E8EF"/>
<path d="M171.614 0.336914L172.387 0.336914L172.387 8.82392L171.614 8.82392L171.614 0.336914Z" fill="#E9E8EF"/>
<path d="M169.362 4.58008L169.746 4.58008L169.746 8.82358L169.362 8.82358L169.362 4.58008Z" fill="#E9E8EF"/>
<path d="M166.916 4.58008L167.301 4.58008L167.301 8.82358L166.916 8.82358L166.916 4.58008Z" fill="#E9E8EF"/>
<path d="M164.471 4.58008L164.855 4.58008L164.855 8.82358L164.471 8.82358L164.471 4.58008Z" fill="#E9E8EF"/>
<path d="M162.026 4.58008L162.41 4.58008L162.41 8.82358L162.026 8.82358L162.026 4.58008Z" fill="#E9E8EF"/>
<path d="M159.384 0.336914L160.156 0.336914L160.156 8.82392L159.384 8.82392L159.384 0.336914Z" fill="#E9E8EF"/>
<path d="M157.135 4.58008L157.52 4.58008L157.52 8.82358L157.135 8.82358L157.135 4.58008Z" fill="#E9E8EF"/>
<path d="M154.69 4.58008L155.074 4.58008L155.074 8.82358L154.69 8.82358L154.69 4.58008Z" fill="#E9E8EF"/>
<path d="M152.244 4.58008L152.629 4.58008L152.629 8.82358L152.244 8.82358L152.244 4.58008Z" fill="#E9E8EF"/>
<path d="M149.799 4.58008L150.184 4.58008L150.184 8.82358L149.799 8.82358L149.799 4.58008Z" fill="#E9E8EF"/>
<path d="M147.157 0.336914L147.93 0.336914L147.93 8.82392L147.157 8.82392L147.157 0.336914Z" fill="#E9E8EF"/>
<path d="M147.157 0.336914L147.93 0.336914L147.93 8.82392L147.157 8.82392L147.157 0.336914Z" fill="#E9E8EF"/>
<path d="M144.908 4.58008L145.293 4.58008L145.293 8.82358L144.908 8.82358L144.908 4.58008Z" fill="#E9E8EF"/>
<path d="M142.463 4.58008L142.848 4.58008L142.848 8.82358L142.463 8.82358L142.463 4.58008Z" fill="#E9E8EF"/>
<path d="M140.018 4.58008L140.402 4.58008L140.402 8.82358L140.018 8.82358L140.018 4.58008Z" fill="#E9E8EF"/>
<path d="M137.569 4.58008L137.953 4.58008L137.953 8.82358L137.569 8.82358L137.569 4.58008Z" fill="#E9E8EF"/>
<path d="M134.93 0.336914L135.703 0.336914L135.703 8.82392L134.93 8.82392L134.93 0.336914Z" fill="#E9E8EF"/>
<path d="M132.678 4.58008L133.062 4.58008L133.062 8.82358L132.678 8.82358L132.678 4.58008Z" fill="#E9E8EF"/>
<path d="M130.233 4.58008L130.617 4.58008L130.617 8.82358L130.233 8.82358L130.233 4.58008Z" fill="#E9E8EF"/>
<path d="M127.787 4.58008L128.172 4.58008L128.172 8.82358L127.787 8.82358L127.787 4.58008Z" fill="#E9E8EF"/>
<path d="M125.342 4.58008L125.727 4.58008L125.727 8.82358L125.342 8.82358L125.342 4.58008Z" fill="#E9E8EF"/>
<path d="M122.704 0.336914L123.477 0.336914L123.477 8.82392L122.704 8.82392L122.704 0.336914Z" fill="#E9E8EF"/>
<path d="M122.704 0.336914L123.477 0.336914L123.477 8.82392L122.704 8.82392L122.704 0.336914Z" fill="#E9E8EF"/>
<path d="M120.451 4.58008L120.836 4.58008L120.836 8.82358L120.451 8.82358L120.451 4.58008Z" fill="#E9E8EF"/>
<path d="M118.006 4.58008L118.391 4.58008L118.391 8.82358L118.006 8.82358L118.006 4.58008Z" fill="#E9E8EF"/>
<path d="M115.561 4.58008L115.945 4.58008L115.945 8.82358L115.561 8.82358L115.561 4.58008Z" fill="#E9E8EF"/>
<path d="M113.115 4.58008L113.5 4.58008L113.5 8.82358L113.115 8.82358L113.115 4.58008Z" fill="#E9E8EF"/>
<path d="M110.477 0.336914L111.25 0.336914L111.25 8.82392L110.477 8.82392L110.477 0.336914Z" fill="#E9E8EF"/>
<path d="M108.225 4.58008L108.609 4.58008L108.609 8.82358L108.225 8.82358L108.225 4.58008Z" fill="#E9E8EF"/>
<path d="M105.78 4.58008L106.164 4.58008L106.164 8.82358L105.78 8.82358L105.78 4.58008Z" fill="#E9E8EF"/>
<path d="M103.334 4.58008L103.719 4.58008L103.719 8.82358L103.334 8.82358L103.334 4.58008Z" fill="#E9E8EF"/>
<path d="M100.889 4.58008L101.273 4.58008L101.273 8.82358L100.889 8.82358L100.889 4.58008Z" fill="#E9E8EF"/>
</g>
<defs>
<clipPath id="clip0_505_33606">
<rect width="196.772" height="8.487" fill="white" transform="translate(196.84 22.6475) rotate(180)"/>
</clipPath>
<clipPath id="clip1_505_33606">
<rect width="196.772" height="8.487" fill="white" transform="matrix(-1 -3.17865e-08 -3.17865e-08 1 196.84 0.336914)"/>
</clipPath>
</defs>
</svg>
