<svg width="419" height="23" viewBox="0 0 419 23" fill="none" xmlns="http://www.w3.org/2000/svg">
<path d="M124.39 0.484375L123.617 0.484375L123.617 8.97309L124.39 8.97309L124.39 0.484375Z" fill="#E9E8EF"/>
<path d="M126.646 4.72949L126.262 4.72949L126.262 8.97299L126.646 8.97299L126.646 4.72949Z" fill="#E9E8EF"/>
<path d="M129.088 4.72949L128.703 4.72949L128.703 8.97299L129.088 8.97299L129.088 4.72949Z" fill="#E9E8EF"/>
<path d="M131.533 4.72949L131.148 4.72949L131.148 8.97299L131.533 8.97299L131.533 4.72949Z" fill="#E9E8EF"/>
<path d="M133.978 4.72949L133.594 4.72949L133.594 8.97299L133.978 8.97299L133.978 4.72949Z" fill="#E9E8EF"/>
<path d="M136.62 0.484375L135.848 0.484375L135.848 8.97309L136.62 8.97309L136.62 0.484375Z" fill="#E9E8EF"/>
<path d="M138.873 4.72949L138.488 4.72949L138.488 8.97299L138.873 8.97299L138.873 4.72949Z" fill="#E9E8EF"/>
<path d="M141.318 4.72949L140.934 4.72949L140.934 8.97299L141.318 8.97299L141.318 4.72949Z" fill="#E9E8EF"/>
<path d="M143.763 4.72949L143.379 4.72949L143.379 8.97299L143.763 8.97299L143.763 4.72949Z" fill="#E9E8EF"/>
<path d="M146.209 4.72949L145.824 4.72949L145.824 8.97299L146.209 8.97299L146.209 4.72949Z" fill="#E9E8EF"/>
<path d="M148.851 0.484375L148.078 0.484375L148.078 8.97309L148.851 8.97309L148.851 0.484375Z" fill="#E9E8EF"/>
<path d="M148.851 0.484375L148.078 0.484375L148.078 8.97309L148.851 8.97309L148.851 0.484375Z" fill="#E9E8EF"/>
<path d="M151.103 4.72949L150.719 4.72949L150.719 8.97299L151.103 8.97299L151.103 4.72949Z" fill="#E9E8EF"/>
<path d="M153.549 4.72949L153.164 4.72949L153.164 8.97299L153.549 8.97299L153.549 4.72949Z" fill="#E9E8EF"/>
<path d="M155.994 4.72949L155.609 4.72949L155.609 8.97299L155.994 8.97299L155.994 4.72949Z" fill="#E9E8EF"/>
<path d="M158.439 4.72949L158.055 4.72949L158.055 8.97299L158.439 8.97299L158.439 4.72949Z" fill="#E9E8EF"/>
<path d="M161.081 0.484375L160.309 0.484375L160.309 8.97309L161.081 8.97309L161.081 0.484375Z" fill="#E9E8EF"/>
<path d="M163.334 4.72949L162.949 4.72949L162.949 8.97299L163.334 8.97299L163.334 4.72949Z" fill="#E9E8EF"/>
<path d="M165.779 4.72949L165.395 4.72949L165.395 8.97299L165.779 8.97299L165.779 4.72949Z" fill="#E9E8EF"/>
<path d="M168.224 4.72949L167.84 4.72949L167.84 8.97299L168.224 8.97299L168.224 4.72949Z" fill="#E9E8EF"/>
<path d="M170.67 4.72949L170.285 4.72949L170.285 8.97299L170.67 8.97299L170.67 4.72949Z" fill="#E9E8EF"/>
<path d="M173.308 0.484375L172.535 0.484375L172.535 8.97309L173.308 8.97309L173.308 0.484375Z" fill="#E9E8EF"/>
<path d="M173.308 0.484375L172.535 0.484375L172.535 8.97309L173.308 8.97309L173.308 0.484375Z" fill="#E9E8EF"/>
<path d="M175.56 4.72949L175.176 4.72949L175.176 8.97299L175.56 8.97299L175.56 4.72949Z" fill="#E9E8EF"/>
<path d="M178.006 4.72949L177.621 4.72949L177.621 8.97299L178.006 8.97299L178.006 4.72949Z" fill="#E9E8EF"/>
<path d="M180.455 4.72949L180.07 4.72949L180.07 8.97299L180.455 8.97299L180.455 4.72949Z" fill="#E9E8EF"/>
<path d="M182.9 4.72949L182.516 4.72949L182.516 8.97299L182.9 8.97299L182.9 4.72949Z" fill="#E9E8EF"/>
<path d="M185.538 0.484375L184.766 0.484375L184.766 8.97309L185.538 8.97309L185.538 0.484375Z" fill="#E9E8EF"/>
<path d="M187.791 4.72949L187.406 4.72949L187.406 8.97299L187.791 8.97299L187.791 4.72949Z" fill="#E9E8EF"/>
<path d="M190.236 4.72949L189.852 4.72949L189.852 8.97299L190.236 8.97299L190.236 4.72949Z" fill="#E9E8EF"/>
<path d="M192.681 4.72949L192.297 4.72949L192.297 8.97299L192.681 8.97299L192.681 4.72949Z" fill="#E9E8EF"/>
<path d="M195.127 4.72949L194.742 4.72949L194.742 8.97299L195.127 8.97299L195.127 4.72949Z" fill="#E9E8EF"/>
<path d="M197.765 0.484375L196.992 0.484375L196.992 8.97309L197.765 8.97309L197.765 0.484375Z" fill="#E9E8EF"/>
<path d="M197.765 0.484375L196.992 0.484375L196.992 8.97309L197.765 8.97309L197.765 0.484375Z" fill="#E9E8EF"/>
<path d="M200.021 4.72949L199.637 4.72949L199.637 8.97299L200.021 8.97299L200.021 4.72949Z" fill="#E9E8EF"/>
<path d="M202.467 4.72949L202.082 4.72949L202.082 8.97299L202.467 8.97299L202.467 4.72949Z" fill="#E9E8EF"/>
<path d="M204.912 4.72949L204.527 4.72949L204.527 8.97299L204.912 8.97299L204.912 4.72949Z" fill="#E9E8EF"/>
<path d="M207.357 4.72949L206.973 4.72949L206.973 8.97299L207.357 8.97299L207.357 4.72949Z" fill="#E9E8EF"/>
<path d="M209.999 0.484375L209.227 0.484375L209.227 8.97309L209.999 8.97309L209.999 0.484375Z" fill="#E9E8EF"/>
<path d="M212.248 4.72949L211.863 4.72949L211.863 8.97299L212.248 8.97299L212.248 4.72949Z" fill="#E9E8EF"/>
<path d="M214.693 4.72949L214.309 4.72949L214.309 8.97299L214.693 8.97299L214.693 4.72949Z" fill="#E9E8EF"/>
<path d="M217.138 4.72949L216.754 4.72949L216.754 8.97299L217.138 8.97299L217.138 4.72949Z" fill="#E9E8EF"/>
<path d="M219.592 4.72949L219.207 4.72949L219.207 8.97299L219.592 8.97299L219.592 4.72949Z" fill="#E9E8EF"/>
<path d="M111.796 0.484375L111.023 0.484375L111.023 8.97309L111.796 8.97309L111.796 0.484375Z" fill="#E9E8EF"/>
<path d="M114.049 4.72949L113.664 4.72949L113.664 8.97299L114.049 8.97299L114.049 4.72949Z" fill="#E9E8EF"/>
<path d="M116.494 4.72949L116.109 4.72949L116.109 8.97299L116.494 8.97299L116.494 4.72949Z" fill="#E9E8EF"/>
<path d="M118.939 4.72949L118.555 4.72949L118.555 8.97299L118.939 8.97299L118.939 4.72949Z" fill="#E9E8EF"/>
<path d="M121.385 4.72949L121 4.72949L121 8.97299L121.385 8.97299L121.385 4.72949Z" fill="#E9E8EF"/>
<path d="M13.8235 0.484375L13.0508 0.484375L13.0508 8.97309L13.8235 8.97309L13.8235 0.484375Z" fill="#E9E8EF"/>
<path d="M16.0799 4.72949L15.6953 4.72949L15.6953 8.97299L16.0799 8.97299L16.0799 4.72949Z" fill="#E9E8EF"/>
<path d="M18.5213 4.72949L18.1367 4.72949L18.1367 8.97299L18.5213 8.97299L18.5213 4.72949Z" fill="#E9E8EF"/>
<path d="M20.9666 4.72949L20.582 4.72949L20.582 8.97299L20.9666 8.97299L20.9666 4.72949Z" fill="#E9E8EF"/>
<path d="M23.4119 4.72949L23.0273 4.72949L23.0273 8.97299L23.4119 8.97299L23.4119 4.72949Z" fill="#E9E8EF"/>
<path d="M26.054 0.484375L25.2812 0.484375L25.2813 8.97309L26.054 8.97309L26.054 0.484375Z" fill="#E9E8EF"/>
<path d="M28.3064 4.72949L27.9219 4.72949L27.9219 8.97299L28.3064 8.97299L28.3064 4.72949Z" fill="#E9E8EF"/>
<path d="M30.7517 4.72949L30.3672 4.72949L30.3672 8.97299L30.7517 8.97299L30.7517 4.72949Z" fill="#E9E8EF"/>
<path d="M33.197 4.72949L32.8125 4.72949L32.8125 8.97299L33.197 8.97299L33.197 4.72949Z" fill="#E9E8EF"/>
<path d="M35.6424 4.72949L35.2578 4.72949L35.2578 8.97299L35.6424 8.97299L35.6424 4.72949Z" fill="#E9E8EF"/>
<path d="M38.2844 0.484375L37.5117 0.484375L37.5117 8.97309L38.2844 8.97309L38.2844 0.484375Z" fill="#E9E8EF"/>
<path d="M38.2844 0.484375L37.5117 0.484375L37.5117 8.97309L38.2844 8.97309L38.2844 0.484375Z" fill="#E9E8EF"/>
<path d="M40.5369 4.72949L40.1523 4.72949L40.1523 8.97299L40.5369 8.97299L40.5369 4.72949Z" fill="#E9E8EF"/>
<path d="M42.9822 4.72949L42.5977 4.72949L42.5977 8.97299L42.9822 8.97299L42.9822 4.72949Z" fill="#E9E8EF"/>
<path d="M45.4275 4.72949L45.043 4.72949L45.043 8.97299L45.4275 8.97299L45.4275 4.72949Z" fill="#E9E8EF"/>
<path d="M47.8728 4.72949L47.4883 4.72949L47.4883 8.97299L47.8728 8.97299L47.8728 4.72949Z" fill="#E9E8EF"/>
<path d="M50.5149 0.484375L49.7422 0.484375L49.7422 8.97309L50.5149 8.97309L50.5149 0.484375Z" fill="#E9E8EF"/>
<path d="M52.7674 4.72949L52.3828 4.72949L52.3828 8.97299L52.7674 8.97299L52.7674 4.72949Z" fill="#E9E8EF"/>
<path d="M55.2127 4.72949L54.8281 4.72949L54.8281 8.97299L55.2127 8.97299L55.2127 4.72949Z" fill="#E9E8EF"/>
<path d="M57.658 4.72949L57.2734 4.72949L57.2734 8.97299L57.658 8.97299L57.658 4.72949Z" fill="#E9E8EF"/>
<path d="M60.1033 4.72949L59.7188 4.72949L59.7188 8.97299L60.1033 8.97299L60.1033 4.72949Z" fill="#E9E8EF"/>
<path d="M62.7415 0.484375L61.9688 0.484375L61.9688 8.97309L62.7415 8.97309L62.7415 0.484375Z" fill="#E9E8EF"/>
<path d="M62.7415 0.484375L61.9688 0.484375L61.9688 8.97309L62.7415 8.97309L62.7415 0.484375Z" fill="#E9E8EF"/>
<path d="M64.9939 4.72949L64.6094 4.72949L64.6094 8.97299L64.9939 8.97299L64.9939 4.72949Z" fill="#E9E8EF"/>
<path d="M67.4392 4.72949L67.0547 4.72949L67.0547 8.97299L67.4392 8.97299L67.4392 4.72949Z" fill="#E9E8EF"/>
<path d="M69.8885 4.72949L69.5039 4.72949L69.5039 8.97299L69.8885 8.97299L69.8885 4.72949Z" fill="#E9E8EF"/>
<path d="M72.3338 4.72949L71.9492 4.72949L71.9492 8.97299L72.3338 8.97299L72.3338 4.72949Z" fill="#E9E8EF"/>
<path d="M74.9719 0.484375L74.1992 0.484375L74.1992 8.97309L74.9719 8.97309L74.9719 0.484375Z" fill="#E9E8EF"/>
<path d="M77.2244 4.72949L76.8398 4.72949L76.8398 8.97299L77.2244 8.97299L77.2244 4.72949Z" fill="#E9E8EF"/>
<path d="M79.6697 4.72949L79.2852 4.72949L79.2852 8.97299L79.6697 8.97299L79.6697 4.72949Z" fill="#E9E8EF"/>
<path d="M82.115 4.72949L81.7305 4.72949L81.7305 8.97299L82.115 8.97299L82.115 4.72949Z" fill="#E9E8EF"/>
<path d="M84.5603 4.72949L84.1758 4.72949L84.1758 8.97299L84.5603 8.97299L84.5603 4.72949Z" fill="#E9E8EF"/>
<path d="M87.1985 0.484375L86.4258 0.484375L86.4258 8.97309L87.1985 8.97309L87.1985 0.484375Z" fill="#E9E8EF"/>
<path d="M87.1985 0.484375L86.4258 0.484375L86.4258 8.97309L87.1985 8.97309L87.1985 0.484375Z" fill="#E9E8EF"/>
<path d="M89.4549 4.72949L89.0703 4.72949L89.0703 8.97299L89.4549 8.97299L89.4549 4.72949Z" fill="#E9E8EF"/>
<path d="M91.9002 4.72949L91.5156 4.72949L91.5156 8.97299L91.9002 8.97299L91.9002 4.72949Z" fill="#E9E8EF"/>
<path d="M94.3455 4.72949L93.9609 4.72949L93.9609 8.97299L94.3455 8.97299L94.3455 4.72949Z" fill="#E9E8EF"/>
<path d="M96.7908 4.72949L96.4062 4.72949L96.4063 8.97299L96.7908 8.97299L96.7908 4.72949Z" fill="#E9E8EF"/>
<path d="M99.4329 0.484375L98.6602 0.484375L98.6602 8.97309L99.4329 8.97309L99.4329 0.484375Z" fill="#E9E8EF"/>
<path d="M101.681 4.72949L101.297 4.72949L101.297 8.97299L101.681 8.97299L101.681 4.72949Z" fill="#E9E8EF"/>
<path d="M104.127 4.72949L103.742 4.72949L103.742 8.97299L104.127 8.97299L104.127 4.72949Z" fill="#E9E8EF"/>
<path d="M106.572 4.72949L106.188 4.72949L106.188 8.97299L106.572 8.97299L106.572 4.72949Z" fill="#E9E8EF"/>
<path d="M109.025 4.72949L108.641 4.72949L108.641 8.97299L109.025 8.97299L109.025 4.72949Z" fill="#E9E8EF"/>
<path d="M1.22974 0.484375L0.457031 0.484375L0.457032 8.97309L1.22974 8.97309L1.22974 0.484375Z" fill="#E9E8EF"/>
<path d="M3.48222 4.72949L3.09766 4.72949L3.09766 8.97299L3.48222 8.97299L3.48222 4.72949Z" fill="#E9E8EF"/>
<path d="M5.92753 4.72949L5.54297 4.72949L5.54297 8.97299L5.92753 8.97299L5.92753 4.72949Z" fill="#E9E8EF"/>
<path d="M8.37284 4.72949L7.98828 4.72949L7.98828 8.97299L8.37284 8.97299L8.37284 4.72949Z" fill="#E9E8EF"/>
<path d="M10.8182 4.72949L10.4336 4.72949L10.4336 8.97299L10.8182 8.97299L10.8182 4.72949Z" fill="#E9E8EF"/>
<g clip-path="url(#clip0_505_33981)">
<path d="M321.136 0.487305L320.363 0.487305L320.363 8.97431L321.136 8.97431L321.136 0.487305Z" fill="#E9E8EF"/>
<path d="M323.392 4.73047L323.008 4.73047L323.008 8.97397L323.392 8.97397L323.392 4.73047Z" fill="#E9E8EF"/>
<path d="M325.834 4.73047L325.449 4.73047L325.449 8.97397L325.834 8.97397L325.834 4.73047Z" fill="#E9E8EF"/>
<path d="M328.279 4.73047L327.895 4.73047L327.895 8.97397L328.279 8.97397L328.279 4.73047Z" fill="#E9E8EF"/>
<path d="M330.724 4.73047L330.34 4.73047L330.34 8.97397L330.724 8.97397L330.724 4.73047Z" fill="#E9E8EF"/>
<path d="M333.366 0.487305L332.594 0.487305L332.594 8.97431L333.366 8.97431L333.366 0.487305Z" fill="#E9E8EF"/>
<path d="M335.619 4.73047L335.234 4.73047L335.234 8.97397L335.619 8.97397L335.619 4.73047Z" fill="#E9E8EF"/>
<path d="M338.06 4.73047L337.676 4.73047L337.676 8.97397L338.06 8.97397L338.06 4.73047Z" fill="#E9E8EF"/>
<path d="M340.506 4.73047L340.121 4.73047L340.121 8.97397L340.506 8.97397L340.506 4.73047Z" fill="#E9E8EF"/>
<path d="M342.951 4.73047L342.566 4.73047L342.566 8.97397L342.951 8.97397L342.951 4.73047Z" fill="#E9E8EF"/>
<path d="M345.593 0.487305L344.82 0.487305L344.82 8.97431L345.593 8.97431L345.593 0.487305Z" fill="#E9E8EF"/>
<path d="M345.593 0.487305L344.82 0.487305L344.82 8.97431L345.593 8.97431L345.593 0.487305Z" fill="#E9E8EF"/>
<path d="M347.845 4.73047L347.461 4.73047L347.461 8.97397L347.845 8.97397L347.845 4.73047Z" fill="#E9E8EF"/>
<path d="M350.287 4.73047L349.902 4.73047L349.902 8.97397L350.287 8.97397L350.287 4.73047Z" fill="#E9E8EF"/>
<path d="M352.732 4.73047L352.348 4.73047L352.348 8.97397L352.732 8.97397L352.732 4.73047Z" fill="#E9E8EF"/>
<path d="M355.181 4.73047L354.797 4.73047L354.797 8.97397L355.181 8.97397L355.181 4.73047Z" fill="#E9E8EF"/>
<path d="M357.82 0.487305L357.047 0.487305L357.047 8.97431L357.82 8.97431L357.82 0.487305Z" fill="#E9E8EF"/>
<path d="M360.072 4.73047L359.688 4.73047L359.688 8.97397L360.072 8.97397L360.072 4.73047Z" fill="#E9E8EF"/>
<path d="M362.517 4.73047L362.133 4.73047L362.133 8.97397L362.517 8.97397L362.517 4.73047Z" fill="#E9E8EF"/>
<path d="M364.963 4.73047L364.578 4.73047L364.578 8.97397L364.963 8.97397L364.963 4.73047Z" fill="#E9E8EF"/>
<path d="M367.408 4.73047L367.023 4.73047L367.023 8.97397L367.408 8.97397L367.408 4.73047Z" fill="#E9E8EF"/>
<path d="M370.046 0.487305L369.273 0.487305L369.273 8.97431L370.046 8.97431L370.046 0.487305Z" fill="#E9E8EF"/>
<path d="M370.046 0.487305L369.273 0.487305L369.273 8.97431L370.046 8.97431L370.046 0.487305Z" fill="#E9E8EF"/>
<path d="M372.299 4.73047L371.914 4.73047L371.914 8.97397L372.299 8.97397L372.299 4.73047Z" fill="#E9E8EF"/>
<path d="M374.744 4.73047L374.359 4.73047L374.359 8.97397L374.744 8.97397L374.744 4.73047Z" fill="#E9E8EF"/>
<path d="M377.189 4.73047L376.805 4.73047L376.805 8.97397L377.189 8.97397L377.189 4.73047Z" fill="#E9E8EF"/>
<path d="M379.635 4.73047L379.25 4.73047L379.25 8.97397L379.635 8.97397L379.635 4.73047Z" fill="#E9E8EF"/>
<path d="M382.273 0.487305L381.5 0.487305L381.5 8.97431L382.273 8.97431L382.273 0.487305Z" fill="#E9E8EF"/>
<path d="M384.525 4.73047L384.141 4.73047L384.141 8.97397L384.525 8.97397L384.525 4.73047Z" fill="#E9E8EF"/>
<path d="M386.97 4.73047L386.586 4.73047L386.586 8.97397L386.97 8.97397L386.97 4.73047Z" fill="#E9E8EF"/>
<path d="M389.416 4.73047L389.031 4.73047L389.031 8.97397L389.416 8.97397L389.416 4.73047Z" fill="#E9E8EF"/>
<path d="M391.861 4.73047L391.477 4.73047L391.477 8.97397L391.861 8.97397L391.861 4.73047Z" fill="#E9E8EF"/>
<path d="M394.499 0.487305L393.727 0.487305L393.727 8.97431L394.499 8.97431L394.499 0.487305Z" fill="#E9E8EF"/>
<path d="M394.499 0.487305L393.727 0.487305L393.727 8.97431L394.499 8.97431L394.499 0.487305Z" fill="#E9E8EF"/>
<path d="M396.752 4.73047L396.367 4.73047L396.367 8.97397L396.752 8.97397L396.752 4.73047Z" fill="#E9E8EF"/>
<path d="M399.197 4.73047L398.812 4.73047L398.813 8.97397L399.197 8.97397L399.197 4.73047Z" fill="#E9E8EF"/>
<path d="M401.642 4.73047L401.258 4.73047L401.258 8.97397L401.642 8.97397L401.642 4.73047Z" fill="#E9E8EF"/>
<path d="M404.088 4.73047L403.703 4.73047L403.703 8.97397L404.088 8.97397L404.088 4.73047Z" fill="#E9E8EF"/>
<path d="M406.73 0.487305L405.957 0.487305L405.957 8.97431L406.73 8.97431L406.73 0.487305Z" fill="#E9E8EF"/>
<path d="M408.978 4.73047L408.594 4.73047L408.594 8.97397L408.978 8.97397L408.978 4.73047Z" fill="#E9E8EF"/>
<path d="M411.424 4.73047L411.039 4.73047L411.039 8.97397L411.424 8.97397L411.424 4.73047Z" fill="#E9E8EF"/>
<path d="M413.869 4.73047L413.484 4.73047L413.484 8.97397L413.869 8.97397L413.869 4.73047Z" fill="#E9E8EF"/>
<path d="M416.314 4.73047L415.93 4.73047L415.93 8.97397L416.314 8.97397L416.314 4.73047Z" fill="#E9E8EF"/>
<path d="M222.956 0.487305L222.184 0.487305L222.184 8.97431L222.956 8.97431L222.956 0.487305Z" fill="#E9E8EF"/>
<path d="M225.209 4.73047L224.824 4.73047L224.824 8.97397L225.209 8.97397L225.209 4.73047Z" fill="#E9E8EF"/>
<path d="M227.654 4.73047L227.27 4.73047L227.27 8.97397L227.654 8.97397L227.654 4.73047Z" fill="#E9E8EF"/>
<path d="M230.099 4.73047L229.715 4.73047L229.715 8.97397L230.099 8.97397L230.099 4.73047Z" fill="#E9E8EF"/>
<path d="M232.545 4.73047L232.16 4.73047L232.16 8.97397L232.545 8.97397L232.545 4.73047Z" fill="#E9E8EF"/>
<path d="M235.183 0.487305L234.41 0.487305L234.41 8.97431L235.183 8.97431L235.183 0.487305Z" fill="#E9E8EF"/>
<path d="M237.435 4.73047L237.051 4.73047L237.051 8.97397L237.435 8.97397L237.435 4.73047Z" fill="#E9E8EF"/>
<path d="M239.881 4.73047L239.496 4.73047L239.496 8.97397L239.881 8.97397L239.881 4.73047Z" fill="#E9E8EF"/>
<path d="M242.326 4.73047L241.941 4.73047L241.941 8.97397L242.326 8.97397L242.326 4.73047Z" fill="#E9E8EF"/>
<path d="M244.771 4.73047L244.387 4.73047L244.387 8.97397L244.771 8.97397L244.771 4.73047Z" fill="#E9E8EF"/>
<path d="M247.409 0.487305L246.637 0.487305L246.637 8.97431L247.409 8.97431L247.409 0.487305Z" fill="#E9E8EF"/>
<path d="M247.409 0.487305L246.637 0.487305L246.637 8.97431L247.409 8.97431L247.409 0.487305Z" fill="#E9E8EF"/>
<path d="M249.662 4.73047L249.277 4.73047L249.277 8.97397L249.662 8.97397L249.662 4.73047Z" fill="#E9E8EF"/>
<path d="M252.107 4.73047L251.723 4.73047L251.723 8.97397L252.107 8.97397L252.107 4.73047Z" fill="#E9E8EF"/>
<path d="M254.553 4.73047L254.168 4.73047L254.168 8.97397L254.553 8.97397L254.553 4.73047Z" fill="#E9E8EF"/>
<path d="M256.998 4.73047L256.613 4.73047L256.613 8.97397L256.998 8.97397L256.998 4.73047Z" fill="#E9E8EF"/>
<path d="M259.64 0.487305L258.867 0.487305L258.867 8.97431L259.64 8.97431L259.64 0.487305Z" fill="#E9E8EF"/>
<path d="M261.888 4.73047L261.504 4.73047L261.504 8.97397L261.888 8.97397L261.888 4.73047Z" fill="#E9E8EF"/>
<path d="M264.334 4.73047L263.949 4.73047L263.949 8.97397L264.334 8.97397L264.334 4.73047Z" fill="#E9E8EF"/>
<path d="M266.779 4.73047L266.395 4.73047L266.395 8.97397L266.779 8.97397L266.779 4.73047Z" fill="#E9E8EF"/>
<path d="M269.224 4.73047L268.84 4.73047L268.84 8.97397L269.224 8.97397L269.224 4.73047Z" fill="#E9E8EF"/>
<path d="M271.866 0.487305L271.094 0.487305L271.094 8.97431L271.866 8.97431L271.866 0.487305Z" fill="#E9E8EF"/>
<path d="M271.866 0.487305L271.094 0.487305L271.094 8.97431L271.866 8.97431L271.866 0.487305Z" fill="#E9E8EF"/>
<path d="M274.115 4.73047L273.73 4.73047L273.73 8.97397L274.115 8.97397L274.115 4.73047Z" fill="#E9E8EF"/>
<path d="M276.56 4.73047L276.176 4.73047L276.176 8.97397L276.56 8.97397L276.56 4.73047Z" fill="#E9E8EF"/>
<path d="M279.006 4.73047L278.621 4.73047L278.621 8.97397L279.006 8.97397L279.006 4.73047Z" fill="#E9E8EF"/>
<path d="M281.455 4.73047L281.07 4.73047L281.07 8.97397L281.455 8.97397L281.455 4.73047Z" fill="#E9E8EF"/>
<path d="M284.093 0.487305L283.32 0.487305L283.32 8.97431L284.093 8.97431L284.093 0.487305Z" fill="#E9E8EF"/>
<path d="M286.345 4.73047L285.961 4.73047L285.961 8.97397L286.345 8.97397L286.345 4.73047Z" fill="#E9E8EF"/>
<path d="M288.791 4.73047L288.406 4.73047L288.406 8.97397L288.791 8.97397L288.791 4.73047Z" fill="#E9E8EF"/>
<path d="M291.236 4.73047L290.852 4.73047L290.852 8.97397L291.236 8.97397L291.236 4.73047Z" fill="#E9E8EF"/>
<path d="M293.681 4.73047L293.297 4.73047L293.297 8.97397L293.681 8.97397L293.681 4.73047Z" fill="#E9E8EF"/>
<path d="M296.32 0.487305L295.547 0.487305L295.547 8.97431L296.32 8.97431L296.32 0.487305Z" fill="#E9E8EF"/>
<path d="M296.32 0.487305L295.547 0.487305L295.547 8.97431L296.32 8.97431L296.32 0.487305Z" fill="#E9E8EF"/>
<path d="M298.572 4.73047L298.188 4.73047L298.188 8.97397L298.572 8.97397L298.572 4.73047Z" fill="#E9E8EF"/>
<path d="M301.017 4.73047L300.633 4.73047L300.633 8.97397L301.017 8.97397L301.017 4.73047Z" fill="#E9E8EF"/>
<path d="M303.463 4.73047L303.078 4.73047L303.078 8.97397L303.463 8.97397L303.463 4.73047Z" fill="#E9E8EF"/>
<path d="M305.908 4.73047L305.523 4.73047L305.523 8.97397L305.908 8.97397L305.908 4.73047Z" fill="#E9E8EF"/>
<path d="M308.546 0.487305L307.773 0.487305L307.773 8.97431L308.546 8.97431L308.546 0.487305Z" fill="#E9E8EF"/>
<path d="M310.799 4.73047L310.414 4.73047L310.414 8.97397L310.799 8.97397L310.799 4.73047Z" fill="#E9E8EF"/>
<path d="M313.244 4.73047L312.859 4.73047L312.859 8.97397L313.244 8.97397L313.244 4.73047Z" fill="#E9E8EF"/>
<path d="M315.689 4.73047L315.305 4.73047L315.305 8.97397L315.689 8.97397L315.689 4.73047Z" fill="#E9E8EF"/>
<path d="M318.135 4.73047L317.75 4.73047L317.75 8.97397L318.135 8.97397L318.135 4.73047Z" fill="#E9E8EF"/>
</g>
<path d="M124.39 22.8008L123.617 22.8008L123.617 14.3121L124.39 14.3121L124.39 22.8008Z" fill="#E9E8EF"/>
<path d="M126.646 18.5557L126.262 18.5557L126.262 14.3122L126.646 14.3122L126.646 18.5557Z" fill="#E9E8EF"/>
<path d="M129.088 18.5557L128.703 18.5557L128.703 14.3122L129.088 14.3122L129.088 18.5557Z" fill="#E9E8EF"/>
<path d="M131.533 18.5557L131.148 18.5557L131.148 14.3122L131.533 14.3122L131.533 18.5557Z" fill="#E9E8EF"/>
<path d="M133.978 18.5557L133.594 18.5557L133.594 14.3122L133.978 14.3122L133.978 18.5557Z" fill="#E9E8EF"/>
<path d="M136.62 22.8008L135.848 22.8008L135.848 14.3121L136.62 14.3121L136.62 22.8008Z" fill="#E9E8EF"/>
<path d="M138.873 18.5557L138.488 18.5557L138.488 14.3122L138.873 14.3122L138.873 18.5557Z" fill="#E9E8EF"/>
<path d="M141.318 18.5557L140.934 18.5557L140.934 14.3122L141.318 14.3122L141.318 18.5557Z" fill="#E9E8EF"/>
<path d="M143.763 18.5557L143.379 18.5557L143.379 14.3122L143.763 14.3122L143.763 18.5557Z" fill="#E9E8EF"/>
<path d="M146.209 18.5557L145.824 18.5557L145.824 14.3122L146.209 14.3122L146.209 18.5557Z" fill="#E9E8EF"/>
<path d="M148.851 22.8008L148.078 22.8008L148.078 14.3121L148.851 14.3121L148.851 22.8008Z" fill="#E9E8EF"/>
<path d="M148.851 22.8008L148.078 22.8008L148.078 14.3121L148.851 14.3121L148.851 22.8008Z" fill="#E9E8EF"/>
<path d="M151.103 18.5557L150.719 18.5557L150.719 14.3122L151.103 14.3122L151.103 18.5557Z" fill="#E9E8EF"/>
<path d="M153.549 18.5557L153.164 18.5557L153.164 14.3122L153.549 14.3122L153.549 18.5557Z" fill="#E9E8EF"/>
<path d="M155.994 18.5557L155.609 18.5557L155.609 14.3122L155.994 14.3122L155.994 18.5557Z" fill="#E9E8EF"/>
<path d="M158.439 18.5557L158.055 18.5557L158.055 14.3122L158.439 14.3122L158.439 18.5557Z" fill="#E9E8EF"/>
<path d="M161.081 22.8008L160.309 22.8008L160.309 14.3121L161.081 14.3121L161.081 22.8008Z" fill="#E9E8EF"/>
<path d="M163.334 18.5557L162.949 18.5557L162.949 14.3122L163.334 14.3122L163.334 18.5557Z" fill="#E9E8EF"/>
<path d="M165.779 18.5557L165.395 18.5557L165.395 14.3122L165.779 14.3122L165.779 18.5557Z" fill="#E9E8EF"/>
<path d="M168.224 18.5557L167.84 18.5557L167.84 14.3122L168.224 14.3122L168.224 18.5557Z" fill="#E9E8EF"/>
<path d="M170.67 18.5557L170.285 18.5557L170.285 14.3122L170.67 14.3122L170.67 18.5557Z" fill="#E9E8EF"/>
<path d="M173.308 22.8008L172.535 22.8008L172.535 14.3121L173.308 14.3121L173.308 22.8008Z" fill="#E9E8EF"/>
<path d="M173.308 22.8008L172.535 22.8008L172.535 14.3121L173.308 14.3121L173.308 22.8008Z" fill="#E9E8EF"/>
<path d="M175.56 18.5557L175.176 18.5557L175.176 14.3122L175.56 14.3122L175.56 18.5557Z" fill="#E9E8EF"/>
<path d="M178.006 18.5557L177.621 18.5557L177.621 14.3122L178.006 14.3122L178.006 18.5557Z" fill="#E9E8EF"/>
<path d="M180.455 18.5557L180.07 18.5557L180.07 14.3122L180.455 14.3122L180.455 18.5557Z" fill="#E9E8EF"/>
<path d="M182.9 18.5557L182.516 18.5557L182.516 14.3122L182.9 14.3122L182.9 18.5557Z" fill="#E9E8EF"/>
<path d="M185.538 22.8008L184.766 22.8008L184.766 14.3121L185.538 14.3121L185.538 22.8008Z" fill="#E9E8EF"/>
<path d="M187.791 18.5557L187.406 18.5557L187.406 14.3122L187.791 14.3122L187.791 18.5557Z" fill="#E9E8EF"/>
<path d="M190.236 18.5557L189.852 18.5557L189.852 14.3122L190.236 14.3122L190.236 18.5557Z" fill="#E9E8EF"/>
<path d="M192.681 18.5557L192.297 18.5557L192.297 14.3122L192.681 14.3122L192.681 18.5557Z" fill="#E9E8EF"/>
<path d="M195.127 18.5557L194.742 18.5557L194.742 14.3122L195.127 14.3122L195.127 18.5557Z" fill="#E9E8EF"/>
<path d="M197.765 22.8008L196.992 22.8008L196.992 14.3121L197.765 14.3121L197.765 22.8008Z" fill="#E9E8EF"/>
<path d="M197.765 22.8008L196.992 22.8008L196.992 14.3121L197.765 14.3121L197.765 22.8008Z" fill="#E9E8EF"/>
<path d="M200.021 18.5557L199.637 18.5557L199.637 14.3122L200.021 14.3122L200.021 18.5557Z" fill="#E9E8EF"/>
<path d="M202.467 18.5557L202.082 18.5557L202.082 14.3122L202.467 14.3122L202.467 18.5557Z" fill="#E9E8EF"/>
<path d="M204.912 18.5557L204.527 18.5557L204.527 14.3122L204.912 14.3122L204.912 18.5557Z" fill="#E9E8EF"/>
<path d="M207.357 18.5557L206.973 18.5557L206.973 14.3122L207.357 14.3122L207.357 18.5557Z" fill="#E9E8EF"/>
<path d="M209.999 22.8008L209.227 22.8008L209.227 14.3121L209.999 14.3121L209.999 22.8008Z" fill="#E9E8EF"/>
<path d="M212.248 18.5557L211.863 18.5557L211.863 14.3122L212.248 14.3122L212.248 18.5557Z" fill="#E9E8EF"/>
<path d="M214.693 18.5557L214.309 18.5557L214.309 14.3122L214.693 14.3122L214.693 18.5557Z" fill="#E9E8EF"/>
<path d="M217.138 18.5557L216.754 18.5557L216.754 14.3122L217.138 14.3122L217.138 18.5557Z" fill="#E9E8EF"/>
<path d="M219.592 18.5557L219.207 18.5557L219.207 14.3122L219.592 14.3122L219.592 18.5557Z" fill="#E9E8EF"/>
<path d="M111.796 22.8008L111.023 22.8008L111.023 14.3121L111.796 14.3121L111.796 22.8008Z" fill="#E9E8EF"/>
<path d="M114.049 18.5557L113.664 18.5557L113.664 14.3122L114.049 14.3122L114.049 18.5557Z" fill="#E9E8EF"/>
<path d="M116.494 18.5557L116.109 18.5557L116.109 14.3122L116.494 14.3122L116.494 18.5557Z" fill="#E9E8EF"/>
<path d="M118.939 18.5557L118.555 18.5557L118.555 14.3122L118.939 14.3122L118.939 18.5557Z" fill="#E9E8EF"/>
<path d="M121.385 18.5557L121 18.5557L121 14.3122L121.385 14.3122L121.385 18.5557Z" fill="#E9E8EF"/>
<path d="M13.8235 22.8008L13.0508 22.8008L13.0508 14.3121L13.8235 14.3121L13.8235 22.8008Z" fill="#E9E8EF"/>
<path d="M16.0799 18.5557L15.6953 18.5557L15.6953 14.3122L16.0799 14.3122L16.0799 18.5557Z" fill="#E9E8EF"/>
<path d="M18.5213 18.5557L18.1367 18.5557L18.1367 14.3122L18.5213 14.3122L18.5213 18.5557Z" fill="#E9E8EF"/>
<path d="M20.9666 18.5557L20.582 18.5557L20.582 14.3122L20.9666 14.3122L20.9666 18.5557Z" fill="#E9E8EF"/>
<path d="M23.4119 18.5557L23.0273 18.5557L23.0273 14.3122L23.4119 14.3122L23.4119 18.5557Z" fill="#E9E8EF"/>
<path d="M26.054 22.8008L25.2812 22.8008L25.2813 14.3121L26.054 14.3121L26.054 22.8008Z" fill="#E9E8EF"/>
<path d="M28.3064 18.5557L27.9219 18.5557L27.9219 14.3122L28.3064 14.3122L28.3064 18.5557Z" fill="#E9E8EF"/>
<path d="M30.7517 18.5557L30.3672 18.5557L30.3672 14.3122L30.7517 14.3122L30.7517 18.5557Z" fill="#E9E8EF"/>
<path d="M33.197 18.5557L32.8125 18.5557L32.8125 14.3122L33.197 14.3122L33.197 18.5557Z" fill="#E9E8EF"/>
<path d="M35.6424 18.5557L35.2578 18.5557L35.2578 14.3122L35.6424 14.3122L35.6424 18.5557Z" fill="#E9E8EF"/>
<path d="M38.2844 22.8008L37.5117 22.8008L37.5117 14.3121L38.2844 14.3121L38.2844 22.8008Z" fill="#E9E8EF"/>
<path d="M38.2844 22.8008L37.5117 22.8008L37.5117 14.3121L38.2844 14.3121L38.2844 22.8008Z" fill="#E9E8EF"/>
<path d="M40.5369 18.5557L40.1523 18.5557L40.1523 14.3122L40.5369 14.3122L40.5369 18.5557Z" fill="#E9E8EF"/>
<path d="M42.9822 18.5557L42.5977 18.5557L42.5977 14.3122L42.9822 14.3122L42.9822 18.5557Z" fill="#E9E8EF"/>
<path d="M45.4275 18.5557L45.043 18.5557L45.043 14.3122L45.4275 14.3122L45.4275 18.5557Z" fill="#E9E8EF"/>
<path d="M47.8728 18.5557L47.4883 18.5557L47.4883 14.3122L47.8728 14.3122L47.8728 18.5557Z" fill="#E9E8EF"/>
<path d="M50.5149 22.8008L49.7422 22.8008L49.7422 14.3121L50.5149 14.3121L50.5149 22.8008Z" fill="#E9E8EF"/>
<path d="M52.7674 18.5557L52.3828 18.5557L52.3828 14.3122L52.7674 14.3122L52.7674 18.5557Z" fill="#E9E8EF"/>
<path d="M55.2127 18.5557L54.8281 18.5557L54.8281 14.3122L55.2127 14.3122L55.2127 18.5557Z" fill="#E9E8EF"/>
<path d="M57.658 18.5557L57.2734 18.5557L57.2734 14.3122L57.658 14.3122L57.658 18.5557Z" fill="#E9E8EF"/>
<path d="M60.1033 18.5557L59.7188 18.5557L59.7188 14.3122L60.1033 14.3122L60.1033 18.5557Z" fill="#E9E8EF"/>
<path d="M62.7415 22.8008L61.9688 22.8008L61.9688 14.3121L62.7415 14.3121L62.7415 22.8008Z" fill="#E9E8EF"/>
<path d="M62.7415 22.8008L61.9688 22.8008L61.9688 14.3121L62.7415 14.3121L62.7415 22.8008Z" fill="#E9E8EF"/>
<path d="M64.9939 18.5557L64.6094 18.5557L64.6094 14.3122L64.9939 14.3122L64.9939 18.5557Z" fill="#E9E8EF"/>
<path d="M67.4392 18.5557L67.0547 18.5557L67.0547 14.3122L67.4392 14.3122L67.4392 18.5557Z" fill="#E9E8EF"/>
<path d="M69.8885 18.5557L69.5039 18.5557L69.5039 14.3122L69.8885 14.3122L69.8885 18.5557Z" fill="#E9E8EF"/>
<path d="M72.3338 18.5557L71.9492 18.5557L71.9492 14.3122L72.3338 14.3122L72.3338 18.5557Z" fill="#E9E8EF"/>
<path d="M74.9719 22.8008L74.1992 22.8008L74.1992 14.3121L74.9719 14.3121L74.9719 22.8008Z" fill="#E9E8EF"/>
<path d="M77.2244 18.5557L76.8398 18.5557L76.8398 14.3122L77.2244 14.3122L77.2244 18.5557Z" fill="#E9E8EF"/>
<path d="M79.6697 18.5557L79.2852 18.5557L79.2852 14.3122L79.6697 14.3122L79.6697 18.5557Z" fill="#E9E8EF"/>
<path d="M82.115 18.5557L81.7305 18.5557L81.7305 14.3122L82.115 14.3122L82.115 18.5557Z" fill="#E9E8EF"/>
<path d="M84.5603 18.5557L84.1758 18.5557L84.1758 14.3122L84.5603 14.3122L84.5603 18.5557Z" fill="#E9E8EF"/>
<path d="M87.1985 22.8008L86.4258 22.8008L86.4258 14.3121L87.1985 14.3121L87.1985 22.8008Z" fill="#E9E8EF"/>
<path d="M87.1985 22.8008L86.4258 22.8008L86.4258 14.3121L87.1985 14.3121L87.1985 22.8008Z" fill="#E9E8EF"/>
<path d="M89.4549 18.5557L89.0703 18.5557L89.0703 14.3122L89.4549 14.3122L89.4549 18.5557Z" fill="#E9E8EF"/>
<path d="M91.9002 18.5557L91.5156 18.5557L91.5156 14.3122L91.9002 14.3122L91.9002 18.5557Z" fill="#E9E8EF"/>
<path d="M94.3455 18.5557L93.9609 18.5557L93.9609 14.3122L94.3455 14.3122L94.3455 18.5557Z" fill="#E9E8EF"/>
<path d="M96.7908 18.5557L96.4062 18.5557L96.4063 14.3122L96.7908 14.3122L96.7908 18.5557Z" fill="#E9E8EF"/>
<path d="M99.4329 22.8008L98.6602 22.8008L98.6602 14.3121L99.4329 14.3121L99.4329 22.8008Z" fill="#E9E8EF"/>
<path d="M101.681 18.5557L101.297 18.5557L101.297 14.3122L101.681 14.3122L101.681 18.5557Z" fill="#E9E8EF"/>
<path d="M104.127 18.5557L103.742 18.5557L103.742 14.3122L104.127 14.3122L104.127 18.5557Z" fill="#E9E8EF"/>
<path d="M106.572 18.5557L106.188 18.5557L106.188 14.3122L106.572 14.3122L106.572 18.5557Z" fill="#E9E8EF"/>
<path d="M109.025 18.5557L108.641 18.5557L108.641 14.3122L109.025 14.3122L109.025 18.5557Z" fill="#E9E8EF"/>
<path d="M1.22974 22.8008L0.457031 22.8008L0.457032 14.3121L1.22974 14.3121L1.22974 22.8008Z" fill="#E9E8EF"/>
<path d="M3.48222 18.5557L3.09766 18.5557L3.09766 14.3122L3.48222 14.3122L3.48222 18.5557Z" fill="#E9E8EF"/>
<path d="M5.92753 18.5557L5.54297 18.5557L5.54297 14.3122L5.92753 14.3122L5.92753 18.5557Z" fill="#E9E8EF"/>
<path d="M8.37284 18.5557L7.98828 18.5557L7.98828 14.3122L8.37284 14.3122L8.37284 18.5557Z" fill="#E9E8EF"/>
<path d="M10.8182 18.5557L10.4336 18.5557L10.4336 14.3122L10.8182 14.3122L10.8182 18.5557Z" fill="#E9E8EF"/>
<g clip-path="url(#clip1_505_33981)">
<path d="M321.136 22.7979L320.363 22.7979L320.363 14.3109L321.136 14.3109L321.136 22.7979Z" fill="#E9E8EF"/>
<path d="M323.392 18.5547L323.008 18.5547L323.008 14.3112L323.392 14.3112L323.392 18.5547Z" fill="#E9E8EF"/>
<path d="M325.834 18.5547L325.449 18.5547L325.449 14.3112L325.834 14.3112L325.834 18.5547Z" fill="#E9E8EF"/>
<path d="M328.279 18.5547L327.895 18.5547L327.895 14.3112L328.279 14.3112L328.279 18.5547Z" fill="#E9E8EF"/>
<path d="M330.724 18.5547L330.34 18.5547L330.34 14.3112L330.724 14.3112L330.724 18.5547Z" fill="#E9E8EF"/>
<path d="M333.366 22.7979L332.594 22.7979L332.594 14.3109L333.366 14.3109L333.366 22.7979Z" fill="#E9E8EF"/>
<path d="M335.619 18.5547L335.234 18.5547L335.234 14.3112L335.619 14.3112L335.619 18.5547Z" fill="#E9E8EF"/>
<path d="M338.06 18.5547L337.676 18.5547L337.676 14.3112L338.06 14.3112L338.06 18.5547Z" fill="#E9E8EF"/>
<path d="M340.506 18.5547L340.121 18.5547L340.121 14.3112L340.506 14.3112L340.506 18.5547Z" fill="#E9E8EF"/>
<path d="M342.951 18.5547L342.566 18.5547L342.566 14.3112L342.951 14.3112L342.951 18.5547Z" fill="#E9E8EF"/>
<path d="M345.593 22.7979L344.82 22.7979L344.82 14.3109L345.593 14.3109L345.593 22.7979Z" fill="#E9E8EF"/>
<path d="M345.593 22.7979L344.82 22.7979L344.82 14.3109L345.593 14.3109L345.593 22.7979Z" fill="#E9E8EF"/>
<path d="M347.845 18.5547L347.461 18.5547L347.461 14.3112L347.845 14.3112L347.845 18.5547Z" fill="#E9E8EF"/>
<path d="M350.287 18.5547L349.902 18.5547L349.902 14.3112L350.287 14.3112L350.287 18.5547Z" fill="#E9E8EF"/>
<path d="M352.732 18.5547L352.348 18.5547L352.348 14.3112L352.732 14.3112L352.732 18.5547Z" fill="#E9E8EF"/>
<path d="M355.181 18.5547L354.797 18.5547L354.797 14.3112L355.181 14.3112L355.181 18.5547Z" fill="#E9E8EF"/>
<path d="M357.82 22.7979L357.047 22.7979L357.047 14.3109L357.82 14.3109L357.82 22.7979Z" fill="#E9E8EF"/>
<path d="M360.072 18.5547L359.688 18.5547L359.688 14.3112L360.072 14.3112L360.072 18.5547Z" fill="#E9E8EF"/>
<path d="M362.517 18.5547L362.133 18.5547L362.133 14.3112L362.517 14.3112L362.517 18.5547Z" fill="#E9E8EF"/>
<path d="M364.963 18.5547L364.578 18.5547L364.578 14.3112L364.963 14.3112L364.963 18.5547Z" fill="#E9E8EF"/>
<path d="M367.408 18.5547L367.023 18.5547L367.023 14.3112L367.408 14.3112L367.408 18.5547Z" fill="#E9E8EF"/>
<path d="M370.046 22.7979L369.273 22.7979L369.273 14.3109L370.046 14.3109L370.046 22.7979Z" fill="#E9E8EF"/>
<path d="M370.046 22.7979L369.273 22.7979L369.273 14.3109L370.046 14.3109L370.046 22.7979Z" fill="#E9E8EF"/>
<path d="M372.299 18.5547L371.914 18.5547L371.914 14.3112L372.299 14.3112L372.299 18.5547Z" fill="#E9E8EF"/>
<path d="M374.744 18.5547L374.359 18.5547L374.359 14.3112L374.744 14.3112L374.744 18.5547Z" fill="#E9E8EF"/>
<path d="M377.189 18.5547L376.805 18.5547L376.805 14.3112L377.189 14.3112L377.189 18.5547Z" fill="#E9E8EF"/>
<path d="M379.635 18.5547L379.25 18.5547L379.25 14.3112L379.635 14.3112L379.635 18.5547Z" fill="#E9E8EF"/>
<path d="M382.273 22.7979L381.5 22.7979L381.5 14.3109L382.273 14.3109L382.273 22.7979Z" fill="#E9E8EF"/>
<path d="M384.525 18.5547L384.141 18.5547L384.141 14.3112L384.525 14.3112L384.525 18.5547Z" fill="#E9E8EF"/>
<path d="M386.97 18.5547L386.586 18.5547L386.586 14.3112L386.97 14.3112L386.97 18.5547Z" fill="#E9E8EF"/>
<path d="M389.416 18.5547L389.031 18.5547L389.031 14.3112L389.416 14.3112L389.416 18.5547Z" fill="#E9E8EF"/>
<path d="M391.861 18.5547L391.477 18.5547L391.477 14.3112L391.861 14.3112L391.861 18.5547Z" fill="#E9E8EF"/>
<path d="M394.499 22.7979L393.727 22.7979L393.727 14.3109L394.499 14.3109L394.499 22.7979Z" fill="#E9E8EF"/>
<path d="M394.499 22.7979L393.727 22.7979L393.727 14.3109L394.499 14.3109L394.499 22.7979Z" fill="#E9E8EF"/>
<path d="M396.752 18.5547L396.367 18.5547L396.367 14.3112L396.752 14.3112L396.752 18.5547Z" fill="#E9E8EF"/>
<path d="M399.197 18.5547L398.812 18.5547L398.813 14.3112L399.197 14.3112L399.197 18.5547Z" fill="#E9E8EF"/>
<path d="M401.642 18.5547L401.258 18.5547L401.258 14.3112L401.642 14.3112L401.642 18.5547Z" fill="#E9E8EF"/>
<path d="M404.088 18.5547L403.703 18.5547L403.703 14.3112L404.088 14.3112L404.088 18.5547Z" fill="#E9E8EF"/>
<path d="M406.73 22.7979L405.957 22.7979L405.957 14.3109L406.73 14.3109L406.73 22.7979Z" fill="#E9E8EF"/>
<path d="M408.978 18.5547L408.594 18.5547L408.594 14.3112L408.978 14.3112L408.978 18.5547Z" fill="#E9E8EF"/>
<path d="M411.424 18.5547L411.039 18.5547L411.039 14.3112L411.424 14.3112L411.424 18.5547Z" fill="#E9E8EF"/>
<path d="M413.869 18.5547L413.484 18.5547L413.484 14.3112L413.869 14.3112L413.869 18.5547Z" fill="#E9E8EF"/>
<path d="M416.314 18.5547L415.93 18.5547L415.93 14.3112L416.314 14.3112L416.314 18.5547Z" fill="#E9E8EF"/>
<path d="M222.956 22.7979L222.184 22.7979L222.184 14.3109L222.956 14.3109L222.956 22.7979Z" fill="#E9E8EF"/>
<path d="M225.209 18.5547L224.824 18.5547L224.824 14.3112L225.209 14.3112L225.209 18.5547Z" fill="#E9E8EF"/>
<path d="M227.654 18.5547L227.27 18.5547L227.27 14.3112L227.654 14.3112L227.654 18.5547Z" fill="#E9E8EF"/>
<path d="M230.099 18.5547L229.715 18.5547L229.715 14.3112L230.099 14.3112L230.099 18.5547Z" fill="#E9E8EF"/>
<path d="M232.545 18.5547L232.16 18.5547L232.16 14.3112L232.545 14.3112L232.545 18.5547Z" fill="#E9E8EF"/>
<path d="M235.183 22.7979L234.41 22.7979L234.41 14.3109L235.183 14.3109L235.183 22.7979Z" fill="#E9E8EF"/>
<path d="M237.435 18.5547L237.051 18.5547L237.051 14.3112L237.435 14.3112L237.435 18.5547Z" fill="#E9E8EF"/>
<path d="M239.881 18.5547L239.496 18.5547L239.496 14.3112L239.881 14.3112L239.881 18.5547Z" fill="#E9E8EF"/>
<path d="M242.326 18.5547L241.941 18.5547L241.941 14.3112L242.326 14.3112L242.326 18.5547Z" fill="#E9E8EF"/>
<path d="M244.771 18.5547L244.387 18.5547L244.387 14.3112L244.771 14.3112L244.771 18.5547Z" fill="#E9E8EF"/>
<path d="M247.409 22.7979L246.637 22.7979L246.637 14.3109L247.409 14.3109L247.409 22.7979Z" fill="#E9E8EF"/>
<path d="M247.409 22.7979L246.637 22.7979L246.637 14.3109L247.409 14.3109L247.409 22.7979Z" fill="#E9E8EF"/>
<path d="M249.662 18.5547L249.277 18.5547L249.277 14.3112L249.662 14.3112L249.662 18.5547Z" fill="#E9E8EF"/>
<path d="M252.107 18.5547L251.723 18.5547L251.723 14.3112L252.107 14.3112L252.107 18.5547Z" fill="#E9E8EF"/>
<path d="M254.553 18.5547L254.168 18.5547L254.168 14.3112L254.553 14.3112L254.553 18.5547Z" fill="#E9E8EF"/>
<path d="M256.998 18.5547L256.613 18.5547L256.613 14.3112L256.998 14.3112L256.998 18.5547Z" fill="#E9E8EF"/>
<path d="M259.64 22.7979L258.867 22.7979L258.867 14.3109L259.64 14.3109L259.64 22.7979Z" fill="#E9E8EF"/>
<path d="M261.888 18.5547L261.504 18.5547L261.504 14.3112L261.888 14.3112L261.888 18.5547Z" fill="#E9E8EF"/>
<path d="M264.334 18.5547L263.949 18.5547L263.949 14.3112L264.334 14.3112L264.334 18.5547Z" fill="#E9E8EF"/>
<path d="M266.779 18.5547L266.395 18.5547L266.395 14.3112L266.779 14.3112L266.779 18.5547Z" fill="#E9E8EF"/>
<path d="M269.224 18.5547L268.84 18.5547L268.84 14.3112L269.224 14.3112L269.224 18.5547Z" fill="#E9E8EF"/>
<path d="M271.866 22.7979L271.094 22.7979L271.094 14.3109L271.866 14.3109L271.866 22.7979Z" fill="#E9E8EF"/>
<path d="M271.866 22.7979L271.094 22.7979L271.094 14.3109L271.866 14.3109L271.866 22.7979Z" fill="#E9E8EF"/>
<path d="M274.115 18.5547L273.73 18.5547L273.73 14.3112L274.115 14.3112L274.115 18.5547Z" fill="#E9E8EF"/>
<path d="M276.56 18.5547L276.176 18.5547L276.176 14.3112L276.56 14.3112L276.56 18.5547Z" fill="#E9E8EF"/>
<path d="M279.006 18.5547L278.621 18.5547L278.621 14.3112L279.006 14.3112L279.006 18.5547Z" fill="#E9E8EF"/>
<path d="M281.455 18.5547L281.07 18.5547L281.07 14.3112L281.455 14.3112L281.455 18.5547Z" fill="#E9E8EF"/>
<path d="M284.093 22.7979L283.32 22.7979L283.32 14.3109L284.093 14.3109L284.093 22.7979Z" fill="#E9E8EF"/>
<path d="M286.345 18.5547L285.961 18.5547L285.961 14.3112L286.345 14.3112L286.345 18.5547Z" fill="#E9E8EF"/>
<path d="M288.791 18.5547L288.406 18.5547L288.406 14.3112L288.791 14.3112L288.791 18.5547Z" fill="#E9E8EF"/>
<path d="M291.236 18.5547L290.852 18.5547L290.852 14.3112L291.236 14.3112L291.236 18.5547Z" fill="#E9E8EF"/>
<path d="M293.681 18.5547L293.297 18.5547L293.297 14.3112L293.681 14.3112L293.681 18.5547Z" fill="#E9E8EF"/>
<path d="M296.32 22.7979L295.547 22.7979L295.547 14.3109L296.32 14.3109L296.32 22.7979Z" fill="#E9E8EF"/>
<path d="M296.32 22.7979L295.547 22.7979L295.547 14.3109L296.32 14.3109L296.32 22.7979Z" fill="#E9E8EF"/>
<path d="M298.572 18.5547L298.188 18.5547L298.188 14.3112L298.572 14.3112L298.572 18.5547Z" fill="#E9E8EF"/>
<path d="M301.017 18.5547L300.633 18.5547L300.633 14.3112L301.017 14.3112L301.017 18.5547Z" fill="#E9E8EF"/>
<path d="M303.463 18.5547L303.078 18.5547L303.078 14.3112L303.463 14.3112L303.463 18.5547Z" fill="#E9E8EF"/>
<path d="M305.908 18.5547L305.523 18.5547L305.523 14.3112L305.908 14.3112L305.908 18.5547Z" fill="#E9E8EF"/>
<path d="M308.546 22.7979L307.773 22.7979L307.773 14.3109L308.546 14.3109L308.546 22.7979Z" fill="#E9E8EF"/>
<path d="M310.799 18.5547L310.414 18.5547L310.414 14.3112L310.799 14.3112L310.799 18.5547Z" fill="#E9E8EF"/>
<path d="M313.244 18.5547L312.859 18.5547L312.859 14.3112L313.244 14.3112L313.244 18.5547Z" fill="#E9E8EF"/>
<path d="M315.689 18.5547L315.305 18.5547L315.305 14.3112L315.689 14.3112L315.689 18.5547Z" fill="#E9E8EF"/>
<path d="M318.135 18.5547L317.75 18.5547L317.75 14.3112L318.135 14.3112L318.135 18.5547Z" fill="#E9E8EF"/>
</g>
<defs>
<clipPath id="clip0_505_33981">
<rect width="196.772" height="8.487" fill="white" transform="translate(222.184 0.487305)"/>
</clipPath>
<clipPath id="clip1_505_33981">
<rect width="196.772" height="8.487" fill="white" transform="matrix(1 6.3573e-08 6.3573e-08 -1 222.184 22.7979)"/>
</clipPath>
</defs>
</svg>
