<svg width="60" height="19" viewBox="0 0 60 19" fill="none" xmlns="http://www.w3.org/2000/svg">
<g clip-path="url(#clip0_505_44042)">
<path d="M33.2327 18.1529L31.3373 13.4215C30.3784 11.0557 29.0074 10.1557 26.7375 10.1557H26.4153V17.8529H24.3477V0.461462C25.8909 0.281462 27.2019 0.212891 28.8126 0.212891C32.5135 0.212891 34.4088 2.13289 34.4088 4.85003C34.4088 7.26718 33.1053 8.71575 30.7305 9.43575C31.9067 10.0357 32.6258 10.8329 33.5173 13.0272L35.173 17.1157L33.2327 18.1615V18.1529ZM26.4228 2.30432V8.15861H28.8201C30.9103 8.15861 32.3487 7.06146 32.3487 5.07289C32.3487 3.42718 31.0901 2.21003 28.8201 2.21003C27.8387 2.21003 27.0521 2.26146 26.4228 2.31289V2.30432Z" fill="white"/>
<path d="M37.7969 0.40918H46.9441V2.44918H39.8646V7.76346H45.9627V9.75204H39.8646V15.812H46.9441V17.8606H37.7969V0.40918Z" fill="white"/>
<path d="M55.9828 16.0867C57.3987 16.0867 58.3801 15.6582 59.3615 15.0153L59.9908 16.9867C58.927 17.6639 57.571 18.161 55.7431 18.161C51.7575 18.161 49.0156 14.7239 49.0156 9.21245C49.0156 3.70102 51.7575 0.118164 56.0053 0.118164C57.4661 0.118164 58.6198 0.443878 59.6611 1.01816L59.0319 3.01531C58.1404 2.51816 57.2489 2.19245 55.9828 2.19245C53.1734 2.19245 51.1282 4.73816 51.1282 9.11816C51.1282 13.4982 53.151 16.0953 55.9828 16.0953V16.0867Z" fill="white"/>
<path d="M15.5294 11.2021C16.5283 6.35986 13.9071 1.50796 9.67493 0.365081C5.44272 -0.777795 1.20208 2.22114 0.203184 7.06339C-0.795707 11.9056 1.82542 16.7575 6.05763 17.9004C10.2898 19.0433 14.5305 16.0444 15.5294 11.2021Z" fill="#FF3C4A"/>
</g>
<defs>
<clipPath id="clip0_505_44042">
<rect width="60" height="18.0429" fill="white" transform="translate(-0.0078125 0.109375)"/>
</clipPath>
</defs>
</svg>
