<svg width="550" height="9" viewBox="0 0 550 9" fill="none" xmlns="http://www.w3.org/2000/svg">
<path d="M399.025 4.53516L398.625 4.53516L398.625 8.7545L399.025 8.7545L399.025 4.53516Z" fill="#E9E8EF"/>
<path d="M401.556 4.53516L401.156 4.53516L401.156 8.7545L401.556 8.7545L401.556 4.53516Z" fill="#E9E8EF"/>
<path d="M404.095 4.53516L403.695 4.53516L403.695 8.7545L404.095 8.7545L404.095 4.53516Z" fill="#E9E8EF"/>
<path d="M406.634 4.53516L406.234 4.53516L406.234 8.7545L406.634 8.7545L406.634 4.53516Z" fill="#E9E8EF"/>
<path d="M411.72 4.53516L411.32 4.53516L411.32 8.7545L411.72 8.7545L411.72 4.53516Z" fill="#E9E8EF"/>
<path d="M414.259 4.53516L413.859 4.53516L413.859 8.7545L414.259 8.7545L414.259 4.53516Z" fill="#E9E8EF"/>
<path d="M416.799 4.53516L416.398 4.53516L416.398 8.7545L416.799 8.7545L416.799 4.53516Z" fill="#E9E8EF"/>
<path d="M419.338 4.53516L418.938 4.53516L418.938 8.7545L419.338 8.7545L419.338 4.53516Z" fill="#E9E8EF"/>
<path d="M424.416 4.53516L424.016 4.53516L424.016 8.7545L424.416 8.7545L424.416 4.53516Z" fill="#E9E8EF"/>
<path d="M426.955 4.53516L426.555 4.53516L426.555 8.7545L426.955 8.7545L426.955 4.53516Z" fill="#E9E8EF"/>
<path d="M429.494 4.53516L429.094 4.53516L429.094 8.7545L429.494 8.7545L429.494 4.53516Z" fill="#E9E8EF"/>
<path d="M432.033 4.53516L431.633 4.53516L431.633 8.7545L432.033 8.7545L432.033 4.53516Z" fill="#E9E8EF"/>
<path d="M437.111 4.53516L436.711 4.53516L436.711 8.7545L437.111 8.7545L437.111 4.53516Z" fill="#E9E8EF"/>
<path d="M439.658 4.53516L439.258 4.53516L439.258 8.7545L439.658 8.7545L439.658 4.53516Z" fill="#E9E8EF"/>
<path d="M442.189 4.53516L441.789 4.53516L441.789 8.7545L442.189 8.7545L442.189 4.53516Z" fill="#E9E8EF"/>
<path d="M444.728 4.53516L444.328 4.53516L444.328 8.7545L444.728 8.7545L444.728 4.53516Z" fill="#E9E8EF"/>
<path d="M449.806 4.53516L449.406 4.53516L449.406 8.7545L449.806 8.7545L449.806 4.53516Z" fill="#E9E8EF"/>
<path d="M452.345 4.53516L451.945 4.53516L451.945 8.7545L452.345 8.7545L452.345 4.53516Z" fill="#E9E8EF"/>
<path d="M454.884 4.53516L454.484 4.53516L454.484 8.7545L454.884 8.7545L454.884 4.53516Z" fill="#E9E8EF"/>
<path d="M457.424 4.53516L457.023 4.53516L457.023 8.7545L457.424 8.7545L457.424 4.53516Z" fill="#E9E8EF"/>
<path d="M462.509 4.53516L462.109 4.53516L462.109 8.7545L462.509 8.7545L462.509 4.53516Z" fill="#E9E8EF"/>
<path d="M465.049 4.53516L464.648 4.53516L464.648 8.7545L465.049 8.7545L465.049 4.53516Z" fill="#E9E8EF"/>
<path d="M467.588 4.53516L467.188 4.53516L467.188 8.7545L467.588 8.7545L467.588 4.53516Z" fill="#E9E8EF"/>
<path d="M470.127 4.53516L469.727 4.53516L469.727 8.7545L470.127 8.7545L470.127 4.53516Z" fill="#E9E8EF"/>
<path d="M475.205 4.53516L474.805 4.53516L474.805 8.7545L475.205 8.7545L475.205 4.53516Z" fill="#E9E8EF"/>
<path d="M477.744 4.53516L477.344 4.53516L477.344 8.7545L477.744 8.7545L477.744 4.53516Z" fill="#E9E8EF"/>
<path d="M480.283 4.53516L479.883 4.53516L479.883 8.7545L480.283 8.7545L480.283 4.53516Z" fill="#E9E8EF"/>
<path d="M482.822 4.53516L482.422 4.53516L482.422 8.7545L482.822 8.7545L482.822 4.53516Z" fill="#E9E8EF"/>
<path d="M487.9 4.53516L487.5 4.53516L487.5 8.7545L487.9 8.7545L487.9 4.53516Z" fill="#E9E8EF"/>
<path d="M490.439 4.53516L490.039 4.53516L490.039 8.7545L490.439 8.7545L490.439 4.53516Z" fill="#E9E8EF"/>
<path d="M492.978 4.53516L492.578 4.53516L492.578 8.7545L492.978 8.7545L492.978 4.53516Z" fill="#E9E8EF"/>
<path d="M495.517 4.53516L495.117 4.53516L495.117 8.7545L495.517 8.7545L495.517 4.53516Z" fill="#E9E8EF"/>
<path d="M297.056 4.53516L296.656 4.53516L296.656 8.7545L297.056 8.7545L297.056 4.53516Z" fill="#E9E8EF"/>
<path d="M299.595 4.53516L299.195 4.53516L299.195 8.7545L299.595 8.7545L299.595 4.53516Z" fill="#E9E8EF"/>
<path d="M302.134 4.53516L301.734 4.53516L301.734 8.7545L302.134 8.7545L302.134 4.53516Z" fill="#E9E8EF"/>
<path d="M304.674 4.53516L304.273 4.53516L304.273 8.7545L304.674 8.7545L304.674 4.53516Z" fill="#E9E8EF"/>
<path d="M309.752 4.53516L309.352 4.53516L309.352 8.7545L309.752 8.7545L309.752 4.53516Z" fill="#E9E8EF"/>
<path d="M312.299 4.53516L311.898 4.53516L311.898 8.7545L312.299 8.7545L312.299 4.53516Z" fill="#E9E8EF"/>
<path d="M314.838 4.53516L314.438 4.53516L314.438 8.7545L314.838 8.7545L314.838 4.53516Z" fill="#E9E8EF"/>
<path d="M317.377 4.53516L316.977 4.53516L316.977 8.7545L317.377 8.7545L317.377 4.53516Z" fill="#E9E8EF"/>
<path d="M322.455 4.53516L322.055 4.53516L322.055 8.7545L322.455 8.7545L322.455 4.53516Z" fill="#E9E8EF"/>
<path d="M324.994 4.53516L324.594 4.53516L324.594 8.7545L324.994 8.7545L324.994 4.53516Z" fill="#E9E8EF"/>
<path d="M327.533 4.53516L327.133 4.53516L327.133 8.7545L327.533 8.7545L327.533 4.53516Z" fill="#E9E8EF"/>
<path d="M330.072 4.53516L329.672 4.53516L329.672 8.7545L330.072 8.7545L330.072 4.53516Z" fill="#E9E8EF"/>
<path d="M335.15 4.53516L334.75 4.53516L334.75 8.7545L335.15 8.7545L335.15 4.53516Z" fill="#E9E8EF"/>
<path d="M337.689 4.53516L337.289 4.53516L337.289 8.7545L337.689 8.7545L337.689 4.53516Z" fill="#E9E8EF"/>
<path d="M340.236 4.53516L339.836 4.53516L339.836 8.7545L340.236 8.7545L340.236 4.53516Z" fill="#E9E8EF"/>
<path d="M342.775 4.53516L342.375 4.53516L342.375 8.7545L342.775 8.7545L342.775 4.53516Z" fill="#E9E8EF"/>
<path d="M347.853 4.53516L347.453 4.53516L347.453 8.7545L347.853 8.7545L347.853 4.53516Z" fill="#E9E8EF"/>
<path d="M350.392 4.53516L349.992 4.53516L349.992 8.7545L350.392 8.7545L350.392 4.53516Z" fill="#E9E8EF"/>
<path d="M352.931 4.53516L352.531 4.53516L352.531 8.7545L352.931 8.7545L352.931 4.53516Z" fill="#E9E8EF"/>
<path d="M355.47 4.53516L355.07 4.53516L355.07 8.7545L355.47 8.7545L355.47 4.53516Z" fill="#E9E8EF"/>
<path d="M360.541 4.53516L360.141 4.53516L360.141 8.7545L360.541 8.7545L360.541 4.53516Z" fill="#E9E8EF"/>
<path d="M363.08 4.53516L362.68 4.53516L362.68 8.7545L363.08 8.7545L363.08 4.53516Z" fill="#E9E8EF"/>
<path d="M365.619 4.53516L365.219 4.53516L365.219 8.7545L365.619 8.7545L365.619 4.53516Z" fill="#E9E8EF"/>
<path d="M368.166 4.53516L367.766 4.53516L367.766 8.7545L368.166 8.7545L368.166 4.53516Z" fill="#E9E8EF"/>
<path d="M373.244 4.53516L372.844 4.53516L372.844 8.7545L373.244 8.7545L373.244 4.53516Z" fill="#E9E8EF"/>
<path d="M375.783 4.53516L375.383 4.53516L375.383 8.7545L375.783 8.7545L375.783 4.53516Z" fill="#E9E8EF"/>
<path d="M378.322 4.53516L377.922 4.53516L377.922 8.7545L378.322 8.7545L378.322 4.53516Z" fill="#E9E8EF"/>
<path d="M380.861 4.53516L380.461 4.53516L380.461 8.7545L380.861 8.7545L380.861 4.53516Z" fill="#E9E8EF"/>
<path d="M385.939 4.53516L385.539 4.53516L385.539 8.7545L385.939 8.7545L385.939 4.53516Z" fill="#E9E8EF"/>
<path d="M388.478 4.53516L388.078 4.53516L388.078 8.7545L388.478 8.7545L388.478 4.53516Z" fill="#E9E8EF"/>
<path d="M391.017 4.53516L390.617 4.53516L390.617 8.7545L391.017 8.7545L391.017 4.53516Z" fill="#E9E8EF"/>
<path d="M393.556 4.53516L393.156 4.53516L393.156 8.7545L393.556 8.7545L393.556 4.53516Z" fill="#E9E8EF"/>
<path d="M501.002 4.53516L500.602 4.53516L500.602 8.7545L501.002 8.7545L501.002 4.53516Z" fill="#E9E8EF"/>
<path d="M503.541 4.53516L503.141 4.53516L503.141 8.7545L503.541 8.7545L503.541 4.53516Z" fill="#E9E8EF"/>
<path d="M506.08 4.53516L505.68 4.53516L505.68 8.7545L506.08 8.7545L506.08 4.53516Z" fill="#E9E8EF"/>
<path d="M508.619 4.53516L508.219 4.53516L508.219 8.7545L508.619 8.7545L508.619 4.53516Z" fill="#E9E8EF"/>
<path d="M513.697 4.53516L513.297 4.53516L513.297 8.7545L513.697 8.7545L513.697 4.53516Z" fill="#E9E8EF"/>
<path d="M516.236 4.53516L515.836 4.53516L515.836 8.7545L516.236 8.7545L516.236 4.53516Z" fill="#E9E8EF"/>
<path d="M518.775 4.53516L518.375 4.53516L518.375 8.7545L518.775 8.7545L518.775 4.53516Z" fill="#E9E8EF"/>
<path d="M521.306 4.53516L520.906 4.53516L520.906 8.7545L521.306 8.7545L521.306 4.53516Z" fill="#E9E8EF"/>
<path d="M526.392 4.53516L525.992 4.53516L525.992 8.7545L526.392 8.7545L526.392 4.53516Z" fill="#E9E8EF"/>
<path d="M528.931 4.53516L528.531 4.53516L528.531 8.7545L528.931 8.7545L528.931 4.53516Z" fill="#E9E8EF"/>
<path d="M531.47 4.53516L531.07 4.53516L531.07 8.7545L531.47 8.7545L531.47 4.53516Z" fill="#E9E8EF"/>
<path d="M534.009 4.53516L533.609 4.53516L533.609 8.7545L534.009 8.7545L534.009 4.53516Z" fill="#E9E8EF"/>
<path d="M539.095 4.53516L538.695 4.53516L538.695 8.7545L539.095 8.7545L539.095 4.53516Z" fill="#E9E8EF"/>
<path d="M541.634 4.53516L541.234 4.53516L541.234 8.7545L541.634 8.7545L541.634 4.53516Z" fill="#E9E8EF"/>
<path d="M544.174 4.53516L543.773 4.53516L543.773 8.7545L544.174 8.7545L544.174 4.53516Z" fill="#E9E8EF"/>
<path d="M546.713 4.53516L546.312 4.53516L546.313 8.7545L546.713 8.7545L546.713 4.53516Z" fill="#E9E8EF"/>
<path d="M3.25949 4.53516L2.85938 4.53516L2.85938 8.7545L3.25949 8.7545L3.25949 4.53516Z" fill="#E9E8EF"/>
<path d="M5.79855 4.53516L5.39844 4.53516L5.39844 8.7545L5.79855 8.7545L5.79855 4.53516Z" fill="#E9E8EF"/>
<path d="M8.3376 4.53516L7.9375 4.53516L7.9375 8.7545L8.3376 8.7545L8.3376 4.53516Z" fill="#E9E8EF"/>
<path d="M10.8767 4.53516L10.4766 4.53516L10.4766 8.7545L10.8767 8.7545L10.8767 4.53516Z" fill="#E9E8EF"/>
<path d="M15.9626 4.53516L15.5625 4.53516L15.5625 8.7545L15.9626 8.7545L15.9626 4.53516Z" fill="#E9E8EF"/>
<path d="M18.5017 4.53516L18.1016 4.53516L18.1016 8.7545L18.5017 8.7545L18.5017 4.53516Z" fill="#E9E8EF"/>
<path d="M21.0329 4.53516L20.6328 4.53516L20.6328 8.7545L21.0329 8.7545L21.0329 4.53516Z" fill="#E9E8EF"/>
<path d="M23.5798 4.53516L23.1797 4.53516L23.1797 8.7545L23.5798 8.7545L23.5798 4.53516Z" fill="#E9E8EF"/>
<path d="M28.6579 4.53516L28.2578 4.53516L28.2578 8.7545L28.6579 8.7545L28.6579 4.53516Z" fill="#E9E8EF"/>
<path d="M31.197 4.53516L30.7969 4.53516L30.7969 8.7545L31.197 8.7545L31.197 4.53516Z" fill="#E9E8EF"/>
<path d="M33.736 4.53516L33.3359 4.53516L33.3359 8.7545L33.736 8.7545L33.736 4.53516Z" fill="#E9E8EF"/>
<path d="M36.2751 4.53516L35.875 4.53516L35.875 8.7545L36.2751 8.7545L36.2751 4.53516Z" fill="#E9E8EF"/>
<path d="M41.3454 4.53516L40.9453 4.53516L40.9453 8.7545L41.3454 8.7545L41.3454 4.53516Z" fill="#E9E8EF"/>
<path d="M43.8845 4.53516L43.4844 4.53516L43.4844 8.7545L43.8845 8.7545L43.8845 4.53516Z" fill="#E9E8EF"/>
<path d="M46.4235 4.53516L46.0234 4.53516L46.0234 8.7545L46.4235 8.7545L46.4235 4.53516Z" fill="#E9E8EF"/>
<path d="M48.9704 4.53516L48.5703 4.53516L48.5703 8.7545L48.9704 8.7545L48.9704 4.53516Z" fill="#E9E8EF"/>
<path d="M54.0485 4.53516L53.6484 4.53516L53.6484 8.7545L54.0485 8.7545L54.0485 4.53516Z" fill="#E9E8EF"/>
<path d="M56.5876 4.53516L56.1875 4.53516L56.1875 8.7545L56.5876 8.7545L56.5876 4.53516Z" fill="#E9E8EF"/>
<path d="M59.1267 4.53516L58.7266 4.53516L58.7266 8.7545L59.1267 8.7545L59.1267 4.53516Z" fill="#E9E8EF"/>
<path d="M61.6657 4.53516L61.2656 4.53516L61.2656 8.7545L61.6657 8.7545L61.6657 4.53516Z" fill="#E9E8EF"/>
<path d="M66.7439 4.53516L66.3438 4.53516L66.3438 8.7545L66.7439 8.7545L66.7439 4.53516Z" fill="#E9E8EF"/>
<path d="M69.2829 4.53516L68.8828 4.53516L68.8828 8.7545L69.2829 8.7545L69.2829 4.53516Z" fill="#E9E8EF"/>
<path d="M71.822 4.53516L71.4219 4.53516L71.4219 8.7545L71.822 8.7545L71.822 4.53516Z" fill="#E9E8EF"/>
<path d="M74.361 4.53516L73.9609 4.53516L73.9609 8.7545L74.361 8.7545L74.361 4.53516Z" fill="#E9E8EF"/>
<path d="M79.447 4.53516L79.0469 4.53516L79.0469 8.7545L79.447 8.7545L79.447 4.53516Z" fill="#E9E8EF"/>
<path d="M81.986 4.53516L81.5859 4.53516L81.5859 8.7545L81.986 8.7545L81.986 4.53516Z" fill="#E9E8EF"/>
<path d="M84.5251 4.53516L84.125 4.53516L84.125 8.7545L84.5251 8.7545L84.5251 4.53516Z" fill="#E9E8EF"/>
<path d="M87.0642 4.53516L86.6641 4.53516L86.6641 8.7545L87.0642 8.7545L87.0642 4.53516Z" fill="#E9E8EF"/>
<path d="M194.111 4.53516L193.711 4.53516L193.711 8.7545L194.111 8.7545L194.111 4.53516Z" fill="#E9E8EF"/>
<path d="M196.642 4.53516L196.242 4.53516L196.242 8.7545L196.642 8.7545L196.642 4.53516Z" fill="#E9E8EF"/>
<path d="M199.181 4.53516L198.781 4.53516L198.781 8.7545L199.181 8.7545L199.181 4.53516Z" fill="#E9E8EF"/>
<path d="M201.72 4.53516L201.32 4.53516L201.32 8.7545L201.72 8.7545L201.72 4.53516Z" fill="#E9E8EF"/>
<path d="M206.806 4.53516L206.406 4.53516L206.406 8.7545L206.806 8.7545L206.806 4.53516Z" fill="#E9E8EF"/>
<path d="M209.345 4.53516L208.945 4.53516L208.945 8.7545L209.345 8.7545L209.345 4.53516Z" fill="#E9E8EF"/>
<path d="M211.884 4.53516L211.484 4.53516L211.484 8.7545L211.884 8.7545L211.884 4.53516Z" fill="#E9E8EF"/>
<path d="M214.424 4.53516L214.023 4.53516L214.023 8.7545L214.424 8.7545L214.424 4.53516Z" fill="#E9E8EF"/>
<path d="M219.494 4.53516L219.094 4.53516L219.094 8.7545L219.494 8.7545L219.494 4.53516Z" fill="#E9E8EF"/>
<path d="M222.033 4.53516L221.633 4.53516L221.633 8.7545L222.033 8.7545L222.033 4.53516Z" fill="#E9E8EF"/>
<path d="M224.572 4.53516L224.172 4.53516L224.172 8.7545L224.572 8.7545L224.572 4.53516Z" fill="#E9E8EF"/>
<path d="M227.111 4.53516L226.711 4.53516L226.711 8.7545L227.111 8.7545L227.111 4.53516Z" fill="#E9E8EF"/>
<path d="M232.189 4.53516L231.789 4.53516L231.789 8.7545L232.189 8.7545L232.189 4.53516Z" fill="#E9E8EF"/>
<path d="M234.736 4.53516L234.336 4.53516L234.336 8.7545L234.736 8.7545L234.736 4.53516Z" fill="#E9E8EF"/>
<path d="M237.275 4.53516L236.875 4.53516L236.875 8.7545L237.275 8.7545L237.275 4.53516Z" fill="#E9E8EF"/>
<path d="M239.814 4.53516L239.414 4.53516L239.414 8.7545L239.814 8.7545L239.814 4.53516Z" fill="#E9E8EF"/>
<path d="M244.892 4.53516L244.492 4.53516L244.492 8.7545L244.892 8.7545L244.892 4.53516Z" fill="#E9E8EF"/>
<path d="M247.431 4.53516L247.031 4.53516L247.031 8.7545L247.431 8.7545L247.431 4.53516Z" fill="#E9E8EF"/>
<path d="M249.97 4.53516L249.57 4.53516L249.57 8.7545L249.97 8.7545L249.97 4.53516Z" fill="#E9E8EF"/>
<path d="M252.509 4.53516L252.109 4.53516L252.109 8.7545L252.509 8.7545L252.509 4.53516Z" fill="#E9E8EF"/>
<path d="M257.588 4.53516L257.188 4.53516L257.188 8.7545L257.588 8.7545L257.588 4.53516Z" fill="#E9E8EF"/>
<path d="M260.127 4.53516L259.727 4.53516L259.727 8.7545L260.127 8.7545L260.127 4.53516Z" fill="#E9E8EF"/>
<path d="M262.674 4.53516L262.273 4.53516L262.273 8.7545L262.674 8.7545L262.674 4.53516Z" fill="#E9E8EF"/>
<path d="M265.213 4.53516L264.812 4.53516L264.813 8.7545L265.213 8.7545L265.213 4.53516Z" fill="#E9E8EF"/>
<path d="M270.291 4.53516L269.891 4.53516L269.891 8.7545L270.291 8.7545L270.291 4.53516Z" fill="#E9E8EF"/>
<path d="M272.83 4.53516L272.43 4.53516L272.43 8.7545L272.83 8.7545L272.83 4.53516Z" fill="#E9E8EF"/>
<path d="M275.369 4.53516L274.969 4.53516L274.969 8.7545L275.369 8.7545L275.369 4.53516Z" fill="#E9E8EF"/>
<path d="M277.908 4.53516L277.508 4.53516L277.508 8.7545L277.908 8.7545L277.908 4.53516Z" fill="#E9E8EF"/>
<path d="M282.986 4.53516L282.586 4.53516L282.586 8.7545L282.986 8.7545L282.986 4.53516Z" fill="#E9E8EF"/>
<path d="M285.525 4.53516L285.125 4.53516L285.125 8.7545L285.525 8.7545L285.525 4.53516Z" fill="#E9E8EF"/>
<path d="M288.064 4.53516L287.664 4.53516L287.664 8.7545L288.064 8.7545L288.064 4.53516Z" fill="#E9E8EF"/>
<path d="M290.611 4.53516L290.211 4.53516L290.211 8.7545L290.611 8.7545L290.611 4.53516Z" fill="#E9E8EF"/>
<path d="M92.1423 4.53516L91.7422 4.53516L91.7422 8.7545L92.1423 8.7545L92.1423 4.53516Z" fill="#E9E8EF"/>
<path d="M94.6814 4.53516L94.2812 4.53516L94.2813 8.7545L94.6814 8.7545L94.6814 4.53516Z" fill="#E9E8EF"/>
<path d="M97.2204 4.53516L96.8203 4.53516L96.8203 8.7545L97.2204 8.7545L97.2204 4.53516Z" fill="#E9E8EF"/>
<path d="M99.7595 4.53516L99.3594 4.53516L99.3594 8.7545L99.7595 8.7545L99.7595 4.53516Z" fill="#E9E8EF"/>
<path d="M104.838 4.53516L104.438 4.53516L104.438 8.7545L104.838 8.7545L104.838 4.53516Z" fill="#E9E8EF"/>
<path d="M107.384 4.53516L106.984 4.53516L106.984 8.7545L107.384 8.7545L107.384 4.53516Z" fill="#E9E8EF"/>
<path d="M109.924 4.53516L109.523 4.53516L109.523 8.7545L109.924 8.7545L109.924 4.53516Z" fill="#E9E8EF"/>
<path d="M112.463 4.53516L112.062 4.53516L112.063 8.7545L112.463 8.7545L112.463 4.53516Z" fill="#E9E8EF"/>
<path d="M117.541 4.53516L117.141 4.53516L117.141 8.7545L117.541 8.7545L117.541 4.53516Z" fill="#E9E8EF"/>
<path d="M120.08 4.53516L119.68 4.53516L119.68 8.7545L120.08 8.7545L120.08 4.53516Z" fill="#E9E8EF"/>
<path d="M122.619 4.53516L122.219 4.53516L122.219 8.7545L122.619 8.7545L122.619 4.53516Z" fill="#E9E8EF"/>
<path d="M125.158 4.53516L124.758 4.53516L124.758 8.7545L125.158 8.7545L125.158 4.53516Z" fill="#E9E8EF"/>
<path d="M130.236 4.53516L129.836 4.53516L129.836 8.7545L130.236 8.7545L130.236 4.53516Z" fill="#E9E8EF"/>
<path d="M132.775 4.53516L132.375 4.53516L132.375 8.7545L132.775 8.7545L132.775 4.53516Z" fill="#E9E8EF"/>
<path d="M135.322 4.53516L134.922 4.53516L134.922 8.7545L135.322 8.7545L135.322 4.53516Z" fill="#E9E8EF"/>
<path d="M137.853 4.53516L137.453 4.53516L137.453 8.7545L137.853 8.7545L137.853 4.53516Z" fill="#E9E8EF"/>
<path d="M142.931 4.53516L142.531 4.53516L142.531 8.7545L142.931 8.7545L142.931 4.53516Z" fill="#E9E8EF"/>
<path d="M145.47 4.53516L145.07 4.53516L145.07 8.7545L145.47 8.7545L145.47 4.53516Z" fill="#E9E8EF"/>
<path d="M148.009 4.53516L147.609 4.53516L147.609 8.7545L148.009 8.7545L148.009 4.53516Z" fill="#E9E8EF"/>
<path d="M150.549 4.53516L150.148 4.53516L150.148 8.7545L150.549 8.7545L150.549 4.53516Z" fill="#E9E8EF"/>
<path d="M155.627 4.53516L155.227 4.53516L155.227 8.7545L155.627 8.7545L155.627 4.53516Z" fill="#E9E8EF"/>
<path d="M158.166 4.53516L157.766 4.53516L157.766 8.7545L158.166 8.7545L158.166 4.53516Z" fill="#E9E8EF"/>
<path d="M160.705 4.53516L160.305 4.53516L160.305 8.7545L160.705 8.7545L160.705 4.53516Z" fill="#E9E8EF"/>
<path d="M163.252 4.53516L162.852 4.53516L162.852 8.7545L163.252 8.7545L163.252 4.53516Z" fill="#E9E8EF"/>
<path d="M168.33 4.53516L167.93 4.53516L167.93 8.7545L168.33 8.7545L168.33 4.53516Z" fill="#E9E8EF"/>
<path d="M170.869 4.53516L170.469 4.53516L170.469 8.7545L170.869 8.7545L170.869 4.53516Z" fill="#E9E8EF"/>
<path d="M173.408 4.53516L173.008 4.53516L173.008 8.7545L173.408 8.7545L173.408 4.53516Z" fill="#E9E8EF"/>
<path d="M175.947 4.53516L175.547 4.53516L175.547 8.7545L175.947 8.7545L175.947 4.53516Z" fill="#E9E8EF"/>
<path d="M0.919636 0.316406L0.117188 0.316406L0.117188 8.7551L0.919636 8.7551L0.919636 0.316406Z" fill="#E9E8EF"/>
<path d="M396.677 0.316406L395.875 0.316406L395.875 8.7551L396.677 8.7551L396.677 0.316406Z" fill="#E9E8EF"/>
<path d="M409.381 0.316406L408.578 0.316406L408.578 8.7551L409.381 8.7551L409.381 0.316406Z" fill="#E9E8EF"/>
<path d="M422.076 0.316406L421.273 0.316406L421.273 8.7551L422.076 8.7551L422.076 0.316406Z" fill="#E9E8EF"/>
<path d="M422.076 0.316406L421.273 0.316406L421.273 8.7551L422.076 8.7551L422.076 0.316406Z" fill="#E9E8EF"/>
<path d="M434.771 0.316406L433.969 0.316406L433.969 8.7551L434.771 8.7551L434.771 0.316406Z" fill="#E9E8EF"/>
<path d="M447.474 0.316406L446.672 0.316406L446.672 8.7551L447.474 8.7551L447.474 0.316406Z" fill="#E9E8EF"/>
<path d="M447.474 0.316406L446.672 0.316406L446.672 8.7551L447.474 8.7551L447.474 0.316406Z" fill="#E9E8EF"/>
<path d="M460.162 0.316406L459.359 0.316406L459.359 8.7551L460.162 8.7551L460.162 0.316406Z" fill="#E9E8EF"/>
<path d="M472.865 0.316406L472.062 0.316406L472.063 8.7551L472.865 8.7551L472.865 0.316406Z" fill="#E9E8EF"/>
<path d="M472.865 0.316406L472.062 0.316406L472.063 8.7551L472.865 8.7551L472.865 0.316406Z" fill="#E9E8EF"/>
<path d="M485.568 0.316406L484.766 0.316406L484.766 8.7551L485.568 8.7551L485.568 0.316406Z" fill="#E9E8EF"/>
<path d="M294.717 0.316406L293.914 0.316406L293.914 8.7551L294.717 8.7551L294.717 0.316406Z" fill="#E9E8EF"/>
<path d="M307.412 0.316406L306.609 0.316406L306.609 8.7551L307.412 8.7551L307.412 0.316406Z" fill="#E9E8EF"/>
<path d="M320.115 0.316406L319.312 0.316406L319.313 8.7551L320.115 8.7551L320.115 0.316406Z" fill="#E9E8EF"/>
<path d="M320.115 0.316406L319.312 0.316406L319.313 8.7551L320.115 8.7551L320.115 0.316406Z" fill="#E9E8EF"/>
<path d="M332.81 0.316406L332.008 0.316406L332.008 8.7551L332.81 8.7551L332.81 0.316406Z" fill="#E9E8EF"/>
<path d="M345.513 0.316406L344.711 0.316406L344.711 8.7551L345.513 8.7551L345.513 0.316406Z" fill="#E9E8EF"/>
<path d="M345.513 0.316406L344.711 0.316406L344.711 8.7551L345.513 8.7551L345.513 0.316406Z" fill="#E9E8EF"/>
<path d="M358.209 0.316406L357.406 0.316406L357.406 8.7551L358.209 8.7551L358.209 0.316406Z" fill="#E9E8EF"/>
<path d="M370.904 0.316406L370.102 0.316406L370.102 8.7551L370.904 8.7551L370.904 0.316406Z" fill="#E9E8EF"/>
<path d="M370.904 0.316406L370.102 0.316406L370.102 8.7551L370.904 8.7551L370.904 0.316406Z" fill="#E9E8EF"/>
<path d="M383.599 0.316406L382.797 0.316406L382.797 8.7551L383.599 8.7551L383.599 0.316406Z" fill="#E9E8EF"/>
<path d="M498.662 0.316406L497.859 0.316406L497.859 8.7551L498.662 8.7551L498.662 0.316406Z" fill="#E9E8EF"/>
<path d="M511.365 0.316406L510.562 0.316406L510.563 8.7551L511.365 8.7551L511.365 0.316406Z" fill="#E9E8EF"/>
<path d="M524.06 0.316406L523.258 0.316406L523.258 8.7551L524.06 8.7551L524.06 0.316406Z" fill="#E9E8EF"/>
<path d="M524.06 0.316406L523.258 0.316406L523.258 8.7551L524.06 8.7551L524.06 0.316406Z" fill="#E9E8EF"/>
<path d="M536.748 0.316406L535.945 0.316406L535.945 8.7551L536.748 8.7551L536.748 0.316406Z" fill="#E9E8EF"/>
<path d="M549.451 0.316406L548.648 0.316406L548.648 8.7551L549.451 8.7551L549.451 0.316406Z" fill="#E9E8EF"/>
<path d="M549.451 0.316406L548.648 0.316406L548.648 8.7551L549.451 8.7551L549.451 0.316406Z" fill="#E9E8EF"/>
<path d="M13.6149 0.316406L12.8125 0.316406L12.8125 8.7551L13.6149 8.7551L13.6149 0.316406Z" fill="#E9E8EF"/>
<path d="M13.6149 0.316406L12.8125 0.316406L12.8125 8.7551L13.6149 8.7551L13.6149 0.316406Z" fill="#E9E8EF"/>
<path d="M26.3181 0.316406L25.5156 0.316406L25.5156 8.7551L26.3181 8.7551L26.3181 0.316406Z" fill="#E9E8EF"/>
<path d="M39.0134 0.316406L38.2109 0.316406L38.2109 8.7551L39.0134 8.7551L39.0134 0.316406Z" fill="#E9E8EF"/>
<path d="M39.0134 0.316406L38.2109 0.316406L38.2109 8.7551L39.0134 8.7551L39.0134 0.316406Z" fill="#E9E8EF"/>
<path d="M51.7087 0.316406L50.9062 0.316406L50.9063 8.7551L51.7087 8.7551L51.7087 0.316406Z" fill="#E9E8EF"/>
<path d="M64.404 0.316406L63.6016 0.316406L63.6016 8.7551L64.404 8.7551L64.404 0.316406Z" fill="#E9E8EF"/>
<path d="M64.404 0.316406L63.6016 0.316406L63.6016 8.7551L64.404 8.7551L64.404 0.316406Z" fill="#E9E8EF"/>
<path d="M77.1071 0.316406L76.3047 0.316406L76.3047 8.7551L77.1071 8.7551L77.1071 0.316406Z" fill="#E9E8EF"/>
<path d="M191.763 0.316406L190.961 0.316406L190.961 8.7551L191.763 8.7551L191.763 0.316406Z" fill="#E9E8EF"/>
<path d="M204.467 0.316406L203.664 0.316406L203.664 8.7551L204.467 8.7551L204.467 0.316406Z" fill="#E9E8EF"/>
<path d="M217.162 0.316406L216.359 0.316406L216.359 8.7551L217.162 8.7551L217.162 0.316406Z" fill="#E9E8EF"/>
<path d="M217.162 0.316406L216.359 0.316406L216.359 8.7551L217.162 8.7551L217.162 0.316406Z" fill="#E9E8EF"/>
<path d="M229.849 0.316406L229.047 0.316406L229.047 8.7551L229.849 8.7551L229.849 0.316406Z" fill="#E9E8EF"/>
<path d="M242.552 0.316406L241.75 0.316406L241.75 8.7551L242.552 8.7551L242.552 0.316406Z" fill="#E9E8EF"/>
<path d="M242.552 0.316406L241.75 0.316406L241.75 8.7551L242.552 8.7551L242.552 0.316406Z" fill="#E9E8EF"/>
<path d="M255.248 0.316406L254.445 0.316406L254.445 8.7551L255.248 8.7551L255.248 0.316406Z" fill="#E9E8EF"/>
<path d="M267.951 0.316406L267.148 0.316406L267.148 8.7551L267.951 8.7551L267.951 0.316406Z" fill="#E9E8EF"/>
<path d="M267.951 0.316406L267.148 0.316406L267.148 8.7551L267.951 8.7551L267.951 0.316406Z" fill="#E9E8EF"/>
<path d="M280.646 0.316406L279.844 0.316406L279.844 8.7551L280.646 8.7551L280.646 0.316406Z" fill="#E9E8EF"/>
<path d="M89.8025 0.316406L89 0.316406L89 8.7551L89.8025 8.7551L89.8025 0.316406Z" fill="#E9E8EF"/>
<path d="M102.498 0.316406L101.695 0.316406L101.695 8.7551L102.498 8.7551L102.498 0.316406Z" fill="#E9E8EF"/>
<path d="M115.201 0.316406L114.398 0.316406L114.398 8.7551L115.201 8.7551L115.201 0.316406Z" fill="#E9E8EF"/>
<path d="M115.201 0.316406L114.398 0.316406L114.398 8.7551L115.201 8.7551L115.201 0.316406Z" fill="#E9E8EF"/>
<path d="M127.896 0.316406L127.094 0.316406L127.094 8.7551L127.896 8.7551L127.896 0.316406Z" fill="#E9E8EF"/>
<path d="M140.599 0.316406L139.797 0.316406L139.797 8.7551L140.599 8.7551L140.599 0.316406Z" fill="#E9E8EF"/>
<path d="M140.599 0.316406L139.797 0.316406L139.797 8.7551L140.599 8.7551L140.599 0.316406Z" fill="#E9E8EF"/>
<path d="M153.287 0.316406L152.484 0.316406L152.484 8.7551L153.287 8.7551L153.287 0.316406Z" fill="#E9E8EF"/>
<path d="M165.99 0.316406L165.188 0.316406L165.188 8.7551L165.99 8.7551L165.99 0.316406Z" fill="#E9E8EF"/>
<path d="M165.99 0.316406L165.188 0.316406L165.188 8.7551L165.99 8.7551L165.99 0.316406Z" fill="#E9E8EF"/>
<path d="M178.685 0.316406L177.883 0.316406L177.883 8.7551L178.685 8.7551L178.685 0.316406Z" fill="#E9E8EF"/>
<path d="M181.025 4.53516L180.625 4.53516L180.625 8.7545L181.025 8.7545L181.025 4.53516Z" fill="#E9E8EF"/>
<path d="M183.564 4.53516L183.164 4.53516L183.164 8.7545L183.564 8.7545L183.564 4.53516Z" fill="#E9E8EF"/>
<path d="M186.103 4.53516L185.703 4.53516L185.703 8.7545L186.103 8.7545L186.103 4.53516Z" fill="#E9E8EF"/>
<path d="M188.642 4.53516L188.242 4.53516L188.242 8.7545L188.642 8.7545L188.642 4.53516Z" fill="#E9E8EF"/>
</svg>
