<svg width="9" height="197" viewBox="0 0 9 197" fill="none" xmlns="http://www.w3.org/2000/svg">
<g clip-path="url(#clip0_320_5702)">
<path d="M0.410156 98.0146L0.410156 98.7874L8.89716 98.7874L8.89716 98.0146L0.410156 98.0146Z" fill="#E9E8EF"/>
<path d="M4.65234 95.7596L4.65234 96.1442L8.89584 96.1442L8.89584 95.7596L4.65234 95.7596Z" fill="#E9E8EF"/>
<path d="M4.65234 93.3177L4.65234 93.7023L8.89584 93.7023L8.89584 93.3177L4.65234 93.3177Z" fill="#E9E8EF"/>
<path d="M4.65234 90.8723L4.65234 91.2568L8.89584 91.2568L8.89584 90.8723L4.65234 90.8723Z" fill="#E9E8EF"/>
<path d="M4.65234 88.4268L4.65234 88.8114L8.89584 88.8114L8.89584 88.4268L4.65234 88.4268Z" fill="#E9E8EF"/>
<path d="M0.410156 85.7874L0.410156 86.5601L8.89716 86.5601L8.89716 85.7874L0.410156 85.7874Z" fill="#E9E8EF"/>
<path d="M4.65234 83.5324L4.65234 83.9169L8.89584 83.9169L8.89584 83.5324L4.65234 83.5324Z" fill="#E9E8EF"/>
<path d="M4.65234 81.0905L4.65234 81.4751L8.89584 81.4751L8.89584 81.0905L4.65234 81.0905Z" fill="#E9E8EF"/>
<path d="M4.65234 78.6451L4.65234 79.0296L8.89584 79.0296L8.89584 78.6451L4.65234 78.6451Z" fill="#E9E8EF"/>
<path d="M4.65234 76.1996L4.65234 76.5842L8.89584 76.5842L8.89584 76.1996L4.65234 76.1996Z" fill="#E9E8EF"/>
<path d="M0.410156 73.5602L0.410156 74.3329L8.89716 74.3329L8.89716 73.5602L0.410156 73.5602Z" fill="#E9E8EF"/>
<path d="M0.410156 73.5602L0.410156 74.3329L8.89716 74.3329L8.89716 73.5602L0.410156 73.5602Z" fill="#E9E8EF"/>
<path d="M4.65234 71.3051L4.65234 71.6897L8.89584 71.6897L8.89584 71.3051L4.65234 71.3051Z" fill="#E9E8EF"/>
<path d="M4.65234 68.8632L4.65234 69.2478L8.89584 69.2478L8.89584 68.8632L4.65234 68.8632Z" fill="#E9E8EF"/>
<path d="M4.65234 66.4178L4.65234 66.8024L8.89584 66.8024L8.89584 66.4178L4.65234 66.4178Z" fill="#E9E8EF"/>
<path d="M4.65234 63.9724L4.65234 64.3569L8.89584 64.3569L8.89584 63.9724L4.65234 63.9724Z" fill="#E9E8EF"/>
<path d="M0.410156 61.333L0.410156 62.1057L8.89716 62.1057L8.89716 61.333L0.410156 61.333Z" fill="#E9E8EF"/>
<path d="M4.65234 59.0815L4.65234 59.4661L8.89584 59.4661L8.89584 59.0815L4.65234 59.0815Z" fill="#E9E8EF"/>
<path d="M4.65234 56.6361L4.65234 57.0206L8.89584 57.0206L8.89584 56.6361L4.65234 56.6361Z" fill="#E9E8EF"/>
<path d="M4.65234 54.1906L4.65234 54.5751L8.89584 54.5751L8.89584 54.1906L4.65234 54.1906Z" fill="#E9E8EF"/>
<path d="M4.65234 51.7451L4.65234 52.1297L8.89584 52.1297L8.89584 51.7451L4.65234 51.7451Z" fill="#E9E8EF"/>
<path d="M0.410156 49.1058L0.410156 49.8785L8.89716 49.8785L8.89716 49.1058L0.410156 49.1058Z" fill="#E9E8EF"/>
<path d="M0.410156 49.1058L0.410156 49.8785L8.89716 49.8785L8.89716 49.1058L0.410156 49.1058Z" fill="#E9E8EF"/>
<path d="M4.65234 46.8543L4.65234 47.2388L8.89584 47.2388L8.89584 46.8543L4.65234 46.8543Z" fill="#E9E8EF"/>
<path d="M4.65234 44.4088L4.65234 44.7934L8.89584 44.7934L8.89584 44.4088L4.65234 44.4088Z" fill="#E9E8EF"/>
<path d="M4.65234 41.9634L4.65234 42.348L8.89584 42.348L8.89584 41.9634L4.65234 41.9634Z" fill="#E9E8EF"/>
<path d="M4.65234 39.518L4.65234 39.9025L8.89584 39.9025L8.89584 39.518L4.65234 39.518Z" fill="#E9E8EF"/>
<path d="M0.410156 36.8785L0.410156 37.6512L8.89716 37.6512L8.89716 36.8785L0.410156 36.8785Z" fill="#E9E8EF"/>
<path d="M4.65234 34.627L4.65234 35.0116L8.89584 35.0116L8.89584 34.627L4.65234 34.627Z" fill="#E9E8EF"/>
<path d="M4.65234 32.1816L4.65234 32.5662L8.89584 32.5662L8.89584 32.1816L4.65234 32.1816Z" fill="#E9E8EF"/>
<path d="M4.65234 29.7362L4.65234 30.1207L8.89584 30.1207L8.89584 29.7362L4.65234 29.7362Z" fill="#E9E8EF"/>
<path d="M4.65234 27.2907L4.65234 27.6752L8.89584 27.6752L8.89584 27.2907L4.65234 27.2907Z" fill="#E9E8EF"/>
<path d="M0.410156 24.6513L0.410156 25.424L8.89716 25.424L8.89716 24.6513L0.410156 24.6513Z" fill="#E9E8EF"/>
<path d="M0.410156 24.6513L0.410156 25.424L8.89716 25.424L8.89716 24.6513L0.410156 24.6513Z" fill="#E9E8EF"/>
<path d="M4.65234 22.3998L4.65234 22.7844L8.89584 22.7844L8.89584 22.3998L4.65234 22.3998Z" fill="#E9E8EF"/>
<path d="M4.65234 19.9544L4.65234 20.3389L8.89584 20.3389L8.89584 19.9544L4.65234 19.9544Z" fill="#E9E8EF"/>
<path d="M4.65234 17.5089L4.65234 17.8935L8.89584 17.8935L8.89584 17.5089L4.65234 17.5089Z" fill="#E9E8EF"/>
<path d="M4.65234 15.0635L4.65234 15.4481L8.89584 15.4481L8.89584 15.0635L4.65234 15.0635Z" fill="#E9E8EF"/>
<path d="M0.410156 12.4241L0.410156 13.1968L8.89716 13.1968L8.89716 12.4241L0.410156 12.4241Z" fill="#E9E8EF"/>
<path d="M4.65234 10.1726L4.65234 10.5572L8.89584 10.5572L8.89584 10.1726L4.65234 10.1726Z" fill="#E9E8EF"/>
<path d="M4.65234 7.72716L4.65234 8.11169L8.89584 8.11169L8.89584 7.72716L4.65234 7.72716Z" fill="#E9E8EF"/>
<path d="M4.65234 5.2817L4.65234 5.66626L8.89584 5.66626L8.89584 5.2817L4.65234 5.2817Z" fill="#E9E8EF"/>
<path d="M4.65234 2.83627L4.65234 3.22083L8.89584 3.22083L8.89584 2.83626L4.65234 2.83627Z" fill="#E9E8EF"/>
<path d="M0.410156 196.196L0.410156 196.968L8.89716 196.968L8.89716 196.196L0.410156 196.196Z" fill="#E9E8EF"/>
<path d="M4.65234 193.944L4.65234 194.329L8.89584 194.329L8.89584 193.944L4.65234 193.944Z" fill="#E9E8EF"/>
<path d="M4.65234 191.499L4.65234 191.883L8.89584 191.883L8.89584 191.499L4.65234 191.499Z" fill="#E9E8EF"/>
<path d="M4.65234 189.053L4.65234 189.438L8.89584 189.438L8.89584 189.053L4.65234 189.053Z" fill="#E9E8EF"/>
<path d="M4.65234 186.608L4.65234 186.992L8.89584 186.992L8.89584 186.608L4.65234 186.608Z" fill="#E9E8EF"/>
<path d="M0.410156 183.968L0.410156 184.741L8.89716 184.741L8.89716 183.968L0.410156 183.968Z" fill="#E9E8EF"/>
<path d="M4.65234 181.717L4.65234 182.102L8.89584 182.102L8.89584 181.717L4.65234 181.717Z" fill="#E9E8EF"/>
<path d="M4.65234 179.272L4.65234 179.656L8.89584 179.656L8.89584 179.272L4.65234 179.272Z" fill="#E9E8EF"/>
<path d="M4.65234 176.826L4.65234 177.211L8.89584 177.211L8.89584 176.826L4.65234 176.826Z" fill="#E9E8EF"/>
<path d="M4.65234 174.381L4.65234 174.765L8.89584 174.765L8.89584 174.381L4.65234 174.381Z" fill="#E9E8EF"/>
<path d="M0.410156 171.741L0.410156 172.514L8.89716 172.514L8.89716 171.741L0.410156 171.741Z" fill="#E9E8EF"/>
<path d="M0.410156 171.741L0.410156 172.514L8.89716 172.514L8.89716 171.741L0.410156 171.741Z" fill="#E9E8EF"/>
<path d="M4.65234 169.49L4.65234 169.874L8.89584 169.874L8.89584 169.49L4.65234 169.49Z" fill="#E9E8EF"/>
<path d="M4.65234 167.044L4.65234 167.429L8.89584 167.429L8.89584 167.044L4.65234 167.044Z" fill="#E9E8EF"/>
<path d="M4.65234 164.599L4.65234 164.983L8.89584 164.983L8.89584 164.599L4.65234 164.599Z" fill="#E9E8EF"/>
<path d="M4.65234 162.153L4.65234 162.538L8.89584 162.538L8.89584 162.153L4.65234 162.153Z" fill="#E9E8EF"/>
<path d="M0.410156 159.514L0.410156 160.287L8.89716 160.287L8.89716 159.514L0.410156 159.514Z" fill="#E9E8EF"/>
<path d="M4.65234 157.263L4.65234 157.647L8.89584 157.647L8.89584 157.263L4.65234 157.263Z" fill="#E9E8EF"/>
<path d="M4.65234 154.817L4.65234 155.202L8.89584 155.202L8.89584 154.817L4.65234 154.817Z" fill="#E9E8EF"/>
<path d="M4.65234 152.372L4.65234 152.756L8.89584 152.756L8.89584 152.372L4.65234 152.372Z" fill="#E9E8EF"/>
<path d="M4.65234 149.926L4.65234 150.311L8.89584 150.311L8.89584 149.926L4.65234 149.926Z" fill="#E9E8EF"/>
<path d="M0.410156 147.287L0.410156 148.06L8.89716 148.06L8.89716 147.287L0.410156 147.287Z" fill="#E9E8EF"/>
<path d="M0.410156 147.287L0.410156 148.06L8.89716 148.06L8.89716 147.287L0.410156 147.287Z" fill="#E9E8EF"/>
<path d="M4.65234 145.035L4.65234 145.42L8.89584 145.42L8.89584 145.035L4.65234 145.035Z" fill="#E9E8EF"/>
<path d="M4.65234 142.59L4.65234 142.974L8.89584 142.974L8.89584 142.59L4.65234 142.59Z" fill="#E9E8EF"/>
<path d="M4.65234 140.144L4.65234 140.529L8.89584 140.529L8.89584 140.144L4.65234 140.144Z" fill="#E9E8EF"/>
<path d="M4.65234 137.699L4.65234 138.083L8.89584 138.083L8.89584 137.699L4.65234 137.699Z" fill="#E9E8EF"/>
<path d="M0.410156 135.06L0.410156 135.832L8.89716 135.832L8.89716 135.06L0.410156 135.06Z" fill="#E9E8EF"/>
<path d="M4.65234 132.808L4.65234 133.193L8.89584 133.193L8.89584 132.808L4.65234 132.808Z" fill="#E9E8EF"/>
<path d="M4.65234 130.363L4.65234 130.747L8.89584 130.747L8.89584 130.363L4.65234 130.363Z" fill="#E9E8EF"/>
<path d="M4.65234 127.917L4.65234 128.302L8.89584 128.302L8.89584 127.917L4.65234 127.917Z" fill="#E9E8EF"/>
<path d="M4.65234 125.472L4.65234 125.856L8.89584 125.856L8.89584 125.472L4.65234 125.472Z" fill="#E9E8EF"/>
<path d="M0.410156 122.832L0.410156 123.605L8.89716 123.605L8.89716 122.832L0.410156 122.832Z" fill="#E9E8EF"/>
<path d="M0.410156 122.832L0.410156 123.605L8.89716 123.605L8.89716 122.832L0.410156 122.832Z" fill="#E9E8EF"/>
<path d="M4.65234 120.581L4.65234 120.965L8.89584 120.965L8.89584 120.581L4.65234 120.581Z" fill="#E9E8EF"/>
<path d="M4.65234 118.135L4.65234 118.52L8.89584 118.52L8.89584 118.135L4.65234 118.135Z" fill="#E9E8EF"/>
<path d="M4.65234 115.69L4.65234 116.075L8.89584 116.075L8.89584 115.69L4.65234 115.69Z" fill="#E9E8EF"/>
<path d="M4.65234 113.244L4.65234 113.629L8.89584 113.629L8.89584 113.244L4.65234 113.244Z" fill="#E9E8EF"/>
<path d="M0.410156 110.605L0.410156 111.378L8.89716 111.378L8.89716 110.605L0.410156 110.605Z" fill="#E9E8EF"/>
<path d="M4.65234 108.354L4.65234 108.738L8.89584 108.738L8.89584 108.354L4.65234 108.354Z" fill="#E9E8EF"/>
<path d="M4.65234 105.908L4.65234 106.293L8.89584 106.293L8.89584 105.908L4.65234 105.908Z" fill="#E9E8EF"/>
<path d="M4.65234 103.463L4.65234 103.847L8.89584 103.847L8.89584 103.463L4.65234 103.463Z" fill="#E9E8EF"/>
<path d="M4.65234 101.017L4.65234 101.402L8.89584 101.402L8.89584 101.017L4.65234 101.017Z" fill="#E9E8EF"/>
</g>
<defs>
<clipPath id="clip0_320_5702">
<rect width="196.772" height="8.487" fill="white" transform="translate(0.410156 196.968) rotate(-90)"/>
</clipPath>
</defs>
</svg>
