<svg width="9" height="148" viewBox="0 0 9 148" fill="none" xmlns="http://www.w3.org/2000/svg">
<g clip-path="url(#clip0_493_14712)">
<path d="M8.78125 73.4664L8.78125 74.0439L0.294249 74.0439L0.294249 73.4664L8.78125 73.4664Z" fill="#E9E8EF"/>
<path d="M4.53906 71.7809L4.53906 72.0684L0.295562 72.0684L0.295562 71.7809L4.53906 71.7809Z" fill="#E9E8EF"/>
<path d="M4.53906 69.9557L4.53906 70.2432L0.295562 70.2432L0.295562 69.9557L4.53906 69.9557Z" fill="#E9E8EF"/>
<path d="M4.53906 68.1286L4.53906 68.416L0.295562 68.416L0.295562 68.1286L4.53906 68.1286Z" fill="#E9E8EF"/>
<path d="M4.53906 66.3005L4.53906 66.5879L0.295562 66.5879L0.295562 66.3005L4.53906 66.3005Z" fill="#E9E8EF"/>
<path d="M8.78125 64.3277L8.78125 64.9053L0.294249 64.9053L0.294249 64.3277L8.78125 64.3277Z" fill="#E9E8EF"/>
<path d="M4.53906 62.6423L4.53906 62.9297L0.295562 62.9297L0.295562 62.6423L4.53906 62.6423Z" fill="#E9E8EF"/>
<path d="M4.53906 60.8171L4.53906 61.1045L0.295562 61.1045L0.295562 60.8171L4.53906 60.8171Z" fill="#E9E8EF"/>
<path d="M4.53906 58.9899L4.53906 59.2773L0.295562 59.2773L0.295562 58.9899L4.53906 58.9899Z" fill="#E9E8EF"/>
<path d="M4.53906 57.1618L4.53906 57.4492L0.295562 57.4492L0.295562 57.1618L4.53906 57.1618Z" fill="#E9E8EF"/>
<path d="M8.78125 55.1891L8.78125 55.7666L0.294249 55.7666L0.294249 55.1891L8.78125 55.1891Z" fill="#E9E8EF"/>
<path d="M8.78125 55.1891L8.78125 55.7666L0.294249 55.7666L0.294249 55.1891L8.78125 55.1891Z" fill="#E9E8EF"/>
<path d="M4.53906 53.5036L4.53906 53.791L0.295562 53.791L0.295562 53.5036L4.53906 53.5036Z" fill="#E9E8EF"/>
<path d="M4.53906 51.6784L4.53906 51.9658L0.295562 51.9658L0.295562 51.6784L4.53906 51.6784Z" fill="#E9E8EF"/>
<path d="M4.53906 49.8513L4.53906 50.1387L0.295562 50.1387L0.295562 49.8513L4.53906 49.8513Z" fill="#E9E8EF"/>
<path d="M4.53906 48.0231L4.53906 48.3105L0.295562 48.3105L0.295562 48.0231L4.53906 48.0231Z" fill="#E9E8EF"/>
<path d="M8.78125 46.0504L8.78125 46.6279L0.294249 46.6279L0.294249 46.0504L8.78125 46.0504Z" fill="#E9E8EF"/>
<path d="M4.53906 44.3678L4.53906 44.6553L0.295562 44.6553L0.295562 44.3678L4.53906 44.3678Z" fill="#E9E8EF"/>
<path d="M4.53906 42.5397L4.53906 42.8271L0.295562 42.8271L0.295562 42.5397L4.53906 42.5397Z" fill="#E9E8EF"/>
<path d="M4.53906 40.7116L4.53906 40.999L0.295562 40.999L0.295562 40.7116L4.53906 40.7116Z" fill="#E9E8EF"/>
<path d="M4.53906 38.8845L4.53906 39.1719L0.295562 39.1719L0.295562 38.8845L4.53906 38.8845Z" fill="#E9E8EF"/>
<path d="M8.78125 36.9117L8.78125 37.4893L0.294249 37.4893L0.294249 36.9117L8.78125 36.9117Z" fill="#E9E8EF"/>
<path d="M8.78125 36.9117L8.78125 37.4893L0.294249 37.4893L0.294249 36.9117L8.78125 36.9117Z" fill="#E9E8EF"/>
<path d="M4.53906 35.2292L4.53906 35.5166L0.295562 35.5166L0.295562 35.2292L4.53906 35.2292Z" fill="#E9E8EF"/>
<path d="M4.53906 33.4011L4.53906 33.6885L0.295562 33.6885L0.295562 33.4011L4.53906 33.4011Z" fill="#E9E8EF"/>
<path d="M4.53906 31.5729L4.53906 31.8604L0.295562 31.8604L0.295562 31.5729L4.53906 31.5729Z" fill="#E9E8EF"/>
<path d="M4.53906 29.7458L4.53906 30.0332L0.295562 30.0332L0.295562 29.7458L4.53906 29.7458Z" fill="#E9E8EF"/>
<path d="M8.78125 27.7731L8.78125 28.3506L0.294249 28.3506L0.294249 27.7731L8.78125 27.7731Z" fill="#E9E8EF"/>
<path d="M4.53906 26.0905L4.53906 26.3779L0.295562 26.3779L0.295562 26.0905L4.53906 26.0905Z" fill="#E9E8EF"/>
<path d="M4.53906 24.2624L4.53906 24.5498L0.295562 24.5498L0.295562 24.2624L4.53906 24.2624Z" fill="#E9E8EF"/>
<path d="M4.53906 22.4343L4.53906 22.7217L0.295562 22.7217L0.295562 22.4343L4.53906 22.4343Z" fill="#E9E8EF"/>
<path d="M4.53906 20.6071L4.53906 20.8945L0.295562 20.8945L0.295562 20.6071L4.53906 20.6071Z" fill="#E9E8EF"/>
<path d="M8.78125 18.6344L8.78125 19.2119L0.294249 19.2119L0.294249 18.6344L8.78125 18.6344Z" fill="#E9E8EF"/>
<path d="M8.78125 18.6344L8.78125 19.2119L0.294249 19.2119L0.294249 18.6344L8.78125 18.6344Z" fill="#E9E8EF"/>
<path d="M4.53906 16.9509L4.53906 17.2383L0.295562 17.2383L0.295562 16.9509L4.53906 16.9509Z" fill="#E9E8EF"/>
<path d="M4.53906 15.1237L4.53906 15.4111L0.295562 15.4111L0.295562 15.1237L4.53906 15.1237Z" fill="#E9E8EF"/>
<path d="M4.53906 13.2956L4.53906 13.583L0.295562 13.583L0.295562 13.2956L4.53906 13.2956Z" fill="#E9E8EF"/>
<path d="M4.53906 11.4684L4.53906 11.7559L0.295562 11.7559L0.295562 11.4684L4.53906 11.4684Z" fill="#E9E8EF"/>
<path d="M8.78125 9.49572L8.78125 10.0732L0.294249 10.0732L0.294249 9.49572L8.78125 9.49572Z" fill="#E9E8EF"/>
<path d="M4.53906 7.81218L4.53906 8.09961L0.295562 8.09961L0.295562 7.81218L4.53906 7.81218Z" fill="#E9E8EF"/>
<path d="M4.53906 5.98505L4.53906 6.27246L0.295562 6.27246L0.295562 5.98505L4.53906 5.98505Z" fill="#E9E8EF"/>
<path d="M4.53906 4.15691L4.53906 4.44434L0.295562 4.44434L0.295562 4.15691L4.53906 4.15691Z" fill="#E9E8EF"/>
<path d="M4.53906 2.32879L4.53906 2.61621L0.295562 2.61621L0.295562 2.32879L4.53906 2.32879Z" fill="#E9E8EF"/>
<path d="M8.78125 146.848L8.78125 147.426L0.294249 147.426L0.294249 146.848L8.78125 146.848Z" fill="#E9E8EF"/>
<path d="M4.53906 145.166L4.53906 145.453L0.295562 145.453L0.295562 145.166L4.53906 145.166Z" fill="#E9E8EF"/>
<path d="M4.53906 143.338L4.53906 143.625L0.295562 143.625L0.295562 143.338L4.53906 143.338Z" fill="#E9E8EF"/>
<path d="M4.53906 141.51L4.53906 141.798L0.295562 141.798L0.295562 141.51L4.53906 141.51Z" fill="#E9E8EF"/>
<path d="M4.53906 139.682L4.53906 139.97L0.295562 139.97L0.295562 139.682L4.53906 139.682Z" fill="#E9E8EF"/>
<path d="M8.78125 137.71L8.78125 138.287L0.294249 138.287L0.294249 137.71L8.78125 137.71Z" fill="#E9E8EF"/>
<path d="M4.53906 136.027L4.53906 136.314L0.295562 136.314L0.295562 136.027L4.53906 136.027Z" fill="#E9E8EF"/>
<path d="M4.53906 134.199L4.53906 134.486L0.295562 134.486L0.295562 134.199L4.53906 134.199Z" fill="#E9E8EF"/>
<path d="M4.53906 132.371L4.53906 132.658L0.295562 132.658L0.295562 132.371L4.53906 132.371Z" fill="#E9E8EF"/>
<path d="M4.53906 130.544L4.53906 130.831L0.295562 130.831L0.295562 130.544L4.53906 130.544Z" fill="#E9E8EF"/>
<path d="M8.78125 128.571L8.78125 129.148L0.294249 129.148L0.294249 128.571L8.78125 128.571Z" fill="#E9E8EF"/>
<path d="M8.78125 128.571L8.78125 129.148L0.294249 129.148L0.294249 128.571L8.78125 128.571Z" fill="#E9E8EF"/>
<path d="M4.53906 126.888L4.53906 127.176L0.295562 127.176L0.295562 126.888L4.53906 126.888Z" fill="#E9E8EF"/>
<path d="M4.53906 125.06L4.53906 125.348L0.295562 125.348L0.295562 125.06L4.53906 125.06Z" fill="#E9E8EF"/>
<path d="M4.53906 123.232L4.53906 123.52L0.295562 123.52L0.295562 123.232L4.53906 123.232Z" fill="#E9E8EF"/>
<path d="M4.53906 121.405L4.53906 121.692L0.295562 121.692L0.295562 121.405L4.53906 121.405Z" fill="#E9E8EF"/>
<path d="M8.78125 119.432L8.78125 120.01L0.294249 120.01L0.294249 119.432L8.78125 119.432Z" fill="#E9E8EF"/>
<path d="M4.53906 117.749L4.53906 118.036L0.295562 118.036L0.295562 117.749L4.53906 117.749Z" fill="#E9E8EF"/>
<path d="M4.53906 115.922L4.53906 116.209L0.295562 116.209L0.295562 115.922L4.53906 115.922Z" fill="#E9E8EF"/>
<path d="M4.53906 114.093L4.53906 114.381L0.295562 114.381L0.295562 114.093L4.53906 114.093Z" fill="#E9E8EF"/>
<path d="M4.53906 112.266L4.53906 112.554L0.295562 112.554L0.295562 112.266L4.53906 112.266Z" fill="#E9E8EF"/>
<path d="M8.78125 110.294L8.78125 110.871L0.294249 110.871L0.294249 110.294L8.78125 110.294Z" fill="#E9E8EF"/>
<path d="M8.78125 110.294L8.78125 110.871L0.294249 110.871L0.294249 110.294L8.78125 110.294Z" fill="#E9E8EF"/>
<path d="M4.53906 108.61L4.53906 108.897L0.295562 108.897L0.295562 108.61L4.53906 108.61Z" fill="#E9E8EF"/>
<path d="M4.53906 106.783L4.53906 107.07L0.295562 107.07L0.295562 106.783L4.53906 106.783Z" fill="#E9E8EF"/>
<path d="M4.53906 104.955L4.53906 105.242L0.295562 105.242L0.295562 104.955L4.53906 104.955Z" fill="#E9E8EF"/>
<path d="M4.53906 103.128L4.53906 103.415L0.295562 103.415L0.295562 103.128L4.53906 103.128Z" fill="#E9E8EF"/>
<path d="M8.78125 101.155L8.78125 101.732L0.294249 101.732L0.294249 101.155L8.78125 101.155Z" fill="#E9E8EF"/>
<path d="M4.53906 99.4714L4.53906 99.7588L0.295562 99.7588L0.295562 99.4714L4.53906 99.4714Z" fill="#E9E8EF"/>
<path d="M4.53906 97.6442L4.53906 97.9316L0.295562 97.9316L0.295562 97.6442L4.53906 97.6442Z" fill="#E9E8EF"/>
<path d="M4.53906 95.8161L4.53906 96.1035L0.295562 96.1035L0.295562 95.8161L4.53906 95.8161Z" fill="#E9E8EF"/>
<path d="M4.53906 93.988L4.53906 94.2754L0.295562 94.2754L0.295562 93.988L4.53906 93.988Z" fill="#E9E8EF"/>
<path d="M8.78125 92.0152L8.78125 92.5928L0.294249 92.5928L0.294249 92.0152L8.78125 92.0152Z" fill="#E9E8EF"/>
<path d="M8.78125 92.0152L8.78125 92.5928L0.294249 92.5928L0.294249 92.0152L8.78125 92.0152Z" fill="#E9E8EF"/>
<path d="M4.53906 90.3327L4.53906 90.6201L0.295562 90.6201L0.295562 90.3327L4.53906 90.3327Z" fill="#E9E8EF"/>
<path d="M4.53906 88.5055L4.53906 88.793L0.295562 88.793L0.295562 88.5055L4.53906 88.5055Z" fill="#E9E8EF"/>
<path d="M4.53906 86.6774L4.53906 86.9648L0.295562 86.9648L0.295562 86.6774L4.53906 86.6774Z" fill="#E9E8EF"/>
<path d="M4.53906 84.8493L4.53906 85.1367L0.295562 85.1367L0.295562 84.8493L4.53906 84.8493Z" fill="#E9E8EF"/>
<path d="M8.78125 82.8766L8.78125 83.4541L0.294249 83.4541L0.294249 82.8766L8.78125 82.8766Z" fill="#E9E8EF"/>
<path d="M4.53906 81.194L4.53906 81.4814L0.295562 81.4814L0.295562 81.194L4.53906 81.194Z" fill="#E9E8EF"/>
<path d="M4.53906 79.3659L4.53906 79.6533L0.295562 79.6533L0.295562 79.3659L4.53906 79.3659Z" fill="#E9E8EF"/>
<path d="M4.53906 77.5387L4.53906 77.8262L0.295562 77.8262L0.295562 77.5387L4.53906 77.5387Z" fill="#E9E8EF"/>
<path d="M4.53906 75.7106L4.53906 75.998L0.295562 75.998L0.295562 75.7106L4.53906 75.7106Z" fill="#E9E8EF"/>
</g>
<defs>
<clipPath id="clip0_493_14712">
<rect width="147.07" height="8.487" fill="white" transform="matrix(5.84837e-08 -1 -1 -3.26704e-08 8.78125 147.426)"/>
</clipPath>
</defs>
</svg>
