<svg width="798" height="800" viewBox="0 0 798 800" fill="none" xmlns="http://www.w3.org/2000/svg">
<path fill-rule="evenodd" clip-rule="evenodd" d="M64.1128 0.0101928L63.1109 799.977L62.1094 799.977L63.1113 0.0101928L64.1128 0.0101928Z" fill="#E9E8EF"/>
<path fill-rule="evenodd" clip-rule="evenodd" d="M291.113 0.0101928L290.111 799.977L289.109 799.977L290.111 0.0101928L291.113 0.0101928Z" fill="#E9E8EF"/>
<path fill-rule="evenodd" clip-rule="evenodd" d="M518.121 0.0101928L517.119 799.977L516.117 799.977L517.119 0.0101928L518.121 0.0101928Z" fill="#E9E8EF"/>
<path fill-rule="evenodd" clip-rule="evenodd" d="M745.48 0.0101928L744.302 799.977L743.125 799.977L744.303 0.0101928L745.48 0.0101928Z" fill="#E9E8EF"/>
<path fill-rule="evenodd" clip-rule="evenodd" d="M797.478 628.032L0.4375 626.853L0.4375 625.676L797.478 626.855L797.478 628.032Z" fill="#E9E8EF"/>
<path fill-rule="evenodd" clip-rule="evenodd" d="M797.478 400.676L0.4375 399.497L0.4375 398.32L797.478 399.499L797.478 400.676Z" fill="#E9E8EF"/>
<path fill-rule="evenodd" clip-rule="evenodd" d="M797.478 173.321L0.4375 172.142L0.4375 170.965L797.478 172.144L797.478 173.321Z" fill="#E9E8EF"/>
</svg>
