<svg width="93" height="68" viewBox="0 0 93 68" fill="none" xmlns="http://www.w3.org/2000/svg">
<circle cx="46.559" cy="33.9515" r="32.7113" fill="#181818"/>
<path d="M76.5351 21.6505C71.5199 9.43829 59.7531 1.54928 46.5595 1.54928C33.3658 1.54928 21.599 9.4408 16.5813 21.6505L15.8867 21.3636C21.0177 8.86958 33.0563 0.796875 46.5595 0.796875C60.0626 0.796875 72.1012 8.86958 77.2322 21.3636L76.5377 21.6505H76.5351Z" fill="white"/>
<path d="M46.5595 67.0997C33.0588 67.0997 21.0202 59.027 15.8867 46.533L16.5813 46.2461C21.599 58.4583 33.3658 66.3473 46.5595 66.3473C59.7531 66.3473 71.5224 58.4583 76.5351 46.2461L77.2297 46.533C72.0987 59.027 60.0576 67.0997 46.5569 67.0997H46.5595Z" fill="white"/>
<path d="M38.5 31.6035H36.5469V30.627H41.4297V31.6035H39.4766V37.4629H38.5V31.6035ZM47.3242 31.6035H45.3711V32.0918H44.8828V35.998H45.3711V36.4863H47.3242V35.998H47.8125V32.0918H47.3242V31.6035ZM44.8828 31.1152V30.627H47.8125V31.1152H48.3008V31.6035H48.7891V36.4863H48.3008V36.9746H47.8125V37.4629H44.8828V36.9746H44.3945V36.4863H43.9062V31.6035H44.3945V31.1152H44.8828ZM52.2422 31.6035V33.5566H54.6836V33.0684H55.1719V32.0918H54.6836V31.6035H52.2422ZM52.2422 34.5332V37.4629H51.2656V30.627H55.1719V31.1152H55.6602V31.6035H56.1484V33.5566H55.6602V34.0449H55.1719V34.5332H52.2422Z" fill="white"/>
<path d="M92.4383 33.5742H72.0352V34.3266H92.4383V33.5742Z" fill="white"/>
<path d="M21.0829 33.5742H0.679688V34.3266H21.0829V33.5742Z" fill="white"/>
</svg>
