<svg width="11" height="13" viewBox="0 0 11 13" fill="none" xmlns="http://www.w3.org/2000/svg">
<path d="M10.9165 3.58088C10.9106 3.3337 10.8928 3.08703 10.8634 2.84182C10.8238 2.62705 10.7578 2.41896 10.6671 2.22307C10.5722 2.01058 10.4448 1.81689 10.2902 1.65016C10.1342 1.48528 9.95506 1.348 9.75941 1.24339C9.57769 1.1474 9.3849 1.07803 9.18616 1.03714C8.96114 1.00076 8.73422 0.979713 8.50675 0.974121L2.71586 0.974121C2.48687 0.980559 2.25833 0.999681 2.03115 1.03141C1.83217 1.07419 1.63938 1.14548 1.4579 1.24339C1.26103 1.34579 1.08158 1.48331 0.92711 1.65016C0.774352 1.81854 0.647168 2.01189 0.550251 2.22307C0.461315 2.41922 0.397052 2.62731 0.359168 2.84182C0.325463 3.0847 0.305962 3.32962 0.300781 3.57515C0.300781 3.684 0.300781 3.83869 0.300781 3.88452L0.300781 9.52198C0.300781 9.585 0.300781 9.7225 0.300781 9.82563C0.306745 10.0728 0.324462 10.3195 0.35386 10.5647C0.393493 10.7795 0.459541 10.9875 0.550251 11.1834C0.645122 11.3959 0.77253 11.5896 0.92711 11.7563C1.08311 11.9212 1.26225 12.0585 1.4579 12.1631C1.63962 12.2591 1.83241 12.3285 2.03115 12.3694C2.25617 12.4057 2.48308 12.4268 2.71055 12.4324L8.50144 12.4324C8.73044 12.4259 8.95898 12.4068 9.18616 12.3751C9.38514 12.3323 9.57793 12.261 9.75941 12.1631C9.95627 12.0607 10.1357 11.9232 10.2902 11.7563C10.443 11.588 10.5701 11.3946 10.6671 11.1834C10.756 10.9873 10.8203 10.7792 10.8581 10.5647C10.8918 10.3218 10.9113 10.0769 10.9165 9.83136C10.9165 9.7225 10.9165 9.585 10.9165 9.52198L10.9165 3.88452C10.9165 3.83869 10.9165 3.684 10.9165 3.58088ZM5.73073 10.7136C5.09329 10.7102 4.467 10.5329 3.91013 10.198L1.89314 10.7709L2.42393 8.6397C2.08163 8.01892 1.89844 7.31105 1.89314 6.58867C1.89526 5.77681 2.1199 4.98378 2.53877 4.30945C2.95765 3.63513 3.55202 3.10967 4.24704 2.79926C4.94206 2.48885 5.70663 2.40736 6.44448 2.56507C7.18232 2.72277 7.86042 3.11261 8.39339 3.68549C8.92636 4.25837 9.29035 4.98867 9.43953 5.78441C9.5887 6.58014 9.51639 7.40573 9.23169 8.15719C8.947 8.90866 8.46265 9.55239 7.83966 10.0073C7.21666 10.4622 6.48288 10.708 5.73073 10.7136ZM5.73073 3.19129C5.168 3.19825 4.61702 3.36602 4.13389 3.67755C3.65076 3.98907 3.25274 4.43321 2.98035 4.96476C2.70796 5.4963 2.57093 6.09626 2.58321 6.70355C2.59549 7.31085 2.75664 7.90378 3.05026 8.42199L3.12457 8.55376L2.8061 9.80844L4.01629 9.45323L4.13306 9.52771C4.61585 9.83466 5.16513 9.99868 5.72543 10.0032C6.57007 10.0032 7.38011 9.64107 7.97736 8.99642C8.57462 8.35176 8.91015 7.47743 8.91015 6.56575C8.91015 5.65408 8.57462 4.77974 7.97736 4.13509C7.38011 3.49044 6.57007 3.12827 5.72543 3.12827L5.73073 3.19129ZM7.58849 8.07251C7.51897 8.19768 7.42588 8.30569 7.31525 8.38958C7.20461 8.47346 7.0789 8.53135 6.94624 8.55949C6.74801 8.5986 6.54393 8.58483 6.35175 8.51939C6.17094 8.45837 5.99369 8.38567 5.82097 8.30168C5.16478 7.94628 4.60517 7.41332 4.19676 6.75481C3.97483 6.44972 3.84017 6.08138 3.80928 5.69492C3.80612 5.53439 3.83426 5.37493 3.89187 5.22688C3.94947 5.07884 4.03527 4.94551 4.14368 4.83555C4.17561 4.79648 4.21479 4.76506 4.25868 4.74335C4.30256 4.72164 4.35018 4.71011 4.39846 4.70951L4.54708 4.70951C4.60546 4.70951 4.68508 4.70951 4.75939 4.88712C4.8337 5.06472 5.03009 5.59753 5.05663 5.64909C5.06968 5.67658 5.07648 5.70701 5.07648 5.73789C5.07648 5.76877 5.06968 5.79921 5.05663 5.82669C5.03317 5.88895 5.00094 5.94692 4.96109 5.99857C4.91332 6.06159 4.86024 6.13607 4.81778 6.1819C4.77532 6.22773 4.72224 6.28503 4.77532 6.38815C4.91974 6.65123 5.0985 6.89048 5.3061 7.09856C5.53218 7.31418 5.79066 7.48662 6.07044 7.60845C6.16598 7.66002 6.22437 7.65429 6.27744 7.60845C6.33052 7.56262 6.5163 7.31054 6.57999 7.20742C6.64369 7.10429 6.70738 7.12148 6.79231 7.15585C6.87723 7.19023 7.34963 7.43658 7.44518 7.48814C7.54072 7.5397 7.5991 7.56262 7.62564 7.60845C7.64866 7.7584 7.63587 7.9122 7.58849 8.05533V8.07251Z" fill="white"/>
</svg>
